<svg xmlns="http://www.w3.org/2000/svg" xml:space="preserve" style="enable-background:new 0 0 512 512" viewBox="0 0 512 512">
  <g id="_x35_0_Broken_Heart">
    <g>
      <path d="M219.914,423.154l5.8-7.185l29.785-36.922l-38.588-32.365l-12.913-10.835l8.734-14.505
			l39.248-65.191l-32.386-18.875l-25.392-14.799l23.394-17.867l59.896-45.747l-62.001-63.538l-9.884-10.121l6.441-12.667
			l9.704-19.083c-19.875-18.669-43.911-27.515-71.682-27.618c-32.252-0.055-63.567,12.35-87.494,33.961
			c-65.772,59.598-64.229,158.835-20.73,240.265c20.178,37.875,47.689,71.285,79.169,100.45
			c26.794,24.809,55.959,49.342,87.384,73.6c7.327,5.653,15.498,9.628,24.009,12.052l-10.69-53.897L219.914,423.154z" style="fill:#9a88fb"/>
      <path d="M497.51,138.801C480.805,55.993,394.138,10.399,314.858,39.564
			c-1.599,0.606-3.143,1.213-4.686,1.819c-16.926,7.057-31.205,17.642-42.396,32.472c-2.7,3.618-5.222,7.481-7.558,11.601
			l60.274,61.767l15.577,15.953l-17.682,13.509l-54.184,41.388l24.205,14.109l17.211,10.031l-10.349,17.191l-40.863,67.877
			l40.505,33.968l14.83,12.437l-12.191,15.104l-36.175,44.841l10.419,52.52c9.132-2.618,17.847-7.05,25.533-13.363
			c52.651-43.113,100.174-86.777,138.601-131.213c16.981-19.683,33.63-49.012,45.759-79.225
			c9.814-24.534,16.76-49.673,18.414-70.679c0.221-2.426,0.331-4.797,0.441-7.112C501.369,168.075,500.321,152.859,497.51,138.801z" style="fill:#9a88fb"/>
      <path d="M177.248,133.062l-72.523,72.523c-2.143,2.143-5.141,3.258-8.151,2.906
			c-19.364-2.265-34.731-17.631-36.995-36.995c-0.352-3.01,0.763-6.008,2.906-8.151l72.523-72.523
			c2.143-2.143,5.141-3.258,8.151-2.906c19.364,2.265,34.731,17.631,36.995,36.995C180.506,127.921,179.391,130.919,177.248,133.062
			z" style="fill:#fff"/>
      <path d="M135.007,205.585l-72.523-72.523c-2.143-2.143-3.258-5.141-2.906-8.151
			c2.265-19.364,17.631-34.731,36.995-36.995c3.01-0.352,6.008,0.763,8.151,2.906l72.523,72.523
			c2.143,2.143,3.258,5.141,2.906,8.151c-2.265,19.364-17.631,34.731-36.995,36.995C140.149,208.843,137.15,207.728,135.007,205.585
			z" style="fill:#fff"/>
      <path d="M439.152,226.181l-65.811,65.811c-1.944,1.944-4.666,2.956-7.397,2.637
			c-17.572-2.055-31.516-16-33.571-33.571c-0.319-2.731,0.693-5.452,2.637-7.397l65.811-65.811c1.944-1.944,4.665-2.956,7.397-2.637
			c17.572,2.055,31.516,16,33.571,33.571C442.108,221.515,441.097,224.236,439.152,226.181z" style="fill:#fbecb3"/>
      <path d="M400.821,291.992l-65.811-65.811c-1.944-1.944-2.956-4.666-2.637-7.397
			c2.055-17.572,16-31.516,33.571-33.571c2.731-0.319,5.452,0.693,7.397,2.637l65.811,65.811c1.944,1.944,2.956,4.666,2.637,7.397
			c-2.055,17.572-16,31.516-33.571,33.571C405.486,294.948,402.765,293.936,400.821,291.992z" style="fill:#fbecb3"/>
      <path d="M225.166,424.449l34.148-42.325c1.675-2.077,1.383-5.115-0.665-6.832l-48.291-40.506l45.817-76.109
			c0.679-1.124,0.876-2.469,0.55-3.742c-0.325-1.268-1.148-2.359-2.277-3.019l-51.458-29.985l77.477-59.176
			c1.115-0.852,1.809-2.139,1.909-3.541c0.105-1.397-0.397-2.77-1.378-3.775l-69.434-71.147l14.555-28.621
			c0.986-1.943,0.574-4.301-1.014-5.789c-20.33-19.095-45.569-28.837-75.027-28.947c-0.077,0-0.144,0-0.22,0
			c-33.253,0-65.41,12.507-90.572,35.229C-12.064,120.814-3.054,226.4,37.519,302.361c36.609,68.716,95.896,120.059,167.887,175.633
			c7.608,5.866,16.239,10.201,25.66,12.885c1.693,0.473,3.436,0.023,4.665-1.11c1.254-1.158,1.818-2.88,1.483-4.555L225.166,424.449
			z M211.391,470.233c-69.196-53.415-129.179-104.838-165.227-172.48C7.381,225.142-1.571,124.527,65.858,63.432
			c23.354-21.091,53.176-32.698,83.989-32.698c0.067,0,0.134,0,0.201,0c25.966,0.1,47.478,7.899,65.64,23.832l-14.449,28.416
			c-0.952,1.871-0.603,4.139,0.861,5.641l68.023,69.702l-78.893,60.257c-1.301,0.995-2.019,2.569-1.919,4.201
			s1.01,3.105,2.421,3.928l53.487,31.172l-45.415,75.439c-1.244,2.067-0.799,4.732,1.048,6.282l47.817,40.109l-32.564,40.358
			c-0.914,1.129-1.277,2.608-1,4.033l10.832,54.602C220.717,476.506,215.846,473.673,211.391,470.233z" style="fill:#3a4b81"/>
      <path d="M433.98 43.978c-36.776-20.55-81.646-24.528-125.691-7.115-22.504 9.379-40.132 24.678-52.334 46.176-1.077 1.899-.766 4.277.756 5.837l71.984 73.764-67.468 51.54c-1.297.995-2.014 2.569-1.914 4.201.1 1.632 1.01 3.105 2.421 3.928l37.124 21.636-48.65 80.812c-1.244 2.067-.799 4.732 1.048 6.282l51.65 43.31-45.344 56.205c-.909 1.129-1.273 2.608-.99 4.029l10.416 52.521c.263 1.344 1.081 2.517 2.254 3.23 1.162.71 2.581.909 3.899.526 10.091-2.89 19.272-7.698 27.291-14.282 58.162-47.631 103.697-90.74 139.203-131.801 30.72-35.609 63.087-105.378 65.803-159.973C508.796 117.336 480.35 69.893 433.98 43.978zM495.625 184.779c-1.215 25.459-8.903 51.786-18.483 75.745-12.301 30.641-28.674 59.018-44.923 77.845C397.086 379 351.948 421.727 294.217 469.003c-5.612 4.608-11.885 8.22-18.698 10.765l-8.89-44.846 46.923-58.162c1.675-2.077 1.383-5.115-.665-6.832l-52.123-43.707 49.052-81.482c.679-1.124.876-2.469.55-3.742-.325-1.273-1.148-2.359-2.277-3.019l-35.095-20.454 66.051-50.454c1.115-.852 1.809-2.139 1.909-3.541.105-1.397-.402-2.775-1.378-3.775l-73.233-75.042c10.879-17.802 25.97-30.574 45.631-38.77 41.075-16.274 82.974-12.558 117.228 6.588C472.546 76.757 498.832 120.568 495.625 184.779zM185.019 124.34c-2.545-21.765-19.526-38.746-41.296-41.291-4.488-.541-8.919 1.048-12.182 4.306l-11.677 11.677L108.183 87.35c-3.258-3.249-7.698-4.837-12.177-4.301C74.241 85.59 57.26 102.57 54.71 124.345c-.522 4.483 1.053 8.923 4.311 12.182l11.676 11.677L59.021 159.88c-3.258 3.258-4.832 7.698-4.311 12.186 2.55 21.77 19.531 38.75 41.301 41.291 4.31.511 8.807-.941 12.177-4.306l11.677-11.677 11.677 11.677c0 0 0 .005.005.005 3.36 3.355 7.855 4.815 12.182 4.301 21.765-2.545 38.746-19.526 41.291-41.286.526-4.483-1.043-8.928-4.306-12.191l-11.677-11.677 11.677-11.677C183.975 133.263 185.545 128.818 185.019 124.34zM101.264 202.118c-1.115 1.11-2.651 1.66-4.12 1.507-17.234-2.014-30.684-15.459-32.703-32.693-.167-1.469.392-3.01 1.507-4.124l11.676-11.677 35.312 35.315L101.264 202.118zM173.784 166.808c1.115 1.115 1.675 2.651 1.502 4.12-2.014 17.239-15.459 30.684-32.693 32.698-1.493.158-3.014-.397-4.129-1.507l-72.515-72.52c-1.115-1.115-1.675-2.655-1.507-4.12 2.019-17.239 15.469-30.684 32.698-32.698 1.435-.172 3.005.392 4.12 1.502L173.784 166.808zM173.784 129.598l-11.677 11.677-35.315-35.315 11.671-11.673c.986-.981 2.301-1.536 3.608-1.536.172 0 .344.01.517.029 17.239 2.014 30.684 15.459 32.698 32.703C175.459 126.948 174.899 128.483 173.784 129.598z" style="fill:#3a4b81"/>
      <path d="M446.655,218.214c-2.33-19.961-17.904-35.535-37.865-37.865c-4.196-0.502-8.421,1.024-11.43,4.038
			l-10.277,10.277l-10.273-10.273c-3.057-3.062-7.206-4.526-11.435-4.043c-19.961,2.33-35.535,17.904-37.865,37.865
			c-0.493,4.21,0.981,8.378,4.038,11.43l10.277,10.277l-10.273,10.273c-3.019,3.01-4.531,7.287-4.043,11.43
			c2.33,19.966,17.904,35.54,37.865,37.87c4.055,0.493,8.375-0.983,11.43-4.038l10.277-10.277l10.277,10.277
			c3.121,3.121,7.467,4.519,11.426,4.038c19.966-2.33,35.54-17.904,37.87-37.865c0.488-4.143-1.024-8.416-4.038-11.43
			l-10.277-10.277l10.277-10.277C445.631,226.63,447.143,222.357,446.655,218.214z M369.876,288.528
			c-0.914,0.914-2.191,1.368-3.364,1.234c-15.43-1.804-27.468-13.842-29.272-29.282c-0.139-1.187,0.321-2.44,1.234-3.354
			l10.277-10.277l31.401,31.401L369.876,288.528z M435.689,257.127c0.914,0.914,1.373,2.167,1.234,3.359
			c-1.804,15.435-13.842,27.473-29.282,29.277c-1.163,0.129-2.44-0.321-3.354-1.234l-65.817-65.817
			c-0.909-0.909-1.368-2.163-1.23-3.359c1.804-15.43,13.842-27.468,29.272-29.272c1.297-0.13,2.497,0.368,3.364,1.234
			L435.689,257.127z M435.689,222.716l-10.277,10.277l-31.401-31.401l10.282-10.282c0.861-0.867,2.072-1.362,3.354-1.23
			c15.435,1.804,27.473,13.842,29.277,29.272C437.062,220.544,436.602,221.802,435.689,222.716z" style="fill:#3a4b81"/>
    </g>
  </g>
</svg>
