<svg xmlns="http://www.w3.org/2000/svg" xml:space="preserve" style="enable-background:new 0 0 512 512" viewBox="0 0 512 512">
  <g id="_x32_1_Cactus">
    <g>
      <path d="M326.563,362.983c-0.066,21.361,3.013,74.671,5.015,95.96l-116.778-48.039
			c-10.897-49.653-17.401-98.705-18.38-146.999c-96.666-18.846-144.31-61.817-134.583-133.025
			c3.813-27.882,33.622-45.086,59.094-33.133c0.757,0.353,1.51,0.739,2.26,1.14c13.687,7.353,22.229,21.574,23.647,37.052
			c2.97,32.11,21.09,51.165,50.073,60.862c1.985-97.467,28.432-150.557,78.564-160.647c23.124-4.642,47.393,0.985,65.687,15.867
			c30.247,24.626,34.178,63.851,17.788,114.367c-6.675,19.298-12.315,39.432-17.068,60.283c-3.806,16.687-6.877,33.527-9.248,50.432
			c-1.792,12.772-3.178,25.584-4.174,38.434c25.274-3.418,42.387-15.671,47.638-40.782c2.319-11.018,9.651-20.559,20.097-24.725
			c0.574-0.216,1.147-0.432,1.735-0.629c19.331-6.475,39.344,8.368,39.775,28.761C438.836,331.021,399.8,358.012,326.563,362.983z" style="fill:#9a88fb"/>
      <path d="M32.462,500.962c22.262-36.44,49.642-65.679,82.801-86.784
			c39.185-24.94,88.654-27.739,130.627-7.844c21.512,10.197,42.651,21.342,63.442,33.375c9.425,5.455,19.579,9.535,30.227,11.818
			c20.519,4.399,42.209,8.774,64.814,8.966c31.388,0.268,61.294,14.606,79.955,39.846c0.153,0.207,0.305,0.414,0.458,0.622H32.462z" style="fill:#fff"/>
      <path d="M484.789,500.982H358.198c-41.003-36.226-94.893-58.22-153.86-58.22
			c-58.966,0-112.907,21.994-153.86,58.22H32.465c22.243-36.474,49.661-65.684,82.802-86.782
			c39.162-24.98,88.673-27.766,130.621-7.862c21.497,10.201,42.645,21.347,63.445,33.389c9.405,5.424,19.556,9.504,30.205,11.793
			c20.551,4.429,42.247,8.758,64.838,8.957c31.399,0.299,61.305,14.629,79.965,39.858
			C484.49,500.534,484.639,500.733,484.789,500.982z" style="fill:#e7e6fd"/>
      <path d="M91.537,366.971c-6.188-13.229-15.402-19.311-27.129-19.454
			c-12.291-0.149-23.557,6.603-30.273,16.898c-10.313,15.809-8.531,33.126,1.248,51.44c5.36,10.04,12.659,18.892,21.005,26.63
			c10.393,9.635,22.171,19.109,35.15,28.442c21.147-16.473,40.059-33.154,53.535-50.34c7.772-9.912,12.261-22.14,12.036-34.733
			c-0.055-3.05-0.371-5.925-0.934-8.634c-4.552-21.92-28.23-34.007-49.062-25.807C100.129,354.162,94.763,359.112,91.537,366.971z" style="fill:#fbecb3"/>
      <path d="M300.707 168.988c2.611.69 5.297-.875 5.983-3.495 3.88-14.784 8.395-29.911 13.418-44.963.856-2.567-.531-5.342-3.098-6.198-2.562-.842-5.337.533-6.198 3.098-5.091 15.251-9.665 30.586-13.6 45.576C296.525 165.622 298.09 168.302 300.707 168.988zM284.262 356.303c2.696-.227 4.698-2.596 4.471-5.294-1.122-13.344-1.691-27.023-1.691-40.652 0-2.019.012-4.043.036-6.069.031-2.706-2.136-4.926-4.842-4.957-.019 0-.038 0-.057 0-2.679 0-4.868 2.155-4.899 4.842-.024 2.065-.036 4.127-.036 6.184 0 13.902.581 27.856 1.725 41.475C279.195 354.53 281.57 356.531 284.262 356.303zM284.391 261.958c.17.019.337.026.502.026 2.483 0 4.612-1.88 4.868-4.402 1.55-15.21 3.797-30.806 6.674-46.348.493-2.66-1.266-5.218-3.926-5.71-2.691-.486-5.218 1.266-5.71 3.926-2.926 15.806-5.208 31.664-6.785 47.138C279.741 259.281 281.7 261.685 284.391 261.958zM246.894 154.565c2.606.703 5.3-.84 6.005-3.459 4.086-15.198 8.863-30.755 14.196-46.241.883-2.557-.478-5.347-3.036-6.227-2.565-.89-5.349.476-6.227 3.036-5.409 15.698-10.251 31.473-14.397 46.887C242.734 151.173 244.282 153.862 246.894 154.565zM230.464 347.652c2.694-.261 4.667-2.653 4.409-5.347-2.335-24.284-2.156-47.603-2.167-48.143.014-2.706-2.165-4.911-4.871-4.928-.01 0-.019 0-.029 0-2.694 0-4.883 2.175-4.899 4.871.041 1.87-.493 21.004 2.21 49.138C225.37 345.868 227.684 347.901 230.464 347.652zM229.887 250.384c.165.017.33.024.49.024 2.488 0 4.62-1.888 4.871-4.414 1.562-15.684 3.876-31.76 6.878-47.781.498-2.658-1.254-5.22-3.914-5.718-2.646-.505-5.218 1.256-5.718 3.914-3.055 16.294-5.409 32.65-6.997 48.614C225.23 247.716 227.196 250.116 229.887 250.384zM325.367 344.782c7.457 0 28.267-3.513 43.444-9.643 2.51-1.014 3.722-3.868 2.708-6.378-1.01-2.507-3.864-3.71-6.378-2.708-11.552 4.667-24.7 7.596-40.195 8.95-2.696.234-4.691 2.612-4.454 5.306C320.714 342.858 322.852 344.782 325.367 344.782zM156.224 216.71c-14.418-8.842-26.291-19.248-35.296-30.925-1.66-2.146-4.732-2.541-6.873-.888s-2.541 4.73-.888 6.873c9.734 12.622 22.497 23.825 37.932 33.294 2.302 1.413 5.322.692 6.739-1.615C159.252 221.143 158.53 218.126 156.224 216.71z" style="fill:#3a4b81"/>
      <path d="M160.97,376.226c-5.123-24.679-31.779-38.761-55.652-29.373
			c-5.665,2.23-10.277,5.672-13.792,10.277c-6.672-9.502-15.744-14.375-27.059-14.512c-13.516-0.266-26.516,6.978-34.437,19.119
			c-10.619,16.277-10.273,35.26,1.029,56.425c5.28,9.885,12.679,19.277,21.997,27.916c2.727,2.527,5.594,5.07,8.559,7.62
			c-12.077,13.375-23.26,28.219-33.334,44.709c-0.923,1.512-0.959,3.407-0.091,4.952c0.866,1.545,2.5,2.502,4.273,2.502h452.322
			c1.842,0,3.526-1.031,4.364-2.672c0.837-1.639,0.684-3.61-0.395-5.1l-0.486-0.66c-19.155-25.911-50.501-41.549-83.852-41.834
			c-22.757-0.194-54.963-6.309-69.033-10.199c-1.693-22.803-3.649-58.293-3.897-77.871c16.017-1.316,30.21-3.796,42.785-7.294
			l6.742,20.093c0.849,2.522,3.584,3.956,6.206,3.086c2.565-0.861,3.945-3.639,3.086-6.206l-6.669-19.876
			c10.05-3.489,18.833-7.772,26.321-12.86l14.304,15.844c1.813,2.011,4.917,2.167,6.919,0.354c2.01-1.813,2.167-4.911,0.354-6.919
			l-13.795-15.279c8.503-7.389,14.865-16.101,18.997-26.174l20.589,8.607c2.55,1.058,5.383-0.177,6.411-2.632
			c1.043-2.498-0.136-5.366-2.632-6.411l-21.301-8.905c2.393-9.184,3.208-19.133,2.654-26.707l18.568-5.708
			c2.586-0.797,4.038-3.538,3.244-6.124c-0.797-2.588-3.55-4.041-6.124-3.244l-17.732,5.451
			c-2.285-6.279-6.302-11.859-11.649-16.059l6.87-16.451c1.043-2.498-0.136-5.366-2.634-6.409c-2.498-1.045-5.366,0.136-6.409,2.634
			l-6.347,15.198c-8.166-3.342-17.418-3.59-26.531,0.264l-7.097-12.257c-1.352-2.34-4.349-3.143-6.694-1.785
			c-2.342,1.354-3.141,4.352-1.785,6.694l7.159,12.363c-6.99,5.543-12.023,13.582-13.993,22.938
			c-4.115,19.681-16.385,31.468-37.439,35.892c0.693-7.907,1.586-15.777,2.573-23.589l19.757,0.841
			c2.829,0.094,4.991-2.081,5.103-4.686c0.115-2.703-1.983-4.988-4.687-5.103l-18.884-0.804c1.778-12.44,4.031-24.749,6.541-36.891
			l18.867-0.173c2.706-0.024,4.878-2.239,4.854-4.945c-0.024-2.689-2.213-4.854-4.899-4.854c-0.014,0-0.029,0-0.045,0l-16.759,0.154
			c3.014-13.406,5.928-24.823,10.11-38.963l17.331,4.478c2.651,0.678,5.298-0.924,5.969-3.519c0.677-2.62-0.9-5.292-3.519-5.969
			l-16.954-4.38c3.644-11.557,7.446-21.022,10.848-37.841l17.306-0.965c2.701-0.151,4.77-2.464,4.62-5.165
			c-0.151-2.703-2.378-4.756-5.165-4.62l-15.042,0.839c2.2-15.396,1.934-29.309-0.813-41.691l21.247-7.857
			c2.538-0.938,3.835-3.756,2.897-6.294c-0.94-2.538-3.765-3.825-6.294-2.897l-20.481,7.573c-3.252-9.31-8.127-17.611-14.569-24.917
			l16.083-12.481c2.136-1.658,2.524-4.737,0.866-6.875c-1.663-2.136-4.737-2.524-6.875-0.866l-17.091,13.263
			c-9.047-7.988-19.241-13.773-31.772-17.39l5.46-19.169c0.739-2.603-0.768-5.313-3.371-6.055c-2.612-0.737-5.313,0.768-6.055,3.371
			l-5.605,19.681c-13.176-2.175-24.659-1.293-36.428,1.907L258.806,9.104c-1.072-2.488-3.954-3.634-6.438-2.567
			c-2.486,1.069-3.634,3.952-2.567,6.438l9.869,22.96c-9.733,3.972-18.482,9.709-26.13,17.393l-18.685-17.128
			c-1.995-1.83-5.096-1.691-6.923,0.301c-1.828,1.995-1.694,5.093,0.301,6.923l18.789,17.223
			c-6.901,8.62-12.758,19.08-17.632,31.246l-21.776-7.351c-2.572-0.883-5.344,0.51-6.208,3.074c-0.866,2.565,0.51,5.344,3.074,6.208
			l21.47,7.247c-4.051,12.061-7.22,25.65-9.522,40.724l-11.219-1.575c-2.691-0.388-5.155,1.49-5.533,4.17
			c-0.376,2.679,1.49,5.158,4.17,5.533l11.301,1.586c-1.472,11.942-2.496,24.647-2.949,38.32
			c-24.782-10.162-38.042-27.997-40.48-54.339c-0.972-10.613-4.94-20.331-11.119-28.153l10.942-12.832
			c1.756-2.06,1.51-5.151-0.548-6.907c-2.065-1.761-5.153-1.512-6.907,0.548l-10.35,12.137c-5.097-4.31-8.811-6.242-13.484-8.078
			l0.586-21.418c0.074-2.706-2.057-4.957-4.763-5.031c-2.811-0.237-4.959,2.057-5.031,4.763l-0.521,19.057
			c-9.801-1.498-20.049,0.115-29.732,5.619L70.013,81.574c-1.677-2.12-4.761-2.481-6.883-0.801
			c-2.122,1.679-2.481,4.761-0.801,6.883l10.467,13.232c-13.218,11.662-15.992,24.687-16.873,40.616l-16.412,0.481
			c-2.706,0.079-4.832,2.335-4.753,5.041c0.077,2.655,2.256,4.756,4.895,4.756c0.493,0,16.602-0.463,16.109-0.47
			c0.371,15.775,3.851,30.135,10.468,43.045l-14.408,7.967c-2.368,1.309-3.227,4.289-1.916,6.658
			c1.315,2.383,4.309,3.218,6.658,1.916l14.615-8.082c7.788,11.918,18.489,22.485,32.138,31.659l-8.589,10.649
			c-1.699,2.108-1.368,5.191,0.737,6.89c2.106,1.7,5.189,1.368,6.89-0.737l9.345-11.586c10.608,6.191,22.698,11.68,36.304,16.443
			l-9.317,18.863c-1.199,2.426-0.203,5.364,2.222,6.562c2.444,1.205,5.372,0.185,6.562-2.222l9.924-20.092
			c10.588,3.293,21.991,6.195,34.221,8.695c0.293,11.026,0.906,22.243,1.787,33.606l-21.352,4.683
			c-2.643,0.579-4.316,3.191-3.734,5.835c0.581,2.66,3.221,4.317,5.835,3.734l20.094-4.407c1.151,12.561,2.639,25.3,4.487,38.207
			l-28.229,6.619c-2.634,0.617-4.268,3.254-3.651,5.89c0.622,2.655,3.278,4.262,5.89,3.651l27.457-6.439
			c1.559,10.027,3.332,20.148,5.3,30.348c-14.551-1.818-29.286-1.345-43.656,1.312C162.249,385.677,161.9,380.704,160.97,376.226z
			 M59.716,438.892c-8.514-7.895-15.249-16.423-20.012-25.346c-9.624-18.021-10.105-33.215-1.469-46.454
			c6.012-9.21,15.622-14.677,25.767-14.677c0.115,0,0.23,0,0.344,0.002c10.131,0.122,17.574,5.56,22.751,16.629
			c0.823,1.761,2.696,3.002,4.555,2.821c1.945-0.045,3.677-1.237,4.414-3.036c2.574-6.265,6.773-10.471,12.839-12.859
			c18.176-7.145,38.573,3.47,42.47,22.244c2.565,12.374-0.601,27.154-10.162,39.349c-11.155,14.225-27.028,29.287-49.793,47.229
			C79.563,456.117,68.91,447.414,59.716,438.892z M201.321,263.805c-0.048-2.309-1.699-4.27-3.962-4.71
			c-77.728-15.154-141.428-48.767-130.667-127.55c1.605-11.744,8.859-22.838,20.732-28.779c-0.415,14.608,0.456,28.422,4.052,43.253
			c0.647,2.67,3.342,4.241,5.916,3.605c2.629-0.636,4.244-3.287,3.605-5.916c-3.594-14.823-4.369-29.3-3.67-44.279
			c7.917-1.452,15.966-0.3,23.546,3.775c11.885,6.385,19.768,18.789,21.088,33.188c2.988,32.31,20.952,54.2,53.396,65.056
			c1.476,0.49,3.103,0.256,4.378-0.641c1.273-0.897,2.043-2.347,2.077-3.904c1.345-66.17,14.744-148.48,80.184-156.751
			c-2.294,5.245-4.613,10.502-6.769,15.704c-1.036,2.5,0.151,5.366,2.651,6.402c2.504,1.037,5.366-0.151,6.402-2.651
			c2.766-6.67,5.703-13.436,8.683-20.149c15.251,0.274,29.92,5.245,42.191,14.251c-2.72,6.367-5.421,12.774-7.956,19.108
			c-1.005,2.514,0.218,5.364,2.73,6.371c2.564,1.016,5.378-0.256,6.371-2.73c2.147-5.371,4.455-10.794,6.745-16.202
			c23.079,22.535,26.751,56.843,11.281,104.532c-15.121,43.702-26.678,97.798-30.746,150.37c-0.115,1.476,0.445,2.923,1.522,3.94
			c1.072,1.014,2.541,1.49,4.021,1.294c28.983-3.921,46.403-18.937,51.774-44.628c2.067-9.816,8.466-17.734,17.031-21.148
			c8.043-3.04,15.556-2.126,22.035,1.732c-3.77,16.763-9.934,30.955-18.337,42.166c-1.622,2.165-1.182,5.234,0.983,6.859
			c2.155,1.617,5.228,1.19,6.859-0.983c8.287-11.056,14.56-24.628,18.71-40.388c2.868,4.166,4.523,9.122,4.632,14.264
			c0.517,24.165-7.808,42.749-25.158,55.97c-0.067,0.054-0.15,0.069-0.215,0.127c-0.046,0.042-0.062,0.1-0.106,0.143
			c-8.364,6.297-18.872,11.321-31.414,15.17c-0.005,0.001-0.01,0-0.015,0.002c-0.004,0.001-0.008,0.005-0.012,0.007
			c-13.961,4.282-30.451,7.105-49.657,8.409c-2.565,0.172-4.56,2.301-4.567,4.873c-0.053,17.36,1.881,54.056,3.656,79.072
			c-9.672-3.864-12.835-6.367-28.724-15.159c2.522-0.712,4.068-3.269,3.446-5.84c-1.883-7.773-3.588-15.744-5.072-23.693
			c-0.498-2.66-3.057-4.438-5.715-3.916c-2.66,0.495-4.414,3.055-3.916,5.715c1.514,8.117,3.256,16.258,5.177,24.201
			c0.027,0.114,0.099,0.201,0.134,0.311c-13.117-7.13-32.448-17.203-46.302-23.286c-0.801-3.466-1.661-6.931-2.365-10.39
			c-0.541-2.653-3.134-4.371-5.777-3.825c-2.653,0.541-4.364,3.127-3.825,5.777c0.28,1.374,0.605,2.755,0.899,4.133
			c-5.738-1.951-11.559-3.569-17.459-4.754C207.622,349.732,202.178,306.174,201.321,263.805z M243.792,410.764
			c21.057,9.981,42.284,21.146,63.085,33.188c10.167,5.883,20.818,10.043,31.655,12.368c21.803,4.67,43.243,8.88,65.8,9.074
			c27.05,0.23,52.619,11.543,70.133,30.669H41.338c8.549-13.162,17.875-25.124,27.804-36.075
			c6.114,4.968,12.628,9.952,19.533,14.917c0.856,0.615,1.859,0.921,2.861,0.921c1.065,0,2.127-0.347,3.012-1.033
			c24.971-19.452,42.25-35.715,54.379-51.181c5.298-6.757,9.071-14.405,11.167-22.371
			C187.893,395.314,217.515,398.307,243.792,410.764z" style="fill:#3a4b81"/>
    </g>
  </g>
</svg>
