<svg xmlns="http://www.w3.org/2000/svg" xml:space="preserve" style="enable-background:new 0 0 512 512" viewBox="0 0 512 512">
  <g id="_x30_1_14_Calendar">
    <g>
      <path d="M463.602,441.799c-73.411,73.411-341.792,73.411-415.203,0c-60.931-60.931,0-344.582,0-344.582
			h415.203C463.602,97.217,524.533,380.868,463.602,441.799z" style="fill:#9a88fb"/>
      <path d="M31.517,411.359c4.109,12.729,9.622,23.18,16.883,30.44c73.411,73.411,341.792,73.411,415.203,0
			c7.26-7.26,12.773-17.712,16.883-30.44C331.81,452.211,182.141,451.68,31.517,411.359z" style="fill:#fbecb3"/>
      <path d="M462.993,153.379c-137.133,21.257-276.853,21.257-413.985,0
			c-25.012-3.906-41.906-27.599-37.188-52.458l1.268-6.646c4.515-23.54,26.787-39.42,50.429-35.717
			c15.247,2.371,30.526,4.459,45.832,6.263c112.73,13.29,226.837,11.202,339.134-6.263c23.642-3.703,45.914,12.176,50.429,35.717
			l1.268,6.646C504.899,125.78,488.005,149.473,462.993,153.379z" style="fill:#fff"/>
      <path d="M463.002,153.364c-137.135,21.264-276.867,21.264-414.002,0
			c-24.987-3.87-41.89-27.584-37.187-52.424l1.274-6.663c0.441-2.205,0.98-4.312,1.715-6.369
			c5.879,13.572,18.471,23.909,34.198,26.359c137.135,21.263,276.867,21.263,414.002,0c15.727-2.45,28.319-12.787,34.198-26.359
			c0.735,2.058,1.274,4.164,1.715,6.369l1.274,6.663C504.892,125.78,487.989,149.493,463.002,153.364z" style="fill:#e7e6fd"/>
      <circle cx="137.589" cy="114.873" r="22.221" style="fill:#fbecb3"/>
      <circle cx="256.914" cy="124.005" r="22.221" style="fill:#fbecb3"/>
      <circle cx="380.501" cy="113.672" r="22.221" style="fill:#fbecb3"/>
      <path d="M503.724,93.35c-5.055-26.351-29.65-43.762-55.994-39.633c-11.381,1.77-22.785,3.34-34.201,4.793
			c-4.082-26.593-19.382-45.656-36.678-44.45c-17.571,1.213-28.922,26.597-30.167,51.148c-18.225,1.328-36.474,2.242-54.734,2.768
			c-1.377-30.662-15.69-54.04-33.751-54.04c-17.893,0-31.094,27.356-33.752,54.158c-17.923-0.453-35.841-1.269-53.74-2.495
			c-0.219-31.08-16.699-55.343-37.721-55.343c-18.677,0-33.221,24.087-37.103,47.913c-10.558-1.366-21.131-2.821-31.609-4.45
			c-26.342-4.148-50.946,13.28-55.999,39.636l-1.27,6.653c-4.217,22.214,7.051,43.44,25.968,53.204
			c-11.93,71.715-26.953,192.93-6.291,258.694c0.613,5.438,8.822,23.933,18.252,33.356c75.305,75.309,346.827,75.308,422.131,0
			c9.384-9.382,17.729-28.728,18.251-33.354c20.663-65.764,5.64-186.982-6.29-258.698c18.906-9.759,30.185-30.975,25.966-53.207
			L503.724,93.35z M377.525,23.835c11.752-0.735,22.955,15.096,26.276,35.901c-15.729,1.876-31.489,3.428-47.266,4.703
			C357.945,43.488,367.558,24.524,377.525,23.835z M258.2,23.735c11.017,0,22.751,17.699,23.967,44.505
			c-15.959,0.335-31.924,0.368-47.887,0.09C236.803,44.787,247.982,23.735,258.2,23.735z M132.987,20.055
			c14.869,0,27.444,20.385,27.899,44.807c-17.009-1.3-34.002-2.906-50.963-4.906c-1.437-0.169-2.888-0.376-4.328-0.551
			C109.105,38.001,121.333,20.055,132.987,20.055z M51.864,438.334c-5.445-5.445-9.53-12.724-12.514-19.856
			c145.602,37.425,291.255,37.442,433.272,0.069c-2.978,7.106-7.059,14.363-12.483,19.787
			C388.516,509.957,123.458,509.928,51.864,438.334z M476.757,407.259c-144.597,39.283-293.111,39.278-441.513-0.015
			c-18.792-62.188-4.417-179.478,7.175-250.322c1.908,0.532,3.847,0.99,5.838,1.301c137.813,21.362,277.642,21.367,415.487,0
			c0,0,0.002,0,0.005-0.002c1.991-0.311,3.929-0.769,5.837-1.301C481.181,227.769,495.56,345.072,476.757,407.259z M462.241,148.538
			c-136.849,21.213-275.629,21.21-412.478,0.002c-22.334-3.489-37.331-24.581-33.131-46.7l1.268-6.643
			c4.028-20.999,23.614-35.122,44.863-31.796c15.251,2.371,30.731,4.486,46.011,6.287c17.188,2.026,34.408,3.652,51.645,4.965
			c-0.842,7.186-2.737,13.822-5.392,19.478c-4.719-3.974-10.8-6.379-17.438-6.379c-14.954,0-27.121,12.165-27.121,27.119
			s12.167,27.121,27.121,27.121c20.102,0,33.303-21.266,24.201-39.292c4.339-7.563,7.295-16.917,8.408-27.314
			c37.277,2.549,74.63,3.431,111.95,2.655c-0.551,10.627-2.759,19.796-5.916,26.961c-4.923-5.004-11.761-8.119-19.318-8.119
			c-14.954,0-27.121,12.167-27.121,27.121s12.167,27.119,27.121,27.119c18.824,0,32.011-18.809,25.391-36.558
			c5.455-9.509,8.975-22.341,9.641-36.789c37.68-1.077,75.315-3.822,112.791-8.286c0.327,9.703-1.16,18.687-4.306,25.852
			c-4.96-5.389-12.046-8.792-19.93-8.792c-14.954,0-27.121,12.167-27.121,27.121s12.167,27.119,27.121,27.119
			c18.384,0,31.532-18.017,25.75-35.577c6.717-10.761,8.782-24.407,8.236-36.949c11.601-1.474,23.189-3.068,34.754-4.867
			c21.093-3.316,40.803,10.662,44.858,31.794l1.268,6.643C499.566,123.958,484.575,145.049,462.241,148.538z M137.59,132.194
			c-9.552,0-17.323-7.77-17.323-17.323c0-9.55,7.77-17.32,17.323-17.32c4.79,0,9.129,1.957,12.268,5.111
			c-4.728,6.043-10.588,9.719-16.871,9.719c-2.706,0-4.899,2.194-4.899,4.899c0,2.706,2.194,4.899,4.899,4.899
			c8.128,0,15.565-3.651,21.661-9.895C156.311,123.258,147.755,132.194,137.59,132.194z M258.2,131.697
			c5.801,0,11.21-2.435,15.938-6.724c-0.513,9.093-8.003,16.353-17.222,16.353c-9.552,0-17.323-7.77-17.323-17.32
			c0-9.552,7.77-17.323,17.323-17.323c5.819,0,10.95,2.907,14.092,7.322c-3.911,5.077-8.417,7.893-12.808,7.893
			c-2.706,0-4.899,2.194-4.899,4.899C253.3,129.503,255.494,131.697,258.2,131.697z M383.81,119.962
			c0.112,0,0.227-0.005,0.342-0.012c4.911-0.338,9.493-2.123,13.557-5.162c-0.588,9.022-8.04,16.205-17.208,16.205
			c-9.552,0-17.323-7.77-17.323-17.32c0-9.552,7.77-17.323,17.323-17.323c6.006,0,11.3,3.079,14.409,7.737
			c-3.326,3.659-7.238,5.798-11.432,6.088c-2.699,0.187-4.737,2.524-4.55,5.225C379.104,117.984,381.257,119.962,383.81,119.962z" style="fill:#3a4b81"/>
      <path d="M196.397 231.987c-1.514-.876-3.383-.878-4.897-.002l-47.863 27.578c-2.344 1.349-3.148 4.344-1.797 6.691 1.349 2.342 4.347 3.148 6.689 1.797l40.516-23.344v139.966c0 2.706 2.194 4.899 4.899 4.899s4.899-2.194 4.899-4.899V236.228C198.844 234.479 197.911 232.862 196.397 231.987zM365.915 341.65h-23.492V236.228c0-2.117-1.361-3.995-3.373-4.655-2.005-.663-4.218.048-5.474 1.754l-81.118 110.321c-1.093 1.488-1.258 3.466-.423 5.115.833 1.648 2.524 2.687 4.371 2.687h76.219v33.224c0 2.706 2.194 4.899 4.899 4.899s4.899-2.194 4.899-4.899v-33.224h23.492c2.706 0 4.899-2.194 4.899-4.899S368.621 341.65 365.915 341.65zM332.624 341.65h-66.535l66.535-90.489V341.65z" style="fill:#3a4b81"/>
    </g>
  </g>
</svg>
