<svg xmlns="http://www.w3.org/2000/svg" xml:space="preserve" style="enable-background:new 0 0 512 512" viewBox="0 0 512 512">
  <g id="_x32_3_Cassette">
    <g>
      <path d="M500.972,129.284v253.431c0,23.264-18.859,42.123-42.123,42.123H53.153
			c-23.264,0-42.123-18.859-42.123-42.123V129.284c0-23.264,18.859-42.123,42.123-42.123h405.696
			C482.113,87.161,500.972,106.02,500.972,129.284z" style="fill:#9a88fb"/>
      <path d="M458.676,187.635v136.728c0,9.534-7.729,17.264-17.264,17.264H70.589
			c-9.534,0-17.264-7.729-17.264-17.264V187.635c0-9.534,7.729-17.264,17.264-17.264h370.823
			C450.947,170.372,458.676,178.101,458.676,187.635z" style="fill:#fff"/>
      <path d="M458.69,313.029v11.318c0,9.554-7.741,17.295-17.295,17.295H70.606
			c-9.554,0-17.295-7.741-17.295-17.295V187.652c0-9.554,7.741-17.295,17.295-17.295h9.554
			c5.83,79.763,72.365,142.671,153.597,142.671H458.69z" style="fill:#e7e6fd"/>
      <polygon points="402.051 366.314 428.983 424.838 84.055 424.838 110.986 366.314" style="fill:#fff"/>
      <path d="M429,424.834h-5.242l-18.275-39.685H178.835c-19.647,0-38.363,5.732-54.237,15.874
			c-9.848,6.32-18.618,14.355-25.82,23.811H84.031l26.947-58.499h291.075L429,424.834z" style="fill:#e7e6fd"/>
      <circle cx="460.661" cy="128.691" r="16.573" style="fill:#fff"/>
      <circle cx="51.34" cy="128.691" r="16.573" style="fill:#fff"/>
      <circle cx="460.661" cy="383.308" r="16.573" style="fill:#fff"/>
      <path d="M467.95 143.558c-2.205 1.127-4.704 1.715-7.3 1.715-9.162 0-16.56-7.447-16.56-16.56 0-9.162 7.398-16.609 16.56-16.609 2.597 0 5.095.588 7.3 1.715-5.487 2.695-9.26 8.378-9.26 14.894S462.463 140.863 467.95 143.558zM467.95 398.181c-2.205 1.127-4.704 1.715-7.3 1.715-9.162 0-16.56-7.447-16.56-16.609 0-9.113 7.398-16.56 16.56-16.56 2.597 0 5.095.588 7.3 1.715-5.487 2.695-9.26 8.329-9.26 14.845S462.463 395.486 467.95 398.181z" style="fill:#e7e6fd"/>
      <circle cx="51.34" cy="383.308" r="16.573" style="fill:#fff"/>
      <path d="M58.113 143.802c-2.058.931-4.361 1.47-6.761 1.47-9.162 0-16.609-7.447-16.609-16.56 0-9.162 7.447-16.609 16.609-16.609 2.401 0 4.704.539 6.761 1.47-5.781 2.548-9.848 8.378-9.848 15.139C48.265 135.424 52.331 141.255 58.113 143.802zM58.113 398.426c-2.058.931-4.361 1.47-6.761 1.47-9.162 0-16.609-7.447-16.609-16.609 0-9.113 7.447-16.56 16.609-16.56 2.401 0 4.704.539 6.761 1.47-5.781 2.548-9.848 8.378-9.848 15.09C48.265 390.048 52.331 395.878 58.113 398.426z" style="fill:#e7e6fd"/>
      <polygon points="110.986 145.684 84.055 87.161 428.983 87.161 402.051 145.684" style="fill:#fff"/>
      <path d="M411.068,126.067l-9.015,19.598H110.978L84.031,87.165h27.045
			c18.814,24.203,47.966,38.901,79.42,38.901H411.068z" style="fill:#e7e6fd"/>
      <circle cx="157.277" cy="255.999" r="58.744" style="fill:#fbecb3"/>
      <path d="M157.277,296.442c-22.3,0-40.443-18.142-40.443-40.443s18.142-40.443,40.443-40.443
			s40.444,18.142,40.444,40.443S179.577,296.442,157.277,296.442z" style="fill:#fff"/>
      <circle cx="354.725" cy="255.999" r="58.744" style="fill:#fbecb3"/>
      <path d="M354.724,296.442c-22.3,0-40.443-18.142-40.443-40.443s18.142-40.443,40.443-40.443
			c22.3,0,40.444,18.142,40.444,40.443S377.025,296.442,354.724,296.442z" style="fill:#fff"/>
      <path d="M185.89 284.465c-7.251 7.398-17.442 11.954-28.613 11.954-22.292 0-40.42-18.128-40.42-40.42 0-18.716 12.788-34.492 30.083-39.048-7.3 7.3-11.807 17.344-11.807 28.466 0 22.292 18.128 40.42 40.42 40.42C179.129 285.837 182.607 285.347 185.89 284.465zM383.337 284.514c-7.3 7.349-17.442 11.906-28.612 11.906-22.293 0-40.42-18.128-40.42-40.42 0-18.716 12.787-34.492 30.082-39.048-7.3 7.3-11.807 17.344-11.807 28.466 0 22.292 18.128 40.42 40.469 40.42C376.576 285.837 380.054 285.396 383.337 284.514z" style="fill:#e7e6fd"/>
      <path d="M458.847,82.262c-149.144,0-256.545,0-405.693,0c-25.928,0-47.023,21.095-47.023,47.023v253.431
			c0,25.928,21.095,47.023,47.023,47.023c123.706,0,281.629,0,405.693,0c25.928,0,47.023-21.095,47.023-47.023V129.285
			C505.87,103.357,484.774,82.262,458.847,82.262z M421.335,92.061l-22.421,48.724H114.124L91.703,92.061H421.335z M91.703,419.939
			l22.421-48.726h284.791l22.421,48.726H91.703z M496.071,382.715c0,20.526-16.698,37.224-37.224,37.224h-26.728l-25.616-55.674
			c-0.799-1.739-2.536-2.852-4.45-2.852H110.985c-1.914,0-3.651,1.112-4.45,2.852l-25.618,55.674H53.153
			c-20.526,0-37.224-16.698-37.224-37.224V129.285c0-20.526,16.698-37.224,37.224-37.224h27.764l25.618,55.671
			c0.799,1.739,2.536,2.852,4.45,2.852h291.069c1.914,0,3.651-1.112,4.45-2.852l25.616-55.671h26.728
			c20.526,0,37.224,16.698,37.224,37.224V382.715z" style="fill:#3a4b81"/>
      <path d="M463.574,324.362V187.635c0-12.22-9.942-22.162-22.162-22.162H70.588
			c-12.22,0-22.162,9.942-22.162,22.162v136.727c0,12.222,9.942,22.165,22.162,22.165h370.823
			C453.631,346.527,463.574,336.585,463.574,324.362z M58.225,324.362V187.635c0-6.818,5.545-12.363,12.363-12.363h370.823
			c6.818,0,12.363,5.545,12.363,12.363v136.727c0,6.818-5.545,12.366-12.363,12.366H70.588
			C63.77,336.728,58.225,331.18,58.225,324.362z" style="fill:#3a4b81"/>
      <path d="M157.276,210.656c-24.884,0-45.341,20.236-45.341,45.344c0,24.879,20.227,45.341,45.341,45.341
			c12.457,0,23.753-5.053,31.957-13.212c0.031-0.03,0.074-0.039,0.105-0.07c0.031-0.031,0.04-0.074,0.07-0.105
			c8.159-8.203,13.212-19.498,13.212-31.954C202.619,231.119,182.388,210.656,157.276,210.656z M185.596,277.39l-6.998-6.997
			c-1.914-1.914-5.014-1.914-6.928,0c-1.914,1.914-1.914,5.014,0,6.928l6.997,6.997c-4.724,3.577-10.354,5.994-16.493,6.846v-9.911
			c0-2.706-2.194-4.899-4.899-4.899s-4.899,2.194-4.899,4.899v9.911c-6.138-0.852-11.767-3.27-16.491-6.847l6.999-6.997
			c1.914-1.911,1.914-5.014,0-6.928c-1.914-1.914-5.014-1.914-6.928,0l-6.998,6.997c-3.576-4.724-5.994-10.352-6.846-16.49h9.911
			c2.706,0,4.899-2.194,4.899-4.899s-2.194-4.899-4.899-4.899h-9.911c0.852-6.138,3.269-11.768,6.846-16.492l6.998,6.997
			c1.914,1.914,5.014,1.914,6.928,0c1.914-1.914,1.914-5.017,0-6.928l-6.998-6.997c4.724-3.578,10.353-5.995,16.491-6.847v9.911
			c0,2.706,2.194,4.899,4.899,4.899s4.899-2.194,4.899-4.899v-9.911c6.138,0.852,11.769,3.269,16.493,6.846l-6.997,6.997
			c-1.914,1.914-1.914,5.014,0,6.928c1.914,1.914,5.014,1.914,6.928,0l6.998-6.997c3.577,4.724,5.994,10.354,6.846,16.493h-9.911
			c-2.706,0-4.899,2.194-4.899,4.899s2.194,4.899,4.899,4.899h9.911C191.59,267.037,189.173,272.666,185.596,277.39z" style="fill:#3a4b81"/>
      <path d="M358.016,192.355c-131.692,0.049-148.342,0-200.74,0c-35.093,0-63.642,28.552-63.642,63.645
			s28.55,63.642,63.642,63.642c0.493,0,200.555,0.082,201.843-0.223c33.044-2.274,59.25-29.81,59.25-63.42
			C418.369,218.924,386.553,192.355,358.016,192.355z M157.276,309.843c-29.688,0-53.843-24.155-53.843-53.843
			c0-29.691,24.155-53.846,53.843-53.846s53.843,24.155,53.843,53.846C211.119,285.688,186.964,309.843,157.276,309.843z
			 M191.05,309.843c17.907-11.274,29.868-31.165,29.868-53.843c0-22.679-11.961-42.571-29.869-53.846h129.9
			c-17.908,11.275-29.87,31.167-29.87,53.846c0,22.678,11.961,42.569,29.868,53.843H191.05z M354.724,309.843
			c-29.688,0-53.846-24.155-53.846-53.843c0-29.691,24.157-53.846,53.846-53.846c29.688,0,53.846,24.155,53.846,53.846
			C408.57,285.688,384.413,309.843,354.724,309.843z" style="fill:#3a4b81"/>
      <path d="M354.724 210.656c-24.883 0-45.344 20.231-45.344 45.344 0 24.876 20.223 45.341 45.344 45.341 24.876 0 45.344-20.221 45.344-45.341C400.068 231.117 379.837 210.656 354.724 210.656zM379.977 260.899h9.913c-.852 6.137-3.27 11.767-6.847 16.49l-6.999-6.997c-1.914-1.914-5.014-1.914-6.928 0-1.914 1.914-1.914 5.017 0 6.928l6.999 6.997c-4.724 3.577-10.354 5.994-16.492 6.846v-9.911c0-2.706-2.191-4.899-4.899-4.899-2.708 0-4.899 2.194-4.899 4.899v9.911c-6.138-.852-11.768-3.269-16.492-6.846l6.999-6.997c1.914-1.911 1.914-5.014 0-6.928-1.914-1.914-5.014-1.914-6.928 0l-6.999 6.997c-3.577-4.724-5.995-10.353-6.847-16.49h9.913c2.708 0 4.899-2.194 4.899-4.899s-2.191-4.899-4.899-4.899h-9.913c.852-6.138 3.27-11.769 6.847-16.493l6.999 6.997c1.914 1.914 5.014 1.914 6.928 0 1.914-1.914 1.914-5.017 0-6.928l-6.999-6.997c4.724-3.577 10.354-5.995 16.492-6.847v9.911c0 2.706 2.191 4.899 4.899 4.899 2.708 0 4.899-2.194 4.899-4.899v-9.911c6.138.852 11.768 3.269 16.492 6.847l-6.999 6.997c-1.914 1.911-1.914 5.014 0 6.928 1.914 1.914 5.014 1.914 6.928 0l6.999-6.997c3.578 4.724 5.995 10.354 6.847 16.493h-9.913c-2.708 0-4.899 2.194-4.899 4.899S377.269 260.899 379.977 260.899zM460.66 107.218c-11.842 0-21.473 9.634-21.473 21.473 0 11.839 9.631 21.471 21.473 21.471 11.842 0 21.473-9.631 21.473-21.471C482.133 116.852 472.502 107.218 460.66 107.218zM460.66 140.363c-6.435 0-11.674-5.237-11.674-11.672 0-6.438 5.239-11.674 11.674-11.674 6.435 0 11.674 5.237 11.674 11.674C472.334 135.127 467.095 140.363 460.66 140.363zM51.34 150.162c11.839 0 21.473-9.631 21.473-21.471 0-11.839-9.634-21.473-21.473-21.473s-21.473 9.634-21.473 21.473C29.867 140.531 39.501 150.162 51.34 150.162zM51.34 117.017c6.438 0 11.674 5.237 11.674 11.674 0 6.435-5.237 11.672-11.674 11.672s-11.674-5.237-11.674-11.672C39.666 122.254 44.902 117.017 51.34 117.017zM460.66 361.835c-11.842 0-21.473 9.634-21.473 21.473 0 11.839 9.631 21.471 21.473 21.471 11.842 0 21.473-9.631 21.473-21.471C482.133 371.469 472.502 361.835 460.66 361.835zM460.66 394.981c-6.435 0-11.674-5.237-11.674-11.672 0-6.438 5.239-11.674 11.674-11.674 6.435 0 11.674 5.237 11.674 11.674C472.334 389.744 467.095 394.981 460.66 394.981zM51.34 361.835c-11.839 0-21.473 9.634-21.473 21.473 0 11.839 9.634 21.471 21.473 21.471s21.473-9.631 21.473-21.471C72.813 371.469 63.18 361.835 51.34 361.835zM51.34 394.981c-6.438 0-11.674-5.237-11.674-11.672 0-6.438 5.237-11.674 11.674-11.674s11.674 5.237 11.674 11.674C63.014 389.744 57.778 394.981 51.34 394.981zM374.131 390.677H138.905c-2.706 0-4.899 2.194-4.899 4.899s2.194 4.899 4.899 4.899h235.225c2.708 0 4.899-2.194 4.899-4.899S376.839 390.677 374.131 390.677zM138.905 121.323h235.225c2.708 0 4.899-2.194 4.899-4.899s-2.191-4.899-4.899-4.899H138.905c-2.706 0-4.899 2.194-4.899 4.899S136.2 121.323 138.905 121.323z" style="fill:#3a4b81"/>
    </g>
  </g>
</svg>
