<svg xmlns="http://www.w3.org/2000/svg" xml:space="preserve" style="enable-background:new 0 0 512 512" viewBox="0 0 512 512">
  <g id="_x32_2_Catch_Love">
    <g>
      <path d="M292.444,61.943l-0.176,35.475c-6.01,7.861-3.09,20.394,6.638,28.192l30.501,24.45l19.968-62.551
			l-4.514-6.763c-4.1-6.143-9.107-11.813-14.82-16.783l-3.49-3.035c-9.239-8.037-16.566-17.847-21.235-28.43l-2.033-4.609
			l-8.881,11.079c-7.96,9.93-4.32,26.071,8.131,36.051l12.069,9.674" style="fill:#fbecb3"/>
      <path d="m308.963 111.794-11.272-9.036c-12.765-10.232-16.497-26.781-8.336-36.962l3.09-3.854c3.264 7.51 11.629 15.111 22.159 22.751M493.491 61.943l.176 35.475c6.01 7.861 3.09 20.394-6.638 28.192l-30.501 24.45-19.968-62.551 4.514-6.763c4.1-6.143 9.107-11.813 14.82-16.783l3.49-3.035c9.239-8.037 16.566-17.847 21.235-28.43l2.033-4.609 8.881 11.079c7.96 9.93 4.32 26.071-8.131 36.051l-12.069 9.674" style="fill:#fbecb3"/>
      <path d="m476.972 111.794 11.272-9.036c12.765-10.232 16.497-26.781 8.336-36.962l-3.09-3.854c-3.264 7.51-11.629 15.111-22.159 22.751M308.326 242.217l111.605 208.961c5.965 11.168 1.483 25.057-9.884 30.632h0c-11.368 5.576-25.093.617-30.272-10.936l-96.909-216.169L308.326 242.217z" style="fill:#fbecb3"/>
      <path d="M234.022,139.671c-6.076,27.849-29.366,50.119-60.246,69.93c-3.66,2.348-7.302,4.744-10.724,7.427
			c-24.733,19.392-41.742,41.205-49.376,65.956c-2.943,9.542-6.293,18.977-10.945,27.812c-19.141,36.354-47.03,63.739-91.771,73.847
			c10.759,5.72,21.721,10.393,32.886,14.021c57.106,18.558,120.04-3.806,153.761-53.49c0.33-0.487,0.659-0.975,0.986-1.465
			c14.143-21.176,33.35-38.556,56.521-49.12c21.095-9.617,43.653-17.163,67.453-22.952L234.022,139.671z" style="fill:#9a88fb"/>
      <ellipse cx="278.993" cy="205.198" rx="26.732" ry="79.358" style="fill:#fff" transform="rotate(-33.485 278.997 205.202)"/>
      <path d="M322.757,271.371c-12.33,8.187-41.872-14.845-66.038-51.44
			c-24.216-36.546-33.833-72.746-21.503-80.933c2.417-1.628,5.524-1.973,9.124-1.282c1.233,15.881,10.85,39.751,26.78,63.819
			c19.382,29.296,42.267,49.911,56.914,52.722C328.626,262.493,326.999,268.609,322.757,271.371z" style="fill:#e7e6fd"/>
      <path d="M394.354,102.158c-6.79-14.516-16.899-21.189-29.767-21.345
			c-13.486-0.164-25.848,7.245-33.217,18.541c-11.316,17.346-9.36,36.346,1.369,56.442c5.882,11.016,13.89,20.729,23.047,29.219
			c11.404,10.572,24.326,20.967,38.568,31.208c23.203-18.075,43.954-36.378,58.74-55.234c8.528-10.875,13.453-24.293,13.206-38.11
			c-0.06-3.347-0.407-6.501-1.025-9.474c-4.994-24.051-30.975-37.314-53.832-28.316C403.781,88.104,397.894,93.535,394.354,102.158z
			" style="fill:#fff"/>
      <path d="M422.575,192.739c-8.806,7.926-18.273,15.705-28.254,23.484
			c-14.237-10.274-27.153-20.622-38.528-31.189c-9.173-8.513-17.173-18.2-23.043-29.208c-10.715-20.108-12.696-39.115-1.394-56.507
			c4.476-6.825,10.861-12.255,18.2-15.411C362.765,127.059,388.524,164.779,422.575,192.739z" style="fill:#e7e6fd"/>
      <path d="M498.997 60.978c3.272-10.063 1.416-18.763-3.643-25.075l-8.88-11.079c-1.072-1.335-2.77-2.019-4.459-1.794-1.696.222-3.155 1.316-3.847 2.88-1.284 2.292-5.763 17.196-22 31.322-1.877 1.808-10.931 8.445-19.169 20.794l-.387.58c-8.888-2.074-18.268-1.499-26.962 1.923-6.344 2.495-11.471 6.399-15.32 11.65-7.27-10.651-17.222-16.115-29.684-16.265-5.306-.065-10.453.917-15.291 2.74-2.746-3.588-6.181-9.762-16.098-18.386-2.593-2.695-14.978-10.53-23.456-29.748l-2.033-4.61c-.691-1.565-2.151-2.658-3.847-2.88-1.715-.227-3.392.457-4.459 1.794l-8.88 11.079c-5.538 6.909-6.524 16.207-3.646 25.08-.771 1.541-9.692 8.154-6.038 24.355.987 4.376 2.904 8.587 5.551 12.438-4.897 9.915-1.272 23.107 9.394 31.657l30.409 24.377c12.899 27.128 40.446 48.559 65.242 66.391.856.615 1.859.921 2.861.921 1.065 0 2.127-.347 3.012-1.033 27.368-21.32 46.301-39.138 59.585-56.075 3.711-4.733 6.718-9.873 9.019-15.242l24.124-19.339c10.675-8.555 14.297-21.764 9.383-31.682C514.215 76.172 499.156 61.468 498.997 60.978zM327.266 96.677c-7.797 11.951-10.131 25.26-7.049 39.738l-18.247-14.629c-5.392-4.322-8.203-10.41-7.837-15.633 2.19 1.813 7.54 6.067 11.765 9.464 2.114 1.695 5.201 1.349 6.887-.758 1.691-2.112 1.352-5.196-.758-6.887-7.235-6.751-18.617-11.681-21.571-24.789-1.055-4.672-.514-9.048 1.512-12.55 4.151 5.512 10.605 11.387 19.758 18.028 1.597 1.155 4.131 1.333 6.057-.363 2.229-1.961 2.402-5.408-.115-7.426-7.663-7.217-13.706-8.382-20.949-21.323-2.557-6.289-2.237-12.847 1.507-17.516l3.873-4.832c8.925 18.297 23.437 29.137 24.727 30.461 5.312 4.62 9.936 9.85 13.769 15.539C335.446 86.637 330.877 91.145 327.266 96.677zM449.237 157.965c-12.308 15.698-29.837 32.315-54.999 52.123-20.581-15.035-45.228-34.215-57.176-56.602-10.648-19.942-11.167-36.772-1.591-51.456 6.684-10.241 17.38-16.32 28.676-16.32 12.442 0 20.433 7.118 25.767 18.524.823 1.761 2.62 2.976 4.555 2.821 1.945-.045 3.677-1.237 4.414-3.036 2.876-7.002 7.572-11.703 14.354-14.371 20.146-7.929 42.891 3.802 47.241 24.751C463.288 127.961 459.914 144.352 449.237 157.965zM485.179 98.935l-11.273 9.036c-2.11 1.691-2.45 4.775-.758 6.887 1.696 2.114 4.779 2.448 6.887.758 3.259-2.621 9.469-7.565 11.767-9.467.367 5.224-2.446 11.314-7.839 15.637l-13.421 10.76c.963-6.696.93-13.408-.471-20.137-2.631-12.674-10.854-24.049-23.881-30.397 7.225-10.293 14.375-15.447 16.407-17.387 8.976-7.808 16.272-17.241 21.236-27.425l3.873 4.832c2.899 3.615 3.835 8.541 2.634 13.866-1.466 6.455-5.341 10.941-10.941 16.05l-11.132 8.924c-1.514 1.213-2.382 3.602-1.253 5.928 1.521 3.133 5.021 3.437 7.195 1.861 9.153-6.643 15.61-12.519 19.758-18.031C498.705 78.782 495.071 91.007 485.179 98.935zM108.995 281.539c-15.39 49.911-48.969 86.997-99.113 98.323-1.998.452-3.505 2.098-3.777 4.129s.749 4.014 2.557 4.976c10.95 5.823 22.279 10.653 33.669 14.356 59.665 19.388 124.909-4.683 159.334-55.403 1.406-1.616 18.916-32.2 55.482-48.875 10.785-4.917 22.262-9.347 34.247-13.336l83.908 187.167c6.282 14.016 22.951 20.176 36.901 13.332 13.874-6.806 19.325-23.713 12.048-37.341l-94.748-177.398c12.795-18.738-11.05-63.951-24.13-83.724-13.928-21.059-51.719-66.839-72.867-52.822-5.449 3.607-7.318 10.11-7.538 16.589-8.285 18.51-25.74 35.937-53.838 53.963C145.26 222.091 118.804 249.737 108.995 281.539zM45.36 394.004c-6.921-2.249-13.823-4.938-20.624-8.031 20.771-6.651 38.611-17.634 53.816-33.083 19.001 22.001 34.756 23.795 61.426 22.311 7.48-.419 14.601-.741 21.448.085C128.298 399.091 85.171 406.942 45.36 394.004zM193.553 342.423c-6.352 9.359-13.8 17.666-22.038 24.901-10.969-3.018-19.85-2.583-32.083-1.909-24.731 1.378-37.268.194-54.196-19.795 11.312-13.192 22.223-30.625 28.921-48.73 7.587 9.253 16.995 18.04 29.718 22.189 11.093 3.653 22.569 3.002 33.66 2.376 11.348-.642 20.612-1.159 30.667 2.01C199.394 333.234 194.221 341.497 193.553 342.423zM253.081 290.132c-13.641 6.219-26.24 14.943-37.427 25.666-13.259-5.305-23.212-5.008-38.669-4.126-10.655.596-20.713 1.167-30.059-1.904-12.563-4.098-21.694-14.182-29.008-23.961 5.774-18.453 16.143-36.183 36.469-54.906 23.675 36.949 38.111 41.773 72.328 41.073 19.092-.41 28.717-.031 45.087 10.405C265.394 284.836 259.104 287.386 253.081 290.132zM415.609 453.486c4.673 8.751 1.153 19.575-7.72 23.925-8.832 4.337-19.569.541-23.643-8.543L300.807 282.75c23.873-7.278 15.388-3.922 20.696-5.464L415.609 453.486zM237.914 143.097c13.138-8.679 47.243 31.847 59.288 50.056 11.142 16.844 35.873 65.547 22.87 74.145-12.885 8.503-47.103-31.64-59.288-50.056C249.642 200.398 224.911 151.694 237.914 143.097zM226.995 167.907c4.513 18.654 14.976 38.654 25.617 54.741 11.683 17.661 29.665 39.515 47.942 50.007-5.919 1.757-11.732 3.611-17.417 5.579-20.869-15-32.612-16.552-56.63-16.056-30.82.622-42.031-2.319-64.654-37.787 3.83-3.173 5.231-4.677 14.569-10.667C200.041 198.572 216.602 183.594 226.995 167.907z" style="fill:#3a4b81"/>
    </g>
  </g>
</svg>
