<svg xmlns="http://www.w3.org/2000/svg" xml:space="preserve" style="enable-background:new 0 0 512 512" viewBox="0 0 512 512">
  <g id="_x30_2_Champagne">
    <g>
      <path d="M324.02,153.435l34.365,34.365c-30.717,28.284-53.98,62.462-67.092,104.668
			c-2.832,9.117-5.926,18.161-9.744,26.911c-8.871,20.334-19.419,38.998-31.973,55.667c-5.196,6.9-10.983,13.335-17.091,19.442
			L137.574,489.4c-13.902,13.902-36.44,13.902-50.342,0l-65.582-65.582c-14.071-14.071-13.874-36.943,0.436-50.77l105.741-102.172
			c16.544-15.985,35.59-29.272,56.647-38.537c10.247-4.509,20.703-8.054,31.348-10.725c12.579-3.156,24.964-7.132,36.719-12.611
			C279.91,196.245,303.618,177.529,324.02,153.435z" style="fill:#9a88fb"/>
      <path d="M286.283,307.42c1.796-4.939,3.451-9.931,5.011-14.952c13.112-42.205,36.374-76.384,67.092-104.668
			l-34.365-34.365c-20.403,24.094-44.11,42.81-71.479,55.568c-11.755,5.48-24.139,9.455-36.719,12.611
			c-4.002,1.004-7.967,2.174-11.914,3.43C222.339,261.161,249.798,288.619,286.283,307.42z" style="fill:#fff"/>
      <path d="M358.408,187.794c-30.745,28.297-53.999,62.469-67.12,104.669
			c-1.567,5.043-3.231,10.036-4.994,14.932c-25.653-13.218-46.901-30.745-63.595-52.531c4.749,0.881,9.693,1.322,14.687,1.322
			c46.215,0,83.667-37.452,83.667-83.667c0-4.847-0.391-9.595-1.273-14.246c1.469-1.567,2.84-3.182,4.26-4.847L358.408,187.794z" style="fill:#e7e6fd"/>
      <path d="M397.122,146.954l-32.255-32.255c-3.912-3.912-10.256-3.912-14.168,0l-25.623,25.623
			c-3.912,3.912-3.912,10.256,0,14.168l32.255,32.255c3.912,3.912,10.256,3.912,14.168,0l25.623-25.623
			C401.034,157.21,401.034,150.866,397.122,146.954z" style="fill:#fbecb3"/>
      <path d="M194.935,390.875l-64.177,64.177c-6.854,6.854-17.966,6.854-24.82,0l-49.94-49.94
			c-6.854-6.854-6.854-17.966,0-24.82l64.177-64.176c8.64-8.64,23.244-6.027,28.353,5.072l10.316,22.414
			c1.75,3.803,4.802,6.855,8.605,8.605l22.414,10.316C200.962,367.631,203.575,382.235,194.935,390.875z" style="fill:#fff"/>
      <path d="M194.941,390.867l-64.182,64.182c-6.854,6.854-17.967,6.854-24.821,0l-49.936-49.936
			c-6.854-6.854-6.854-17.967,0-24.821l2.154-2.105l7.393,7.393c29.178,29.178,76.422,29.178,105.6,0l21.492-21.492
			C201.354,370.207,202.774,383.034,194.941,390.867z" style="fill:#e7e6fd"/>
      <rect width="43.2" height="37.516" x="424.49" y="46.973" style="fill:#fff" transform="rotate(-45.001 446.091 65.736)"/>
      <path d="M474.631,63.737l-30.549,30.549l-26.535-26.535l8.029-8.029c0.636,1.077,1.42,2.056,2.35,2.986
			l5.777,5.777c5.728,5.728,15.03,5.728,20.758,0l9.791-9.791c0.93-0.93,1.714-1.909,2.35-2.986L474.631,63.737z" style="fill:#e7e6fd"/>
      <path d="M488.795,69.448l10.249-10.249c2.331-2.331,2.331-6.11,0-8.441l-37.983-37.983
			c-2.331-2.331-6.11-2.331-8.441,0l-10.249,10.249c-2.331,2.331-2.331,6.11,0,8.441l37.983,37.983
			C482.686,71.779,486.465,71.779,488.795,69.448z" style="fill:#fbecb3"/>
      <circle cx="162.536" cy="348.515" r="18.154" style="fill:#fbecb3"/>
      <path d="M477.275,305.437c0,1.224,0,2.448-0.098,3.623c-1.42,47.39-30.843,85.136-66.875,85.136
			c-33.046,0-60.511-31.724-65.945-73.484c-0.685-4.945-1.028-10.085-1.028-15.275c0-14.198,2.546-27.563,7.05-39.459h119.847
			C474.68,277.874,477.275,291.24,477.275,305.437z" style="fill:#fff"/>
      <path d="M360.073,320.663v0.392c0,5.189,0.343,10.33,1.028,15.275c2.497,18.995,9.498,35.885,19.485,48.663
			c-18.8-12.337-32.556-36.032-36.228-64.28c-0.685-4.945-1.028-10.085-1.028-15.275c0-14.198,2.546-27.563,7.05-39.459h119.847
			c1.86,4.994,3.427,10.232,4.553,15.666h-74.659C378.382,281.644,360.17,298.926,360.073,320.663z" style="fill:#e7e6fd"/>
      <path d="M477.177,309.06c-1.42,47.39-30.843,85.136-66.875,85.136c-33.046,0-60.511-31.724-65.945-73.484
			c3.476-0.343,6.952-0.098,10.281,0.93c4.602,1.469,8.567,4.357,12.631,6.952c14.051,9.008,31.431,15.226,47.341,10.183
			c10.134-3.231,18.359-10.673,27.318-16.4C452.601,315.571,464.693,311.018,477.177,309.06z" style="fill:#fbecb3"/>
      <path d="M359.398,193.658c5.759,2.051,11.653,0.461,15.566-3.448l25.622-25.622
			c5.83-5.83,5.834-15.268,0-21.098l-32.255-32.255c-5.813-5.818-15.282-5.818-21.095,0l-25.624,25.624
			c-4.249,4.249-5.358,10.437-3.398,15.735c-19.725,22.685-42.483,40.196-67.739,51.97c-25.571,11.921-40.777,11.322-67.972,23.291
			c-20.957,9.222-40.497,22.512-58.078,39.497L18.681,369.524c-16.292,15.743-16.515,41.74-0.495,57.76l65.582,65.58
			c15.788,15.788,41.48,15.79,57.269,0c92.591-93.273,99.885-98.181,112.452-114.871c12.354-16.402,23.303-35.463,32.55-56.654
			c3.397-7.787,6.459-16.241,9.933-27.416C307.961,255.337,328.774,222.527,359.398,193.658z M328.539,143.787l25.624-25.624
			c1.997-1.997,5.239-2,7.239,0l32.255,32.255c0,0,0,0,0,0.002c1.998,1.994,2.004,5.233,0,7.237l-25.622,25.622
			c-1.993,1.998-5.244,2-7.241,0.002l-32.255-32.255C326.544,149.031,326.544,145.782,328.539,143.787z M245.662,372.098
			c-11.865,15.757-17.154,18.777-111.553,113.838c-11.971,11.964-31.442,11.966-43.413,0l-65.582-65.58
			c-12.142-12.142-11.974-31.85,0.376-43.784l105.742-102.173c16.746-16.179,35.322-28.822,55.217-37.576
			c4.931-2.169,9.99-4.137,15.14-5.895c18.127,33.791,44.548,60.231,78.637,78.698c-1.04,2.704-2.085,5.317-3.166,7.793
			C268.119,337.91,257.554,356.307,245.662,372.098z M283.551,300.412c-31.219-17.209-55.581-41.525-72.532-72.407
			c10.993-3.136,25.252-6.01,43.593-14.562c25.933-12.088,49.346-29.844,69.666-52.82l13.499,13.498l13.563,13.565
			C314.311,223.024,299.809,252.537,283.551,300.412z" style="fill:#3a4b81"/>
      <path d="m191.91 358.072-7.275-3.349c2.438-8.727-.228-16.938-5.799-22.51-6.092-6.092-14.747-7.956-22.505-5.791l-3.351-7.282c-6.532-14.193-25.233-17.522-36.267-6.488l-64.178 64.176c-8.753 8.753-8.753 22.995 0 31.748l49.939 49.939c8.749 8.749 22.992 8.756 31.748 0l64.178-64.176C209.44 383.299 206.096 364.601 191.91 358.072zM171.908 339.142c5.171 5.171 5.178 13.568 0 18.746-5.17 5.17-13.579 5.165-18.744 0-5.178-5.178-5.178-13.568 0-18.746C158.331 333.975 166.74 333.975 171.908 339.142zM191.472 387.411l-64.178 64.176c-4.933 4.931-12.959 4.931-17.892 0l-49.939-49.939c-4.933-4.933-4.933-12.959 0-17.892l64.178-64.176c6.223-6.223 16.742-4.369 20.437 3.655l3.593 7.806c-10.793 9.188-10.566 24.644-1.435 33.775 9.086 9.091 24.58 9.364 33.779-1.434l7.799 3.59C195.777 370.638 197.741 381.137 191.472 387.411zM464.527 9.311c-4.234-4.239-11.134-4.239-15.368 0l-10.251 10.251c-4.237 4.237-4.237 11.131 0 15.368l2.263 2.263L414.09 64.276c-1.914 1.914-1.914 5.014 0 6.928l26.526 26.528c1.91 1.91 5.012 1.917 6.928 0l27.083-27.083 2.266 2.266c4.231 4.231 11.131 4.235 15.366 0 .002 0 .002-.002.002-.002l10.251-10.251c4.232-4.237 4.232-11.129-.002-15.368L464.527 9.311zM444.08 87.341l-19.598-19.6 23.617-23.619 19.6 19.6L444.08 87.341zM495.581 55.736l-10.246 10.246c-.416.421-1.096.423-1.517.002l-5.727-5.727-26.528-26.528-5.727-5.727c-.416-.416-.416-1.096 0-1.512l10.251-10.251c.413-.413 1.097-.415 1.512 0l37.98 37.98C495.997 54.638 495.997 55.32 495.581 55.736zM411.049 107.699l5.426-5.426c1.914-1.914 1.914-5.014 0-6.928s-5.014-1.914-6.928 0l-5.426 5.426c-1.914 1.914-1.914 5.014 0 6.928C406.035 109.613 409.135 109.613 411.049 107.699zM410.279 129.99c.35 2.698 2.833 4.581 5.49 4.227l6.792-.883c2.684-.349 4.576-2.806 4.227-5.49s-2.806-4.581-5.49-4.227l-6.792.883C411.822 124.849 409.93 127.306 410.279 129.99zM381.834 101.541c2.64.356 5.136-1.519 5.488-4.23l.88-6.792c.347-2.682-1.545-5.141-4.23-5.488-2.67-.376-5.141 1.543-5.488 4.23l-.88 6.792C377.258 98.735 379.15 101.194 381.834 101.541zM474.813 264.261c-.718-1.914-2.545-3.182-4.588-3.182H350.378c-2.036 0-3.861 1.261-4.581 3.165-4.89 12.918-7.368 26.777-7.368 41.193 0 43.434 24.704 89.677 66.97 93.374v97.259h-17.131c-2.706 0-4.899 2.194-4.899 4.899s2.194 4.899 4.899 4.899c1.393 0 45.578 0 44.061 0 2.706 0 4.899-2.194 4.899-4.899s-2.194-4.899-4.899-4.899h-17.131v-97.285c42.513-3.7 66.977-50.161 66.977-93.348C482.175 291.16 479.699 277.306 474.813 264.261zM410.303 389.297c-32.479 0-54.281-31.303-60.168-63.638 5.105.678 8.861 3.375 14.492 7.061 12.875 8.256 32.263 16.815 51.473 10.725 11.008-3.508 19.608-11.272 28.464-16.935 8.303-5.295 17.644-9.192 27.309-11.431C468.854 350.934 445.959 389.297 410.303 389.297zM353.823 270.878h112.948c3.682 10.895 5.553 22.383 5.591 34.197-11.697 2.36-23.067 6.795-33.071 13.173-8.826 5.643-16.955 12.926-26.16 15.859-16.411 5.184-34.121-3.806-43.224-9.641-7.36-4.647-11.936-8.292-21.136-8.726-.322-3.381-.543-6.811-.543-10.303C348.227 293.384 350.108 281.775 353.823 270.878z" style="fill:#3a4b81"/>
    </g>
  </g>
</svg>
