<svg xmlns="http://www.w3.org/2000/svg" xml:space="preserve" style="enable-background:new 0 0 512 512" viewBox="0 0 512 512">
  <g id="_x30_3_Chocolates_Box">
    <g>
      <path d="M413.066,169.952c-2.68,11.244-6.561,22.287-11.519,32.88
			c-30.801,65.71-93.331,121.528-187.864,167.43c-12.271-7.513-24.115-15.15-35.509-22.888c-1.628-1.102-3.255-2.229-4.858-3.331
			c-4.107-2.83-8.114-5.659-12.095-8.514c-2.028-1.452-4.032-2.905-6.01-4.382c-7.813-5.71-15.351-11.519-22.613-17.379
			c-3.806-3.08-7.538-6.16-11.194-9.266c-2.079-1.753-4.132-3.531-6.135-5.309c-2.028-1.753-4.032-3.531-5.985-5.334
			c-1.978-1.778-3.907-3.556-5.835-5.359c-5.76-5.384-11.269-10.843-16.528-16.352c-0.05-0.025-0.075-0.05-0.1-0.1
			c-1.728-1.803-3.431-3.606-5.084-5.409c-1.653-1.803-3.255-3.581-4.858-5.384c-0.075-0.075-0.125-0.125-0.175-0.2
			c-1.578-1.803-3.155-3.606-4.708-5.434c-0.075-0.1-0.175-0.2-0.25-0.3c-3.13-3.706-6.16-7.437-9.065-11.219
			c-2.955-3.806-5.785-7.638-8.489-11.519c-1.102-1.553-2.179-3.105-3.23-4.683c-0.426-0.626-0.851-1.277-1.252-1.903
			c-1.127-1.703-2.229-3.381-3.28-5.083c-1.227-1.978-2.429-3.957-3.606-5.935c-1.177-1.978-2.304-3.957-3.406-5.96
			c-0.075-0.1-0.125-0.2-0.175-0.3c-0.952-1.703-1.878-3.406-2.755-5.134c-1.152-2.179-2.254-4.382-3.33-6.611
			c-4.558-9.391-8.289-19.182-11.018-29.199c-2.805-10.192-4.583-20.634-5.134-31.227c-1.728-34.107,8.139-63.456,29.675-87.972
			c20.509-23.364,49.808-37.813,80.885-37.012c36.561,0.977,64.558,21.185,86.119,55.793c16.427-21.035,34.883-36.711,55.618-46.403
			c14.199-6.636,29.499-9.942,44.7-9.916c17.654,0.05,35.184,4.608,50.61,13.748c2.755,1.603,5.409,3.356,8.013,5.259
			c19.883,14.574,32.379,35.084,39.366,60.05C419.326,116.312,419.376,143.758,413.066,169.952z" style="fill:#9a88fb"/>
      <line x1="213.683" x2="213.683" y1="370.262" y2="445.988" style="fill:#fff"/>
      <path d="M401.547,278.558c-30.801,65.71-93.331,121.528-187.864,167.43
			c-14.199-8.715-27.846-17.554-40.868-26.569c-14.174-9.766-27.621-19.733-40.217-29.925
			c-44.75-36.085-79.157-74.725-99.441-116.795c-9.14-18.957-15.075-39.391-16.152-60.426c-0.801-15.852,0.901-30.701,5.134-44.499
			c2.729,10.017,6.461,19.808,11.018,29.199c20.284,42.07,54.691,80.71,99.441,116.795c12.596,10.167,26.018,20.159,40.217,29.925
			c0.175,0.125,0.326,0.225,0.501,0.351c12.872,8.89,26.344,17.63,40.367,26.219c94.533-45.902,157.062-101.72,187.864-167.43
			c4.958-10.593,8.84-21.636,11.519-32.88C422.131,206.238,417.448,244.627,401.547,278.558z" style="fill:#fbecb3"/>
      <path d="M364.61,24.784L173.315,344.043c-4.107-2.83-8.114-5.659-12.095-8.514
			c-2.028-1.452-4.032-2.905-6.01-4.382c-7.813-5.71-15.351-11.519-22.613-17.379L314,11.037
			C331.655,11.087,349.184,15.644,364.61,24.784z" style="fill:#fff"/>
      <path d="M364.617,24.784l-191.31,319.26c-4.114-2.837-8.086-5.674-12.105-8.511
			c-2.033-1.466-4.019-2.932-6.005-4.397c-7.802-5.721-15.32-11.49-22.602-17.353l8.511-14.185c2.411,1.844,4.823,3.641,7.282,5.438
			c1.986,1.466,3.972,2.932,6.005,4.397c0.047,0.047,0.094,0.047,0.142,0.094c6.431,4.587,15.415,2.695,19.481-4.114L347.028,16.604
			C353.08,18.732,358.99,21.474,364.617,24.784z" style="fill:#e7e6fd"/>
      <path d="M172.814,343.692v75.727c-14.174-9.766-27.621-19.733-40.217-29.925v-75.726
			C145.193,323.934,158.616,333.926,172.814,343.692z" style="fill:#fff"/>
      <path d="M172.834,390.146v29.269c-14.185-9.741-27.661-19.718-40.239-29.931v-75.701
			c6.809,5.532,13.901,10.97,21.23,16.407c-3.593,3.499-5.91,8.417-5.91,14.185v26.148c0,6.052,2.743,11.868,7.518,15.604
			c0.142,0.095,0.284,0.189,0.426,0.331C161.108,390.524,167.255,391.517,172.834,390.146z" style="fill:#e7e6fd"/>
      <path d="M219.507,222.822c7.913-37.338,26.869-71.437,54.404-97.867
			c7.234,7.536,14.467,15.072,21.701,22.607c-22.997,22.085-38.83,50.568-45.449,81.757
			C236.012,234.216,226.341,231.018,219.507,222.822z" style="fill:#fbecb3"/>
      <path d="M347.875,222.822c-7.913-37.338-26.869-71.437-54.404-97.867
			c-7.234,7.536-14.467,15.072-21.701,22.607c22.997,22.085,38.83,50.568,45.449,81.757
			C331.369,234.216,341.04,231.018,347.875,222.822z" style="fill:#fbecb3"/>
      <path d="M280.348,101.557v52.145L219.7,167.369c-17.573,3.96-34.282-9.403-34.282-27.417v-24.646
			c0-18.014,16.709-31.377,34.282-27.417L280.348,101.557z" style="fill:#fff"/>
      <path d="M280.358,136.941v16.739l-60.665,13.712c-17.542,3.925-34.281-9.409-34.281-27.425v-24.682
			c0-10.639,5.863-19.67,14.28-24.446c-0.236,1.466-0.378,3.026-0.378,4.587v24.682c0,18.015,16.738,31.349,34.281,27.425
			L280.358,136.941z" style="fill:#e7e6fd"/>
      <path d="M287.033,101.557v52.145l60.648,13.667c17.573,3.96,34.283-9.403,34.283-27.417v-24.646
			c0-18.014-16.709-31.377-34.283-27.417L287.033,101.557z" style="fill:#fff"/>
      <path d="M381.97,115.285v24.682c0,18.015-16.738,31.349-34.281,27.425l-60.665-13.712v-14.705
			l45.392,10.261c17.59,3.924,34.281-9.409,34.281-27.425V97.128c0-2.553-0.331-4.965-0.946-7.282
			C375.209,94.291,381.97,103.843,381.97,115.285z" style="fill:#e7e6fd"/>
      <circle cx="283.691" cy="127.629" r="33.712" style="fill:#fbecb3" transform="rotate(-76.714 283.715 127.63)"/>
      <path d="M360.181,386.316c-0.629,2.637-1.539,5.228-2.702,7.712c-7.225,15.413-21.892,28.506-44.065,39.272
			c-2.878-1.762-5.656-3.554-8.329-5.369c-0.382-0.258-0.764-0.523-1.14-0.781c-0.963-0.664-1.903-1.327-2.837-1.997
			c-0.476-0.341-0.946-0.681-1.41-1.028c-1.833-1.339-3.601-2.702-5.304-4.076c-0.893-0.723-1.768-1.445-2.626-2.173
			c-0.488-0.411-0.969-0.828-1.439-1.245c-0.476-0.411-0.946-0.828-1.404-1.251c-0.464-0.417-0.916-0.834-1.369-1.257
			c-1.351-1.263-2.643-2.543-3.877-3.836c-0.012-0.006-0.018-0.012-0.023-0.024c-0.405-0.423-0.805-0.846-1.192-1.269
			c-0.388-0.423-0.764-0.84-1.139-1.263c-0.018-0.018-0.029-0.029-0.041-0.047c-0.37-0.423-0.74-0.846-1.104-1.275
			c-0.018-0.023-0.041-0.047-0.059-0.07c-0.734-0.869-1.445-1.744-2.126-2.631c-0.693-0.893-1.357-1.792-1.991-2.702
			c-0.258-0.364-0.511-0.728-0.758-1.098c-0.1-0.147-0.2-0.3-0.294-0.446c-0.264-0.399-0.523-0.793-0.769-1.192
			c-0.288-0.464-0.57-0.928-0.846-1.392c-0.276-0.464-0.54-0.928-0.799-1.398c-0.018-0.023-0.029-0.047-0.041-0.07
			c-0.223-0.399-0.441-0.799-0.646-1.204c-0.27-0.511-0.529-1.028-0.781-1.551c-1.069-2.203-1.944-4.499-2.584-6.849
			c-0.658-2.391-1.075-4.84-1.204-7.325c-0.405-8,1.909-14.884,6.96-20.635c4.811-5.48,11.683-8.869,18.972-8.681
			c8.576,0.229,15.143,4.969,20.2,13.087c3.853-4.934,8.182-8.611,13.046-10.884c3.33-1.557,6.919-2.332,10.485-2.326
			c4.141,0.012,8.253,1.081,11.871,3.225c0.646,0.376,1.269,0.787,1.88,1.233c4.664,3.419,7.595,8.229,9.234,14.085
			C361.65,373.734,361.662,380.172,360.181,386.316z" style="fill:#fff"/>
      <path d="M334.639,420.644c-6.1,4.539-13.145,8.748-21.231,12.672c-2.884-1.797-5.674-3.546-8.322-5.39
			c-0.378-0.236-0.757-0.52-1.135-0.757c-0.993-0.662-1.891-1.324-2.837-2.033c-0.473-0.331-0.946-0.662-1.418-0.993
			c-1.844-1.371-3.594-2.743-5.296-4.114c-0.898-0.709-1.797-1.418-2.648-2.175c-0.473-0.378-0.946-0.804-1.418-1.229
			c-0.473-0.426-0.946-0.804-1.419-1.229c-0.473-0.425-0.898-0.851-1.371-1.277c-1.324-1.276-2.648-2.553-3.877-3.83
			c0,0,0,0,0-0.047c-0.425-0.378-0.804-0.804-1.182-1.229c-0.425-0.426-0.804-0.851-1.182-1.277v-0.047
			c-0.378-0.425-0.756-0.851-1.135-1.276c0-0.047-0.047-0.047-0.047-0.095c-0.756-0.851-1.466-1.702-2.128-2.601
			c-0.709-0.898-1.371-1.797-1.986-2.695c-0.284-0.378-0.52-0.757-0.756-1.135c-0.095-0.142-0.189-0.284-0.284-0.426
			c-0.284-0.378-0.52-0.804-0.804-1.182c-0.284-0.473-0.567-0.946-0.804-1.418c-0.284-0.426-0.567-0.898-0.804-1.371
			c-0.047-0.047-0.047-0.047-0.047-0.094c-0.236-0.378-0.473-0.804-0.662-1.182c-0.284-0.52-0.52-1.04-0.756-1.56
			c-1.088-2.222-1.986-4.492-2.601-6.856c-0.662-2.364-1.087-4.823-1.229-7.329c-0.378-7.991,1.939-14.895,6.998-20.616
			c4.776-5.485,11.679-8.889,18.961-8.7h0.378c-1.135,4.492-1.702,9.22-1.702,14.091
			C291.895,390.335,309.91,413.268,334.639,420.644z" style="fill:#e7e6fd"/>
      <path d="M494.145,338.354c-0.628,2.637-1.539,5.228-2.702,7.712c-7.225,15.413-21.892,28.506-44.065,39.272
			c-2.878-1.762-5.656-3.554-8.329-5.369c-0.382-0.258-0.764-0.523-1.14-0.781c-0.963-0.664-1.903-1.327-2.837-1.997
			c-0.476-0.341-0.946-0.681-1.41-1.028c-1.833-1.339-3.601-2.702-5.304-4.076c-0.893-0.723-1.768-1.445-2.626-2.173
			c-0.488-0.411-0.969-0.828-1.439-1.245c-0.476-0.411-0.946-0.828-1.404-1.251c-0.464-0.417-0.916-0.834-1.369-1.257
			c-1.351-1.263-2.643-2.543-3.877-3.836c-0.012-0.006-0.018-0.012-0.023-0.023c-0.405-0.423-0.805-0.846-1.192-1.269
			c-0.388-0.423-0.764-0.84-1.14-1.263c-0.018-0.018-0.029-0.029-0.041-0.047c-0.37-0.423-0.74-0.846-1.104-1.275
			c-0.018-0.023-0.041-0.047-0.059-0.07c-0.734-0.869-1.445-1.745-2.126-2.631c-0.693-0.893-1.357-1.792-1.991-2.702
			c-0.258-0.364-0.511-0.728-0.758-1.098c-0.1-0.147-0.2-0.3-0.294-0.446c-0.264-0.399-0.523-0.793-0.769-1.192
			c-0.288-0.464-0.57-0.928-0.846-1.392c-0.276-0.464-0.54-0.928-0.799-1.398c-0.018-0.023-0.029-0.047-0.041-0.07
			c-0.223-0.399-0.441-0.799-0.646-1.204c-0.27-0.511-0.529-1.028-0.781-1.551c-1.069-2.203-1.944-4.499-2.584-6.849
			c-0.658-2.391-1.075-4.84-1.204-7.325c-0.405-8,1.909-14.884,6.96-20.635c4.811-5.48,11.683-8.869,18.972-8.681
			c8.576,0.229,15.143,4.969,20.2,13.087c3.853-4.934,8.182-8.611,13.046-10.884c3.33-1.557,6.919-2.332,10.485-2.326
			c4.141,0.012,8.253,1.081,11.871,3.225c0.646,0.376,1.269,0.787,1.88,1.233c4.664,3.419,7.595,8.229,9.234,14.085
			C495.613,325.773,495.625,332.21,494.145,338.354z" style="fill:#fff"/>
      <path d="M474.505,367.828c-7.234,6.431-16.313,12.247-27.141,17.495c-2.884-1.749-5.627-3.546-8.322-5.343
			c-0.378-0.284-0.756-0.52-1.135-0.804c-0.946-0.662-1.891-1.324-2.837-1.986c-0.473-0.331-0.946-0.662-1.418-1.04
			c-1.844-1.324-3.594-2.695-5.296-4.066c-0.898-0.709-1.75-1.419-2.601-2.175c-0.52-0.426-0.993-0.804-1.466-1.229
			c-0.473-0.425-0.946-0.851-1.418-1.276c-0.425-0.378-0.898-0.804-1.371-1.229c-1.324-1.277-2.601-2.553-3.877-3.83v-0.047
			c-0.426-0.426-0.804-0.851-1.182-1.277c-0.378-0.425-0.757-0.804-1.135-1.229c-0.047-0.047-0.047-0.047-0.047-0.047
			c-0.378-0.425-0.757-0.851-1.135-1.276c0-0.047,0-0.047-0.047-0.095c-0.709-0.851-1.418-1.749-2.128-2.648
			c-0.662-0.851-1.324-1.749-1.986-2.695c-0.236-0.331-0.52-0.709-0.757-1.087c-0.094-0.142-0.189-0.284-0.284-0.426
			c-0.284-0.425-0.52-0.804-0.756-1.229c-0.284-0.425-0.567-0.898-0.851-1.371c-0.284-0.473-0.567-0.946-0.804-1.418
			c-0.047,0-0.047-0.047-0.047-0.047c-0.237-0.378-0.426-0.804-0.662-1.229c-0.236-0.473-0.52-0.993-0.757-1.513
			c-1.087-2.222-1.939-4.492-2.601-6.856c-0.662-2.411-1.087-4.87-1.182-7.329c-0.425-7.991,1.891-14.894,6.951-20.616
			c4.397-5.012,10.544-8.322,17.164-8.653C425.471,332.507,446.087,358.986,474.505,367.828z" style="fill:#e7e6fd"/>
      <path d="M461.235,453.979c-0.628,2.637-1.539,5.228-2.702,7.712c-7.225,15.413-21.892,28.506-44.065,39.272
			c-2.878-1.762-5.656-3.554-8.329-5.369c-0.382-0.258-0.764-0.523-1.14-0.781c-0.963-0.664-1.903-1.327-2.837-1.997
			c-0.476-0.341-0.946-0.681-1.41-1.028c-1.833-1.339-3.601-2.702-5.304-4.076c-0.893-0.723-1.768-1.445-2.626-2.173
			c-0.488-0.411-0.969-0.828-1.439-1.245c-0.476-0.411-0.946-0.828-1.404-1.251c-0.464-0.417-0.916-0.834-1.369-1.257
			c-1.351-1.263-2.643-2.543-3.877-3.836c-0.012-0.006-0.018-0.012-0.023-0.024c-0.405-0.423-0.805-0.846-1.192-1.269
			c-0.388-0.423-0.764-0.84-1.14-1.263c-0.018-0.018-0.029-0.029-0.041-0.047c-0.37-0.423-0.74-0.846-1.104-1.275
			c-0.018-0.023-0.041-0.047-0.059-0.07c-0.734-0.869-1.445-1.745-2.126-2.631c-0.693-0.893-1.357-1.792-1.991-2.702
			c-0.258-0.364-0.511-0.728-0.758-1.098c-0.1-0.147-0.2-0.3-0.294-0.446c-0.264-0.399-0.523-0.793-0.769-1.192
			c-0.288-0.464-0.57-0.928-0.846-1.392c-0.276-0.464-0.54-0.928-0.799-1.398c-0.018-0.023-0.029-0.047-0.041-0.07
			c-0.223-0.399-0.441-0.799-0.646-1.204c-0.27-0.511-0.529-1.028-0.781-1.551c-1.069-2.203-1.944-4.499-2.585-6.849
			c-0.658-2.391-1.075-4.84-1.204-7.325c-0.405-8,1.909-14.884,6.96-20.635c4.811-5.48,11.683-8.869,18.972-8.681
			c8.576,0.229,15.143,4.969,20.2,13.087c3.853-4.934,8.182-8.611,13.046-10.884c3.33-1.557,6.919-2.332,10.485-2.326
			c4.141,0.012,8.253,1.081,11.871,3.225c0.646,0.376,1.269,0.787,1.88,1.233c4.664,3.419,7.595,8.229,9.234,14.085
			C462.704,441.397,462.715,447.835,461.235,453.979z" style="fill:#fff"/>
      <path d="M435.921,488.071c-6.147,4.634-13.287,8.937-21.467,12.909c-2.885-1.797-5.627-3.546-8.322-5.39
			c-0.378-0.236-0.757-0.52-1.135-0.757c-0.946-0.662-1.891-1.324-2.837-2.033c-0.473-0.331-0.946-0.662-1.418-0.993
			c-1.844-1.371-3.594-2.743-5.296-4.114c-0.898-0.709-1.749-1.418-2.601-2.175c-0.52-0.378-0.993-0.804-1.466-1.229
			c-0.473-0.426-0.946-0.804-1.419-1.229c-0.425-0.425-0.898-0.851-1.371-1.277c-1.324-1.276-2.601-2.553-3.877-3.83
			c0,0,0,0,0-0.047c-0.425-0.378-0.804-0.804-1.182-1.229c-0.378-0.426-0.756-0.851-1.135-1.277c-0.047,0-0.047-0.047-0.047-0.047
			c-0.378-0.425-0.756-0.851-1.135-1.276c0-0.047,0-0.047-0.047-0.095c-0.709-0.851-1.418-1.702-2.128-2.601
			c-0.662-0.898-1.324-1.797-1.986-2.695c-0.236-0.378-0.52-0.757-0.756-1.135c-0.095-0.142-0.189-0.284-0.284-0.426
			c-0.284-0.378-0.52-0.804-0.757-1.182c-0.284-0.473-0.567-0.946-0.851-1.418c-0.284-0.426-0.567-0.898-0.804-1.371
			c-0.047-0.047-0.047-0.047-0.047-0.095c-0.236-0.378-0.426-0.804-0.662-1.182c-0.236-0.52-0.52-1.04-0.756-1.56
			c-1.088-2.222-1.939-4.492-2.601-6.856c-0.662-2.364-1.088-4.823-1.182-7.329c-0.426-7.991,1.891-14.894,6.951-20.616
			c4.823-5.485,11.679-8.889,18.961-8.7c0.804,0.047,1.607,0.095,2.411,0.237C396.77,446.934,412.421,473.176,435.921,488.071z" style="fill:#e7e6fd"/>
      <path d="M413.066,169.952c-2.68,11.244-6.561,22.287-11.519,32.88
			c-30.801,65.71-93.331,121.528-187.864,167.43c-12.271-7.513-24.115-15.15-35.509-22.888c-1.628-1.102-3.255-2.229-4.858-3.331
			c-4.107-2.83-8.114-5.659-12.095-8.514c-2.028-1.452-4.032-2.905-6.01-4.382c-7.813-5.71-15.351-11.519-22.613-17.379
			c-3.806-3.08-7.538-6.16-11.194-9.266c-2.079-1.753-4.132-3.531-6.135-5.309c-2.028-1.753-4.032-3.531-5.985-5.334
			c-1.978-1.778-3.907-3.556-5.835-5.359c-5.76-5.384-11.269-10.843-16.528-16.352c-0.05-0.025-0.075-0.05-0.1-0.1
			c-1.728-1.803-3.431-3.606-5.084-5.409c-1.653-1.803-3.255-3.581-4.858-5.384c-0.075-0.075-0.125-0.125-0.175-0.2
			c-1.578-1.803-3.155-3.606-4.708-5.434c-0.075-0.1-0.175-0.2-0.25-0.3c-3.13-3.706-6.16-7.437-9.065-11.219
			c-2.955-3.806-5.785-7.638-8.489-11.519c-1.102-1.553-2.179-3.105-3.23-4.683c-0.426-0.626-0.851-1.277-1.252-1.903
			c-1.127-1.703-2.229-3.381-3.28-5.083c-1.227-1.978-2.429-3.957-3.606-5.935c-1.177-1.978-2.304-3.957-3.406-5.96
			c-0.075-0.1-0.125-0.2-0.175-0.3c-0.952-1.703-1.878-3.406-2.755-5.134c-1.152-2.179-2.254-4.382-3.33-6.611
			c-4.558-9.391-8.289-19.182-11.018-29.199c-2.805-10.192-4.583-20.634-5.134-31.227c-1.728-34.107,8.139-63.456,29.675-87.972
			c20.509-23.364,49.808-37.813,80.885-37.012c36.561,0.977,64.558,21.185,86.119,55.793c16.427-21.035,34.883-36.711,55.618-46.403
			c14.199-6.636,29.499-9.942,44.7-9.916c17.654,0.05,35.184,4.608,50.61,13.748c2.755,1.603,5.409,3.356,8.013,5.259
			c19.883,14.574,32.379,35.084,39.366,60.05C419.326,116.312,419.376,143.758,413.066,169.952z" style="fill:#9a88fb"/>
      <line x1="213.683" x2="213.683" y1="370.262" y2="445.988" style="fill:#fff"/>
      <path d="M401.547,278.558c-30.801,65.71-93.331,121.528-187.864,167.43
			c-14.199-8.715-27.846-17.554-40.868-26.569c-14.174-9.766-27.621-19.733-40.217-29.925
			c-44.75-36.085-79.157-74.725-99.441-116.795c-9.14-18.957-15.075-39.391-16.152-60.426c-0.801-15.852,0.901-30.701,5.134-44.499
			c2.729,10.017,6.461,19.808,11.018,29.199c20.284,42.07,54.691,80.71,99.441,116.795c12.596,10.167,26.018,20.159,40.217,29.925
			c0.175,0.125,0.326,0.225,0.501,0.351c12.872,8.89,26.344,17.63,40.367,26.219c94.533-45.902,157.062-101.72,187.864-167.43
			c4.958-10.593,8.84-21.636,11.519-32.88C422.131,206.238,417.448,244.627,401.547,278.558z" style="fill:#fbecb3"/>
      <path d="M364.61,24.784L173.315,344.043c-4.107-2.83-8.114-5.659-12.095-8.514
			c-2.028-1.452-4.032-2.905-6.01-4.382c-7.813-5.71-15.351-11.519-22.613-17.379L314,11.037
			C331.655,11.087,349.184,15.644,364.61,24.784z" style="fill:#fff"/>
      <path d="M364.617,24.784l-191.31,319.26c-4.114-2.837-8.086-5.674-12.105-8.511
			c-2.033-1.466-4.019-2.932-6.005-4.397c-7.802-5.721-15.32-11.49-22.602-17.353l8.511-14.185c2.411,1.844,4.823,3.641,7.282,5.438
			c1.986,1.466,3.972,2.932,6.005,4.397c0.047,0.047,0.094,0.047,0.142,0.094c6.431,4.587,15.415,2.695,19.481-4.114L347.028,16.604
			C353.08,18.732,358.99,21.474,364.617,24.784z" style="fill:#e7e6fd"/>
      <path d="M172.814,343.692v75.727c-14.174-9.766-27.621-19.733-40.217-29.925v-75.726
			C145.193,323.934,158.616,333.926,172.814,343.692z" style="fill:#fff"/>
      <path d="M172.834,390.146v29.269c-14.185-9.741-27.661-19.718-40.239-29.931v-75.701
			c6.809,5.532,13.901,10.97,21.23,16.407c-3.593,3.499-5.91,8.417-5.91,14.185v26.148c0,6.052,2.743,11.868,7.518,15.604
			c0.142,0.095,0.284,0.189,0.426,0.331C161.108,390.524,167.255,391.517,172.834,390.146z" style="fill:#e7e6fd"/>
      <path d="M219.507,222.822c7.913-37.338,26.869-71.437,54.404-97.867
			c7.234,7.536,14.467,15.072,21.701,22.607c-22.997,22.085-38.83,50.568-45.449,81.757
			C236.012,234.216,226.341,231.018,219.507,222.822z" style="fill:#fbecb3"/>
      <path d="M347.875,222.822c-7.913-37.338-26.869-71.437-54.404-97.867
			c-7.234,7.536-14.467,15.072-21.701,22.607c22.997,22.085,38.83,50.568,45.449,81.757
			C331.369,234.216,341.04,231.018,347.875,222.822z" style="fill:#fbecb3"/>
      <path d="M280.348,101.557v52.145L219.7,167.369c-17.573,3.96-34.282-9.403-34.282-27.417v-24.646
			c0-18.014,16.709-31.377,34.282-27.417L280.348,101.557z" style="fill:#fff"/>
      <path d="M280.358,136.941v16.739l-60.665,13.712c-17.542,3.925-34.281-9.409-34.281-27.425v-24.682
			c0-10.639,5.863-19.67,14.28-24.446c-0.236,1.466-0.378,3.026-0.378,4.587v24.682c0,18.015,16.738,31.349,34.281,27.425
			L280.358,136.941z" style="fill:#e7e6fd"/>
      <path d="M287.033,101.557v52.145l60.648,13.667c17.573,3.96,34.283-9.403,34.283-27.417v-24.646
			c0-18.014-16.709-31.377-34.283-27.417L287.033,101.557z" style="fill:#fff"/>
      <path d="M381.97,115.285v24.682c0,18.015-16.738,31.349-34.281,27.425l-60.665-13.712v-14.705
			l45.392,10.261c17.59,3.924,34.281-9.409,34.281-27.425V97.128c0-2.553-0.331-4.965-0.946-7.282
			C375.209,94.291,381.97,103.843,381.97,115.285z" style="fill:#e7e6fd"/>
      <circle cx="283.691" cy="127.629" r="33.712" style="fill:#fbecb3" transform="rotate(-76.714 283.715 127.63)"/>
      <path d="M360.181,386.316c-0.629,2.637-1.539,5.228-2.702,7.712c-7.225,15.413-21.892,28.506-44.065,39.272
			c-2.878-1.762-5.656-3.554-8.329-5.369c-0.382-0.258-0.764-0.523-1.14-0.781c-0.963-0.664-1.903-1.327-2.837-1.997
			c-0.476-0.341-0.946-0.681-1.41-1.028c-1.833-1.339-3.601-2.702-5.304-4.076c-0.893-0.723-1.768-1.445-2.626-2.173
			c-0.488-0.411-0.969-0.828-1.439-1.245c-0.476-0.411-0.946-0.828-1.404-1.251c-0.464-0.417-0.916-0.834-1.369-1.257
			c-1.351-1.263-2.643-2.543-3.877-3.836c-0.012-0.006-0.018-0.012-0.023-0.024c-0.405-0.423-0.805-0.846-1.192-1.269
			c-0.388-0.423-0.764-0.84-1.139-1.263c-0.018-0.018-0.029-0.029-0.041-0.047c-0.37-0.423-0.74-0.846-1.104-1.275
			c-0.018-0.023-0.041-0.047-0.059-0.07c-0.734-0.869-1.445-1.744-2.126-2.631c-0.693-0.893-1.357-1.792-1.991-2.702
			c-0.258-0.364-0.511-0.728-0.758-1.098c-0.1-0.147-0.2-0.3-0.294-0.446c-0.264-0.399-0.523-0.793-0.769-1.192
			c-0.288-0.464-0.57-0.928-0.846-1.392c-0.276-0.464-0.54-0.928-0.799-1.398c-0.018-0.023-0.029-0.047-0.041-0.07
			c-0.223-0.399-0.441-0.799-0.646-1.204c-0.27-0.511-0.529-1.028-0.781-1.551c-1.069-2.203-1.944-4.499-2.584-6.849
			c-0.658-2.391-1.075-4.84-1.204-7.325c-0.405-8,1.909-14.884,6.96-20.635c4.811-5.48,11.683-8.869,18.972-8.681
			c8.576,0.229,15.143,4.969,20.2,13.087c3.853-4.934,8.182-8.611,13.046-10.884c3.33-1.557,6.919-2.332,10.485-2.326
			c4.141,0.012,8.253,1.081,11.871,3.225c0.646,0.376,1.269,0.787,1.88,1.233c4.664,3.419,7.595,8.229,9.234,14.085
			C361.65,373.734,361.662,380.172,360.181,386.316z" style="fill:#fff"/>
      <path d="M334.639,420.644c-6.1,4.539-13.145,8.748-21.231,12.672c-2.884-1.797-5.674-3.546-8.322-5.39
			c-0.378-0.236-0.757-0.52-1.135-0.757c-0.993-0.662-1.891-1.324-2.837-2.033c-0.473-0.331-0.946-0.662-1.418-0.993
			c-1.844-1.371-3.594-2.743-5.296-4.114c-0.898-0.709-1.797-1.418-2.648-2.175c-0.473-0.378-0.946-0.804-1.418-1.229
			c-0.473-0.426-0.946-0.804-1.419-1.229c-0.473-0.425-0.898-0.851-1.371-1.277c-1.324-1.276-2.648-2.553-3.877-3.83
			c0,0,0,0,0-0.047c-0.425-0.378-0.804-0.804-1.182-1.229c-0.425-0.426-0.804-0.851-1.182-1.277v-0.047
			c-0.378-0.425-0.756-0.851-1.135-1.276c0-0.047-0.047-0.047-0.047-0.095c-0.756-0.851-1.466-1.702-2.128-2.601
			c-0.709-0.898-1.371-1.797-1.986-2.695c-0.284-0.378-0.52-0.757-0.756-1.135c-0.095-0.142-0.189-0.284-0.284-0.426
			c-0.284-0.378-0.52-0.804-0.804-1.182c-0.284-0.473-0.567-0.946-0.804-1.418c-0.284-0.426-0.567-0.898-0.804-1.371
			c-0.047-0.047-0.047-0.047-0.047-0.094c-0.236-0.378-0.473-0.804-0.662-1.182c-0.284-0.52-0.52-1.04-0.756-1.56
			c-1.088-2.222-1.986-4.492-2.601-6.856c-0.662-2.364-1.087-4.823-1.229-7.329c-0.378-7.991,1.939-14.895,6.998-20.616
			c4.776-5.485,11.679-8.889,18.961-8.7h0.378c-1.135,4.492-1.702,9.22-1.702,14.091
			C291.895,390.335,309.91,413.268,334.639,420.644z" style="fill:#e7e6fd"/>
      <path d="M494.145,338.354c-0.628,2.637-1.539,5.228-2.702,7.712c-7.225,15.413-21.892,28.506-44.065,39.272
			c-2.878-1.762-5.656-3.554-8.329-5.369c-0.382-0.258-0.764-0.523-1.14-0.781c-0.963-0.664-1.903-1.327-2.837-1.997
			c-0.476-0.341-0.946-0.681-1.41-1.028c-1.833-1.339-3.601-2.702-5.304-4.076c-0.893-0.723-1.768-1.445-2.626-2.173
			c-0.488-0.411-0.969-0.828-1.439-1.245c-0.476-0.411-0.946-0.828-1.404-1.251c-0.464-0.417-0.916-0.834-1.369-1.257
			c-1.351-1.263-2.643-2.543-3.877-3.836c-0.012-0.006-0.018-0.012-0.023-0.023c-0.405-0.423-0.805-0.846-1.192-1.269
			c-0.388-0.423-0.764-0.84-1.14-1.263c-0.018-0.018-0.029-0.029-0.041-0.047c-0.37-0.423-0.74-0.846-1.104-1.275
			c-0.018-0.023-0.041-0.047-0.059-0.07c-0.734-0.869-1.445-1.745-2.126-2.631c-0.693-0.893-1.357-1.792-1.991-2.702
			c-0.258-0.364-0.511-0.728-0.758-1.098c-0.1-0.147-0.2-0.3-0.294-0.446c-0.264-0.399-0.523-0.793-0.769-1.192
			c-0.288-0.464-0.57-0.928-0.846-1.392c-0.276-0.464-0.54-0.928-0.799-1.398c-0.018-0.023-0.029-0.047-0.041-0.07
			c-0.223-0.399-0.441-0.799-0.646-1.204c-0.27-0.511-0.529-1.028-0.781-1.551c-1.069-2.203-1.944-4.499-2.584-6.849
			c-0.658-2.391-1.075-4.84-1.204-7.325c-0.405-8,1.909-14.884,6.96-20.635c4.811-5.48,11.683-8.869,18.972-8.681
			c8.576,0.229,15.143,4.969,20.2,13.087c3.853-4.934,8.182-8.611,13.046-10.884c3.33-1.557,6.919-2.332,10.485-2.326
			c4.141,0.012,8.253,1.081,11.871,3.225c0.646,0.376,1.269,0.787,1.88,1.233c4.664,3.419,7.595,8.229,9.234,14.085
			C495.613,325.773,495.625,332.21,494.145,338.354z" style="fill:#fff"/>
      <path d="M474.505,367.828c-7.234,6.431-16.313,12.247-27.141,17.495c-2.884-1.749-5.627-3.546-8.322-5.343
			c-0.378-0.284-0.756-0.52-1.135-0.804c-0.946-0.662-1.891-1.324-2.837-1.986c-0.473-0.331-0.946-0.662-1.418-1.04
			c-1.844-1.324-3.594-2.695-5.296-4.066c-0.898-0.709-1.75-1.419-2.601-2.175c-0.52-0.426-0.993-0.804-1.466-1.229
			c-0.473-0.425-0.946-0.851-1.418-1.276c-0.425-0.378-0.898-0.804-1.371-1.229c-1.324-1.277-2.601-2.553-3.877-3.83v-0.047
			c-0.426-0.426-0.804-0.851-1.182-1.277c-0.378-0.425-0.757-0.804-1.135-1.229c-0.047-0.047-0.047-0.047-0.047-0.047
			c-0.378-0.425-0.757-0.851-1.135-1.276c0-0.047,0-0.047-0.047-0.095c-0.709-0.851-1.418-1.749-2.128-2.648
			c-0.662-0.851-1.324-1.749-1.986-2.695c-0.236-0.331-0.52-0.709-0.757-1.087c-0.094-0.142-0.189-0.284-0.284-0.426
			c-0.284-0.425-0.52-0.804-0.756-1.229c-0.284-0.425-0.567-0.898-0.851-1.371c-0.284-0.473-0.567-0.946-0.804-1.418
			c-0.047,0-0.047-0.047-0.047-0.047c-0.237-0.378-0.426-0.804-0.662-1.229c-0.236-0.473-0.52-0.993-0.757-1.513
			c-1.087-2.222-1.939-4.492-2.601-6.856c-0.662-2.411-1.087-4.87-1.182-7.329c-0.425-7.991,1.891-14.894,6.951-20.616
			c4.397-5.012,10.544-8.322,17.164-8.653C425.471,332.507,446.087,358.986,474.505,367.828z" style="fill:#e7e6fd"/>
      <path d="M461.235,453.979c-0.628,2.637-1.539,5.228-2.702,7.712c-7.225,15.413-21.892,28.506-44.065,39.272
			c-2.878-1.762-5.656-3.554-8.329-5.369c-0.382-0.258-0.764-0.523-1.14-0.781c-0.963-0.664-1.903-1.327-2.837-1.997
			c-0.476-0.341-0.946-0.681-1.41-1.028c-1.833-1.339-3.601-2.702-5.304-4.076c-0.893-0.723-1.768-1.445-2.626-2.173
			c-0.488-0.411-0.969-0.828-1.439-1.245c-0.476-0.411-0.946-0.828-1.404-1.251c-0.464-0.417-0.916-0.834-1.369-1.257
			c-1.351-1.263-2.643-2.543-3.877-3.836c-0.012-0.006-0.018-0.012-0.023-0.024c-0.405-0.423-0.805-0.846-1.192-1.269
			c-0.388-0.423-0.764-0.84-1.14-1.263c-0.018-0.018-0.029-0.029-0.041-0.047c-0.37-0.423-0.74-0.846-1.104-1.275
			c-0.018-0.023-0.041-0.047-0.059-0.07c-0.734-0.869-1.445-1.745-2.126-2.631c-0.693-0.893-1.357-1.792-1.991-2.702
			c-0.258-0.364-0.511-0.728-0.758-1.098c-0.1-0.147-0.2-0.3-0.294-0.446c-0.264-0.399-0.523-0.793-0.769-1.192
			c-0.288-0.464-0.57-0.928-0.846-1.392c-0.276-0.464-0.54-0.928-0.799-1.398c-0.018-0.023-0.029-0.047-0.041-0.07
			c-0.223-0.399-0.441-0.799-0.646-1.204c-0.27-0.511-0.529-1.028-0.781-1.551c-1.069-2.203-1.944-4.499-2.585-6.849
			c-0.658-2.391-1.075-4.84-1.204-7.325c-0.405-8,1.909-14.884,6.96-20.635c4.811-5.48,11.683-8.869,18.972-8.681
			c8.576,0.229,15.143,4.969,20.2,13.087c3.853-4.934,8.182-8.611,13.046-10.884c3.33-1.557,6.919-2.332,10.485-2.326
			c4.141,0.012,8.253,1.081,11.871,3.225c0.646,0.376,1.269,0.787,1.88,1.233c4.664,3.419,7.595,8.229,9.234,14.085
			C462.704,441.397,462.715,447.835,461.235,453.979z" style="fill:#fff"/>
      <path d="M435.921,488.071c-6.147,4.634-13.287,8.937-21.467,12.909c-2.885-1.797-5.627-3.546-8.322-5.39
			c-0.378-0.236-0.757-0.52-1.135-0.757c-0.946-0.662-1.891-1.324-2.837-2.033c-0.473-0.331-0.946-0.662-1.418-0.993
			c-1.844-1.371-3.594-2.743-5.296-4.114c-0.898-0.709-1.749-1.418-2.601-2.175c-0.52-0.378-0.993-0.804-1.466-1.229
			c-0.473-0.426-0.946-0.804-1.419-1.229c-0.425-0.425-0.898-0.851-1.371-1.277c-1.324-1.276-2.601-2.553-3.877-3.83
			c0,0,0,0,0-0.047c-0.425-0.378-0.804-0.804-1.182-1.229c-0.378-0.426-0.756-0.851-1.135-1.277c-0.047,0-0.047-0.047-0.047-0.047
			c-0.378-0.425-0.756-0.851-1.135-1.276c0-0.047,0-0.047-0.047-0.095c-0.709-0.851-1.418-1.702-2.128-2.601
			c-0.662-0.898-1.324-1.797-1.986-2.695c-0.236-0.378-0.52-0.757-0.756-1.135c-0.095-0.142-0.189-0.284-0.284-0.426
			c-0.284-0.378-0.52-0.804-0.757-1.182c-0.284-0.473-0.567-0.946-0.851-1.418c-0.284-0.426-0.567-0.898-0.804-1.371
			c-0.047-0.047-0.047-0.047-0.047-0.095c-0.236-0.378-0.426-0.804-0.662-1.182c-0.236-0.52-0.52-1.04-0.756-1.56
			c-1.088-2.222-1.939-4.492-2.601-6.856c-0.662-2.364-1.088-4.823-1.182-7.329c-0.426-7.991,1.891-14.894,6.951-20.616
			c4.823-5.485,11.679-8.889,18.961-8.7c0.804,0.047,1.607,0.095,2.411,0.237C396.77,446.934,412.421,473.176,435.921,488.071z" style="fill:#e7e6fd"/>
      <path d="M356.407,352.025c48.215-51.118,77.991-114.621,61.668-182.113
			c6.341-27.17,5.894-55.193-1.37-81.14c-7.588-27.119-21.445-48.21-41.191-62.685c-31.417-22.945-73.045-26.045-108.29-9.572
			C248,25.499,230.158,39.783,214.115,59.022c-22.873-33.83-51.918-51.434-86.424-52.355C67.29,4.918,8.207,59.716,12.112,136.8
			c0.53,10.205,2.224,20.617,4.978,30.961c-9.094,31.015-6.859,68.669,11.653,107.065C64.658,349.318,140.946,407.09,211.12,450.165
			c2.41,1.472,5.193,0.14,4.703,0.23c25.998-12.623,45.722-24.045,64.7-36.342c8.621,8.964,19.723,16.939,30.336,23.426
			c0.78,0.478,1.665,0.72,2.555,0.72c0.732,0,1.464-0.163,2.139-0.493c21.144-10.263,43.976-27.388,49.391-50.255
			C367.902,375.183,365.517,360.838,356.407,352.025z M348.177,346.469c-7.583-3.272-16.221-3.074-23.796,0.459
			c-3.77,1.766-7.316,4.287-10.593,7.529c-5.608-6.557-12.464-9.978-20.445-10.189c-16.338-0.514-31.98,14.157-30.956,34.466
			c0.53,10.246,5.312,19.691,11.652,27.862c-16.089,10.36-33.158,20.302-55.455,31.451V373.28
			c93.456-45.892,156.53-102.516,187.398-168.371c2.102-4.489,4.471-10.267,5.847-14.005
			C418.269,249.977,389.656,302.924,348.177,346.469z M137.497,387.124v-63.215c12.951,10.108,22.384,16.638,30.418,22.354v63.731
			C157.307,402.487,147.726,395.33,137.497,387.124z M316.714,16.033c14.689,0.452,28.475,4.032,41.075,10.603l-37.375,62.377
			l-19.1,4.304c-9.081-4.684-19.581-5.614-29.455-2.425L316.714,16.033z M245.99,225.495c-11.239,3.141-17.382-0.304-21.158-4.088
			c4.44-19.661,12.019-38.228,22.316-55.201l18.919-4.263c2.494,1.286,5.146,2.292,7.917,3.013
			C260.658,182.943,251.073,203.421,245.99,225.495z M283.693,98.818c15.885,0,28.808,12.926,28.808,28.813
			s-12.923,28.81-28.808,28.81c-15.89,0-28.813-12.923-28.813-28.81S267.803,98.818,283.693,98.818z M301.314,161.943l18.908,4.261
			c10.299,16.972,17.885,35.538,22.326,55.203c-3.775,3.785-9.918,7.234-21.158,4.088c-5.082-22.067-14.627-42.565-27.949-60.551
			C296.196,164.223,298.834,163.222,301.314,161.943z M311.615,154.219c6.602-6.931,10.685-16.283,10.685-26.588
			c0-10.306-4.083-19.66-10.685-26.591l37.144-8.37c6.909-1.565,14.057,0.086,19.593,4.514c5.536,4.428,8.713,11.033,8.713,18.122
			v24.648c0,7.088-3.177,13.694-8.713,18.122c-5.536,4.426-12.684,6.072-19.593,4.514L311.615,154.219z M245.081,127.631
			c0,10.305,4.083,19.657,10.685,26.588l-37.144,8.371c-6.899,1.557-14.055-0.084-19.595-4.514
			c-5.536-4.428-8.71-11.033-8.71-18.122v-24.648c0-7.088,3.175-13.694,8.71-18.122c5.659-4.523,12.835-6.039,19.595-4.514
			l37.144,8.371C249.164,107.972,245.081,117.324,245.081,127.631z M223.542,171.525l10.739-2.42
			c-8.956,16.419-15.622,34.09-19.568,52.701c-0.311,1.469,0.067,3,1.029,4.153c4.62,5.539,10.171,8.875,16.584,10.065
			l-60.505,100.977c-9.891-6.928-19.488-13.824-32.804-24.414L223.542,171.525z M177.714,352.958
			c9.716,6.556,19.756,13.052,31.071,20.028v64.181c-10.933-6.842-21.349-13.656-31.071-20.336V352.958z M407.27,91.414
			c9.606,34.314,6.733,73.218-10.158,109.34c-29.942,63.867-91.553,119.01-183.154,163.925
			c-10.039-6.187-22.499-14.201-34.062-22.085l63.868-106.592c2.569-0.427,5.23-1.093,8.002-2.053
			c1.622-0.56,2.832-1.931,3.191-3.612c6.926-32.658,18.132-40.49,29.104-61.588c13.854,18.096,23.576,39.006,28.364,61.588
			c0.359,1.682,1.569,3.053,3.191,3.615c14.061,4.86,26.642,3.254,36.023-7.993c0.962-1.153,1.34-2.684,1.029-4.153
			c-3.945-18.605-10.593-36.279-19.542-52.695l13.48,3.038c9.792,2.207,19.958-0.095,27.87-6.423
			c7.871-6.297,12.387-15.689,12.387-25.772v-24.648c0-10.084-4.517-19.476-12.387-25.772c-7.88-6.304-18.057-8.636-27.87-6.423
			l-12.985,2.926l32.628-54.454C387.694,45.794,400.312,66.547,407.27,91.414z M127.433,16.46
			c33.373,0.892,60.226,18.387,82.094,53.487c0.847,1.359,2.301,2.218,3.899,2.301c1.579,0.096,3.134-0.615,4.12-1.878
			c16.172-20.71,34.286-35.844,53.832-44.98c10.591-4.949,22.102-7.994,33.72-9.029l-45.27,75.548l-39.052-8.8
			c-9.823-2.213-19.992,0.12-27.868,6.423c-7.873,6.297-12.39,15.691-12.39,25.772v24.648c0,10.081,4.517,19.476,12.39,25.772
			c5.363,4.289,11.799,6.635,18.455,7.064l-80.036,133.567c-51.51-42.375-105.961-103.46-109.43-170.058
			C18.297,65.147,72.314,15.035,127.433,16.46z M37.571,270.57c-12.72-26.375-18.814-55.175-14.524-84.494
			c19.814,50.679,62.663,95.867,104.651,130.005v63.039C85.113,343.495,55.573,307.912,37.571,270.57z M355.419,385.164
			c-0.005,0.007-0.005,0.012-0.005,0.019c-4.489,18.919-24.394,33.729-41.731,42.516c-17.145-10.782-40.469-29.182-41.506-49.468
			c-0.733-14.36,9.799-24.238,20.909-24.169c6.469,0.172,11.761,3.698,16.172,10.78c0.847,1.359,2.301,2.218,3.899,2.301
			c1.569,0.089,3.134-0.615,4.12-1.878c3.426-4.385,7.21-7.569,11.253-9.459C345.286,347.994,360.461,364.288,355.419,385.164z" style="fill:#3a4b81"/>
      <path d="M485.278 300.089c-10.716-6.349-25.502-5.488-37.526 6.404-12.342-14.409-31.771-12.897-43.224.156-5.899 6.713-8.646 14.827-8.177 24.124 1.304 25.104 27.014 45.651 48.473 58.745 1.433.879 3.213.952 4.694.227 21.109-10.246 43.953-27.345 49.391-50.255C502.417 324.928 498.275 307.657 485.278 300.089zM489.383 337.203c-.005.007-.005.012-.005.019-4.5 18.947-24.431 33.748-41.736 42.516-17.405-10.972-40.448-28.931-41.502-49.468-.344-6.749 1.536-12.359 5.751-17.155 8.323-9.497 22.481-10.438 31.33 3.765.847 1.359 2.301 2.218 3.899 2.301 1.565.084 3.139-.617 4.12-1.878 9.6-12.296 20.957-13.575 29.076-8.765C489.43 313.834 491.867 326.913 489.383 337.203zM425.437 414.592c-3.77 1.763-7.316 4.285-10.598 7.529-5.608-6.555-12.464-9.978-20.445-10.191-18.552-.582-36.222 18.547-29.583 42.827 5.859 21.476 28.152 38.773 47.095 50.384 1.422.877 3.21.958 4.698.23 23.081-11.206 38.679-25.201 46.368-41.602 4.55-9.747 5.392-20.323 2.727-29.839C460.234 414.379 441.108 407.272 425.437 414.592zM454.096 459.612c-6.45 13.76-19.689 25.779-39.363 35.748-15.372-9.672-35.702-25.681-40.468-43.191-4.845-17.637 7.424-30.658 19.875-30.447 6.464.175 11.756 3.701 16.167 10.782.847 1.356 2.301 2.218 3.899 2.301 1.608.067 3.134-.617 4.12-1.876 3.431-4.39 7.22-7.574 11.263-9.464 10.024-4.692 22.773-.849 26.674 13.1C458.307 443.865 457.629 452.038 454.096 459.612z" style="fill:#3a4b81"/>
    </g>
  </g>
</svg>
