<svg xmlns="http://www.w3.org/2000/svg" xml:space="preserve" style="enable-background:new 0 0 512 512" viewBox="0 0 512 512">
  <g id="_x32_4_Coffee_Cups">
    <g>
      <path d="M361.061,140.015l-31.93,318.364c-2.425,24.181-22.775,42.592-47.077,42.592h-99.658
			c-24.302,0-44.652-18.411-47.077-42.592l-31.93-318.364H361.061z" style="fill:#9a88fb"/>
      <path d="M355.149,85.446h-245.85c-3.654,0-7.027,1.963-8.832,5.14l-19.465,34.251
			c-3.849,6.773,1.043,15.179,8.832,15.179h284.779c7.79,0,12.681-8.406,8.832-15.179l-19.465-34.251
			C362.176,87.409,358.803,85.446,355.149,85.446z" style="fill:#fff"/>
      <path d="M373.181,106.812c-1.078-0.441-2.254-0.637-3.479-0.637H163.24
			c-25.82,0-49.778,12.787-64.182,33.855h-9.211c-7.79,0-12.69-8.427-8.868-15.188l19.5-34.247c1.813-3.185,5.144-5.144,8.819-5.144
			h245.854c3.675,0,7.006,1.96,8.819,5.144L373.181,106.812z" style="fill:#e7e6fd"/>
      <path d="M311.301,48.313H153.148c-5.313,0-10.217,2.854-12.843,7.473l-16.856,29.66h217.55l-16.856-29.66
			C321.518,51.166,316.614,48.313,311.301,48.313z" style="fill:#fbecb3"/>
      <path d="M213.139,20.87v27.443h-48.451V20.87c0-5.435,4.406-9.842,9.842-9.842h28.768
			C208.733,11.028,213.139,15.434,213.139,20.87z" style="fill:#fff"/>
      <path d="M213.116,20.876v0.588h-13.718c-13.62,0-24.693,11.073-24.693,24.742v2.107h-9.995V20.876
			c0-5.439,4.361-9.848,9.799-9.848h28.809C208.756,11.028,213.116,15.437,213.116,20.876z" style="fill:#e7e6fd"/>
      <path d="M108.345,358.841l-27.366-94.108c-5.905-20.307,9.328-40.601,30.476-40.601h241.54
			c21.148,0,36.381,20.294,30.476,40.601l-27.366,94.108c-3.941,13.554-16.361,22.876-30.476,22.876H138.821
			C124.705,381.717,112.286,372.395,108.345,358.841z" style="fill:#fff"/>
      <path d="M361.422,340.564l-5.341,18.275c-3.919,13.572-16.315,22.88-30.474,22.88H138.841
			c-14.159,0-26.555-9.309-30.475-22.88L80.979,264.72c-5.928-20.283,9.309-40.567,30.474-40.567h9.064
			c38.02,71.482,113.275,120.134,199.848,120.134C334.377,344.287,348.144,343.013,361.422,340.564z" style="fill:#e7e6fd"/>
      <ellipse cx="232.224" cy="302.924" rx="61.436" ry="37.713" style="fill:#fbecb3" transform="rotate(-45.001 232.222 302.928)"/>
      <path d="M360.39,335.36c-6.79-14.516-16.899-21.189-29.767-21.345
			c-13.486-0.164-25.848,7.245-33.217,18.541c-11.316,17.346-9.36,36.346,1.369,56.442c5.882,11.016,13.89,20.729,23.047,29.219
			c11.404,10.572,24.326,20.967,38.568,31.208c23.203-18.075,43.954-36.378,58.74-55.234c8.528-10.875,13.453-24.293,13.206-38.11
			c-0.06-3.346-0.407-6.501-1.025-9.474c-4.994-24.051-30.975-37.314-53.832-28.316C369.818,321.306,363.93,326.737,360.39,335.36z" style="fill:#fbecb3"/>
      <path d="M82.154,233.876c-6.986,9.306-9.129,21.052-5.88,32.224l27.368,94.108
			c2.937,10.099,10.101,18.154,19.175,22.606l7.628,76.053c2.684,26.796,25.019,47.004,51.951,47.004h99.658
			c26.928,0,49.262-20.208,51.951-47.004l2.182-21.757c6.677,5.423,13.795,10.867,21.339,16.293
			c0.856,0.615,1.861,0.921,2.861,0.921c1.062,0,2.129-0.347,3.01-1.033c27.377-21.325,46.31-39.143,59.587-56.075
			c9.445-12.045,14.507-26.684,14.253-41.227c-0.349-18.759-9.519-32.519-23.263-39.951c-12.022-6.502-26.679-7.468-39.868-1.565
			l14.065-48.372c3.254-11.172,1.11-22.916-5.875-32.222c-5.963-7.952-14.639-12.973-24.293-14.277l7.491-74.688h9.117
			c5.426,0,10.292-2.799,13.019-7.488c2.727-4.687,2.751-10.296,0.072-15.009l-19.464-34.248c-2.665-4.701-7.684-7.622-13.091-7.622
			H343.85l-15.448-27.181c-3.488-6.139-10.043-9.952-17.1-9.952h-93.266V20.871c0-8.129-6.612-14.741-14.741-14.741H174.53
			c-8.129,0-14.741,6.612-14.741,14.741v22.543h-6.641c-7.057,0-13.612,3.813-17.1,9.952L120.6,80.546h-11.298
			c-5.407,0-10.426,2.921-13.091,7.619l-19.469,34.253c-2.679,4.713-2.651,10.325,0.077,15.012
			c2.727,4.687,7.593,7.483,13.014,7.483h9.122l7.491,74.688C96.794,220.906,88.121,225.926,82.154,233.876z M324.254,457.891
			c-2.182,21.768-20.325,38.181-42.2,38.181h-99.658c-21.88,0-40.023-16.414-42.2-38.181l-7.197-71.758
			c5.637,0.92-1.426,0.308,159.113,0.484c8.486,18.047,20.095,30.008,34.989,42.89L324.254,457.891z M409.315,324.657
			c10.72,5.795,17.858,16.413,18.124,31.509c0.22,12.292-4.105,24.722-12.167,35.002c-12.301,15.693-29.832,32.31-54.999,52.123
			c-20.563-15.025-45.227-34.213-57.176-56.602c-10.651-19.942-11.167-36.772-1.584-51.456c6.679-10.241,17.373-16.32,28.665-16.32
			c12.49,0,20.457,7.163,25.77,18.524c0.809,1.725,2.541,2.823,4.44,2.823c0.038,0,0.077,0,0.12-0.002
			c1.943-0.045,3.675-1.237,4.411-3.036C372.09,319.765,393.99,316.354,409.315,324.657z M169.588,20.871
			c0-2.725,2.215-4.942,4.942-4.942h28.765c2.727,0,4.942,2.218,4.942,4.942v22.543h-38.65V20.871z M144.564,58.207
			c1.751-3.081,5.043-4.995,8.584-4.995c51.341,0,125.858,0,158.155,0c3.541,0,6.832,1.914,8.584,4.995l12.694,22.339H131.871
			L144.564,58.207z M89.833,135.115c-2.727,0-4.086-1.828-4.545-2.612c-0.459-0.787-1.373-2.871-0.029-5.244l19.469-34.253
			c0.933-1.641,2.684-2.66,4.574-2.66c21.961,0,210.891,0,245.847,0c1.89,0,3.641,1.019,4.574,2.663l19.464,34.251
			c1.349,2.373,0.431,4.454-0.024,5.242c-0.459,0.785-1.818,2.615-4.55,2.615C316.685,135.115,147.435,135.115,89.833,135.115z
			 M355.646,144.914l-7.454,74.319H116.258l-7.454-74.319H355.646z M89.991,239.759c5.115-6.818,12.938-10.727,21.464-10.727
			h241.541c8.526,0,16.349,3.911,21.464,10.729c5.12,6.816,6.684,15.418,4.306,23.602l-17.84,61.356
			c-0.178,0.231-0.389,0.426-0.562,0.662c-7.268-10.651-17.22-16.115-29.679-16.265c-14.914-0.33-28.779,7.576-37.382,20.763
			c-9.074,13.906-10.746,29.651-5.088,46.939H138.823c-11.861,0-22.459-7.954-25.775-19.347L85.68,263.363
			C83.302,255.179,84.871,246.577,89.991,239.759z" style="fill:#3a4b81"/>
      <path d="M262.356,333.056c26.301-26.303,33.669-60.14,16.775-77.037
			c-16.904-16.899-50.736-9.533-77.037,16.775c-20.622,20.618-36.799,57.024-16.775,77.037
			C204.664,369.176,240.582,354.826,262.356,333.056z M255.428,326.128c-13.867,13.864-36.975,27.006-54.619,21.727l3.486-10.222
			c0.885-2.593,3.105-4.5,5.799-4.978l4.282-0.761c8.603-1.529,14.732-9.261,14.263-17.983c-0.196-3.596,2.201-6.835,5.694-7.706
			l6.057-1.505c7.014-1.744,12.253-7.746,13.038-14.938l0.684-6.316c0.239-2.175,1.407-4.136,3.21-5.378l17.358-11.956
			C283.491,279.904,275.452,306.104,255.428,326.128z M209.022,279.722c14.482-14.484,40.526-28.899,58.057-20.275L251.758,270
			c-4.148,2.864-6.842,7.378-7.387,12.39l-0.684,6.316c-0.34,3.122-2.617,5.727-5.66,6.486l-6.057,1.507
			c-8.048,2-13.564,9.462-13.115,17.741c0.201,3.787-2.459,7.143-6.191,7.808l-4.282,0.758c-6.206,1.103-11.325,5.495-13.359,11.464
			l-2.847,8.348C176.637,327.093,193.21,295.534,209.022,279.722z" style="fill:#3a4b81"/>
    </g>
  </g>
</svg>
