<svg xmlns="http://www.w3.org/2000/svg" xml:space="preserve" style="enable-background:new 0 0 512 512" viewBox="0 0 512 512">
  <g id="_x30_4_Cupid">
    <g>
      <g>
        <path d="M393.356,296.256l-8.652,54.639c7.272,13.609-0.374,32.163-17.307,41.718l-53.091,29.956
				l-14.998-101.287l8.648-9.273c7.856-8.423,16.987-15.889,27.03-22.1l6.134-3.794c16.24-10.044,29.984-23.299,39.831-38.412
				l4.288-6.582l10.881,19.284c9.753,17.285,0.09,41.209-21.581,53.437l-21.007,11.853" style="fill:#fff"/>
      </g>
      <g>
        <path d="M355.937,399.07l-41.607,23.504l-15.037-101.268l8.662-9.295
				c7.835-8.419,16.983-15.913,27.008-22.093l6.18-3.796c16.205-10.073,29.977-23.31,39.807-38.395l4.282-6.618l10.901,19.32
				c0.973,1.703,1.752,3.455,2.287,5.256c-6.521,6.229-13.772,11.825-21.607,16.691l-6.132,3.796
				c-10.073,6.229-19.173,13.674-27.057,22.093c-5.45,5.839-7.932,13.869-6.764,21.801l7.494,50.853
				C345.523,388.803,350,395.129,355.937,399.07z" style="fill:#e7e6fd"/>
      </g>
      <g>
        <path d="M118.569,296.256l8.652,54.639c-7.272,13.609,0.374,32.163,17.307,41.718l53.091,29.956
				l14.998-101.287l-8.648-9.273c-7.856-8.423-16.987-15.889-27.03-22.1l-6.134-3.794c-16.24-10.044-29.984-23.299-39.831-38.412
				l-4.288-6.582l-10.881,19.284c-9.753,17.285-0.09,41.209,21.581,53.437l21.007,11.853" style="fill:#fff"/>
      </g>
      <g>
        <path d="M212.623,321.306l-14.988,101.268l-39.563-22.337c6.91-3.747,12.215-10.56,13.528-19.319
				l7.543-50.853c1.168-7.932-1.363-15.962-6.813-21.801c-7.835-8.419-16.983-15.864-27.008-22.093l-6.132-3.796
				c-9.1-5.596-17.373-12.215-24.575-19.611c0.341-0.779,0.73-1.557,1.168-2.336l10.901-19.32l4.282,6.618
				c9.83,15.086,23.602,28.322,39.855,38.395l6.132,3.796c10.025,6.18,19.173,13.674,27.008,22.093L212.623,321.306z" style="fill:#e7e6fd"/>
      </g>
      <g>
        <path d="M256.525,290.195c-48.507-2.056-65.74,26.8-70.777,67.71c-2.797,22.715-0.971,45.737,4.458,67.969
				c5.761,23.592,14.503,46.958,25.174,70.177c2.1,4.57,8.407,5.07,11.229,0.907l16.301-24.047
				c6.364-9.388,20.311-9.032,26.187,0.669l14.699,24.265c2.466,4.07,8.365,4.197,10.949,0.201
				c19.668-30.419,29.583-70.523,32.288-117.786C331.215,318.218,305.634,290.599,256.525,290.195z" style="fill:#9a88fb"/>
      </g>
      <g>
        <path d="M255.517,360.514c-4.503-9.626-11.206-14.051-19.739-14.154
				c-8.943-0.108-17.14,4.805-22.027,12.295c-7.504,11.502-6.207,24.102,0.908,37.427c3.9,7.305,9.211,13.746,15.283,19.376
				c7.562,7.011,16.131,13.903,25.575,20.694c15.386-11.986,29.147-24.123,38.951-36.627c5.655-7.212,8.921-16.109,8.757-25.272
				c-0.04-2.219-0.27-4.311-0.679-6.282c-3.312-15.949-20.54-24.743-35.697-18.777C261.769,351.195,257.865,354.796,255.517,360.514
				z" style="fill:#fff"/>
      </g>
      <g>
        <path d="M274.231,420.58c-5.84,5.256-12.117,10.414-18.735,15.572
				c-9.441-6.813-18.006-13.674-25.548-20.682c-6.083-5.645-11.387-12.068-15.28-19.368c-7.105-13.334-8.419-25.938-0.925-37.471
				c2.968-4.526,7.202-8.127,12.068-10.219C234.571,377.026,251.651,402.039,274.231,420.58z" style="fill:#e7e6fd"/>
      </g>
      <g>
        <path d="M255.983,11.029c-58.931,0-106.719,20.897-106.719,46.717s47.787,46.717,106.719,46.717
				c58.883,0,106.67-20.897,106.67-46.717S314.865,11.029,255.983,11.029z M320.364,65.759
				c-13.577,6.337-35.33,12.308-64.382,12.308c-29.052,0-50.805-5.971-64.43-12.308c-6.521-3.038-6.521-12.989,0-16.026
				c13.626-6.337,35.378-12.308,64.43-12.308c29.052,0,50.805,5.971,64.382,12.308C326.885,52.77,326.885,62.721,320.364,65.759z" style="fill:#fbecb3"/>
      </g>
      <g>
        <ellipse cx="254.769" cy="232.038" rx="75.912" ry="68.964" style="fill:#fff"/>
      </g>
      <g>
        <path d="M331.939,198.743c1.673,2.53,2.645,5.547,2.645,8.806c0,8.778-7.105,15.897-15.897,15.897
				c-8.792,0-15.897-7.119-15.897-15.897v-0.257c-0.915,0.172-1.858,0.257-2.816,0.257c-8.792,0-15.897-7.119-15.897-15.897
				c0-2.302,0.486-4.475,1.358-6.448c-1.301,0.343-2.659,0.529-4.06,0.529c-6.905,0-12.781-4.403-14.968-10.551
				c-2.902,3.117-7.034,5.061-11.637,5.061c-4.475,0-8.506-1.844-11.394-4.803c-2.874,2.959-6.919,4.803-11.38,4.803
				c-1.272,0-2.516-0.143-3.703-0.443c1.201,2.244,1.887,4.818,1.887,7.548c0,8.792-7.105,15.897-15.897,15.897
				c-2.43,0-4.746-0.543-6.805-1.515c0.129,0.786,0.186,1.587,0.186,2.416c0,8.792-7.105,15.897-15.897,15.897
				c-8.778,0-15.897-7.105-15.897-15.897c0-2.273,0.486-4.446,1.358-6.405c-3.402-2.916-5.547-7.248-5.547-12.08
				c0-8.349,6.405-15.168,14.568-15.84c-0.129-0.672-0.2-1.372-0.2-2.073c0-5.361,3.903-9.807,9.021-10.651
				c-1.501-1.858-2.402-4.217-2.402-6.805c0-5.976,4.832-10.808,10.808-10.808c4.132,0,7.706,2.302,9.521,5.69
				c-0.029-0.457-0.057-0.915-0.057-1.372c0-7.92,6.405-14.325,14.339-14.325c4.475,0,8.449,2.044,11.094,5.232
				c2.016-6.447,8.034-11.122,15.168-11.122c6.991,0,12.924,4.503,15.054,10.765c2.888-3.917,7.534-6.447,12.781-6.447
				c6.905,0,12.781,4.389,14.982,10.536c1.973-0.886,4.146-1.372,6.433-1.372c8.792,0,15.897,7.119,15.897,15.897
				c0,1.129-0.114,2.216-0.343,3.274c5.733,1.973,9.964,7.105,10.622,13.31c6.533,1.973,11.28,8.02,11.28,15.211
				C340.245,190.794,336.899,196.041,331.939,198.743z" style="fill:#fbecb3"/>
      </g>
      <g>
        <path d="M156.529,368.822l-19.62-11.07c-22.218-12.537-32.125-37.066-22.126-54.787l3.785-6.709
				c6.912,10.736,21.698,20.33,39.824,29.44" style="fill:#fff"/>
      </g>
      <g>
        <path d="M353.532,325.696c18.126-9.109,32.913-18.704,39.824-29.44l3.785,6.709
				c9.999,17.721,0.092,42.25-22.126,54.787l-19.62,11.07" style="fill:#fff"/>
      </g>
      <g>
        <path d="M306.18 335.728c-.094.431-.156.888-.226 1.342-.013.405-.031.812-.033 1.21-.006 1.317.072 2.614.146 3.928.028.298.057.595.085.893.016.098.032.19.057.343.374 2.119.856 4.21 1.417 6.288.533 1.969 1.124 3.922 1.717 5.875l-3.019-20.388C306.277 335.389 306.218 335.556 306.18 335.728zM291.826 346.245c-8.258-4.466-18.024-5.048-26.77-1.61-3.789 1.493-6.971 3.691-9.512 6.569-6.148-7.749-13.808-9.67-19.708-9.744-10.387.041-20.177 5.306-26.191 14.519-8.009 12.282-7.775 26.55.694 42.408 8.892 16.673 26.82 30.595 42.315 41.741.856.617 1.861.923 2.861.923 1.062 0 2.129-.347 3.01-1.033 18.258-14.222 30.904-26.126 39.798-37.468C312.609 384.325 312.059 357.176 291.826 346.245zM290.611 396.502c-7.919 10.1-19.153 20.801-35.205 33.509-13.103-9.654-28.78-21.907-36.425-36.239-6.751-12.641-7.119-23.253-1.124-32.44 4.12-6.323 10.698-10.076 17.631-10.076.077 0 .153 0 .23.002 6.904.084 11.784 3.687 15.359 11.332.828 1.758 2.598 2.957 4.555 2.82 1.947-.045 3.679-1.237 4.416-3.036 1.751-4.263 4.483-7.005 8.598-8.622 6.048-2.383 12.804-1.983 18.526 1.11C301.992 362.883 300.972 383.292 290.611 396.502zM255.985 109.362c62.563 0 111.567-22.672 111.567-51.616S318.548 6.129 255.985 6.129c-62.592 0-111.62 22.672-111.62 51.616S193.393 109.362 255.985 109.362zM255.985 15.928c60.874 0 101.768 21.622 101.768 41.817s-40.894 41.817-101.768 41.817c-60.908 0-101.821-21.622-101.821-41.817S195.077 15.928 255.985 15.928z" style="fill:#3a4b81"/>
        <path d="M189.484 70.202c10.249 4.765 32.516 12.763 66.501 12.763 34.018 0 56.233-7.997 66.453-12.765 4.761-2.22 7.718-6.993 7.718-12.457-.005-5.462-2.962-10.234-7.718-12.45-10.215-4.768-32.435-12.768-66.453-12.768-33.98 0-56.248 7.997-66.501 12.765-4.765 2.218-7.722 6.988-7.722 12.452S184.718 67.982 189.484 70.202zM193.617 54.176c9.517-4.426 30.277-11.851 62.367-11.851 32.124 0 52.827 7.423 62.315 11.849 1.904.89 2.053 2.959 2.057 3.572 0 .612-.148 2.684-2.062 3.574-9.478 4.426-30.181 11.847-62.31 11.847-32.095 0-52.851-7.423-62.367-11.847-1.909-.892-2.057-2.962-2.057-3.574C191.56 57.133 191.708 55.064 193.617 54.176zM236.698 228.57c-1.914-1.909-5.014-1.907-6.928.007-5.014 5.033-13.794 5.033-18.818 0-1.914-1.919-5.019-1.914-6.933-.005-1.914 1.911-1.914 5.014-.005 6.928 9.026 9.031 23.656 9.047 32.693 0C238.617 233.584 238.617 230.481 236.698 228.57zM305.524 235.5c1.909-1.914 1.909-5.017-.005-6.928-1.914-1.909-5.019-1.914-6.933.005-5.024 5.033-13.799 5.033-18.823 0-1.914-1.919-5.019-1.914-6.933-.005-1.914 1.911-1.914 5.014-.005 6.928C281.865 244.543 296.485 244.545 305.524 235.5zM271.118 272.497c1.909-1.914 1.909-5.017-.005-6.928-1.914-1.909-5.019-1.914-6.933.005-5.024 5.033-13.799 5.033-18.823 0-1.914-1.919-5.019-1.914-6.933-.005-1.914 1.911-1.914 5.014-.005 6.928C247.458 281.54 262.079 281.542 271.118 272.497z" style="fill:#3a4b81"/>
        <path d="M401.408,300.559l-2.445-4.335c6.891-12.452,7.973-26.617,1.426-38.224l-10.88-19.284
				c-0.842-1.49-2.402-2.435-4.11-2.49c-1.679-0.096-3.325,0.785-4.263,2.22c-2.671,3.351-13.549,25.541-42.588,43.504
				c-3.719,2.518-14.813,8.086-28.601,21.265c-3.659-3.368-7.763-6.262-12.31-8.675c26.321-15.136,42.157-43.504,36.962-73.765
				c4.968-5.968,6.12-13.652,3.586-20.476c4.378-3.899,6.962-9.526,6.962-15.536c0-8.189-4.66-15.402-11.871-18.794
				c-1.407-5.34-4.923-9.926-9.689-12.694c0-0.103,0-0.206,0-0.309c0-13.051-11.932-22.882-24.717-20.425
				c-6.239-9.655-19.276-12.552-29.052-6.017c-8.568-10.744-24.98-10.328-33.014,0.574c-9.792-5.581-22.361-1.556-27.057,8.787
				c-10.361-4.492-21.98,3.111-21.98,14.409c0,1.438,0.201,2.864,0.584,4.234c-3.876,2.481-6.526,6.596-7.091,11.325
				c-13.952,4.489-19.153,21.77-9.646,33.155c-1.596,6.189-0.261,12.816,4.059,18.148c-7.191,31.668,8.948,62.171,37.193,77.918
				c-3.807,2.402-7.287,5.24-10.437,8.526c-13.772-13.267-25.276-19.099-29.045-21.651c-15.617-9.66-28.865-22.428-38.305-36.92
				l-4.287-6.581c-0.933-1.433-2.565-2.34-4.263-2.222c-1.708,0.055-3.268,0.998-4.11,2.49l-10.88,19.282
				c-5.464,9.684-5.919,21.354-1.268,32.858c0.752,1.863,1.661,3.67,2.646,5.444l-2.402,4.259
				c-9.013,15.982-3.969,36.726,10.866,51.503c-5.82,15.596,2.704,34.642,20.742,44.82l41.874,23.626
				c5.527,26.098,15.661,53.065,26.933,77.587c1.732,3.768,5.234,6.222,9.373,6.564c4.167,0.356,8.024-1.507,10.363-4.952
				l16.301-24.047c2.077-3.067,5.201-4.749,9.096-4.677c3.699,0.096,6.923,1.966,8.842,5.134l14.703,24.265
				c4.356,7.186,14.722,7.338,19.253,0.323c13.896-21.489,23.32-47.934,28.643-79.958l42.303-23.866
				c18.036-10.177,26.556-29.212,20.747-44.805C404.626,338.126,410.972,317.506,401.408,300.559z M186.651,174.705
				c1.388-0.115,2.66-0.811,3.502-1.921c0.837-1.108,1.167-2.519,0.909-3.885c-0.651-3.386,1.595-6.439,4.804-6.966
				c1.718-0.285,3.158-1.462,3.78-3.091c0.622-1.632,0.33-3.466-0.77-4.823c-0.856-1.065-1.311-2.352-1.311-3.725
				c0-6.116,8.233-8.184,11.11-2.806c1.091,2.026,3.44,3.029,5.66,2.399c2.215-0.632,3.694-2.72,3.55-5.019
				c-0.672-10.018,11.032-13.892,16.717-7.029c1.148,1.385,2.966,2.029,4.718,1.677c1.766-0.347,3.191-1.632,3.727-3.344
				c3.173-10.124,17.509-10.239,20.904-0.242c0.589,1.727,2.086,2.986,3.89,3.265c1.818,0.278,3.612-0.466,4.694-1.933
				c5.235-7.092,16.267-5.393,19.21,2.83c0.459,1.287,1.435,2.323,2.694,2.859c1.254,0.531,2.684,0.519,3.928-0.043
				c8.144-3.665,17.072,3.691,15.186,12.292c-0.526,2.428,0.847,4.866,3.196,5.675c4.014,1.38,6.899,4.988,7.344,9.189
				c0.206,1.962,1.569,3.605,3.454,4.177c4.665,1.407,7.799,5.636,7.799,10.521c0,4.038-2.206,7.746-5.751,9.679
				c-1.206,0.656-2.077,1.785-2.411,3.117c-0.33,1.33-0.091,2.737,0.665,3.883c4.793,7.247-0.344,17.105-9.163,17.105
				c-6.067,0-11-4.933-11-11.253c0-1.457-0.646-2.837-1.766-3.768c-1.162-0.962-2.65-1.306-4.029-1.05
				c-8.467,1.596-15.583-7.14-11.976-15.292c0.761-1.722,0.464-3.727-0.756-5.158c-1.22-1.433-3.158-2.031-4.971-1.56
				c-5.488,1.447-11.301-1.675-13.167-6.923c-0.574-1.612-1.947-2.809-3.622-3.155c-1.675-0.352-3.411,0.206-4.579,1.457
				c-4.143,4.445-11.684,4.536-15.942,0.172c-0.923-0.945-2.187-1.476-3.507-1.476c-0.005,0-0.005,0-0.01,0
				c-1.321,0.002-2.588,0.538-3.507,1.488c-2.694,2.773-6.986,3.88-10.368,3.021c-1.885-0.471-3.861,0.208-5.057,1.734
				c-1.196,1.529-1.373,3.62-0.459,5.328c0.856,1.603,1.311,3.414,1.311,5.237c0,8.116-8.486,13.363-15.713,9.952
				c-1.641-0.777-3.588-0.577-5.043,0.519c-1.45,1.096-2.177,2.909-1.88,4.706c1.039,6.381-4.013,12.619-10.88,12.619
				c-7.993,0-13.25-8.26-10.062-15.409c0.88-1.981,0.354-4.304-1.292-5.713C172.969,187.639,177.072,175.496,186.651,174.705z
				 M184.456,223.548c2.283,0.863,4.728,1.395,7.309,1.395c10.139,0,18.607-7.289,20.435-16.904
				c12.251,1.234,22.88-8.424,22.88-20.691c0-0.809-0.048-1.617-0.144-2.419c3.01-0.435,5.895-1.526,8.43-3.179
				c6.258,4.12,14.909,4.438,21.521,0.761c3.435,4.462,8.603,7.409,14.315,8.009c-0.593,11.646,8.275,21.08,19.253,21.873
				c2.191,9.139,10.43,15.952,20.229,15.952c2.402,0,4.674-0.491,6.822-1.244c3.398,37.097-29.482,69.001-70.739,69.001
				C212.707,296.102,178.651,262.758,184.456,223.548z M146.934,388.347c-12.133-6.845-18.913-19.018-17.276-29.382
				c1.553,1.074,3.16,2.103,4.846,3.054l19.617,11.072c2.366,1.332,5.351,0.485,6.675-1.859c1.33-2.356,0.498-5.347-1.861-6.677
				l-19.617-11.072c-19.827-11.186-28.923-32.77-20.268-48.112l0.187-0.328c9.3,10.121,24.884,18.961,36.956,25.031
				c2.917,1.462,6.015-0.346,6.803-2.997c0.714-2.395-0.438-4.658-2.195-5.649c-11.319-7.302-33.738-15.163-41.449-34.243
				c-3.502-8.682-3.249-17.337,0.722-24.373l6.914-12.253c10.215,15.617,24.468,29.351,41.243,39.724
				c3.686,2.496,14.9,8.14,28.027,20.937c-7.898,11.493-13.002,26.822-15.372,46.086c-2.029,16.475-1.728,33.451,0.835,50.668
				L146.934,388.347z M290.63,495.385c-0.364,0.565-0.89,0.687-1.273,0.687c-0.287,0.038-0.957-0.091-1.368-0.766l-14.703-24.265
				c-3.742-6.18-10.343-9.859-17.507-9.859c-6.799,0-13.095,3.33-16.928,8.981l-16.296,24.047c-0.455,0.663-1.11,0.72-1.445,0.684
				c-0.335-0.026-0.952-0.179-1.282-0.89c-19.726-42.928-34.96-88.854-29.22-135.502c3.809-30.912,14.397-49.799,33.248-58.244
				c20.402,7.752,42.931,7.36,62.407-0.202c7.889,2.964,14.492,7.237,19.701,12.856c12.804,13.806,18.244,36.356,16.177,67.068
				C319.323,429.2,309.017,466.95,290.63,495.385z M372.609,353.484l-19.622,11.072c-2.359,1.33-3.191,4.318-1.861,6.675
				c1.331,2.361,4.321,3.186,6.674,1.861l19.622-11.072c1.679-0.947,3.284-1.98,4.846-3.057
				c1.639,10.365-5.141,22.539-17.276,29.385l-35.719,20.152c1.145-8.929,2.088-18.14,2.647-27.908
				c2.067-30.699-3.166-54.19-15.385-70.127c13.038-12.509,23.709-17.842,27.165-20.18c16.775-10.378,31.028-24.112,41.238-39.729
				l6.914,12.258c10.478,18.575-2.968,35.714-20.945,47.452l-19.782,11.164c-1.579,0.889-2.961,3.114-2.192,5.662
				c0.831,2.764,3.932,4.427,6.799,2.984c7.549-3.795,14.014-7.456,19.593-11.051c0.526-0.364,8.896-4.763,17.364-13.979l0.182,0.33
				C400.577,319.018,394.467,341.154,372.609,353.484z" style="fill:#3a4b81"/>
      </g>
    </g>
  </g>
</svg>
