<svg xmlns="http://www.w3.org/2000/svg" xml:space="preserve" style="enable-background:new 0 0 512 512" viewBox="0 0 512 512">
  <g id="_x32_6_Devil_Heart">
    <g>
      <path d="m500.971 212.277-65.507-6.293c-4.279-.411-8.347 1.942-10.124 5.857L405.37 255.85c-8.198 18.066-26.969 28.926-46.717 27.029l-18.364-1.764-4.035 42.001c25.575 7.572 45.271 18.284 55.232 34.194 9.67-25.817 32.084-35.766 65.317-32.243-4.286-29.743 8.556-46.191 38.104-49.671C475.151 253.487 473.501 232.301 500.971 212.277zM11.028 212.277l65.507-6.293c4.279-.411 8.347 1.942 10.124 5.857l19.971 44.009c8.198 18.066 26.969 28.926 46.717 27.029l18.364-1.764 4.035 42.001c-25.575 7.572-45.271 18.284-55.232 34.194-9.67-25.817-32.084-35.766-65.317-32.243 4.286-29.743-8.556-46.191-38.104-49.671C36.848 253.487 38.498 232.301 11.028 212.277z" style="fill:#fbecb3"/>
      <path d="m290.992 192.727 60.851 23.651c7.357-6.144 13.167-13.91 16.739-23.099 11.661-30.003-4.345-64.973-36.249-83.415 6.654 14.891 7.811 31.235 1.937 46.348C327.071 174.73 310.828 187.505 290.992 192.727zM221.222 192.586l-60.946 23.405c-7.333-6.174-13.111-13.963-16.646-23.167-11.54-30.05 4.608-64.955 36.586-83.268-6.714 14.864-7.937 31.203-2.124 46.34C185.215 174.444 201.407 187.284 221.222 192.586z" style="fill:#9a88fb"/>
      <path d="M254.971,217.943c-10.936-23.501-27.266-34.329-48.079-34.623
			c-21.813-0.309-41.833,11.635-53.789,29.882c-18.36,28.02-15.259,58.76,2.03,91.299c9.478,17.837,22.399,33.575,37.184,47.337
			c18.411,17.138,39.279,33.994,62.281,50.604c37.591-29.161,71.215-58.698,95.193-89.15c13.829-17.563,21.84-39.249,21.485-61.601
			c-0.086-5.413-0.637-10.516-1.626-15.327c-8-38.919-49.98-60.456-86.981-45.977C270.266,195.24,260.725,204.006,254.971,217.943z" style="fill:#fff"/>
      <path d="M300.542,364.459c-14.244,12.82-29.557,25.403-45.7,37.985
			c-23.028-16.618-43.92-33.355-62.319-50.449c-14.838-13.769-27.777-29.438-37.273-47.243
			c-17.331-32.524-20.536-63.269-2.255-91.401c7.241-11.039,17.568-19.823,29.438-24.927
			C203.799,258.221,245.463,319.234,300.542,364.459z" style="fill:#e7e6fd"/>
      <path d="M186.194 226.148c-10.372 12.884-8.492 31.746 4.295 42.313 12.788 10.567 31.666 8.859 42.364-3.756L186.194 226.148zM325.808 226.148c10.372 12.884 8.492 31.746-4.295 42.313s-31.666 8.859-42.364-3.756L325.808 226.148zM214.887 314.597c-.01.278-.057.55-.057.83 0 16.595 18.453 30.059 41.145 30.059 22.744 0 41.197-13.464 41.197-30.059 0-.28-.047-.552-.057-.83H214.887z" style="fill:#9a88fb"/>
      <path d="M501.44,207.401l-65.508-6.292c-6.356-0.636-12.411,2.885-15.052,8.708l-19.971,44.009
			c-5.331,11.747-15.694,19.975-27.721,22.994c3.701-14.663,3.807-29.231,1.219-41.682c-1.833-8.827-5.471-17.024-10.463-24.299
			c3.849-4.781,6.969-10.033,9.205-15.787c12.366-31.818-3.768-69.429-38.365-89.434c-1.833-1.057-4.151-0.813-5.732,0.603
			c-1.579,1.426-2.06,3.703-1.194,5.641c6.344,14.191,6.997,29.31,1.844,42.573c-4.301,11.07-12.457,20.19-23.17,26.52
			c-8.717,0.012-17.458,1.543-25.788,4.819c-11.146,4.387-19.842,11.612-25.949,21.55c-12.634-20.951-30.807-29.931-52.354-28.698
			c-9.062-6.216-15.969-14.574-19.774-24.488c-5.1-13.282-4.385-28.397,2.014-42.564c0.876-1.938,0.402-4.215-1.17-5.646
			c-1.567-1.421-3.88-1.689-5.73-0.627c-34.676,19.866-50.963,57.41-38.724,89.276c2.312,6.021,5.598,11.491,9.675,16.452
			c-12.908,19.95-16.195,41.666-9.935,65.775c-12.028-3.007-22.378-11.235-27.706-22.98L91.12,209.818
			c-2.646-5.823-8.72-9.344-15.055-8.708l-65.506,6.292c-2.026,0.191-3.72,1.622-4.256,3.584c-0.538,1.962,0.194,4.053,1.84,5.249
			c11.445,8.344,17.717,17.081,18.641,25.961c0.935,9.005-3.55,19.071-13.332,29.918c-1.149,1.277-1.682,3.446-0.733,5.403
			c0.809,1.664,2.486,2.59,3.797,2.745c26.897,3.171,37.699,17.26,33.829,44.109c-0.379,2.633,1.978,4.854,1.44,4.173
			c1.136,1.115,2.726,1.533,3.926,1.396c31.913-3.368,51.611,6.129,60.212,29.09c0.376,0.49,1.145,2.862,4.098,3.158
			c1.201,0.106,3.529-0.497,4.643-2.277c7.375-11.779,21.373-21.136,42.166-28.577c20.558,26.351,60.018,56.979,85.202,75.088
			c1.762,1.27,4.155,1.227,5.873-0.11c36.589-28.505,63.77-53.091,84.153-76.174c22.614,7.619,37.517,17.382,45.273,29.773
			c0.918,1.466,2.768,2.44,4.643,2.277c1.766-0.177,3.293-1.402,3.96-2.904c8.821-19.95,23.004-33.285,60.352-29.345
			c1.134,0.134,2.915-0.403,3.926-1.396c0.244-0.49,1.782-1.793,1.44-4.173c-3.863-26.806,6.887-40.934,33.827-44.109
			c1.446-0.172,3.026-1.15,3.802-2.754c0.769-1.588,0.717-3.777-0.738-5.395c-9.782-10.847-14.268-20.913-13.33-29.918
			c0.923-8.88,7.194-17.617,18.641-25.956c1.646-1.201,2.378-3.292,1.84-5.253C505.16,209.023,503.467,207.593,501.44,207.401z
			 M338.836,157.986c4.383-11.277,5.251-23.626,2.651-35.832c22.256,18.373,31.674,45.817,22.528,69.348
			c-1.591,4.095-3.75,7.873-6.331,11.39c-9.303-9.964-21.531-17.233-36.469-20.407C329.05,175.8,335.132,167.518,338.836,157.986z
			 M148.205,191.067c-9.05-23.564,0.478-50.975,22.806-69.257c-2.648,12.196-1.83,24.55,2.507,35.841
			c3.395,8.844,8.812,16.655,15.793,23.109c-13.184,3.542-25.176,11.195-34.514,22.131
			C152.091,199.25,149.841,195.328,148.205,191.067z M125.706,343.422l0.538-25.53c0.055-2.708-2.091-4.947-4.797-5.005
			c-2.71-0.014-4.942,2.091-5.002,4.794l-0.459,21.78c-10.512-13.106-26.492-19.829-47.876-19.949l20.66-19.725
			c1.957-1.871,2.029-4.971,0.16-6.928c-1.871-1.962-4.976-2.029-6.926-0.163l-21.177,20.219
			c-0.531-20.234-10.394-32.728-27.335-38.797l31.783-12.699c2.512-1.005,3.734-3.856,2.732-6.368
			c-1.002-2.512-3.859-3.732-6.368-2.732l-30.636,12.24c4.439-8.025,6.308-15.847,5.527-23.374
			c-0.916-8.823-5.426-17.244-13.438-25.143l53.91-5.182c2.17-0.191,4.282,0.995,5.194,3.005l19.971,44.009
			c7.411,16.337,22.68,27.264,39.918,29.559c2.317,6.36,5.246,12.88,8.823,19.579c2.905,5.441,6.224,10.787,9.864,16.047
			C145.836,328.686,134.163,335.414,125.706,343.422z M254.78,396.316c-34.298-24.901-75.386-56.753-95.225-93.917
			c-17.792-33.32-18.586-61.554-2.435-86.314c11.368-17.426,29.607-27.77,48.903-27.77c21.471,0,35.266,12.104,44.435,31.708
			c0.823,1.766,2.61,2.866,4.555,2.823c1.945-0.048,3.677-1.239,4.416-3.038c4.976-12.129,13.122-20.282,24.904-24.913
			c34.414-13.551,73.08,6.596,80.482,42.234c4.783,23.101-1.129,50.467-18.763,72.951
			C325.704,336.026,296.648,363.489,254.78,396.316z M475.47,241.181c-0.784,7.528,1.086,15.352,5.525,23.379l-30.635-12.24
			c-2.512-1.01-5.366,0.22-6.368,2.732c-1.002,2.512,0.22,5.364,2.732,6.368l31.78,12.698c-16.91,6.057-26.8,18.525-27.332,38.797
			l-21.177-20.219c-1.954-1.866-5.06-1.799-6.926,0.163c-1.868,1.957-1.797,5.057,0.16,6.928l20.745,19.807
			c-21.39,0.101-37.45,6.737-47.964,19.843l-0.458-21.755c-0.057-2.703-2.218-4.789-5.002-4.794
			c-2.706,0.057-4.852,2.297-4.797,5.005l0.537,25.501c-8.89-8.434-21.282-15.47-37.37-21.272c1.659-2.006,3.284-4.006,4.844-5.995
			c6.886-8.783,12.216-18.458,15.992-28.561c17.315-2.249,32.64-13.301,40.077-29.692l19.971-44.009
			c0.911-2.01,3.026-3.187,5.191-3.005l53.913,5.182C480.895,223.942,476.386,232.363,475.47,241.181z" style="fill:#3a4b81"/>
      <path d="M236.591 267.874c.847-.995 1.258-2.297 1.144-3.598-.115-1.306-.749-2.512-1.758-3.344l-46.659-38.559c-1.014-.837-2.328-1.23-3.617-1.1-1.304.134-2.5.785-3.321 1.804-12.005 14.914-9.768 36.966 4.99 49.162C202.122 284.436 224.211 282.467 236.591 267.874zM193.611 264.687c-9.337-7.718-11.727-20.904-6.33-31.286l38.246 31.607C216.348 272.257 202.948 272.405 193.611 264.687zM326.302 221.272c-1.316-.129-2.608.263-3.617 1.1l-46.659 38.559c-1.01.833-1.644 2.038-1.758 3.344-.115 1.301.297 2.603 1.143 3.598 12.388 14.602 34.463 16.554 49.224 4.364 14.756-12.196 16.992-34.248 4.988-49.162C328.802 222.057 327.606 221.406 326.302 221.272zM318.394 264.687c-9.337 7.718-22.734 7.574-31.918.321l38.246-31.607C330.118 243.783 327.728 256.97 318.394 264.687zM297.114 309.696h-82.226c-2.526 0-4.665 2.277-4.904 4.789-.014.158-.053.789-.053.943 0 19.277 20.655 34.956 46.042 34.956 25.418 0 46.097-15.679 46.097-34.956 0-.316-.022-.622-.06-1C301.92 311.792 299.755 309.696 297.114 309.696zM255.974 340.585c-17.985 0-32.954-9.139-35.762-21.091h71.587C288.985 331.442 273.992 340.585 255.974 340.585z" style="fill:#3a4b81"/>
    </g>
  </g>
</svg>
