<svg xmlns="http://www.w3.org/2000/svg" xml:space="preserve" style="enable-background:new 0 0 512 512" viewBox="0 0 512 512">
  <g id="_x32_7_Diary">
    <g>
      <path d="M457.378,459.753V52.246c0-11.297-9.158-20.455-20.455-20.455H77.051
			c-11.297,0-20.455,9.158-20.455,20.455v407.507c0,11.297,9.158,20.455,20.455,20.455h359.871
			C448.22,480.208,457.378,471.05,457.378,459.753z" style="fill:#fff"/>
      <path d="M457.398,459.741c0,11.33-9.184,20.464-20.464,20.464H77.072c-11.33,0-20.464-9.134-20.464-20.464
			V52.263c0-11.33,9.134-20.464,20.464-20.464h151.282c-18.866,39.33-29.348,83.302-29.348,129.77
			C199.006,313.35,311.307,438.978,457.398,459.741z" style="fill:#e7e6fd"/>
      <path d="M137.605,480.208V31.79H77.051c-11.297,0-20.455,9.158-20.455,20.455v407.507
			c0,11.297,9.158,20.455,20.455,20.455H137.605z" style="fill:#9a88fb"/>
      <path d="M420.449,122.256v86.484c0,11.796-9.563,21.359-21.359,21.359H193.027
			c-11.796,0-21.359-9.563-21.359-21.359v-86.484c0-11.796,9.563-21.359,21.359-21.359H399.09
			C410.887,100.898,420.449,110.46,420.449,122.256z" style="fill:#fbecb3"/>
      <path d="M102.164 179.254 102.164 179.254c0 11.038-8.948 19.986-19.986 19.986H31.014c-11.038 0-19.986-8.948-19.986-19.986v0c0-11.038 8.948-19.986 19.986-19.986h51.164C93.216 159.268 102.164 168.216 102.164 179.254zM102.164 255.999 102.164 255.999c0 11.038-8.948 19.986-19.986 19.986H31.014c-11.038 0-19.986-8.948-19.986-19.986v0c0-11.038 8.948-19.986 19.986-19.986h51.164C93.216 236.014 102.164 244.961 102.164 255.999zM102.164 332.745 102.164 332.745c0 11.038-8.948 19.986-19.986 19.986H31.014c-11.038 0-19.986-8.948-19.986-19.986v0c0-11.038 8.948-19.986 19.986-19.986h51.164C93.216 312.759 102.164 321.707 102.164 332.745zM102.164 409.49 102.164 409.49c0 11.038-8.948 19.986-19.986 19.986H31.014c-11.038 0-19.986-8.948-19.986-19.986v0c0-11.038 8.948-19.986 19.986-19.986h51.164C93.216 389.505 102.164 398.453 102.164 409.49z" style="fill:#fff"/>
      <path d="M102.164 179.254c0 11.032-8.954 19.986-19.986 19.986H31.014c-11.032 0-19.986-8.954-19.986-19.986 0-3.091.693-6.022 1.972-8.634 3.251 6.715 10.073 11.352 18.014 11.352h51.164c7.941 0 14.763-4.637 18.014-11.352C101.471 173.231 102.164 176.163 102.164 179.254zM102.164 255.999c0 11.032-8.954 19.986-19.986 19.986H31.014c-11.032 0-19.986-8.954-19.986-19.986 0-3.091.693-6.022 1.972-8.634 3.251 6.715 10.073 11.352 18.014 11.352h51.164c7.941 0 14.763-4.637 18.014-11.352C101.471 249.977 102.164 252.908 102.164 255.999zM102.164 332.745c0 11.032-8.954 19.986-19.986 19.986H31.014c-11.032 0-19.986-8.954-19.986-19.986 0-3.091.693-6.022 1.972-8.634 3.251 6.715 10.073 11.352 18.014 11.352h51.164c7.941 0 14.763-4.637 18.014-11.352C101.471 326.722 102.164 329.654 102.164 332.745zM102.164 409.49c0 11.032-8.954 19.986-19.986 19.986H31.014c-11.032 0-19.986-8.954-19.986-19.986 0-3.091.693-6.022 1.972-8.634 3.251 6.715 10.073 11.352 18.014 11.352h51.164c7.941 0 14.763-4.637 18.014-11.352C101.471 403.468 102.164 406.399 102.164 409.49z" style="fill:#e7e6fd"/>
      <path d="M102.164,102.508L102.164,102.508c0,11.038-8.948,19.986-19.986,19.986H31.014
			c-11.038,0-19.986-8.948-19.986-19.986v0c0-11.038,8.948-19.986,19.986-19.986h51.164
			C93.216,82.522,102.164,91.47,102.164,102.508z" style="fill:#fff"/>
      <path d="M102.164,102.508c0,11.032-8.954,19.986-19.986,19.986H31.014
			c-11.032,0-19.986-8.954-19.986-19.986c0-3.091,0.693-6.022,1.972-8.634c3.251,6.715,10.073,11.352,18.014,11.352h51.164
			c7.941,0,14.763-4.637,18.014-11.352C101.471,96.486,102.164,99.417,102.164,102.508z" style="fill:#e7e6fd"/>
      <path d="M300.941,297.555c-9.138-19.535-22.743-28.515-40.059-28.725
			c-18.148-0.22-34.785,9.751-44.702,24.952c-15.229,23.343-12.597,48.913,1.842,75.956c7.915,14.824,18.692,27.896,31.016,39.322
			c15.346,14.228,32.737,28.216,51.902,41.998c31.226-24.325,59.152-48.956,79.05-74.332c11.476-14.635,18.105-32.692,17.772-51.287
			c-0.081-4.504-0.548-8.748-1.379-12.75c-6.721-32.367-41.684-50.215-72.444-38.107
			C313.628,278.64,305.705,285.949,300.941,297.555z" style="fill:#9a88fb"/>
      <path d="M500.971 80.921v23.26c0 7.534-6.107 13.641-13.641 13.641h-29.932V67.28h29.932C494.864 67.28 500.971 73.387 500.971 80.921zM500.971 189.887v23.26c0 7.534-6.107 13.641-13.641 13.641h-29.932v-50.541h29.932C494.864 176.246 500.971 182.353 500.971 189.887zM500.971 298.852v23.26c0 7.534-6.107 13.641-13.641 13.641h-29.932v-50.541h29.932C494.864 285.212 500.971 291.319 500.971 298.852zM500.971 407.818v23.26c0 7.534-6.107 13.641-13.641 13.641h-29.932v-50.541h29.932C494.864 394.177 500.971 400.285 500.971 407.818z" style="fill:#fbecb3"/>
      <path d="M399.091,95.996H193.028c-14.478,0-26.258,11.78-26.258,26.263v86.482
			c0,14.478,11.78,26.258,26.258,26.258h206.063c14.478,0,26.258-11.78,26.258-26.258v-86.482
			C425.348,107.776,413.569,95.996,399.091,95.996z M415.55,208.74c0,9.076-7.383,16.459-16.459,16.459H193.028
			c-9.076,0-16.459-7.383-16.459-16.459v-86.482c0-9.076,7.383-16.464,16.459-16.464h206.063c9.076,0,16.459,7.387,16.459,16.464
			V208.74z" style="fill:#3a4b81"/>
      <path d="M31.014,384.608c-13.722,0-24.885,11.162-24.885,24.885c0,13.722,11.162,24.885,24.885,24.885
			h20.684v25.378c0,13.981,11.373,25.354,25.354,25.354h359.871c13.981,0,25.356-11.373,25.356-25.354v-10.139h25.052
			c10.222,0,18.54-8.316,18.54-18.54v-23.258c0-10.225-8.318-18.54-18.54-18.54h-25.052v-48.626h25.052
			c10.222,0,18.54-8.316,18.54-18.54v-23.258c0-10.225-8.318-18.54-18.54-18.54h-25.052v-48.626h25.052
			c10.222,0,18.54-8.316,18.54-18.54v-23.258c0-10.225-8.318-18.54-18.54-18.54h-25.052v-48.626h25.052
			c10.222,0,18.54-8.316,18.54-18.54V80.92c0-10.225-8.318-18.54-18.54-18.54h-25.052V52.246c0-13.981-11.375-25.354-25.356-25.354
			H77.051c-13.981,0-25.354,11.373-25.354,25.354v25.378H31.014c-13.722,0-24.885,11.162-24.885,24.885s11.162,24.885,24.885,24.885
			h20.684v26.976H31.014c-13.722,0-24.885,11.162-24.885,24.885s11.162,24.885,24.885,24.885h20.684v26.976H31.014
			c-13.722,0-24.885,11.162-24.885,24.885c0,13.722,11.162,24.885,24.885,24.885h20.684v26.976H31.014
			c-13.722,0-24.885,11.162-24.885,24.885s11.162,24.889,24.885,24.889h20.684v26.976H31.014z M462.298,399.076h25.033
			c4.82,0,8.741,3.923,8.741,8.741v23.258c0,4.818-3.921,8.741-8.741,8.741h-25.033V399.076z M462.298,290.112h25.033
			c4.82,0,8.741,3.923,8.741,8.741v23.258c0,4.818-3.921,8.741-8.741,8.741h-25.033V290.112z M462.298,181.147h25.033
			c4.82,0,8.741,3.923,8.741,8.741v23.258c0,4.818-3.921,8.741-8.741,8.741h-25.033V181.147z M462.298,72.178h25.033
			c4.82,0,8.741,3.923,8.741,8.741v23.263c0,4.818-3.921,8.741-8.741,8.741h-25.033V72.178z M142.514,36.691h294.408
			c8.579,0,15.557,6.976,15.557,15.555v407.509c0,8.579-6.978,15.555-15.557,15.555H142.514V36.691z M61.508,52.265
			c0-8.584,6.983-15.564,15.564-15.564h55.642v438.604H77.073c-8.581,0-15.564-6.981-15.564-15.564v-25.363h20.669
			c13.722,0,24.885-11.162,24.885-24.885c0-13.722-11.162-24.885-24.885-24.885H61.508v-26.976h20.669
			c13.722,0,24.885-11.167,24.885-24.889S95.9,307.858,82.178,307.858H61.508v-26.976h20.669c13.722,0,24.885-11.162,24.885-24.885
			c0-13.722-11.162-24.885-24.885-24.885H61.508v-26.976h20.669c13.722,0,24.885-11.162,24.885-24.885S95.9,154.368,82.178,154.368
			H61.508v-26.976h20.669c13.722,0,24.885-11.162,24.885-24.885S95.9,77.623,82.178,77.623H61.508V52.265z M31.014,117.594
			c-8.318,0-15.086-6.765-15.086-15.086s6.768-15.086,15.086-15.086h51.164c8.318,0,15.086,6.765,15.086,15.086
			s-6.768,15.086-15.086,15.086H31.014z M31.014,194.339c-8.318,0-15.086-6.765-15.086-15.086s6.768-15.086,15.086-15.086h51.164
			c8.318,0,15.086,6.765,15.086,15.086s-6.768,15.086-15.086,15.086H31.014z M31.014,271.083c-8.318,0-15.086-6.765-15.086-15.086
			s6.768-15.086,15.086-15.086h51.164c8.318,0,15.086,6.765,15.086,15.086s-6.768,15.086-15.086,15.086H31.014z M31.014,347.833
			c-8.318,0-15.086-6.77-15.086-15.091c0-8.32,6.768-15.086,15.086-15.086h51.164c8.318,0,15.086,6.765,15.086,15.086
			c0,8.32-6.768,15.091-15.086,15.091H31.014z M82.178,394.406c8.318,0,15.086,6.765,15.086,15.086
			c0,8.32-6.768,15.086-15.086,15.086H31.014c-8.318,0-15.086-6.765-15.086-15.086c0-8.32,6.768-15.086,15.086-15.086H82.178z" style="fill:#3a4b81"/>
      <path d="M207.02 134.622h94.824c2.706 0 4.899-2.191 4.899-4.899 0-2.708-2.194-4.899-4.899-4.899H207.02c-2.706 0-4.899 2.191-4.899 4.899C202.121 132.431 204.314 134.622 207.02 134.622zM385.098 160.598H207.02c-2.706 0-4.899 2.191-4.899 4.899s2.194 4.899 4.899 4.899h178.078c2.706 0 4.899-2.191 4.899-4.899S387.804 160.598 385.098 160.598zM301.844 196.377H207.02c-2.706 0-4.899 2.191-4.899 4.899 0 2.708 2.194 4.899 4.899 4.899h94.824c2.706 0 4.899-2.191 4.899-4.899C306.743 198.568 304.549 196.377 301.844 196.377zM322.145 270.021c-9.021 3.55-16.148 9.296-21.277 17.143-9.579-15.225-22.973-23.028-39.925-23.234-.22 0-.438-.005-.656-.005-19.1 0-37.085 10.124-48.21 27.177-15.179 23.267-14.631 50.501 1.622 80.941 17.679 33.099 53.91 61.083 84.384 82.989.854.617 1.856.923 2.859.923 1.065 0 2.127-.345 3.012-1.033 36.722-28.612 62.109-52.497 79.891-75.176 16.441-20.961 21.814-46.515 17.337-68.051C393.9 276.623 355.983 256.694 322.145 270.021zM376.134 373.699c-16.811 21.44-40.791 44.128-75.307 71.228-28.267-20.564-62.101-46.827-78.482-77.496-14.648-27.43-15.323-50.645-2.062-70.975 9.306-14.263 24.227-22.732 40.006-22.732.177 0 .356 0 .533.005 15.947.191 27.617 8.665 35.681 25.904.821 1.761 2.6 2.828 4.555 2.823 1.945-.048 3.677-1.239 4.416-3.038 4.05-9.875 10.677-16.507 20.258-20.277 28.238-11.123 59.821 5.485 65.855 34.545C395.491 332.487 390.756 355.058 376.134 373.699z" style="fill:#3a4b81"/>
    </g>
  </g>
</svg>
