<svg xmlns="http://www.w3.org/2000/svg" xml:space="preserve" style="enable-background:new 0 0 512 512" viewBox="0 0 512 512">
  <g id="_x32_9_Find">
    <g>
      <path d="M317.477,247.635l13.007,13.007c8.813,8.813,8.813,23.101,0,31.913l-37.813,37.813
			c-8.813,8.813-23.101,8.813-31.913,0l-13.007-13.007L317.477,247.635z" style="fill:#fbecb3"/>
      <circle cx="173.023" cy="172.908" r="162.118" style="fill:#9a88fb"/>
      <circle cx="173.023" cy="172.908" r="116.96" style="fill:#fff"/>
      <path d="M226.679,276.84c-43.997,22.684-99.507,15.58-136.351-21.214
			c-45.614-45.614-45.614-119.84,0-165.405c5.047-5.047,10.436-9.554,16.119-13.473C106.936,163.271,155.441,238.379,226.679,276.84
			z" style="fill:#e7e6fd"/>
      <path d="M291.701,331.337c10.521,26.734,34.946,61.678,68.444,95.176
			c56.417,56.417,117.044,87.276,135.402,68.919c18.357-18.357-12.501-78.984-68.919-135.402
			c-33.498-33.498-68.442-57.923-95.177-68.444L291.701,331.337z" style="fill:#fff"/>
      <path d="M495.559,495.452c-18.373,18.324-78.979-12.543-135.42-68.935
			c-33.512-33.512-57.911-68.445-68.445-95.196l15.727-15.727c11.808,25.526,34.786,57.225,65.26,87.651
			c50.268,50.317,103.966,80.301,127.973,73.148C501.438,484.625,499.822,491.19,495.559,495.452z" style="fill:#e7e6fd"/>
      <path d="M458.189,430.213c7.72,7.72,7.72,20.179,0,27.9c-7.682,7.682-20.141,7.682-27.861-0.038
			c-7.682-7.682-7.682-20.141,0-27.823C438.048,422.531,450.507,422.531,458.189,430.213z" style="fill:#9a88fb"/>
      <path d="M172.324,133.989c-7.079-15.134-17.619-22.091-31.034-22.254
			c-14.06-0.171-26.948,7.554-34.631,19.33c-11.798,18.084-9.759,37.894,1.427,58.844c6.132,11.485,14.481,21.612,24.029,30.463
			c11.889,11.022,25.362,21.86,40.209,32.536c24.191-18.845,45.825-37.927,61.241-57.586c8.891-11.338,14.026-25.327,13.768-39.733
			c-0.062-3.489-0.424-6.777-1.068-9.877c-5.207-25.075-32.293-38.902-56.123-29.522
			C182.153,119.336,176.015,124.998,172.324,133.989z" style="fill:#fbecb3"/>
      <path d="M259.19,86.74c-47.511-47.511-124.816-47.506-172.336,0c-47.516,47.511-47.516,124.825,0,172.336
			c47.516,47.516,124.824,47.512,172.336,0C306.701,211.561,306.701,134.252,259.19,86.74z M252.262,252.149
			c-43.693,43.693-114.787,43.693-158.48,0s-43.693-114.787,0-158.48c43.696-43.687,114.781-43.699,158.48,0
			C295.95,137.362,295.95,208.451,252.262,252.149z" style="fill:#3a4b81"/>
      <path d="M338.72,289.319c5.431-10.362,3.924-23.443-4.77-32.141l-10.92-10.916
			c30.402-62.313,19.797-139.746-31.907-191.454c-65.118-65.118-171.078-65.118-236.196,0c-65.123,65.118-65.123,171.083,0,236.201
			c51.807,51.807,129.156,62.304,191.451,31.908l10.914,10.914c8.136,8.136,20.811,10.765,32.147,4.786
			c12.192,27.57,36.39,60.506,67.244,91.36c31.495,31.492,113.396,97.853,142.332,68.917
			c23.842-23.846-17.717-91.127-68.922-142.327C399.229,325.705,366.291,301.509,338.72,289.319z M61.854,284.081
			c-61.445-61.445-61.454-160.891,0-222.345c61.299-61.299,161.038-61.302,222.34,0c61.296,61.3,61.296,161.045,0,222.345
			C222.894,345.382,123.154,345.382,61.854,284.081z M289.204,326.903c-6.67,6.665-18.306,6.67-24.985,0l-8.766-8.766
			c26.311-14.923,47.871-36.479,62.797-62.799l8.771,8.767c6.885,6.89,6.885,18.095,0,24.985L289.204,326.903z M492.085,491.967
			c-14.086,14.091-70.31-10.761-128.476-68.917c-30.401-30.401-54.894-63.98-66.142-90.548l35.148-35.148
			c26.569,11.249,60.142,35.736,90.549,66.142C481.325,421.653,506.166,477.881,492.085,491.967z" style="fill:#3a4b81"/>
      <path d="M426.862 461.537c9.598 9.598 25.202 9.63 34.794.038 9.598-9.598 9.598-25.22 0-34.827-9.579-9.579-25.186-9.569-34.794.038C417.283 436.37 417.283 451.958 426.862 461.537zM433.79 433.715c5.777-5.777 15.168-5.808 20.937-.038 5.78 5.785 5.78 15.191 0 20.971-5.756 5.765-15.143 5.751-20.937-.038C428.034 448.848 428.034 439.475 433.79 433.715zM340.71 333.669c-1.914-1.914-5.014-1.914-6.928 0-1.914 1.914-1.914 5.014 0 6.928l71.544 71.544c1.914 1.914 5.014 1.914 6.928 0 1.914-1.914 1.914-5.014 0-6.928L340.71 333.669zM188.349 111.63c-6.675 2.632-12.048 6.756-16.057 12.32-7.555-11.21-17.933-16.957-30.942-17.115-15.507-.014-29.87 7.866-38.798 21.555-11.99 18.387-11.584 39.86 1.215 63.827 13.751 25.77 41.814 47.497 65.697 64.669.856.617 1.861.923 2.861.923 1.062 0 2.129-.344 3.01-1.033 28.521-22.22 48.248-40.789 62.085-58.43 12.842-16.383 17.199-36.459 13.646-53.626C245.259 116.809 215.129 101.084 188.349 111.63zM229.707 192.298c-12.861 16.402-31.181 33.77-57.497 54.477-21.545-15.727-47.305-35.767-59.803-59.171-11.139-20.866-11.679-38.483-1.646-53.86 7.005-10.741 18.22-17.115 30.062-17.115 13.132 0 21.499 7.539 27.066 19.435.818 1.761 2.502 2.899 4.555 2.823 1.943-.048 3.675-1.239 4.411-3.038 3.019-7.354 7.952-12.292 15.081-15.1 21.159-8.345 44.979 4.056 49.53 25.961C244.45 161.017 240.78 178.182 229.707 192.298z" style="fill:#3a4b81"/>
    </g>
  </g>
</svg>
