<svg xmlns="http://www.w3.org/2000/svg" xml:space="preserve" style="enable-background:new 0 0 512 512" viewBox="0 0 512 512">
  <g id="_x33_1_Heart_Cake">
    <g>
      <path d="M45.4,176.998v167.889c0,21.569,11.055,41.633,29.287,53.157l147.488,93.216
			c20.676,13.068,47.054,12.961,67.624-0.275l148.094-95.291c17.986-11.573,28.857-31.495,28.857-52.883V176.998H45.4z" style="fill:#fff"/>
      <path d="M466.762,177.018v165.806c0,21.398-10.896,41.316-28.891,52.853l-148.057,95.302
			c-20.559,13.263-46.986,13.361-67.643,0.296L74.705,398.044C56.463,386.507,45.42,366.44,45.42,344.895v-26.278
			c4.832,12.079,13.411,22.531,24.701,29.68l147.514,93.183c20.658,13.114,47.035,12.967,67.594-0.246l148.106-95.303
			c17.996-11.586,28.842-31.505,28.842-52.853V177.018H466.762z" style="fill:#e7e6fd"/>
      <path d="M75.746,234.35l178.873,117.912l179.535-112.766c14.179-8.906,25.216-22.363,29.999-38.41
			c5.203-17.456,2.495-33.721-7.259-48.927c-10.922-17.028-28.596-28.511-48.211-33.462
			c-57.174-14.431-108.344-9.186-154.064,13.919c-34.324-15.714-67.426-25.582-98.26-24.602
			c-41.952,1.806-78.384,12.933-99.418,43.053c-3.184,4.559-5.79,9.528-7.683,14.756C39.234,193.505,48.984,216.11,75.746,234.35z" style="fill:#9a88fb"/>
      <path d="M448.733,227.532v34.424c0,9.926-5.414,19.05-14.137,23.796l-4.545,2.473
			c-5.548,3.041-9.859,7.887-12.232,13.736l-7.219,18.081c-4.479,11.23-15.875,18.115-27.874,16.911l-14.204-1.437
			c-9.224-0.936-18.315,2.941-24.03,10.227l-31.717,40.474c-6.885,8.79-18.482,12.466-29.144,9.224l-13.904-4.178
			c-10.962-3.309-22.86,0.668-29.645,9.893c-5.481,7.453-13.669,11.063-21.824,11.063c-9.425,0-18.816-4.846-23.863-14.238
			l-24.966-46.323c-5.347-9.893-16.243-15.474-27.372-14.004l-19.752,2.574c-12.466,1.638-24.431-5.515-28.876-17.312l-15.742-41.71
			c-2.039-5.414-5.782-10.06-10.628-13.202l-21.657-14.004v-53.575l2.206,0.033c4.01,12.667,13.536,23.93,28.141,33.89
			l178.874,117.912l179.542-112.765C439.542,236.121,444.422,232.11,448.733,227.532z" style="fill:#fbecb3"/>
      <path d="M155.824,151.079c0.896-1.476,1.873-2.866,2.932-4.17c12.853-15.835,38.796-6.73,37.738,13.638
			c-0.009,0.17-0.019,0.341-0.03,0.513c-0.491,7.488-3.583,14.544-8.013,20.602c-7.005,9.577-15.623,16.294-26.646,18.749
			c-13.94-2.36-24.616-9.298-32.261-20.486c-2.617-3.83-4.341-8.191-4.826-12.805c-0.01-0.094-0.019-0.187-0.029-0.281
			c-1.515-15.136,15.099-26.442,27.968-18.331C153.832,149.247,154.891,150.101,155.824,151.079z" style="fill:#fff"/>
      <path d="M180.904,190.133c-5.473,5.078-11.734,8.628-19.08,10.255
			c-13.952-2.317-24.651-9.269-32.293-20.461c-2.613-3.846-4.339-8.184-4.832-12.819v-0.246
			c-1.233-11.981,8.973-21.644,19.672-21.003c-1.824,3.254-2.761,7.1-2.366,11.241v0.246c0.493,4.634,2.219,8.973,4.832,12.819
			c7.642,11.192,18.341,18.143,32.293,20.461C179.721,190.478,180.312,190.33,180.904,190.133z" style="fill:#e7e6fd"/>
      <path d="M142.23,52.719c-8.818,19.245-30.853,28.015-30.853,28.015s-7.746-22.416,1.072-41.661
			c8.818-19.245,30.853-28.015,30.853-28.015S151.048,33.473,142.23,52.719z" style="fill:#fbecb3"/>
      <path d="M323.876 173.704c2.239 1.505 5.286.915 6.799-1.33 1.512-2.249.916-5.292-1.33-6.804l-16.78-11.287c-2.251-1.512-5.287-.909-6.799 1.33-1.512 2.249-.916 5.292 1.33 6.804L323.876 173.704zM318.951 268.214c2.194 1.572 5.26 1.066 6.835-1.139l18.048-25.267c1.572-2.201 1.062-5.263-1.141-6.832-2.199-1.579-5.263-1.067-6.835 1.139l-18.048 25.267C316.238 263.583 316.747 266.645 318.951 268.214zM246.77 219.818l16.844-20.454c1.72-2.091 1.421-5.177-.667-6.895-2.086-1.727-5.177-1.426-6.897.665l-16.844 20.454c-1.72 2.091-1.421 5.177.667 6.895C241.939 222.197 245.041 221.919 246.77 219.818zM399.169 199.287c1.682 2.132 4.772 2.477 6.883.804 2.122-1.679 2.481-4.761.801-6.88l-21.055-26.612c-1.679-2.124-4.763-2.483-6.883-.804-2.122 1.679-2.481 4.761-.801 6.88L399.169 199.287zM242.902 284.683c0 2.708 2.194 4.899 4.899 4.899h21.055c2.706 0 4.899-2.191 4.899-4.899 0-2.708-2.194-4.899-4.899-4.899h-21.055C245.096 279.783 242.902 281.975 242.902 284.683zM155.167 238.406l22.191 3.005c2.775.358 5.159-1.592 5.512-4.201.364-2.679-1.514-5.148-4.196-5.512l-22.191-3.005c-2.653-.344-5.148 1.517-5.512 4.201C150.607 235.574 152.485 238.042 155.167 238.406zM75.446 187.369c2.454 1.158 5.368.12 6.529-2.321l9.024-18.952c1.163-2.44.127-5.364-2.318-6.531-2.433-1.148-5.366-.129-6.529 2.321l-9.024 18.952C71.965 183.278 73.001 186.201 75.446 187.369z" style="fill:#3a4b81"/>
      <path d="M52.903,148.274c-17.62,25.417-11.235,41.78-12.402,52.14c0,0.004-0.002,0.008-0.002,0.012
			c0,3.455,0.002,143.736,0.002,144.461c0,23.387,11.801,44.808,31.569,57.3l147.488,93.218
			c22.193,14.021,50.804,13.918,72.893-0.301l148.093-95.29c19.478-12.536,31.107-33.846,31.107-57.004
			c-0.371-176.462,0.785-165.847-0.836-168.392c-4.236-25.846-26.299-51.73-60.923-60.46c-56.31-14.215-108.567-9.765-155.37,13.229
			c-37.872-17.081-70.07-24.99-98.374-24.067c-4.176,0.18-8.198,0.482-12.149,0.84c-6.122-9.006-13.798-16.529-23.078-22.573
			c7.828-4.543,19.6-13.176,25.763-26.625c0,0,0,0,0-0.005c9.526-20.794,1.591-44.31,1.249-45.301
			c-0.438-1.268-1.373-2.297-2.591-2.856c-1.22-0.56-2.615-0.598-3.852-0.096c-0.976,0.388-23.968,9.732-33.495,30.526
			c-5.92,12.922-5.095,26.886-3.541,35.852c-13.011-5.271-28.194-8.573-45.743-9.81c-2.713-0.201-5.043,1.842-5.232,4.541
			c-0.189,2.699,1.844,5.043,4.543,5.23c34.954,2.464,59.562,12.988,74.885,32.4C95.72,110.525,69.401,124.679,52.903,148.274z
			 M116.904,41.113c5.411-11.813,16.638-19.406,23.184-23.023c1.543,7.301,3.124,20.722-2.313,32.593v-0.005
			c-5.409,11.804-16.624,19.397-23.169,23.014C113.069,66.371,111.495,52.917,116.904,41.113z M50.3,216.749
			c4.576,6.606,12.374,14.62,22.748,21.69l178.875,117.912c1.699,1.124,3.871,0.959,5.301,0.057
			c187.794-118.135,180.277-112.75,186.609-117.754v23.301c0,8.139-4.438,15.607-11.574,19.492l-4.565,2.478
			c-6.507,3.569-11.629,9.32-14.428,16.215l-7.218,18.086c-3.643,9.139-13.021,14.88-22.832,13.851l-14.201-1.435
			c-10.962-1.091-21.579,3.402-28.382,12.076l-31.717,40.478c-5.605,7.158-15.193,10.191-23.88,7.55l-13.897-4.172
			c-12.928-3.909-26.997,0.794-35.007,11.679c-4.237,5.761-10.751,9.067-17.878,9.067c-8.316,0-15.624-4.359-19.55-11.665
			l-24.968-46.324c-6.223-11.514-19.144-18.272-32.318-16.531l-19.758,2.574c-10.27,1.344-20-4.483-23.653-14.191l-15.741-41.703
			c-2.395-6.359-6.852-11.895-12.552-15.593L50.3,251.34V216.749z M461.852,342.811c0,19.813-9.947,38.042-26.61,48.765
			l-148.093,95.29c-18.892,12.162-43.363,12.258-62.358,0.254L77.304,393.901C60.396,383.217,50.3,364.892,50.3,344.887v-81.881
			l14.091,9.107c3.952,2.565,7.045,6.407,8.71,10.828l15.739,41.703c5.268,13.981,19.277,22.392,34.095,20.445l19.763-2.574
			c9.06-1.182,18.062,3.416,22.416,11.473l24.964,46.315c5.576,10.373,16.373,16.818,28.179,16.818
			c10.277,0,19.669-4.761,25.772-13.057c5.553-7.555,15.318-10.818,24.289-8.105l13.885,4.172
			c12.505,3.799,26.346-0.574,34.428-10.89l31.715-40.473c4.651-5.923,12.179-9.153,19.684-8.373l14.205,1.435
			c14.16,1.392,27.662-6.799,32.916-19.971l7.208-18.057c1.943-4.789,5.512-8.794,10.031-11.272l4.55-2.474
			c10.296-5.603,16.693-16.368,16.693-28.1v-32.653c3.092-3.474,5.87-7.181,8.22-11.115V342.811z M138.942,114.313
			c4.567,7.95,8.005,17.014,10.235,27.357c-5.93-1.632-12.299-0.715-17.938,2.776c-12.363,7.648-15.528,23.902-5.739,38.243
			c8.481,12.411,20.421,20,35.487,22.555c0.614,0.098,1.236,0.094,1.883-0.048c11.607-2.588,21.27-9.34,29.535-20.641
			c8.612-11.777,8.386-21.057,8.983-23.756c0.579-11.186-5.818-21.014-16.299-25.038c-9.198-3.544-19.001-1.798-26.283,4.244
			c-2.096-9.846-5.151-18.742-9.196-26.684c2.271-0.16,4.553-0.311,6.901-0.412c32.549-0.933,66.227,10.503,96.07,24.157
			c1.359,0.622,2.919,0.593,4.246-0.081c45.167-22.813,95.862-27.373,150.667-13.526c35.765,9.015,62.407,41.18,51.951,76.233
			c-4.227,14.147-14.049,26.961-27.889,35.655L254.684,346.433L78.505,230.301c-13.804-9.411-22.629-19.947-26.236-31.339
			c-4.816-15.018-0.137-32.371,8.674-45.09C76.458,131.681,102.092,118.671,138.942,114.313z M150.054,152.656
			c0.835,0.526,1.586,1.134,2.23,1.809c1.05,1.1,2.553,1.636,4.072,1.483c1.514-0.167,2.866-1.024,3.658-2.33
			c0.777-1.282,1.634-2.498,2.548-3.622c5.663-6.966,13.784-7.096,19.014-5.091c5.131,1.971,10.459,7.048,10,15.832
			c-0.392,6-2.84,12.234-7.079,18.033c-6.572,8.985-14.048,14.435-22.83,16.641c-12.045-2.263-21.236-8.244-28.076-18.248
			c-5.642-8.276-6.002-18.939,2.804-24.387C140.777,150.068,145.876,150.026,150.054,152.656z" style="fill:#3a4b81"/>
    </g>
  </g>
</svg>
