<svg xmlns="http://www.w3.org/2000/svg" xml:space="preserve" style="enable-background:new 0 0 512 512" viewBox="0 0 512 512">
  <g id="_x30_5_Heart">
    <g>
      <path d="M177.574,261.539c-14.854-31.754-36.968-46.352-65.117-46.694
			c-29.501-0.358-56.544,15.85-72.664,40.559c-24.754,37.944-20.476,79.51,2.995,123.469c12.867,24.097,30.385,45.346,50.417,63.918
			c18.269,16.937,38.319,33.665,59.98,50.206c14.252,10.883,34.124,10.57,48.04-0.74c41.139-33.434,77.616-67.301,104.845-102.025
			c18.655-23.79,29.43-53.141,28.889-83.369c-0.131-7.322-0.891-14.224-2.242-20.729c-10.927-52.61-67.755-81.619-117.755-61.941
			C198.199,230.792,185.319,242.673,177.574,261.539z" style="fill:#fff"/>
      <path d="M239.31,459.688c-12.148,10.933-24.87,21.738-38.086,32.496
			c-13.928,11.338-33.822,11.693-48.094,0.791c-21.651-16.54-41.684-33.213-59.907-50.143
			c-20.067-18.622-37.566-39.813-50.409-63.893c-23.439-43.987-27.773-85.566-3.05-123.613c9.792-14.93,23.759-26.809,39.813-33.712
			C108.472,316.009,164.821,398.524,239.31,459.688z" style="fill:#e7e6fd"/>
      <path d="M299.92,192.017c-7.346-15.703-18.282-22.923-32.203-23.092
			c-14.589-0.177-27.963,7.838-35.935,20.058c-12.242,18.765-10.126,39.32,1.481,61.059c6.363,11.917,15.026,22.425,24.933,31.61
			c9.034,8.376,18.95,16.649,29.662,24.829c7.048,5.382,16.876,5.227,23.758-0.366c20.345-16.534,38.384-33.282,51.849-50.455
			c9.225-11.765,14.554-26.28,14.286-41.229c-0.065-3.621-0.441-7.034-1.109-10.251c-5.404-26.018-33.507-40.363-58.234-30.632
			C310.12,176.811,303.75,182.687,299.92,192.017z" style="fill:#9a88fb"/>
      <path d="M410.147,34.409c-7.442-15.909-18.522-23.223-32.625-23.394
			c-14.78-0.179-28.329,7.941-36.406,20.321c-12.402,19.011-10.259,39.836,1.501,61.86c6.446,12.073,15.223,22.719,25.26,32.024
			c9.153,8.486,19.199,16.867,30.051,25.154c7.141,5.453,17.097,5.296,24.069-0.371c20.612-16.751,38.887-33.719,52.529-51.117
			c9.346-11.919,14.745-26.625,14.474-41.769c-0.066-3.669-0.446-7.126-1.123-10.386c-5.475-26.359-33.947-40.893-58.997-31.033
			C420.481,19.004,414.028,24.957,410.147,34.409z" style="fill:#fbecb3"/>
      <path d="M357.69 171.459c-12.679-6.852-27.65-7.749-41.076-2.471-6.976 2.746-12.574 7.081-16.732 12.933-7.818-11.72-18.583-17.732-32.109-17.894-15.732-.175-30.865 8.139-40.095 22.279-6.314 9.677-9.286 20.189-8.954 31.446-18.804 5.804-32.451 17.148-41.289 32.836-15.153-26.641-36.951-40.301-64.922-40.64-30.272-.323-59.104 15.624-76.826 42.781-24.349 37.329-23.44 79.345 2.78 128.454 24.548 45.959 65.887 80.692 111.749 115.711 16.092 12.289 38.341 11.975 54.104-.835 46.372-37.686 80.917-71.312 105.61-102.802 22.972-29.3 34.317-66.804 28.291-103.623 24.355-22.51 44.981-44.259 44.43-75.285C382.3 194.169 372.397 179.408 357.69 171.459zM302.217 387.209c-24.234 30.909-58.281 64.027-104.079 101.247-12.206 9.921-29.473 10.196-41.98.648-43.479-33.208-85.398-68.268-109.051-112.539-24.378-45.667-25.43-84.422-3.21-118.483 15.698-24.062 40.908-38.341 67.587-38.341.301 0 .608 0 .914.005 27.22.33 47.085 14.679 60.736 43.87.823 1.761 2.426 3.019 4.56 2.821 1.943-.045 3.675-1.237 4.411-3.036 7.586-18.478 20.252-29.781 37.754-35.727 1.521 7.904 4.525 16.132 9.087 24.675 12.309 23.086 32.91 40.441 55.937 58.028 8.965 6.84 21.226 6.534 29.827-.459 5.212-4.236 10.083-8.356 14.708-12.399C332.671 326.919 323.667 359.854 302.217 387.209zM308.528 302.311c-5.153 4.187-12.43 4.297-17.698.275-21.148-16.149-41.753-33.325-53.243-54.853-11.593-21.715-12.148-40.057-1.699-56.073 7.301-11.194 18.995-17.837 31.349-17.837.139 0 .282 0 .421.002 12.416.148 21.516 6.777 27.822 20.268.828 1.761 2.397 2.902 4.56 2.821 1.943-.045 3.675-1.239 4.411-3.038 3.153-7.677 8.306-12.837 15.751-15.768 10.727-4.227 22.698-3.51 32.827 1.974 11.765 6.356 19.531 17.986 19.823 34.44C373.44 247.43 342.616 274.608 308.528 302.311zM468.649 13.642c-19.995-10.818-46.345-6.603-58.544 10.655-7.914-11.909-18.818-18.016-32.526-18.181-16.191-.318-31.234 8.232-40.569 22.543-12.555 19.248-12.119 41.738 1.287 66.843 12.498 23.421 33.381 40.994 56.654 58.764 9.054 6.919 21.443 6.602 30.138-.462 23.373-18.995 40.808-35.971 53.291-51.894 10.287-13.117 15.799-29.057 15.521-44.882C493.525 36.493 483.442 21.636 468.649 13.642zM470.668 95.863c-12.028 15.342-28.956 31.808-51.76 50.336-5.239 4.261-12.646 4.378-18.009.28-21.503-16.42-42.325-33.79-53.961-55.592-11.756-22.019-12.32-40.624-1.718-56.875 7.407-11.359 19.277-18.1 31.818-18.1.139 0 .282 0 .426.002 12.598.151 21.837 6.88 28.248 20.571.823 1.758 2.378 2.945 4.555 2.821 1.943-.045 3.675-1.237 4.411-3.036 7.949-19.368 32.23-23.25 49.31-14.009 11.777 6.368 19.821 18.091 20.114 34.942C484.343 70.782 479.572 84.511 470.668 95.863z" style="fill:#3a4b81"/>
    </g>
  </g>
</svg>
