<svg xmlns="http://www.w3.org/2000/svg" xml:space="preserve" style="enable-background:new 0 0 512 512" viewBox="0 0 512 512">
  <g id="_x33_3_Heart_Pain">
    <g>
      <path d="M253.746,97.884C230.201,47.55,195.043,24.656,150.25,24.522
			c-32.257-0.096-63.59,12.315-87.501,33.967C-3.03,118.055-1.489,217.293,42.004,298.75
			c20.213,37.856,47.733,71.236,79.203,100.413c26.759,24.808,55.951,49.331,87.359,73.596
			c26.286,20.308,63.276,19.765,88.962-1.296c52.622-43.146,100.144-86.765,138.583-131.227
			c30.766-35.586,60.404-102.991,64.184-149.88c1.553-19.258,0.599-36.839-2.634-52.893
			C480.984,54.646,394.307,9.067,315.029,38.248C287.45,48.399,266.303,67.299,253.746,97.884z" style="fill:#fff"/>
      <path d="M377.666,401.107c-24.809,23.651-51.714,47.082-80.161,70.348
			c-25.636,21.06-62.63,21.612-88.928,1.323c-31.425-24.258-60.59-48.791-87.384-73.601c-31.48-29.165-58.991-62.575-79.169-100.45
			c-43.499-81.43-45.043-180.667,20.73-240.264c13.232-11.963,28.669-21.06,45.318-26.849c-0.055,2.812-0.11,5.624-0.11,8.435
			C107.961,210.847,221.753,355.127,377.666,401.107z" style="fill:#e7e6fd"/>
      <path d="M234.882,172.08l-99.449,99.449c-2.938,2.938-7.05,4.467-11.177,3.985
			c-26.553-3.105-47.625-24.177-50.73-50.73c-0.483-4.127,1.046-8.239,3.985-11.177l99.449-99.449
			c2.938-2.938,7.05-4.467,11.177-3.985c26.553,3.105,47.625,24.177,50.73,50.73C239.349,165.03,237.82,169.142,234.882,172.08z" style="fill:#9a88fb"/>
      <path d="M500.72,183.226c-0.11,2.316-0.22,4.686-0.441,7.112c-1.654,21.005-8.601,46.145-18.414,70.679
			c-12.791-15.768-25.912-30.929-39.419-45.539c-11.412-12.405-23.155-24.423-35.174-35.946
			c-42.948-41.404-89.314-77.184-139.318-107.011c11.192-14.83,25.471-25.416,42.396-32.473
			c47.578,20.619,91.463,49.012,131.93,84.572c10.53,9.152,20.784,18.855,30.818,28.999
			C482.527,163.103,491.733,172.972,500.72,183.226z" style="fill:#fbecb3"/>
      <polyline points="438.943 336.857 405.161 301.442 385.295 314.517 372.281 261.937 334.381 268.858 312.359 233.247 290.107 240.546 274.627 224.358" style="fill:#fff"/>
      <path d="M176.959,271.529L77.51,172.08c-2.938-2.938-4.467-7.05-3.985-11.177
			c3.105-26.553,24.177-47.625,50.73-50.73c4.127-0.483,8.239,1.046,11.177,3.985l99.449,99.449
			c2.938,2.938,4.467,7.05,3.985,11.177c-3.105,26.553-24.177,47.625-50.73,50.73C184.009,275.996,179.897,274.467,176.959,271.529z
			" style="fill:#9a88fb"/>
      <path d="M434.162,42.648c-36.664-20.488-80.697-23.779-120.854-9
			c-27.093,10.23-46.724,27.218-59.769,52.879c-23.583-44.253-58.284-66.759-103.285-66.927c-0.072,0-0.141,0-0.215,0
			c-109.623,0-191.851,132.585-112.338,281.43c36.596,68.698,95.913,120.076,167.887,175.628
			c27.923,21.538,67.884,20.883,95.022-1.416c58.162-47.621,103.692-90.735,139.203-131.801
			c31.032-35.962,61.54-104.391,65.348-152.657C511.44,121.163,481.966,69.366,434.162,42.648z M438.595,329.395l-29.887-31.335
			c-1.632-1.718-4.268-2.014-6.239-0.708l-14.081,9.268l-11.349-45.86c-0.622-2.512-3.091-4.148-5.636-3.641l-34.617,6.32
			l-20.258-32.77c-1.196-1.923-3.555-2.799-5.694-2.077l-19.32,6.335l-13.349-13.957c-1.871-1.952-4.966-2.019-6.928-0.153
			c-1.957,1.871-2.024,4.971-0.153,6.928l15.483,16.186c1.301,1.364,3.273,1.842,5.067,1.268l18.588-6.096l19.99,32.334
			c1.062,1.713,3.043,2.617,5.048,2.239l33.373-6.096l11.909,48.114c0.383,1.545,1.488,2.804,2.971,3.387
			c1.474,0.579,3.153,0.407,4.478-0.474l16.449-10.828l27.929,29.284c-35.13,40.626-80.263,83.347-137.975,130.602
			c-23.689,19.464-58.525,19.98-82.821,1.23C142.382,415.5,82.382,364.056,46.344,296.423C-29.826,153.818,48.097,29.4,150.029,29.4
			c0.065,0,0.134,0,0.199,0c44.535,0.167,76.939,23.244,99.063,70.558c0.828,1.766,2.407,2.876,4.564,2.823
			c1.943-0.053,3.675-1.244,4.411-3.048c3.017-7.396,6.758-14.288,11.06-20.608C347.743,126.587,415.88,187.948,476.2,261.847
			C465.625,287.579,452.272,311.564,438.595,329.395z M480.311,251.385c-58.912-71.324-126.564-132.534-205.015-180.161
			c9.317-11.014,20.86-19.591,35.088-25.814c72.178,31.688,133.608,80.875,185.322,139.535
			C494.602,207.227,488.101,230.48,480.311,251.385z M323.318,40.601c35.603-11.127,73.891-7.379,106.064,10.602
			c40.24,22.489,66.188,62.78,66.688,119.576C446.25,116.062,390.005,71.577,323.318,40.601z" style="fill:#3a4b81"/>
      <path d="M221.048,192.844l17.299-17.299c4.014-4.014,6.029-9.703,5.383-15.21
			c-3.392-29.009-26.019-51.635-55.025-55.028c-5.596-0.646-11.143,1.311-15.21,5.387l-17.3,17.3L138.9,110.7
			c-4.072-4.076-9.605-6.019-15.213-5.392c-29.007,3.392-51.635,26.019-55.028,55.028c-0.646,5.507,1.368,11.196,5.387,15.21
			l17.299,17.299l-17.299,17.299c-4.079,4.072-6.043,9.617-5.387,15.21c3.392,29.009,26.021,51.635,55.028,55.028
			c5.364,0.644,11.111-1.291,15.21-5.387l17.299-17.298l17.298,17.298c4.066,4.069,9.805,6.037,15.21,5.387
			c29.007-3.392,51.633-26.019,55.025-55.028c0.655-5.593-1.306-11.134-5.383-15.21L221.048,192.844z M180.425,117.618
			c1.821-1.821,4.422-2.876,7.141-2.579c24.476,2.861,43.571,21.957,46.432,46.435c0.301,2.56-0.665,5.23-2.579,7.143l-17.3,17.299
			l-50.998-50.995L180.425,117.618z M131.969,268.065c-1.916,1.919-4.586,2.856-7.143,2.584
			c-24.478-2.861-43.571-21.957-46.435-46.435c-0.299-2.555,0.667-5.225,2.584-7.143l17.298-17.299l50.995,50.995L131.969,268.065z
			 M187.566,270.649c-2.55,0.273-5.227-0.665-7.143-2.584l-99.448-99.448c-1.919-1.919-2.883-4.588-2.584-7.143
			c2.864-24.478,21.957-43.573,46.435-46.435c2.72-0.295,5.317,0.755,7.143,2.584l99.45,99.448c1.914,1.914,2.88,4.584,2.579,7.143
			C231.137,248.692,212.042,267.788,187.566,270.649z" style="fill:#3a4b81"/>
    </g>
  </g>
</svg>
