<svg xmlns="http://www.w3.org/2000/svg" xml:space="preserve" style="enable-background:new 0 0 512 512" viewBox="0 0 512 512">
  <g id="_x33_0_Heart_Angle">
    <g>
      <path d="M27.852,143.066l-0.4,80.514c-13.641,17.841-7.014,46.286,15.066,63.985l69.225,55.491
			l45.32-141.965l-10.245-15.349c-9.306-13.943-20.67-26.81-33.637-38.09l-7.92-6.889c-20.969-18.24-37.599-40.505-48.194-64.524
			l-4.615-10.461L32.298,90.922c-18.066,22.538-9.804,59.171,18.454,81.822l27.392,21.957" style="fill:#9a88fb"/>
      <path d="M65.343 256.209 39.76 235.702c-28.971-23.223-37.442-60.782-18.92-83.888l7.012-8.748c7.407 17.044 26.394 34.296 50.291 51.636M484.147 143.066l.4 80.514c13.641 17.841 7.014 46.286-15.066 63.985l-69.225 55.491-45.32-141.965 10.245-15.349c9.306-13.943 20.669-26.81 33.637-38.09l7.92-6.889c20.969-18.24 37.599-40.505 48.194-64.524l4.615-10.461 20.156 25.144c18.066 22.538 9.804 59.171-18.454 81.822l-27.392 21.957" style="fill:#9a88fb"/>
      <path d="M446.657,256.209l25.583-20.507c28.971-23.223,37.442-60.782,18.92-83.888l-7.012-8.748
			c-7.407,17.044-26.394,34.296-50.291,51.636" style="fill:#9a88fb"/>
      <path d="M259.146,234.339c-15.411-32.945-38.355-48.091-67.56-48.445
			c-30.607-0.371-58.664,16.444-75.389,42.08c-25.683,39.368-21.244,82.492,3.107,128.1c13.349,25.001,31.525,47.047,52.309,66.316
			c25.881,23.995,55.211,47.587,87.533,70.829c52.662-41.023,99.758-82.564,133.317-125.36
			c19.355-24.683,30.533-55.134,29.972-86.495c-0.136-7.595-0.924-14.754-2.325-21.502c-11.335-54.586-70.3-84.687-122.177-64.267
			C280.543,202.441,267.181,214.767,259.146,234.339z" style="fill:#fff"/>
      <path d="M323.197,439.92c-19.987,17.988-41.473,35.643-64.124,53.298
			c-32.312-23.317-61.626-46.803-87.443-70.787c-20.82-19.32-38.975-41.306-52.299-66.289
			c-24.318-45.637-28.815-88.775-3.165-128.249c10.16-15.49,24.65-27.815,41.306-34.977
			C187.453,290.853,245.914,376.462,323.197,439.92z" style="fill:#e7e6fd"/>
      <path d="M256.031,18.78c-75.329,0-136.413,26.711-136.413,59.715s61.084,59.716,136.413,59.716
			c75.266,0,136.35-26.712,136.35-59.716S331.297,18.78,256.031,18.78z M338.326,88.738c-17.355,8.1-45.16,15.732-82.295,15.732
			c-37.136,0-64.941-7.632-82.358-15.732c-8.335-3.883-8.335-16.603,0-20.485c17.417-8.101,45.222-15.732,82.358-15.732
			c37.135,0,64.941,7.632,82.295,15.732C346.662,72.135,346.662,84.855,338.326,88.738z" style="fill:#fbecb3"/>
      <path d="M494.984,148.746l-5.296-6.603c7.236-19.14,5.72-39.462-6.163-54.281l-20.158-25.148
			c-1.072-1.34-2.785-2.019-4.459-1.794c-1.699,0.22-3.158,1.316-3.847,2.88c-2.958,5.274-13.56,40.23-51.54,73.267l-7.919,6.885
			c-23.499,20.453-36.233,41.928-37.744,43.929c-36.108-10.144-79.555,0.865-98.856,35.466
			c-15.698-27.76-38.315-41.999-67.358-42.353c-12.859-0.144-25.388,2.561-36.982,7.67c-2.306-3.062-14.071-23.655-38.265-44.713
			l-7.919-6.885c-38.18-33.213-48.546-67.928-51.54-73.267c-0.689-1.565-2.148-2.66-3.847-2.88
			c-1.689-0.225-3.387,0.455-4.459,1.794L28.476,87.857c-11.884,14.824-13.4,35.146-6.163,54.286l-5.296,6.607
			c-16.337,20.381-13.651,50.943,4.422,75.045c-12.488,20.148-5.084,49.071,18.018,67.593l69.224,55.492
			c0.243,0.194,0.53,0.3,0.8,0.443c1.709,3.65,3.515,7.326,5.506,11.054c29.532,55.332,90.523,102.299,141.299,138.816
			c0.856,0.617,1.861,0.923,2.861,0.923c1.062,0,2.129-0.344,3.01-1.033c61.712-48.071,104.342-88.171,134.165-126.203
			c8.403-10.714,15.115-22.392,20.19-34.576l56.038-44.915c23.098-18.523,30.502-47.448,18.011-67.596
			C508.635,199.689,511.321,169.127,494.984,148.746z M45.585,283.743c-17.764-14.239-24.655-36.289-17.288-51.983
			c2.605,2.707,5.362,5.33,8.398,7.764l25.583,20.507c2.127,1.699,5.206,1.342,6.885-0.761c1.694-2.11,1.354-5.191-0.761-6.885
			L42.82,231.878c-26.813-21.497-34.961-56.042-18.158-76.999l2.306-2.876c8.33,13.947,23.923,28.98,48.301,46.664
			c2.182,1.588,5.253,1.096,6.842-1.091c1.588-2.187,1.1-5.253-1.091-6.842c-27.009-19.598-42.478-35.363-48.674-49.621
			c-8.111-18.597-5.118-36.034,3.775-47.128l15.11-18.847c1.009,1.741,13.75,37.076,50.817,69.324l7.919,6.885
			c22.342,19.431,34.436,39.851,35.878,41.761c-13.202,7.586-24.824,18.5-33.754,32.184c-20.215,30.99-23.576,65.112-10.147,103.629
			L45.585,283.743z M388.608,364.833c-28.851,36.794-70.075,75.697-129.576,122.261c-48.558-35.166-107.154-80.415-135.404-133.328
			c-25.334-47.444-26.421-87.716-3.325-123.112c16.32-25.019,42.54-39.865,70.291-39.865c30.948,0,50.894,17.368,64.114,45.626
			c0.828,1.761,2.421,2.823,4.56,2.823c1.943-0.048,3.675-1.239,4.411-3.038c17.733-43.208,71.51-52.137,109.452-31.631
			c21.827,11.799,37.205,32.315,42.181,56.291C422.112,293.587,413.843,332.652,388.608,364.833z M442.831,259.27
			c1.69,2.116,4.782,2.45,6.885,0.761c24.06-19.603,26.626-20.622,33.993-28.282c7.373,15.693,0.473,37.753-17.29,51.995
			l-43.939,35.219c5.846-21.477,6.15-42.14,2.428-60.094c-5.569-26.813-22.741-49.745-47.119-62.922
			c-3.365-1.818-6.815-3.409-10.323-4.804c2.029-2.667,11.187-19.459,34.567-39.793l7.919-6.885
			c35.948-31.28,50.317-68.46,50.817-69.324l15.11,18.851c10.072,12.56,10.923,30.138,3.99,46.683
			c-0.049,0.088-0.077,0.19-0.12,0.281c-0.027,0.056-0.07,0.101-0.095,0.159c-6.196,14.258-21.665,30.023-48.674,49.621
			c-2.191,1.588-2.679,4.655-1.091,6.842c1.593,2.191,4.655,2.684,6.842,1.091c24.378-17.684,39.971-32.717,48.301-46.664
			l2.306,2.871c16.803,20.961,8.655,55.506-18.162,77.003l-25.583,20.507C441.477,254.079,441.138,257.16,442.831,259.27z" style="fill:#3a4b81"/>
      <path d="M256.031,143.11c79.204,0,141.251-28.382,141.251-64.616c0-36.229-62.047-64.611-141.251-64.611
			c-79.243,0-141.313,28.382-141.313,64.611C114.718,114.728,176.789,143.11,256.031,143.11z M256.031,23.681
			c71.252,0,131.452,25.1,131.452,54.812s-60.2,54.817-131.452,54.817c-71.286,0-131.514-25.105-131.514-54.817
			S184.745,23.681,256.031,23.681z" style="fill:#3a4b81"/>
      <path d="M171.607,93.178c13,6.048,41.253,16.191,84.424,16.191c43.224,0,71.41-10.143,84.367-16.191
			c5.603-2.608,9.076-8.234,9.076-14.679c0-6.45-3.478-12.076-9.076-14.684c-12.952-6.048-41.133-16.196-84.367-16.196
			c-43.181,0-71.429,10.148-84.424,16.196c-5.603,2.608-9.086,8.234-9.086,14.684C162.521,84.943,166.004,90.57,171.607,93.178z
			 M175.741,72.695c12.263-5.703,38.999-15.277,80.29-15.277c41.339,0,68.008,9.569,80.228,15.277
			c3.172,1.478,3.416,4.813,3.416,5.804c0,0.986-0.244,4.32-3.416,5.799c-0.005,0-0.005,0-0.005,0
			c-12.22,5.703-38.889,15.272-80.223,15.272c-41.286,0-68.027-9.569-80.29-15.272c-3.172-1.478-3.421-4.813-3.421-5.799
			C172.32,77.508,172.569,74.173,175.741,72.695z" style="fill:#3a4b81"/>
    </g>
  </g>
</svg>
