<svg xmlns="http://www.w3.org/2000/svg" xml:space="preserve" style="enable-background:new 0 0 512 512" viewBox="0 0 512 512">
  <g id="_x33_2_Heart_Gun">
    <g>
      <path d="M129.374,419.241c-0.55,8.377-7.928,14.695-16.326,14.695H30.237c-10.599,0-19.2-8.601-19.2-19.2
			c0-8.193,1.223-16.326,3.628-24.152l4.892-15.877l32.081-104.395h73.374L87.876,391.114c-1.712,5.605,2.466,11.271,8.336,11.271
			h17.426c4.362,0,8.295,1.773,11.149,4.627C127.886,410.11,129.7,414.451,129.374,419.241z" style="fill:#fff"/>
      <path d="M105.53,433.949H30.225c-10.583,0-19.206-8.623-19.206-19.206c0-8.182,1.225-16.315,3.626-24.154
			l4.899-15.874l32.091-104.407H81.62c-15.139,19.402-24.154,43.85-24.154,70.356C57.466,379.125,76.427,413.225,105.53,433.949z" style="fill:#e7e6fd"/>
      <path d="M61.176 414.064c0 7.256-1.957 14.043-5.381 19.872H30.237c-10.599 0-19.2-8.601-19.2-19.2 0-8.193 1.223-16.326 3.628-24.152l4.892-15.877c.734-.061 1.447-.081 2.181-.081C43.526 374.625 61.176 392.276 61.176 414.064zM385.095 227.59c11.499-5.379 16.785-13.387 16.909-23.58.13-10.683-5.739-20.475-14.687-26.313-13.74-8.964-28.792-7.415-44.71 1.085-8.726 4.659-16.421 11.003-23.146 18.257-8.375 9.033-16.609 19.27-24.721 30.551 14.318 18.381 28.817 34.818 43.754 46.531 8.615 6.755 19.243 10.657 30.189 10.461 2.651-.047 5.149-.322 7.505-.812 19.052-3.956 29.558-24.537 22.431-42.643C396.229 235.058 391.927 230.395 385.095 227.59zM334.939 95.826c-.02-8.012-3.197-13.169-8.998-15.951-6.08-2.916-13.247-2.162-18.968 1.406-8.786 5.48-11.904 14.507-11.274 25.879.345 6.234 1.929 12.326 4.292 18.105 2.942 7.197 6.611 14.633 10.91 22.278 14.33-3.305 27.596-7.231 38.274-12.664 6.158-3.134 11.219-8.179 14.019-14.496.678-1.53 1.185-3.033 1.532-4.511 2.804-11.957-6.18-23.446-18.44-24.184C342.175 91.44 338.361 92.662 334.939 95.826zM346.13 359.529c8.895 1.693 15.297-.729 19.626-6.571 4.537-6.123 5.234-14.236 2.498-21.349-4.2-10.922-13.55-16.313-26.304-18.048-6.992-.951-14.09-.497-21.009.888-8.615 1.725-17.652 4.204-27.055 7.339.601 16.608 2.119 32.168 5.863 45.18 2.159 7.504 6.675 14.2 13.086 18.658 1.553 1.08 3.112 1.964 4.678 2.665 12.668 5.67 27.339-1.841 30.781-15.287C349.448 368.497 348.908 364.004 346.13 359.529zM480.167 191.337c5.533-7.168 6.267-13.973 3.015-20.476-3.409-6.815-10.33-11.106-17.911-11.883-11.641-1.193-20.678 4.708-27.993 15.298-4.01 5.806-6.816 12.342-8.709 19.139-2.358 8.464-4.233 17.645-5.69 27.449 15.085 6.975 29.649 12.659 42.947 15.204 7.67 1.468 15.683.468 22.559-3.233 1.665-.896 3.16-1.887 4.493-2.967 10.787-8.734 10.722-25.216.287-34.367C489.667 192.433 485.415 190.882 480.167 191.337z" style="fill:#fbecb3"/>
      <path d="M276.163,196.693v62.857c0,16.489-13.35,29.839-29.839,29.839H72.305
			c-30.695,0-56.131-22.583-60.574-52.035c-0.448-3.016-0.693-6.094-0.693-9.233c0-16.917,6.848-32.244,17.936-43.332
			c11.088-11.088,26.415-17.936,43.332-17.936h174.019C262.813,166.854,276.163,180.204,276.163,196.693z" style="fill:#9a88fb"/>
      <path d="M94.215,177.942c0,34.588-28.025,62.613-62.613,62.613c-6.95,0-13.635-1.121-19.872-3.2
			c-0.448-3.016-0.693-6.094-0.693-9.233c0-16.917,6.848-32.244,17.936-43.332c11.088-11.088,26.415-17.936,43.332-17.936h20.932
			C93.889,170.462,94.215,174.151,94.215,177.942z" style="fill:#fff"/>
      <path d="M94.212,177.954c0,34.59-28.025,62.615-62.615,62.615c-6.957,0-13.621-1.127-19.843-3.233
			c-0.49-2.989-0.735-6.076-0.735-9.211c0-0.833,0-1.666,0.098-2.499c2.156,0.294,4.409,0.392,6.663,0.392
			c33.463,0,60.753-26.212,62.517-59.185h12.935C93.869,170.458,94.212,174.133,94.212,177.954z" style="fill:#e7e6fd"/>
      <path d="M305.879,252.696v-49.149c0-10.298-10.981-16.877-20.061-12.019l-9.655,5.165v62.857l9.655,5.165
			C294.899,269.573,305.879,262.994,305.879,252.696z" style="fill:#fff"/>
      <path d="M305.867,203.529v49.19c0,7.349-5.585,12.788-12.053,13.522c0.588-1.519,0.931-3.184,0.931-4.948
			v-49.141c0-9.701-9.799-16.168-18.569-12.787v-2.695l9.652-5.144C294.893,186.675,305.867,193.24,305.867,203.529z" style="fill:#e7e6fd"/>
      <path d="M256.873,184.029c-1.617,12.2-10.877,23.566-22.978,25.722c-6.516,1.176-13.13-0.245-19.696-0.392
			c-6.614-0.147-13.865,1.323-17.834,6.565c-2.793,3.724-4.361,9.505-9.015,10.044c-1.47,0.147-2.94-0.343-4.262-0.98
			c-6.124-2.989-9.603-9.456-13.179-15.237c-0.931-1.47-1.911-2.989-3.43-3.822c-1.176-0.637-2.548-0.784-3.87-0.882
			c-8.819-0.637-17.785,1.225-25.673,5.242c-2.352,1.225-4.998,2.695-7.594,1.911c-1.127-0.343-2.058-1.078-2.94-1.862
			c-5.928-5.242-9.456-13.13-9.358-21.067c0-4.753,1.274-9.456,1.862-14.159c0.343-2.744,0.49-5.536,0.392-8.28H246.34
			c3.184,0,6.222,0.49,9.113,1.421C257.02,173.349,257.608,178.738,256.873,184.029z" style="fill:#fff"/>
      <path d="M256.873,184.029c-1.617,12.2-10.877,23.566-22.978,25.722c-6.516,1.176-13.13-0.245-19.696-0.392
			c-6.614-0.147-13.865,1.323-17.834,6.565c-2.793,3.724-4.361,9.505-9.015,10.044c-1.47,0.147-2.94-0.343-4.262-0.98
			c-6.124-2.989-9.603-9.456-13.179-15.237c-0.931-1.47-1.911-2.989-3.43-3.822c-1.176-0.637-2.548-0.784-3.87-0.882
			c-8.819-0.637-17.785,1.225-25.673,5.242c-2.352,1.225-4.998,2.695-7.594,1.911c-1.127-0.343-2.058-1.078-2.94-1.862
			c-5.928-5.242-9.456-13.13-9.358-21.067c0-4.753,1.274-9.456,1.862-14.159c0.343-2.744,0.49-5.536,0.392-8.28h8.77
			c14.453,18.03,36.746,29.592,61.684,29.592c24.791,0,46.888-11.367,61.39-29.2c1.47,0.245,2.89,0.588,4.312,1.029
			C257.02,173.349,257.608,178.738,256.873,184.029z" style="fill:#e7e6fd"/>
      <path d="M6.137 414.737c0 13.287 10.811 24.1 24.1 24.1 16.332 0 66.485 0 82.812 0 11.184 0 20.502-8.464 21.213-19.272.806-11.878-8.608-22.076-20.622-22.076H96.212c-1.222 0-2.342-.565-3.067-1.545-.73-.986-.94-2.22-.584-3.387l13.066-42.502h30.525c16.6 0 31.241-11.186 35.607-27.2l7.797-28.588h66.786c16.494 0 30.313-11.568 33.84-27.01l3.327 1.78c11.738 6.281 26.017-1.481 27.167-14.693 8.778 9.702 16.912 17.453 24.796 23.635 12.777 10.019 28.421 13.345 41.712 10.593 21.853-4.545 34.301-28.147 25.995-49.238-1.871-4.756-4.703-8.674-8.459-11.727 7.974-5.871 12.067-13.761 12.186-23.54.146-12.076-6.177-23.468-16.911-30.473-14.361-9.363-31.078-9.081-49.693.871-12.833 6.842-21.399 15.596-29.92 25.406-2.407-12.079-15.842-18.574-26.873-12.665l-3.381 1.809c-3.572-15.848-17.512-27.082-33.786-27.082-41.008 0-133.061 0-174.028 0-12.718 0-24.869 3.623-35.365 10.292C18.262 184.085 6.12 204.713 6.12 228.123c0 24.072 13.351 46.675 35.413 58.387L9.981 389.144C7.431 397.45 6.137 406.062 6.137 414.737zM310.779 214.663c10.203-12.663 20.038-24.031 34.136-31.558 15.435-8.239 28.43-8.679 39.724-1.301 7.911 5.158 12.572 13.44 12.466 22.148-.105 8.651-4.581 14.756-14.086 19.205-1.761.823-2.868 2.612-2.82 4.555.045 1.943 1.237 3.675 3.036 4.411 5.277 2.167 8.818 5.698 10.823 10.799 6.083 15.449-2.97 32.752-18.866 36.052-10.788 2.253-23.204-.494-33.674-8.708-9.519-7.461-19.516-17.471-30.739-30.719V214.663zM281.077 199.618l7.052-3.772c5.791-3.103 12.851 1.081 12.851 7.703v49.147c0 6.619-7.064 10.8-12.851 7.698l-7.052-3.772V199.618zM162.304 320.279c-3.206 11.761-13.961 19.976-26.153 19.976h-27.512l11.66-37.931c4.167 9.56 12.8 16.745 25.979 21.347 2.522.882 5.341-.432 6.242-3.009.89-2.555-.457-5.349-3.012-6.244-12.359-4.316-19.439-10.953-21.594-20.153h41.486L162.304 320.279zM124.132 171.732H246.34c1.81 0 3.372.226 5.127.596 3.731 16.392-6.349 30.451-18.443 32.6-5.665 1.023-12.094-.315-18.72-.469-9.785-.134-17.466 2.727-21.861 8.526-2.226 2.976-4.337 7.966-5.569 8.11-.089-.014-.541.019-1.636-.507-4.786-2.337-7.987-8.207-11.191-13.459-1.079-1.703-2.557-4.038-5.222-5.497-2.014-1.1-4.074-1.335-5.866-1.469-10.005-.72-19.737 1.427-28.569 5.928-3.992 2.107-3.675 1.527-4.742.579-4.907-4.34-7.787-10.818-7.706-17.397C121.943 184.028 123.722 179.031 124.132 171.732zM15.936 228.123c0-19.368 9.751-37.056 26.059-47.509 8.972-5.742 19.393-8.859 30.311-8.859h16.686c.215 2.033.323 4.105.323 6.186 0 31.822-25.889 57.712-57.712 57.712-5.246 0-10.402-.693-15.37-2.056C16.017 231.492 15.936 229.691 15.936 228.123zM18.327 244.101c4.346.863 8.778 1.352 13.276 1.352 37.227 0 67.511-30.286 67.511-67.511 0-2.085-.101-4.159-.287-6.21h15.458c-.458 6.609-2.141 11.386-2.141 17.478-.115 9.325 4.002 18.598 10.997 24.784 5.316 4.742 9.813 3.911 16.019.66 11.742-5.973 24.009-4.945 24.964-4.426.44.244 1.196 1.431 1.617 2.1 4.121 6.752 8.013 13.553 15.222 17.076 2.267 1.086 4.502 1.661 6.952 1.431 7.468-.868 9.82-8.56 12.354-11.957 3.196-4.215 10.031-4.67 13.82-4.622 6.445.135 13.313 1.637 20.665.316 14.948-2.661 28.24-17.806 27.226-37.25 5.73 4.624 9.277 11.603 9.293 19.295 0 .026-.01.049-.01.075v62.855c0 .018.007.034.007.052-.039 13.717-11.204 24.866-24.93 24.866H72.313C47.254 284.466 25.306 267.584 18.327 244.101zM50.563 290.485c6.859 2.419 14.175 3.78 21.75 3.78h40.212L83.19 389.684c-1.275 4.172-.519 8.579 2.077 12.091 2.593 3.502 6.584 5.512 10.945 5.512h17.428c6.108 0 11.284 5.152 10.847 11.622 0 0 0 .005-.002.01-.371 5.675-5.395 10.119-11.435 10.119H63.375c1.722-4.785 2.701-9.834 2.701-14.976 0-22.961-17.549-41.896-39.942-44.111L50.563 290.485zM19.347 392.029l3.844-12.473c18.373.766 33.085 15.952 33.085 34.507 0 5.21-1.175 10.335-3.414 14.976H30.237c-7.885 0-14.301-6.416-14.301-14.301C15.936 407.038 17.084 399.397 19.347 392.029zM346.575 86.795c-2.763-.187-5.387.187-7.84 1.053-2.065-6.828-6.663-10.464-10.677-12.387-7.428-3.569-16.282-2.952-23.679 1.66-9.782 6.105-14.349 16.301-13.574 30.306.803 14.489 8.711 29.871 15.825 42.521 1.092 1.94 3.325 2.854 5.371 2.373 17.1-3.947 29.617-8.1 39.394-13.072 9.65-4.912 16.033-13.446 18.1-22.258C372.972 102.161 361.962 87.726 346.575 86.795zM359.955 114.752c-1.442 6.136-6.027 12.21-13.002 15.76-8.368 4.258-19.098 7.909-33.562 11.411-5.628-10.38-12.152-23.246-12.801-35.038-.579-10.45 2.273-17.268 8.974-21.449 4.436-2.764 9.76-3.297 14.258-1.144 2.66 1.277 6.198 3.861 6.218 11.54.005 1.947 1.158 3.703 2.943 4.483 1.773.77 3.849.426 5.282-.895 2.292-2.12 4.746-3.019 7.725-2.847C355.134 97.133 362.088 105.663 359.955 114.752z" style="fill:#3a4b81"/>
      <path d="M369.694 355.872c5.416-7.311 6.586-17.038 3.134-26.023-4.588-11.928-14.756-19.043-30.22-21.143-16.124-2.189-34.846 3.293-50.272 8.435-2.062.684-3.423 2.651-3.347 4.823.715 19.77 2.639 34.502 6.05 46.358 2.526 8.785 7.852 16.359 15.002 21.335 9.487 6.554 19.614 6.845 28.138 2.727 7.404-3.574 12.82-10.191 14.861-18.162.816-3.187.943-6.311.385-9.349C361.62 364.24 366.699 359.915 369.694 355.872zM361.821 350.039c-2.086 2.818-5.883 6.383-14.775 4.675-1.914-.359-3.856.435-4.954 2.038-1.1 1.603-1.151 3.703-.124 5.359 1.959 3.158 2.462 6.234 1.581 9.679-1.323 5.163-4.832 9.454-9.627 11.77-5.581 2.677-11.877 2.51-18.289-1.957-5.301-3.684-9.27-9.363-11.177-15.99-2.976-10.34-4.744-23.22-5.524-40.32 12.957-4.121 28.955-8.711 42.356-6.875 11.981 1.627 19.095 6.378 22.392 14.952C365.927 339.202 365.23 345.436 361.821 350.039zM496.395 191.817c-2.474-2.167-5.203-3.694-8.165-4.569 3.143-7.598 1.584-14.081-.665-18.579-4.072-8.139-12.217-13.583-21.794-14.569-12.737-1.244-23.657 4.555-32.523 17.392-9.233 13.358-12.803 32.434-15.215 48.65-.318 2.153.818 4.258 2.792 5.172 17.959 8.296 31.966 13.244 44.081 15.564 11.742 2.235 23.103-.795 31.057-7.201C509.04 223.086 509.184 203.028 496.395 191.817zM489.802 226.056c-5.712 4.604-14.175 6.907-23.055 5.196-10.562-2.019-22.851-6.268-38.456-13.301 2.18-13.423 5.31-29.743 13.019-40.889 6.868-9.947 14.332-14.162 23.459-13.21 6.222.636 11.469 4.081 14.031 9.201 1.567 3.134 3.012 8.129-2.512 15.296-1.187 1.536-1.352 3.632-.419 5.34.931 1.713 2.775 2.713 4.722 2.531 3.713-.292 6.672.627 9.344 2.966C498.029 206.278 498.292 219.174 489.802 226.056z" style="fill:#3a4b81"/>
    </g>
  </g>
</svg>
