<svg xmlns="http://www.w3.org/2000/svg" xml:space="preserve" style="enable-background:new 0 0 512 512" viewBox="0 0 512 512">
  <g id="_x30_7_Jeweler">
    <g>
      <path d="M480.048,200.888c-14.221,177.047-90.903,273.893-222.555,300.082
			C118.294,479.54,44.287,376.697,31.952,196.833c20.191-4.393,38.045-10.11,53.562-17.178h0.028
			c8.082-3.689,15.517-7.744,22.303-12.166c40.608-26.471,57.927-66.234,50.492-120.022h195.324
			c-7.463,47.423,7.603,83.722,40.721,111.067c10.053,8.279,21.74,15.742,34.976,22.416
			C444.34,188.554,461.293,195.172,480.048,200.888z" style="fill:#fff"/>
      <path d="M342.904,469.614c-25.232,14.65-53.698,25.036-85.397,31.356
			C118.314,479.56,44.284,376.721,31.937,196.814c20.186-4.36,38.069-10.093,53.6-17.148c8.084-3.724,15.531-7.741,22.292-12.2
			c40.616-26.457,57.96-66.191,50.513-119.987h58.499c-12.493,37.872-19.206,78.391-19.206,120.428
			C197.636,290.05,254.372,398.916,342.904,469.614z" style="fill:#e7e6fd"/>
      <path d="M429.359,180.95c-0.873,12.278-11.095,21.965-23.599,21.965c-4.083,0-7.913-1.042-11.264-2.844
			c-0.056-0.028-0.084-0.056-0.113-0.056c-7.294-4.027-12.25-11.828-12.25-20.755s4.956-16.699,12.25-20.726
			C404.436,166.814,416.123,174.276,429.359,180.95z" style="fill:#9a88fb"/>
      <circle cx="382.129" cy="220.223" r="23.64" style="fill:#9a88fb" transform="rotate(-76.714 382.163 220.228)"/>
      <circle cx="346.85" cy="251.744" r="23.64" style="fill:#9a88fb" transform="rotate(-76.714 346.882 251.753)"/>
      <circle cx="304.345" cy="272.01" r="23.64" style="fill:#9a88fb" transform="rotate(-76.714 304.376 272.021)"/>
      <circle cx="257.065" cy="279.556" r="23.64" style="fill:#9a88fb" transform="rotate(-76.714 257.092 279.57)"/>
      <circle cx="209.784" cy="277.16" r="23.64" style="fill:#9a88fb" transform="rotate(-76.714 209.808 277.174)"/>
      <circle cx="164.284" cy="264.292" r="23.64" style="fill:#9a88fb" transform="rotate(-76.714 164.304 264.307)"/>
      <circle cx="129.552" cy="232.276" r="23.64" style="fill:#9a88fb" transform="rotate(-76.714 129.568 232.289)"/>
      <path d="M129.868,191.088c0,13.038-10.589,23.627-23.627,23.627c-13.067,0-23.655-10.588-23.655-23.627
			c0-4.14,1.07-8.054,2.929-11.433h0.028c8.082-3.689,15.517-7.744,22.303-12.166C120.152,168.306,129.868,178.557,129.868,191.088z
			" style="fill:#9a88fb"/>
      <path d="M303.766,417.165c0,25.552-20.715,46.267-46.281,46.267c-25.552,0-46.267-20.715-46.267-46.267
			c0-25.565,46.267-76.736,46.267-76.736S303.766,391.599,303.766,417.165z" style="fill:#fbecb3"/>
      <path d="M257.486,440.61c-13.664,0-24.78-11.116-24.78-24.78c0-7.58,11.431-25.878,24.782-42.774
			c13.354,16.895,24.79,35.194,24.79,42.774C282.278,429.494,271.156,440.61,257.486,440.61z" style="fill:#fff"/>
      <path d="M272.499,435.514c-4.164,3.184-9.407,5.095-14.992,5.095c-13.669,0-24.791-11.122-24.791-24.791
			c0-7.545,11.416-25.869,24.791-42.772c2.499,3.184,4.899,6.369,7.251,9.554c-0.049,0.049,0,0.049,0,0.049
			c-8.28,11.955-14.11,22.831-14.11,28.27C250.648,423.609,260.202,434.093,272.499,435.514z" style="fill:#e7e6fd"/>
      <path d="M353.499,47.834c0,20.333-43.679,36.806-97.567,36.806c-53.915,0-97.594-16.473-97.594-36.806
			c0-20.333,43.679-36.806,97.594-36.806C309.82,11.028,353.499,27.501,353.499,47.834z" style="fill:#fbecb3"/>
      <path d="M481.477,196.202c-78.666-23.985-135.809-66.41-122.976-147.973
			c4.458-28.331-61.207-42.1-102.567-42.1c-36.897,0-107.51,11.685-102.142,44.753c8.107,65.648-20.636,118.907-122.883,141.164
			c-2.373,0.517-4.012,2.696-3.844,5.122c12.569,183.274,89.845,287.117,229.682,308.645c0.548,0.084,1.123,0.078,1.703-0.036
			c136.229-27.102,212.429-129.55,226.481-304.497C485.116,198.987,483.68,196.874,481.477,196.202z M423.988,183.7
			c-2.012,8.237-9.493,14.316-18.227,14.316c-17.681,0-25.481-22.395-11.66-33.42C401.763,170.613,412.711,177.795,423.988,183.7z
			 M328.109,251.744c0-10.335,8.407-18.741,18.741-18.741c10.335,0,18.741,8.407,18.741,18.741s-8.407,18.741-18.741,18.741
			C336.15,270.485,328.109,261.415,328.109,251.744z M323.085,272.009c0,10.335-8.407,18.741-18.739,18.741
			c-10.335,0-18.741-8.407-18.741-18.741c0-10.335,8.407-18.741,18.741-18.741C315.057,253.268,323.085,262.356,323.085,272.009z
			 M363.388,220.223c0-10.335,8.407-18.741,18.741-18.741c10.332,0,18.739,8.407,18.739,18.741s-8.407,18.741-18.739,18.741
			C371.795,238.964,363.388,230.558,363.388,220.223z M255.933,15.928c54.609,0,92.666,16.815,92.666,31.906
			S310.542,79.74,255.933,79.74c-54.628,0-92.697-16.815-92.697-31.906S201.305,15.928,255.933,15.928z M164.769,67.457
			c16.699,13.345,50.409,22.082,91.164,22.082c40.716,0,74.399-8.725,91.105-22.054c-0.734,35.963,12.478,66.403,39.526,90.729
			c-9.021,8.248-12.217,21.612-6.378,33.568c-16.019,1.088-28.614,15.49-26.298,32.336c-16.701-4.26-32.692,7.019-35.206,23.253
			c-14.819-8.658-33.589-2.321-40.431,13.131c-5.228-5.806-12.776-9.485-21.185-9.485c-9.342,0-17.625,4.533-22.835,11.492
			c-4.996-8.304-14.07-13.889-24.447-13.889c-7.011,0-13.429,2.552-18.403,6.762c-4.511-13.681-18.807-22.345-33.644-18.842
			c2.544-16.856-9.927-31.477-26.017-32.694c1.934-3.845,3.049-8.169,3.049-12.758c0-11.085-6.414-20.786-15.78-25.501
			C150.312,141.774,165.629,108.851,164.769,67.457z M257.486,347.836c14.227,16.473,41.38,51.573,41.38,69.329
			c0,22.811-18.562,41.368-41.38,41.368c-22.811,0-41.368-18.557-41.368-41.368C216.118,399.423,243.264,364.314,257.486,347.836z
			 M257.065,298.296c-10.335,0-18.741-8.407-18.741-18.739c0-10.335,8.407-18.741,18.741-18.741
			c10.335,0,18.741,8.407,18.741,18.741C275.806,289.889,267.4,298.296,257.065,298.296z M89.118,183.399
			c7.601-3.546,14.297-7.28,19.928-10.856c9.043,1.354,15.923,9.22,15.923,18.545c0,10.328-8.402,18.729-18.729,18.729
			C92.733,209.817,83.561,195.877,89.118,183.399z M129.553,213.534c10.332,0,18.739,8.407,18.739,18.741
			s-8.407,18.741-18.739,18.741c-10.335,0-18.741-8.407-18.741-18.741S119.218,213.534,129.553,213.534z M164.284,245.55
			c10.335,0,18.741,8.407,18.741,18.741c0,10.335-8.407,18.741-18.741,18.741s-18.741-8.407-18.741-18.741
			C145.543,253.957,153.95,245.55,164.284,245.55z M209.784,258.419c10.335,0,18.741,8.407,18.741,18.741
			c0,10.335-8.407,18.741-18.741,18.741c-10.332,0-18.739-8.407-18.739-18.741C191.045,266.825,199.451,258.419,209.784,258.419z
			 M257.385,495.995C124.29,475.127,50.2,375.79,37.141,200.692c14.831-3.418,28.435-7.631,40.729-12.516
			c-1.689,16.494,10.718,30.156,26.196,31.329c-10.804,21.474,8.403,46.1,32.033,40.523c-2.659,17.613,11.073,32.804,28.186,32.804
			c7.012,0,13.431-2.553,18.405-6.763c3.753,11.383,14.471,19.631,27.095,19.631c9.342,0,17.625-4.533,22.835-11.493
			c4.26,7.08,11.488,12.153,19.963,13.499v30.854c-8.535,9.611-46.262,53.508-46.262,78.603c0,28.212,22.954,51.167,51.167,51.167
			c28.22,0,51.178-22.954,51.178-51.167c0-25.107-37.771-69.031-46.284-78.614v-30.971c9.317-1.764,17.037-8.063,20.78-16.515
			c16.253,18.05,45.721,8.782,49.353-14.683c20.379,11.907,45.831-4.876,42.579-28.533c18.35,4.681,35.575-9.341,35.575-27.626
			c0-4.525-1.087-8.791-2.969-12.597c11.71-0.81,21.578-8.714,25.131-19.589c12.593,6,26.619,11.509,42.011,16.365
			C460.401,371.706,387.259,469.8,257.385,495.995z" style="fill:#3a4b81"/>
      <path d="M257.486,445.508c16.37,0,29.691-13.313,29.691-29.679c0-12.17-19.782-38.143-25.844-45.813
			c-1.864-2.352-5.835-2.347-7.689,0c-6.06,7.672-25.837,33.645-25.837,45.813C227.807,432.195,241.12,445.508,257.486,445.508z
			 M257.488,381.067c12.95,17.136,19.89,30.464,19.89,34.763c0,10.962-8.923,19.88-19.892,19.88c-10.962,0-19.88-8.918-19.88-19.88
			C237.606,411.531,244.544,398.203,257.488,381.067z" style="fill:#3a4b81"/>
    </g>
  </g>
</svg>
