<svg xmlns="http://www.w3.org/2000/svg" xml:space="preserve" style="enable-background:new 0 0 512 512" viewBox="0 0 512 512">
  <g id="_x30_9_Kiss">
    <g>
      <path d="M382.825,374.216c-103.003,90.731-169.545,105.75-221.908,91.324
			c-42.175-9.638-72.169-34.976-95.1-69.421c-11.516-17.298-20.407-36.206-27.232-55.834l-27.558-79.26
			c35.272-9.344,65.454-28.206,90.761-56.181c10.293-11.147,21.531-19.814,33.783-25.815c26.753-13.103,58.946-7.335,78.668,14.992
			c6.662,7.541,11.822,16.32,15.332,26.461c2.083-1.907,4.229-3.679,6.441-5.31c27.004-19.909,64.943-13.127,85.138,13.664
			c9.875,13.1,16.747,28.417,19.693,46.633c4.335,26.808,12.748,52.863,26.895,76.044
			C372.395,359.141,377.455,366.703,382.825,374.216z" style="fill:#9a88fb"/>
      <path d="M82.733,280.824c28.766-2.57,56.074-10.566,81.842-24.292
			c23.506,31.397,56.323,40.587,96.291,32.724c11.209,24.365,30.407,45.824,58.911,63.899
			c-19.214-12.179-37.717-21.088-55.277-25.661c-33.718-8.781-68.919,7.768-84.208,39.076v0
			C189.134,305.001,152.177,283.225,82.733,280.824z" style="fill:#fff"/>
      <path d="M333.286,213.777c-4.675-9.994-11.635-14.588-20.494-14.696
			c-9.285-0.113-17.796,4.988-22.869,12.765c-7.791,11.942-6.444,25.024,0.943,38.859c4.049,7.584,9.563,14.272,15.868,20.117
			c7.851,7.279,16.748,14.435,26.553,21.486c15.975-12.444,30.262-25.046,40.442-38.028c5.871-7.487,9.262-16.725,9.092-26.238
			c-0.041-2.304-0.28-4.476-0.705-6.523c-3.438-16.559-21.326-25.69-37.062-19.495C339.776,204.101,335.723,207.84,333.286,213.777z
			" style="fill:#fbecb3"/>
      <path d="M416.632,128.282c-3.548-7.586-8.832-11.073-15.556-11.155c-7.048-0.085-13.508,3.786-17.359,9.689
			c-5.914,9.065-4.892,18.994,0.715,29.496c3.074,5.757,7.259,10.833,12.045,15.27c5.959,5.525,12.713,10.957,20.155,16.309
			c12.126-9.446,22.97-19.011,30.697-28.865c4.457-5.683,7.031-12.695,6.901-19.916c-0.031-1.749-0.213-3.397-0.535-4.951
			c-2.61-12.569-16.187-19.5-28.132-14.798C421.559,120.937,418.482,123.776,416.632,128.282z" style="fill:#fff"/>
      <path d="M416.632,128.282c-3.548-7.586-8.832-11.073-15.556-11.155c-7.048-0.085-13.508,3.786-17.359,9.689
			c-5.914,9.065-4.892,18.994,0.715,29.496c3.074,5.757,7.259,10.833,12.045,15.27c5.959,5.525,12.713,10.957,20.155,16.309
			c12.126-9.446,22.97-19.011,30.697-28.865c4.457-5.683,7.031-12.695,6.901-19.916c-0.031-1.749-0.213-3.397-0.535-4.951
			c-2.61-12.569-16.187-19.5-28.132-14.798C421.559,120.937,418.482,123.776,416.632,128.282z" style="fill:#fbecb3"/>
      <path d="M473.282,50.092c-2.613-5.586-6.503-8.154-11.455-8.214c-5.19-0.063-9.947,2.788-12.782,7.135
			c-4.355,6.675-3.602,13.987,0.527,21.72c2.263,4.239,5.345,7.977,8.869,11.244c4.388,4.068,9.361,8.068,14.841,12.009
			c8.929-6.956,16.914-13.999,22.604-21.255c3.282-4.185,5.177-9.348,5.082-14.666c-0.023-1.288-0.157-2.502-0.394-3.646
			c-1.922-9.255-11.92-14.359-20.715-10.897C476.91,44.683,474.644,46.773,473.282,50.092z" style="fill:#fff"/>
      <path d="M484.938,84.25c-3.602,3.29-7.514,6.536-11.65,9.737c-5.469-3.957-10.449-7.959-14.851-12.005
			c-3.513-3.29-6.625-7.025-8.848-11.249c-4.135-7.737-4.891-15.029-0.534-21.743c2.001-3.023,4.935-5.336,8.27-6.358
			C462.039,59.262,471.866,73.757,484.938,84.25z" style="fill:#e7e6fd"/>
      <path d="M322.399,349.02c0,0,0,0,0-0.002c-0.019-0.012-0.038-0.026-0.057-0.038
			c-26.813-17.016-45.999-37.801-57.023-61.772c-0.943-2.055-3.148-3.222-5.397-2.758c-40.047,7.875-69.98-2.208-91.424-30.853
			c-1.445-1.94-4.096-2.531-6.225-1.388c-24.827,13.227-51.736,21.212-79.975,23.734c-2.579,0.23-4.531,2.426-4.464,5.014
			c0.072,2.586,2.143,4.672,4.732,4.763c41.674,1.44,68.592,10.103,82.295,26.478c10.502,12.552,13.966,30.109,10.579,53.676
			c-0.34,2.388,1.105,4.67,3.411,5.378c2.275,0.705,4.775-0.343,5.842-2.531c14.296-29.275,47.348-44.616,78.573-36.485
			c16.167,4.21,34.301,12.643,53.889,25.059c2.287,1.445,5.311,0.768,6.761-1.514C325.365,353.494,324.686,350.467,322.399,349.02z
			 M265.735,322.753c-29.392-7.655-60.157,2.84-79.247,25.418c-0.22-17.313-4.89-31.243-14.11-42.26
			c-11.081-13.241-28.368-21.885-53.291-26.406c15.249-3.957,29.999-9.55,44.128-16.741c22.765,28.157,54.65,38.918,94.85,31.99
			c5.832,11.751,13.493,22.739,22.928,32.906C275.797,325.683,270.72,324.052,265.735,322.753z" style="fill:#3a4b81"/>
      <path d="M377.584 257.304c6.722-8.574 10.32-18.997 10.134-29.344-.226-13.486-6.9-23.472-16.823-28.834-8.526-4.61-18.598-5.215-27.636-1.66-3.981 1.567-7.306 3.89-9.952 6.94-6.368-8.139-14.335-10.148-20.454-10.222-7.725.029-15.08 2.884-20.931 8.003-19.944-6.524-42.261-3.723-60.283 10.148-18.353-41.856-62.885-55.015-98.218-37.703-12.598 6.167-24.454 15.215-35.262 26.928-24.732 27.332-54.468 45.746-88.386 54.731-1.321.349-2.431 1.232-3.072 2.438-.641 1.203-.751 2.62-.301 3.909 25.608 69.178 47.277 183.438 153.217 207.625 80.289 22.131 163.624-37.033 226.445-92.369 1.885-1.663 2.211-4.481.746-6.526-19.004-26.591-31.089-48.415-38.785-84.668C360.828 275.977 370.407 266.453 377.584 257.304zM376.273 373.441c-87.013 75.848-155.126 103.61-214.264 87.321C62.575 438.043 41.893 330.548 17.366 264.34c33.669-9.926 63.272-28.815 88.022-56.171 9.957-10.782 20.837-19.105 32.344-24.739 32.73-16.038 73.232-1.794 87.209 38.652.541 1.56 1.828 2.744 3.431 3.148 1.588.397 3.292-.022 4.512-1.136 15.744-14.413 34.391-18.201 52.23-13.665-7.474 12.408-7.047 26.714 1.429 42.586 9.255 17.324 27.942 31.81 43.88 43.272 1.78 1.278 4.172 1.212 5.871-.112 1.106-.862 2.125-1.688 3.192-2.533C347.348 327.303 358.919 348.642 376.273 373.441zM333.169 286.167c-13.658-10.049-30.005-22.839-37.985-37.77-7.043-13.191-7.421-24.272-1.163-33.873 4.32-6.617 11.206-10.545 18.464-10.545.081 0 .167 0 .249.002 7.244.086 12.363 3.859 16.11 11.871.823 1.758 2.751 2.945 4.555 2.821 1.947-.045 3.679-1.237 4.416-3.033 1.818-4.416 4.77-7.378 9.033-9.055 6.34-2.498 13.406-2.072 19.392 1.163 6.924 3.742 11.512 10.585 11.679 20.382.148 8.107-2.713 16.32-8.048 23.126C361.623 261.775 349.91 272.921 333.169 286.167zM445.741 116.123c-6.785-3.665-14.794-4.151-21.971-1.321-2.746 1.084-5.11 2.61-7.067 4.569-4.942-5.648-10.914-7.086-15.564-7.143-9.099 0-16.802 4.675-21.526 11.911-6.536 10.021-6.368 21.622.498 34.483 7.128 13.334 21.345 24.39 33.66 33.248 1.763 1.266 4.146 1.225 5.871-.112 14.449-11.253 24.473-20.693 31.545-29.71 5.268-6.72 8.086-14.897 7.942-23.019C458.952 128.423 453.702 120.424 445.741 116.123zM443.473 156.002c-6.091 7.77-14.703 16.002-26.952 25.741-9.978-7.399-21.912-16.775-27.77-27.739-5.196-9.732-5.493-17.521-.928-24.512 2.93-4.492 7.64-7.466 13.196-7.466 3.143.038 7.722.943 11.172 8.33.823 1.761 2.727 2.938 4.555 2.823 1.947-.045 3.679-1.237 4.416-3.036 1.268-3.079 3.234-5.057 6.196-6.222 4.478-1.773 9.488-1.471 13.727.821 4.936 2.669 8.125 7.397 8.244 14.457C449.435 145.081 447.353 151.05 443.473 156.002zM495.333 40.002c-5.33-2.885-11.622-3.265-17.268-1.038-1.751.689-3.306 1.605-4.66 2.744-3.742-3.706-8.081-4.687-11.521-4.73-7.256 0-13.293 3.757-16.947 9.356-5.086 7.804-4.981 16.787.316 26.703 5.356 10.032 15.898 18.258 25.167 24.925 1.78 1.278 4.172 1.212 5.871-.112 10.732-8.359 18.181-15.378 23.454-22.1 4.062-5.187 6.234-11.5 6.124-17.777C505.718 49.658 501.57 43.373 495.333 40.002zM492.032 69.707c-4.292 5.471-10.33 11.277-18.861 18.119-6.976-5.234-15.182-11.744-19.277-19.404-4.703-8.813-2.679-13.772-.746-16.734 3.466-5.315 9.112-5.047 8.622-4.911 2.129.026 4.861.66 7.072 5.39.823 1.761 2.756 3.012 4.555 2.821 1.947-.045 3.679-1.237 4.416-3.036.799-1.945 1.986-3.139 3.842-3.871 2.947-1.163 6.234-.964 9.019.543 3.32 1.793 5.305 4.911 5.397 9.529C496.142 62.186 494.706 66.291 492.032 69.707z" style="fill:#3a4b81"/>
    </g>
  </g>
</svg>
