<svg xmlns="http://www.w3.org/2000/svg" xml:space="preserve" style="enable-background:new 0 0 512 512" viewBox="0 0 512 512">
  <g id="_x33_4_Lipstick">
    <g>
      <path d="M220.401,316.623c7.55,0,14.008,5.389,15.383,12.813c6.365,34.383,21.004,127.669-2.514,151.187
			c-27.026,27.026-125.855,27.026-152.881,0c-23.518-23.518-8.88-116.804-2.514-151.187c1.374-7.424,7.833-12.813,15.383-12.813
			H220.401z" style="fill:#9a88fb"/>
      <path d="M205.156,217.716h-96.653c-6.77,0-12.258,5.488-12.258,12.258v86.649h121.168v-86.649
			C217.413,223.204,211.925,217.716,205.156,217.716z" style="fill:#fff"/>
      <path d="M217.435,229.953v27.094c-9.505-7.496-21.46-12.004-34.492-12.004h-9.995
			c-30.67,0-55.56,24.889-55.56,55.609c0,5.634,1.078,11.024,3.038,15.972H96.223v-86.671c0-6.761,5.487-12.249,12.297-12.249
			h96.617C211.948,217.705,217.435,223.192,217.435,229.953z" style="fill:#e7e6fd"/>
      <path d="M202.807,13.749v203.966H115.97v-110.46l0.329-0.376l85.193-94.868
			c0.047,0.047,0.141,0.094,0.188,0.141C202.15,12.575,202.573,13.138,202.807,13.749z" style="fill:#9a88fb"/>
      <path d="M287.412,467.157c24.922,24.922,116.057,24.922,140.979,0c36.467-36.467,0-206.286,0-206.286
			H287.412C287.412,260.87,250.946,430.69,287.412,467.157z" style="fill:#fbecb3"/>
      <path d="M271.482,410.38c1.07,25.084,5.523,46.369,15.93,56.777c24.922,24.922,116.057,24.922,140.979,0
			c10.408-10.408,14.861-31.693,15.93-56.777H271.482z" style="fill:#fff"/>
      <path d="M437.762,451.113c-2.352,6.663-5.438,12.102-9.358,16.021c-24.938,24.938-116.067,24.938-141.006,0
			c-10.387-10.387-14.845-31.65-15.923-56.735h18.422c2.352,15.482,6.712,28.025,13.964,35.276
			C326.839,468.653,405.916,470.466,437.762,451.113z" style="fill:#e7e6fd"/>
      <path d="M156.315,373.199c-5.208-11.134-12.963-16.253-22.833-16.372
			c-10.344-0.125-19.826,5.558-25.479,14.222c-8.68,13.305-7.18,27.879,1.05,43.293c4.511,8.449,10.654,15.9,17.678,22.412
			c8.747,8.109,18.659,16.082,29.583,23.937c17.798-13.864,33.714-27.903,45.056-42.367c6.541-8.342,10.319-18.633,10.129-29.232
			c-0.046-2.567-0.312-4.986-0.786-7.267c-3.831-18.448-23.759-28.621-41.291-21.72C163.546,362.418,159.03,366.584,156.315,373.199
			z" style="fill:#fff"/>
      <path d="M177.961,442.677c-6.755,6.079-14.016,12.046-21.671,18.013
			c-10.92-7.88-20.827-15.817-29.552-23.923c-7.036-6.529-13.172-13.96-17.675-22.403c-8.218-15.423-9.738-30.003-1.07-43.343
			c3.434-5.235,8.331-9.4,13.96-11.821C132.085,392.298,151.843,421.231,177.961,442.677z" style="fill:#e7e6fd"/>
      <path d="M202.807,21.921c-2.771,11.413-14.277,30.292-30.856,49.266
			c-23.294,26.629-47.669,43.348-54.526,37.336c-0.517-0.423-0.892-0.986-1.127-1.644c-3.71-8.219,9.299-32.687,30.855-57.344
			c23.06-26.394,47.246-43.066,54.338-37.525c0.047,0.047,0.141,0.094,0.188,0.141c0.47,0.423,0.892,0.986,1.127,1.597
			C203.7,15.675,203.653,18.445,202.807,21.921z" style="fill:#fff"/>
      <path d="M433.18 259.842c-.483-2.258-2.478-3.871-4.789-3.871H287.412c-2.311 0-4.306 1.612-4.789 3.871-8.869 41.284-17.943 106.703-16.038 150.748 1.134 26.53 5.725 44.926 13.967 56.029 22.907 31.403 123.509 31.787 151.303 4.004 13.537-13.537 16.546-40.907 17.363-60.032C451.116 366.715 442.108 301.399 433.18 259.842zM424.927 463.694c-23.804 23.79-117.286 23.564-136.707-3.165-8.141-11.2-10.668-31.375-11.518-45.251h162.401C438.199 429.995 435.346 453.268 424.927 463.694zM439.496 405.48H276.307c-1.141-47.046 8.555-108.099 15.082-139.71h133.026C430.942 297.382 440.637 358.434 439.496 405.48zM111.071 212.814h-2.569c-9.459 0-17.158 7.698-17.158 17.158v81.919c-9.054.852-16.602 7.548-18.287 16.653-8.852 47.793-20.119 131.557 3.866 155.542 29.134 29.124 130.681 29.12 159.81 0 23.976-23.976 12.717-107.744 3.871-155.547-1.69-9.105-9.237-15.797-18.292-16.648v-81.919c0-8.586-6.362-15.655-14.607-16.9V22.342c1.183-5.383.942-11.176-3.21-14.204-12.952-10.119-44.473 19.225-61.028 38.172-18.768 21.463-35.432 47.984-32.313 60.488C111.015 108.251 111.095 176.004 111.071 212.814zM220.399 321.52c5.177 0 9.622 3.703 10.569 8.804 10.995 59.425 16.469 129.203-1.163 146.835-25.229 25.229-120.715 25.229-145.954 0-17.636-17.636-12.162-87.415-1.158-146.835.943-5.1 5.387-8.804 10.564-8.804C184.621 321.52 74.84 321.52 220.399 321.52zM150.846 52.76c23.703-27.133 43.382-38.416 47.525-36.928 3.802 9.03-21.112 41.832-30.109 52.128-23.564 26.947-43.147 38.181-47.516 36.856C118.932 100.529 127.387 79.587 150.846 52.76zM197.907 44.275v168.539H120.87v-98.198c16.35.439 44.082-27.989 54.769-40.206C184.617 64.138 192.242 53.715 197.907 44.275zM205.156 222.613c4.057 0 7.359 3.301 7.359 7.359v81.75H101.143v-81.75c0-4.057 3.301-7.359 7.359-7.359C149.157 222.613 163.255 222.613 205.156 222.613z" style="fill:#3a4b81"/>
      <path d="M153.453,464.666c0.856,0.617,1.861,0.923,2.861,0.923c1.062,0,2.129-0.344,3.01-1.033
			c21.076-16.421,35.664-30.153,45.903-43.21c9.714-12.386,12.968-27.544,10.287-40.516c-4.428-21.272-27.383-33.36-47.884-25.287
			c-4.564,1.799-8.34,4.502-11.292,8.086c-5.787-7.779-13.573-11.703-23.196-11.703c-11.598,0-22.507,6.124-29.243,16.445
			c-9.1,13.952-8.823,30.196,0.833,48.277C114.985,435.872,135.831,451.988,153.453,464.666z M112.11,373.725
			c4.909-7.531,12.761-12,21.038-12c9.241,0,14.83,5.211,18.727,13.55c0.823,1.761,2.708,2.813,4.555,2.823
			c1.947-0.048,3.679-1.239,4.416-3.038c2.086-5.067,5.478-8.469,10.373-10.397c14.865-5.852,31.52,2.855,34.698,18.162
			c2.114,10.153-0.484,22.379-8.402,32.473c-9.263,11.818-22.44,24.344-41.315,39.253c-15.389-11.301-33.832-25.685-42.827-42.516
			C105.421,397.141,105.009,384.605,112.11,373.725z" style="fill:#3a4b81"/>
    </g>
  </g>
</svg>
