<svg xmlns="http://www.w3.org/2000/svg" xml:space="preserve" style="enable-background:new 0 0 512 512" viewBox="0 0 512 512">
  <g id="_x34_8_Location_Love">
    <g>
      <ellipse cx="265.79" cy="448.305" rx="187.792" ry="52.668" style="fill:#fff"/>
      <path d="M453.602,448.291c0,29.132-84.068,52.669-187.792,52.669c-103.724,0-187.792-23.537-187.792-52.669
			c0-11.088,12.197-21.37,33.063-29.837c17.993,23.839,93.392,41.681,183.71,41.681c64.21,0,120.861-9.022,154.729-22.832
			C452.191,440.832,453.602,444.511,453.602,448.291z" style="fill:#e7e6fd"/>
      <path d="M424.601,169.84c0,67.412-42.032,125.079-101.358,148.049L265.79,455.764l-57.452-137.875
			c-59.326-22.97-101.358-80.637-101.358-148.049c0-87.704,71.106-158.81,158.81-158.81S424.601,82.136,424.601,169.84z" style="fill:#9a88fb"/>
      <path d="M265.791,275.109c-58.046,0-105.268-47.222-105.268-105.268S207.745,64.574,265.791,64.574
			c58.043,0,105.265,47.222,105.265,105.268S323.834,275.109,265.791,275.109z" style="fill:#fff"/>
      <path d="M328.76,254.098c-17.59,13.206-39.363,21.018-62.95,21.018
			c-58.061,0-105.287-47.226-105.287-105.287c0-39.564,21.975-74.088,54.332-92.082C217.426,155.213,263.139,221.741,328.76,254.098
			z" style="fill:#e7e6fd"/>
      <path d="M265.121,131.356c-6.772-14.476-16.854-21.132-29.686-21.287
			c-13.449-0.163-25.778,7.226-33.127,18.491c-11.285,17.299-9.335,36.248,1.365,56.288c5.866,10.986,13.852,20.673,22.985,29.14
			c8.328,7.721,17.469,15.348,27.345,22.888c6.497,4.962,15.557,4.819,21.901-0.337c18.755-15.242,35.384-30.682,47.798-46.513
			c8.505-10.846,13.417-24.227,13.17-38.007c-0.06-3.338-0.406-6.484-1.022-9.45c-4.981-23.985-30.889-37.209-53.684-28.238
			C274.524,117.339,268.652,122.755,265.121,131.356z" style="fill:#fbecb3"/>
      <path d="M427.888,270.562c-6.772-14.476-16.854-21.132-29.686-21.287
			c-13.449-0.163-25.778,7.226-33.127,18.491c-11.285,17.299-9.335,36.248,1.365,56.288c5.866,10.986,13.852,20.673,22.985,29.14
			c8.328,7.721,17.47,15.348,27.345,22.888c6.497,4.962,15.557,4.819,21.901-0.337c18.755-15.242,35.384-30.682,47.798-46.513
			c8.505-10.846,13.417-24.227,13.17-38.007c-0.06-3.338-0.406-6.484-1.022-9.45c-4.981-23.985-30.889-37.209-53.684-28.238
			C437.29,256.545,431.419,261.961,427.888,270.562z" style="fill:#fff"/>
      <path d="M456.032,360.897c-5.538,4.984-11.338,9.91-17.363,14.815c-6.35,5.169-15.419,5.331-21.926,0.361
			c-9.871-7.54-19.003-15.141-27.311-22.86c-9.148-8.49-17.126-18.15-22.981-29.128c-10.685-20.053-12.662-39.009-1.391-56.354
			c4.464-6.806,10.832-12.222,18.15-15.369C396.385,295.395,422.073,333.013,456.032,360.897z" style="fill:#e7e6fd"/>
      <path d="M82.715,40.864c-6.772-14.476-16.854-21.132-29.686-21.287
			c-13.449-0.163-25.778,7.226-33.127,18.491c-11.285,17.299-9.335,36.248,1.365,56.288c5.866,10.986,13.852,20.673,22.985,29.14
			c8.328,7.721,17.47,15.348,27.345,22.888c6.497,4.962,15.557,4.819,21.901-0.337c18.755-15.242,35.384-30.682,47.798-46.513
			c8.505-10.846,13.417-24.227,13.17-38.007c-0.06-3.338-0.406-6.484-1.022-9.45c-4.982-23.985-30.889-37.209-53.684-28.238
			C92.118,26.847,86.246,32.263,82.715,40.864z" style="fill:#fff"/>
      <path d="M110.86,131.199c-5.538,4.984-11.338,9.91-17.363,14.815c-6.35,5.169-15.419,5.331-21.926,0.361
			c-9.871-7.54-19.003-15.141-27.311-22.86c-9.148-8.49-17.126-18.15-22.981-29.128C10.594,74.333,8.618,55.377,19.889,38.032
			c4.464-6.806,10.832-12.222,18.15-15.369C51.213,65.697,76.901,103.315,110.86,131.199z" style="fill:#e7e6fd"/>
      <path d="M265.791,59.674c-60.748,0-110.168,49.42-110.168,110.17c0,60.745,49.42,110.165,110.168,110.165
			c60.745,0,110.165-49.42,110.165-110.165C375.957,109.094,326.537,59.674,265.791,59.674z M265.791,270.21
			c-55.343,0-100.369-45.023-100.369-100.367S210.448,69.472,265.791,69.472S366.158,114.5,366.158,169.844
			S321.135,270.21,265.791,270.21z" style="fill:#3a4b81"/>
      <path d="M340.646,141.572c-5.569-26.806-34.527-41.938-60.276-31.798
			c-6.32,2.488-11.43,6.373-15.272,11.607c-16.621-24.344-50.895-20.014-66.893,4.502c-11.519,17.655-11.134,38.272,1.146,61.272
			c11.397,21.344,30.381,37.357,51.681,53.616c8.326,6.357,19.817,6.193,27.961-0.426c21.301-17.315,37.186-32.789,48.564-47.296
			C339.926,177.269,344.057,157.98,340.646,141.572z M319.843,187.001c-10.918,13.928-26.301,28.889-47.033,45.736
			c-4.612,3.742-11.11,3.852-15.837,0.244c-20.432-15.601-38.604-31.023-48.98-50.439c-10.615-19.885-11.131-36.669-1.584-51.305
			c13.442-20.593,42.231-23.56,54.272,2.196c0.823,1.756,2.44,2.933,4.56,2.823c1.943-0.048,3.675-1.239,4.411-3.038
			c2.866-6.981,7.545-11.67,14.306-14.325c20.189-7.945,42.784,3.899,47.09,24.674C333.867,157.012,330.495,173.422,319.843,187.001
			z" style="fill:#3a4b81"/>
      <path d="M443.137,248.976c-6.325,2.493-11.435,6.383-15.272,11.612
			c-4.768-6.978-10.714-11.676-17.742-14.15c12.376-23.211,19.379-49.403,19.379-76.599c0-90.271-73.439-163.71-163.71-163.71
			c-41.613,0-79.604,15.653-108.516,41.322c-7.469-24.896-35.041-37.729-59.309-28.174c-6.325,2.493-11.435,6.383-15.275,11.612
			C65.734,6.06,31.476,11.363,15.798,35.392C4.28,53.047,4.665,73.664,16.944,96.663c11.404,21.357,30.368,37.344,51.678,53.616
			c8.287,6.327,19.79,6.212,27.964-0.431c2.63-2.137,5.175-4.245,7.642-6.328c-1.397,8.572-2.149,17.357-2.149,26.318
			c0,66.382,41.119,127.132,102.534,151.844l29.107,69.853c-82.718,4.048-160.621,23.649-160.621,56.767
			c0,37.392,99.28,57.568,192.693,57.568c93.41,0,192.69-20.177,192.69-57.568c0-33.118-77.908-52.709-160.624-56.756l29.11-69.864
			c9.749-3.923,18.933-8.822,27.566-14.452c1.566,6.176,4.073,12.552,7.586,19.131c11.385,21.338,30.388,37.364,51.678,53.616
			c8.325,6.364,19.834,6.174,27.961-0.431c21.296-17.306,37.186-32.774,48.564-47.291c12.371-15.78,16.501-35.071,13.091-51.478
			C497.85,254.002,468.941,238.825,443.137,248.976z M90.407,142.241c-4.612,3.751-11.127,3.856-15.837,0.249
			c-19.45-14.855-38.409-30.64-48.98-50.439c-10.617-19.885-11.134-36.669-1.586-51.305c13.439-20.595,42.229-23.558,54.274,2.196
			c0.823,1.766,2.694,2.832,4.555,2.823c1.945-0.048,3.677-1.239,4.416-3.038c2.864-6.981,7.543-11.67,14.306-14.33
			c20.141-7.926,42.765,3.848,47.092,24.679c2.795,13.409-0.516,29.8-11.208,43.435C126.512,110.448,111.127,125.409,90.407,142.241
			z M448.683,448.303c0,22.593-75.109,47.769-182.891,47.769S82.898,470.895,82.898,448.303c0-20.574,62.294-43.281,154.819-47.177
			l23.554,56.526c0.761,1.823,2.545,3.014,4.521,3.014s3.761-1.191,4.521-3.014l23.542-56.5
			C386.364,405.05,448.683,427.731,448.683,448.303z M360.971,265.086c-6.285,9.636-8.998,20.156-8.198,31.455
			c-9.659,6.702-20.083,12.435-31.303,16.778c-1.244,0.483-2.239,1.454-2.751,2.684L265.791,443.03l-52.932-127.026
			c-0.512-1.234-1.507-2.201-2.751-2.684c-58.755-22.751-98.23-80.41-98.23-143.481c0-12.774,1.606-25.172,4.564-37.044
			c11.685-10.655,21.2-20.66,28.711-30.237c9.419-12.013,15.024-27.264,14.059-43.586c27.678-26.623,65.234-43.043,106.58-43.043
			c84.864,0,153.911,69.047,153.911,153.911c0,26.616-7.159,52.187-19.715,74.65C384.005,243.633,369.511,251.998,360.971,265.086z
			 M482.61,326.209c-10.923,13.933-26.306,28.894-47.033,45.731c-4.612,3.746-11.124,3.842-15.837,0.249
			c-19.379-14.797-38.406-30.635-48.98-50.439c-10.617-19.885-11.134-36.664-1.579-51.305c12.737-19.535,41.686-24.692,54.272,2.196
			c0.818,1.761,2.44,2.756,4.555,2.823c1.943-0.048,3.675-1.239,4.411-3.038c2.866-6.981,7.545-11.67,14.306-14.33
			c20.138-7.927,42.773,3.85,47.09,24.679C496.634,296.22,493.266,312.624,482.61,326.209z" style="fill:#3a4b81"/>
    </g>
  </g>
</svg>
