<svg xmlns="http://www.w3.org/2000/svg" xml:space="preserve" style="enable-background:new 0 0 512 512" viewBox="0 0 512 512">
  <g id="_x31_4_Love_Birds">
    <g>
      <g>
        <path d="M279.198,231.049l24.495-0.206c6.796-0.057,13.016-4.156,15.434-10.508
				c4.908-12.891,17.244-18.756,32.287-22.06c7.53-1.654,15.345-2.295,22.937-0.956c16.714,2.948,27.72,13.093,34.559,28.494
				c4.088,9.205,5.764,19.301,5.764,29.373l0,148.777H379.05c-17.194,0-34.252-4.763-48.267-14.723
				c-0.24-0.171-0.48-0.343-0.718-0.516c-21.843-15.833-34.051-41.784-34.051-68.762l0-65.007c0-4.541-1.804-8.896-5.015-12.107
				L279.198,231.049" style="fill:#fbecb3"/>
      </g>
      <g>
        <circle cx="339.639" cy="250.879" r="13.801" style="fill:#fff"/>
      </g>
      <g>
        <path d="M347.023,262.519c-2.153,1.378-4.65,2.153-7.363,2.153c-7.621,0-13.821-6.2-13.821-13.778
				c0-7.621,6.2-13.821,13.821-13.821c0.775,0,1.593,0.086,2.325,0.215c-3.875,2.454-6.459,6.76-6.459,11.669
				C335.527,255.759,340.479,261.399,347.023,262.519z" style="fill:#e7e6fd"/>
      </g>
      <g>
        <path d="M500.973,447.906c-27.973-9.624-53.778-21.469-76.781-36.064
				c-19.248-12.215-36.539-26.387-51.504-42.938c-12.691-14.013-17.397-34.107-10.206-51.557c2.855-6.98,7.244-12.744,13.326-17.08
				c0.211-0.159,0.37-0.265,0.582-0.423c24.377-19.037,60.705-5.711,67.897,24.377c6.822,28.502,17.873,56.475,32.627,83.972
				C484.105,421.52,492.143,434.792,500.973,447.906z" style="fill:#fff"/>
      </g>
      <g>
        <path d="M500.954,447.924c-12.53-4.306-24.629-9.085-36.212-14.381
				c-3.617-5.985-7.061-11.97-10.291-17.998c-14.769-27.471-25.835-55.458-32.638-83.962c-4.995-20.926-24.112-33.714-43.445-33.154
				c24.284-16.878,58.903-3.488,65.921,25.791c6.803,28.504,17.869,56.491,32.638,83.962
				C484.118,421.53,492.127,434.792,500.954,447.924z" style="fill:#e7e6fd"/>
      </g>
      <g>
        <path d="M500.973,447.906c-27.973-9.624-53.778-21.469-76.781-36.064l52.721-3.649
				C484.105,421.52,492.143,434.792,500.973,447.906z" style="fill:#9a88fb"/>
      </g>
      <g>
        <path d="M232.806,231.049l-24.495-0.206c-6.796-0.057-13.016-4.156-15.434-10.508
				c-4.908-12.891-17.244-18.756-32.287-22.06c-7.53-1.654-15.345-2.295-22.937-0.956c-16.714,2.948-27.72,13.093-34.559,28.494
				c-4.088,9.205-5.764,19.301-5.764,29.373l0,148.777h35.624c17.194,0,34.252-4.763,48.267-14.723
				c0.24-0.171,0.48-0.343,0.718-0.516c21.843-15.833,34.051-41.784,34.051-68.762l0-65.007c0-4.541,1.804-8.896,5.015-12.107
				L232.806,231.049" style="fill:#9a88fb"/>
      </g>
      <g>
        <circle cx="172.365" cy="250.879" r="13.801" style="fill:#fff"/>
      </g>
      <g>
        <path d="M186.161,250.893c0,7.578-6.2,13.778-13.778,13.778c-4.091,0-7.793-1.808-10.334-4.65h0.258
				c7.578,0,13.778-6.2,13.778-13.778c0-3.531-1.335-6.76-3.488-9.171C180.089,237.201,186.161,243.358,186.161,250.893z" style="fill:#e7e6fd"/>
      </g>
      <g>
        <path d="M11.031,447.906c27.973-9.624,53.778-21.469,76.781-36.064
				c19.248-12.215,36.539-26.387,51.504-42.938c12.691-14.013,17.397-34.107,10.206-51.557c-2.855-6.98-7.244-12.744-13.326-17.08
				c-0.211-0.159-0.37-0.265-0.582-0.423c-24.377-19.037-60.705-5.711-67.897,24.377c-6.822,28.502-17.873,56.475-32.627,83.972
				C27.899,421.52,19.861,434.792,11.031,447.906z" style="fill:#fff"/>
      </g>
      <g>
        <path d="M139.788,303.208c-22.132-5.727-46.803,7.621-52.616,31.863
				c-6.803,28.504-17.869,56.491-32.594,83.962c-2.713,5.038-5.555,10.075-8.569,15.07c-11.195,5.081-22.907,9.645-34.963,13.821
				c8.827-13.132,16.836-26.394,24.026-39.742c14.769-27.471,25.835-55.458,32.638-83.962c7.191-30.097,43.531-43.402,67.902-24.37
				c0.215,0.172,0.388,0.258,0.603,0.43C137.463,301.184,138.668,302.132,139.788,303.208z" style="fill:#e7e6fd"/>
      </g>
      <g>
        <path d="M11.031,447.906c27.973-9.624,53.778-21.469,76.781-36.064l-52.721-3.649
				C27.899,421.52,19.861,434.792,11.031,447.906z" style="fill:#fbecb3"/>
      </g>
      <g>
        <path d="M259.432,144.76c-4.596-9.826-11.44-14.343-20.15-14.449c-9.129-0.111-17.497,4.905-22.485,12.551
				c-7.66,11.742-6.336,24.604,0.927,38.206c3.981,7.457,9.402,14.032,15.601,19.779c7.719,7.157,16.467,14.193,26.107,21.125
				c15.707-12.235,29.754-24.625,39.763-37.389c5.773-7.362,9.107-16.444,8.939-25.798c-0.041-2.265-0.276-4.4-0.693-6.413
				c-3.381-16.281-20.967-25.258-36.44-19.168C265.814,135.246,261.829,138.923,259.432,144.76z" style="fill:#fff"/>
      </g>
      <g>
        <path d="M278.536,206.076c-5.961,5.365-12.369,10.631-19.125,15.897
				c-9.637-6.955-18.38-13.959-26.08-21.113c-6.21-5.762-11.624-12.32-15.599-19.771c-7.253-13.611-8.594-26.478-0.944-38.251
				c3.03-4.62,7.352-8.296,12.32-10.432C238.049,161.616,255.486,187.149,278.536,206.076z" style="fill:#e7e6fd"/>
      </g>
      <g>
        <path d="M255.496,394.284c-3.957-8.459-9.848-12.348-17.347-12.439
				c-7.859-0.095-15.063,4.222-19.358,10.805c-6.595,10.108-5.455,21.181,0.798,32.892c3.428,6.42,8.095,12.08,13.431,17.028
				c6.646,6.161,14.176,12.219,22.476,18.187c13.522-10.534,25.615-21.2,34.232-32.189c4.97-6.338,7.84-14.157,7.696-22.209
				c-0.035-1.95-0.237-3.788-0.597-5.521c-2.91-14.016-18.051-21.745-31.371-16.502C260.99,386.093,257.559,389.258,255.496,394.284
				z" style="fill:#fff"/>
      </g>
      <g>
        <path d="M271.942,447.071c-5.132,4.619-10.649,9.152-16.465,13.685
				c-8.297-5.987-15.824-12.017-22.453-18.176c-5.346-4.961-10.008-10.606-13.429-17.021c-6.244-11.718-7.399-22.795-0.813-32.93
				c2.609-3.977,6.329-7.142,10.606-8.981C237.087,408.795,252.098,430.776,271.942,447.071z" style="fill:#e7e6fd"/>
      </g>
      <g>
        <path d="M348.962,62.385c-3.543-7.574-8.818-11.056-15.532-11.138c-7.037-0.085-13.487,3.781-17.332,9.674
				c-5.905,9.051-4.884,18.965,0.714,29.45c3.069,5.748,7.248,10.816,12.026,15.246c5.95,5.516,12.693,10.94,20.124,16.284
				c12.107-9.431,22.935-18.982,30.65-28.821c4.45-5.675,7.02-12.676,6.891-19.886c-0.031-1.746-0.212-3.392-0.535-4.943
				c-2.606-12.55-16.162-19.47-28.089-14.775C353.881,55.052,350.809,57.885,348.962,62.385z" style="fill:#fff"/>
      </g>
      <g>
        <path d="M363.687,109.649c-4.595,4.136-9.535,8.195-14.742,12.253
				c-7.429-5.361-14.168-10.76-20.103-16.274c-4.786-4.442-8.96-9.496-12.024-15.24c-5.591-10.492-6.625-20.41-0.728-29.485
				c2.336-3.561,5.667-6.395,9.496-8.041C332.479,75.378,345.92,95.06,363.687,109.649z" style="fill:#e7e6fd"/>
      </g>
      <path d="M350.362,193.491c-12.296,2.701-29.392,8.241-35.813,25.102c-1.655,4.356-6.038,7.311-10.899,7.352
			l-24.497,0.206c-1.971,0.017-3.742,1.218-4.493,3.043c-0.746,1.828-0.325,3.926,1.072,5.32l11.804,11.799
			c2.306,2.309,3.579,5.38,3.579,8.643v65.008c0,41.671,27.172,79.332,70.697,87.296v48.596h-14.875
			c-2.708,0-4.899,2.194-4.899,4.899s2.191,4.899,4.899,4.899h19.775c2.708,0,4.899-2.194,4.899-4.899v-52.186
			c6.257,0.473,8.874,0.219,23.095,0.292v46.994H379.83c-2.708,0-4.899,2.194-4.899,4.899s2.191,4.899,4.899,4.899h19.775
			c2.708,0,4.899-2.194,4.899-4.899v-51.894h6.591c26.707,18.696,55.972,32.56,88.283,43.679c1.975,0.68,4.193,0.03,5.478-1.651
			c1.282-1.67,1.354-3.971,0.177-5.72c-25.249-37.512-45.581-78.627-55.98-122.086c-3.682-15.406-14.664-27.796-29.478-33.574
			v-34.324c0-11.56-2.081-22.112-6.186-31.361C401.497,197.041,378.094,187.421,350.362,193.491z M488.862,438.304
			c-15.917-6.078-33.821-14.277-48.704-22.656l33.958-2.349C477.517,419.498,483.154,429.258,488.862,438.304z M414.729,298.08
			c12.488,4.368,21.756,14.569,24.794,27.282c3.815,15.943,9.086,32.045,15.661,48.162h-14.651
			c-17.765,0-32.219-14.454-32.219-32.222c0-2.706-2.191-4.899-4.899-4.899c-2.708,0-4.899,2.194-4.899,4.899
			c0,23.169,18.851,42.021,42.018,42.021h18.815c3.022,6.84,6.284,13.676,9.786,20.5l-43.591,3.016
			c-18.827-12.098-35.406-25.941-49.224-41.224c-15.221-16.804-18.709-44.076,3.086-61.908
			C389.592,295.756,402.83,293.916,414.729,298.08z M404.433,227.801c3.545,7.988,5.344,17.203,5.344,27.385v31.644
			c-12.874-2.11-26.021,1.044-36.401,9.154c-24.004,17.165-25.419,52.907-4.325,76.207c8.512,9.412,18.111,18.232,28.49,26.526
			c-0.19,0.089-0.339,0.235-0.514,0.347H379.05c-45.785,0-78.137-35.068-78.137-79.099v-65.008c0-5.88-2.292-11.409-6.45-15.571
			l-3.536-3.533l12.808-0.108c8.866-0.074,16.89-5.567,19.971-13.665c3.651-9.586,12.521-15.452,28.76-19.019
			C376.012,197.901,394.603,205.653,404.433,227.801z" style="fill:#3a4b81"/>
      <path d="M339.64 232.177c-10.311 0-18.703 8.39-18.703 18.703 0 10.311 8.392 18.701 18.703 18.701s18.698-8.39 18.698-18.701C358.338 240.567 349.95 232.177 339.64 232.177zM339.64 259.782c-4.909 0-8.904-3.993-8.904-8.902 0-4.909 3.995-8.904 8.904-8.904s8.899 3.995 8.899 8.904C348.539 255.789 344.549 259.782 339.64 259.782zM172.365 269.58c10.311 0 18.698-8.39 18.698-18.701 0-10.313-8.387-18.703-18.698-18.703-10.311 0-18.703 8.39-18.703 18.703C153.662 261.191 162.054 269.58 172.365 269.58zM172.365 241.976c4.909 0 8.899 3.995 8.899 8.904 0 4.909-3.99 8.902-8.899 8.902-4.909 0-8.904-3.993-8.904-8.902C163.461 245.971 167.456 241.976 172.365 241.976z" style="fill:#3a4b81"/>
      <path d="M12.622 452.541c32.56-11.202 61.768-25.112 88.288-43.679h6.59v51.894c0 2.706 2.191 4.899 4.899 4.899h19.775c2.708 0 4.899-2.194 4.899-4.899s-2.191-4.899-4.899-4.899h-14.875v-46.994c14.216-.073 16.836.182 23.095-.292v52.186c0 2.706 2.191 4.899 4.899 4.899h19.775c2.708 0 4.899-2.194 4.899-4.899s-2.191-4.899-4.899-4.899h-14.875V407.26c12.426-2.273 23.939-6.971 33.865-14.025l.756-.543c22.588-16.375 36.076-43.564 36.076-72.728v-65.008c0-3.263 1.273-6.335 3.579-8.643l11.799-11.799c1.397-1.395 1.818-3.493 1.072-5.32-.751-1.825-2.521-3.026-4.493-3.043l-24.492-.206c-4.861-.041-9.244-2.995-10.899-7.354-6.421-16.859-23.516-22.399-35.813-25.1-27.978-6.141-51.253 3.811-63.028 30.334-4.105 9.249-6.186 19.801-6.186 31.361v34.324c-14.814 5.778-25.796 18.168-29.478 33.572C52.43 367.045 32.017 407.967 6.966 445.17c-1.177 1.746-1.105 4.05.177 5.72C8.428 452.57 10.645 453.221 12.622 452.541zM102.228 255.186c0-10.182 1.799-19.397 5.344-27.385 9.811-22.091 28.361-29.927 51.966-24.741 16.239 3.567 25.11 9.433 28.76 19.016 3.081 8.1 11.105 13.593 19.971 13.667l12.804.108-3.531 3.533c-4.158 4.163-6.45 9.691-6.45 15.571v65.008c0 26.033-11.971 50.255-32.014 64.786l-.694.498c-12.722 9.038-28.43 13.816-45.43 13.816h-17.976c-.176-.112-.324-.258-.514-.347 10.378-8.294 19.974-17.114 28.481-26.523 14.397-15.894 18.756-38.155 11.11-56.697-5.233-12.818-13.235-17.435-15.426-19.512-10.381-8.106-23.526-11.263-36.401-9.153V255.186zM52.656 383.322h18.817c23.167 0 42.018-18.851 42.018-42.021 0-2.706-2.191-4.899-4.899-4.899-2.708 0-4.899 2.194-4.899 4.899 0 17.768-14.454 32.222-32.219 32.222H56.819c6.572-16.11 11.844-32.213 15.663-48.162 6.39-26.736 38.665-38.41 60.118-21.655.653.615 8.013 4.788 12.387 15.509 6.22 15.081 2.569 33.294-9.311 46.403-13.808 15.277-30.387 29.122-49.214 41.22l-43.592-3.016C46.372 397 49.633 390.164 52.656 383.322zM37.889 413.3l33.958 2.349c-12.955 7.308-30.986 15.89-48.709 22.656C29.827 427.708 37.086 414.765 37.889 413.3zM256.569 225.952c1.78 1.278 4.172 1.212 5.871-.112 18.636-14.516 31.54-26.665 40.612-38.234 6.617-8.445 10.163-18.713 9.981-28.904-.224-13.213-6.735-23.096-16.579-28.416-13.27-7.179-29.149-3.863-36.995 5.127-12.357-15.687-35.764-12.088-46.769 4.773-8.153 12.502-7.914 27.033.713 43.188C222.505 200.436 240.946 214.712 256.569 225.952zM220.9 145.54c8.413-12.895 26.425-15.107 34.09 1.294.823 1.763 2.727 2.978 4.555 2.823 1.947-.045 3.679-1.237 4.416-3.036 4.482-10.909 18.27-12.887 27.832-7.715 6.772 3.66 11.273 10.348 11.44 19.969.144 7.952-2.66 16.009-7.895 22.686-8.096 10.325-19.593 21.268-36.023 34.272-13.425-9.886-29.458-22.436-37.272-37.073C215.135 165.817 214.757 154.951 220.9 145.54zM252.636 464.735c1.78 1.278 4.172 1.212 5.871-.112 16.081-12.528 27.224-23.023 35.076-33.03 5.794-7.39 8.899-16.382 8.741-25.33-.224-11.621-5.919-20.329-14.631-25.038-11.548-6.247-25.179-3.424-32.143 3.962-5.464-6.536-12.158-8.179-17.344-8.241-9.526-.108-18.119 4.758-23.521 13.028-7.167 10.988-6.971 23.732.584 37.875C223.158 442.635 239.013 454.935 252.636 464.735zM222.895 395.327c3.389-5.199 8.832-8.584 15.196-8.584 3.655.043 8.981 1.089 12.966 9.617.809 1.725 2.541 2.823 4.44 2.823.038 0 .077 0 .12-.002 1.943-.045 3.675-1.239 4.411-3.038 3.696-8.993 15.124-10.569 23.004-6.299 5.643 3.05 9.349 8.475 9.493 16.603.12 6.691-2.244 13.476-6.655 19.098-6.871 8.765-16.607 18.055-30.483 29.069-11.353-8.39-24.857-18.981-31.478-31.38C218.01 412.181 217.685 403.312 222.895 395.327zM346.099 125.88c1.78 1.278 4.172 1.212 5.871-.112 14.44-11.244 24.444-20.669 31.497-29.662 5.263-6.713 8.081-14.88 7.938-23.002-.202-10.653-5.47-18.593-13.373-22.863-10.401-5.627-22.609-3.161-28.999 3.237-4.933-5.636-10.899-7.072-15.54-7.129-8.564-.146-16.574 4.342-21.497 11.897-6.526 10.007-6.359 21.593.498 34.435C319.591 105.992 333.832 117.062 346.099 125.88zM320.205 63.596c2.904-4.454 7.593-7.45 13.167-7.45 3.134.038 7.703.94 11.148 8.313.828 1.763 2.579 2.998 4.555 2.823 1.947-.045 3.679-1.237 4.416-3.036 3.159-7.687 12.976-9.116 19.88-5.387 4.992 2.697 8.116 7.46 8.234 14.426.105 5.871-1.971 11.828-5.852 16.775-6.077 7.749-14.67 15.964-26.904 25.696-9.98-7.403-21.877-16.742-27.717-27.691C315.946 78.35 315.65 70.575 320.205 63.596z" style="fill:#3a4b81"/>
    </g>
  </g>
</svg>
