<svg xmlns="http://www.w3.org/2000/svg" xml:space="preserve" style="enable-background:new 0 0 512 512" viewBox="0 0 512 512">
  <g id="_x34_5_Love_Music">
    <g>
      <polygon points="386.676 111.963 386.676 205.26 140.615 285.949 140.615 192.652" style="fill:#9987fa"/>
      <path d="M336.668 418.576c-4.906-10.487-12.209-15.309-21.506-15.421-9.743-.118-18.674 5.235-23.998 13.395-8.176 12.532-6.763 26.259.989 40.778 4.249 7.959 10.035 14.976 16.651 21.11 8.239 7.638 17.575 15.148 27.864 22.547 16.764-13.059 31.756-26.282 42.438-39.906 6.161-7.857 9.72-17.551 9.541-27.534-.043-2.418-.294-4.697-.74-6.845-3.608-17.376-22.379-26.958-38.892-20.458C343.48 408.421 339.226 412.345 336.668 418.576zM91.069 381.604c-4.906-10.487-12.209-15.309-21.506-15.421-9.743-.118-18.674 5.235-23.998 13.395-8.176 12.532-6.763 26.259.989 40.778 4.249 7.959 10.035 14.976 16.651 21.11 8.239 7.638 17.575 15.148 27.864 22.547 16.764-13.059 31.756-26.282 42.438-39.906 6.161-7.857 9.72-17.551 9.541-27.534-.043-2.418-.294-4.697-.74-6.845-3.608-17.376-22.379-26.958-38.892-20.458C97.88 371.45 93.627 375.374 91.069 381.604z" style="fill:#fbecb3"/>
      <path d="M76.605,93.704C75.48,82.18,70.203,75.199,61.477,71.991c-9.145-3.362-19.351-1.296-27.093,4.621
			c-11.888,9.086-15.136,22.499-12.672,38.771c1.351,8.92,4.464,17.466,8.654,25.456c5.218,9.949,11.514,20.144,18.745,30.551
			c20.16-6.718,38.705-14.182,53.321-23.46c8.429-5.351,15.018-13.302,18.18-22.773c0.766-2.294,1.29-4.526,1.586-6.699
			c2.396-17.585-12.102-32.88-29.838-32.261C86.414,86.404,81.095,88.683,76.605,93.704z" style="fill:#fff"/>
      <path d="M68.633,164.35c-6.264,2.495-12.782,4.787-19.504,7.028c-7.231-10.389-13.546-20.574-18.74-30.555
			c-4.227-7.995-7.333-16.5-8.657-25.462c-2.495-16.245,0.764-29.638,12.629-38.753c7.74-5.907,17.976-7.995,27.092-4.634
			c1.426,0.509,2.801,1.171,4.023,1.935c-7.639,12.476-12.069,27.142-12.069,42.878C53.407,134.508,59.008,150.957,68.633,164.35z" style="fill:#e7e6fd"/>
      <path d="M241.943,129.608c-8.219-8.154-16.737-10.163-25.503-7.065
			c-9.187,3.247-15.727,11.35-17.912,20.845c-3.356,14.582,2.701,26.981,14.982,37.939c6.732,6.007,14.582,10.6,22.906,14.078
			c10.366,4.331,21.719,8.163,33.927,11.563c11.236-18.036,20.753-35.616,26.086-52.086c3.076-9.499,3.076-19.825-0.532-29.135
			c-0.874-2.255-1.895-4.307-3.054-6.17c-9.376-15.068-30.298-17.594-43.56-5.801C244.838,117.729,242.197,122.878,241.943,129.608z
			" style="fill:#fff"/>
      <path d="M285.418,180.697c-4.43,8.606-9.523,17.365-15.074,26.277c-12.222-3.412-23.578-7.231-33.915-11.56
			c-8.352-3.463-16.194-8.097-22.916-14.106c-12.273-10.949-18.333-23.323-14.972-37.938c2.19-9.472,8.708-17.569,17.874-20.828
			c0.102-0.051,0.255-0.102,0.357-0.102C230.675,150.091,255.424,171.327,285.418,180.697z" style="fill:#e7e6fd"/>
      <path d="M442.873,31.56c-2.463-11.313-8.518-17.631-17.559-19.799c-9.475-2.272-19.37,0.971-26.368,7.751
			c-10.747,10.411-12.407,24.111-8.061,39.985c2.382,8.702,6.471,16.826,11.566,24.272c6.344,9.272,13.786,18.662,22.183,28.155
			c19.238-9.025,36.785-18.602,50.218-29.523c7.747-6.299,13.363-14.964,15.399-24.739c0.493-2.367,0.753-4.645,0.793-6.839
			c0.327-17.744-15.857-31.243-33.399-28.559C451.762,23.166,446.746,26.051,442.873,31.56z" style="fill:#fff"/>
      <path d="M451.279,98.2c-8.301,4.787-17.263,9.319-26.634,13.749c-8.402-9.523-15.837-18.893-22.203-28.161
			c-5.092-7.486-9.166-15.583-11.56-24.291c-4.329-15.888-2.699-29.587,8.046-39.975c6.569-6.315,15.583-9.574,24.444-8.097
			c-0.255,3.208-0.407,6.467-0.407,9.727C422.965,50.534,433.608,77.473,451.279,98.2z" style="fill:#e7e6fd"/>
      <path d="M347.221 401.683c-4.23 1.665-7.746 4.148-10.521 7.416-12.86-16.908-37.952-13.142-49.64 4.77-8.636 13.234-8.373 28.636.775 45.765 9.678 18.122 29.211 33.275 45.975 45.329.856.612 1.861.919 2.861.919 1.062 0 2.129-.344 3.01-1.033 19.87-15.478 33.621-28.425 43.281-40.746 9.231-11.773 12.278-26.146 9.746-38.396-.324-1.561-.798-3.066-1.337-4.544.228-347.086-.053 80.86.203-309.202 0-3.359-3.477-5.606-6.426-4.655l-82.081 26.918c-.917-6.594-3.035-12.367-6.066-17.234-10.831-17.415-35.217-20.878-50.975-6.875-3.402 3.029-5.847 6.579-7.325 10.617-17.891-11.318-40.106.491-44.947 21.555-2.137 9.287-.909 18.186 3.528 26.629l-58.192 19.083c-1.761.58-3.373 2.517-3.373 4.655 0 63.905 0 116.127 0 177.383-9.851-8.073-22.9-9.736-34.095-5.324-4.225 1.665-7.746 4.143-10.521 7.416-5.397-7.096-12.593-10.737-21.483-10.847-11.306-.1-21.693 5.703-28.157 15.617-8.636 13.234-8.378 28.636.77 45.769 9.708 18.158 29.333 33.359 45.975 45.32 1.782 1.285 4.183 1.211 5.871-.11 19.856-15.464 33.612-28.411 43.286-40.746 9.204-11.739 12.289-26.116 9.746-38.396-.373-1.795-.937-3.52-1.593-5.203v-94.035l236.193-77.452-.128 195.165C371.882 399.098 358.708 397.165 347.221 401.683zM375.249 458.055c-8.684 11.081-21.028 22.823-38.693 36.789-14.465-10.626-31.667-24.086-40.081-39.822-7.44-13.933-7.832-25.641-1.21-35.794 9.187-14.073 28.708-16.222 36.971 1.426.823 1.766 2.641 2.856 4.555 2.823 1.943-.048 3.675-1.244 4.416-3.043 1.923-4.698 5.062-7.847 9.603-9.631 13.876-5.455 29.352 2.683 32.301 16.894C385.073 437.098 382.701 448.559 375.249 458.055zM203.305 144.482c3.468-15.097 20.357-26.112 35.191-11.397 1.383 1.373 3.454 1.799 5.249 1.077 1.809-.713 3.024-2.426 3.096-4.368.191-5.072 2.057-9.115 5.698-12.359 11.057-9.831 28.431-7.674 36.148 4.732 5.077 8.157 6.801 19.722 3.081 31.21-4.335 13.397-11.88 28.674-23.645 47.865-17.184-4.98-38.025-11.684-51.348-23.569C204.989 167.161 200.582 156.305 203.305 144.482zM129.651 421.084c-8.698 11.091-21.043 22.832-38.698 36.789-14.459-10.629-31.661-24.084-40.081-39.822-7.435-13.933-7.828-25.641-1.201-35.798 4.356-6.682 11.437-11.172 19.827-11.172 7.713.096 13.153 4.096 17.129 12.598.828 1.761 2.636 2.77 4.555 2.823 1.947-.048 3.679-1.239 4.416-3.038 1.933-4.698 5.076-7.847 9.612-9.631 13.829-5.443 29.344 2.642 32.301 16.894C139.481 400.134 137.094 411.6 129.651 421.084zM145.516 279.188v-82.984l57.471-18.848c2.124 2.588 4.475 5.142 7.26 7.628 15.338 13.676 38.836 21.145 58.779 26.703 2.028.58 4.3-.241 5.474-2.124 13.32-21.378 21.765-38.272 26.588-53.171 1.275-3.934 2.042-7.959 2.333-11.972l78.35-25.696-.054 83.007L145.516 279.188zM50.662 176.036c23.88-7.957 41.167-15.569 54.396-23.971 12.44-7.897 20.257-20.327 21.995-32.947 2.762-20.249-13.622-38.407-34.861-37.817-4.55.158-8.703 1.33-12.421 3.498C73.214 64.7 48.616 59.554 31.408 72.718c-12.555 9.598-17.449 24.2-14.54 43.401 3.09 20.382 16.505 41.202 28.22 58.066C46.339 175.989 48.624 176.722 50.662 176.036zM26.552 114.65c-2.364-15.612 1.172-26.784 10.808-34.148 12.633-9.656 32.393-6.494 34.368 13.674.187 1.938 1.502 3.579 3.349 4.182 1.837.593 3.876.067 5.177-1.388 3.387-3.789 7.407-5.708 12.277-5.88 14.609-.54 26.808 12.104 24.808 26.703-1.308 9.615-7.397 19.568-17.536 26-11.895 7.555-27.449 14.507-48.75 21.775C41.037 150.817 29.249 132.357 26.552 114.65zM420.961 115.167c.952 1.077 2.297 1.655 3.67 1.655.703 0 1.416-.153 2.081-.464 22.808-10.698 39.09-20.282 51.229-30.153 11.502-9.356 17.783-22.696 18-35.291.386-20.595-18.339-36.678-39.038-33.492-4.502.689-8.488 2.335-11.923 4.923-8.89-19.276-33.952-21.362-49.444-6.349-11.349 10.995-14.507 26.071-9.378 44.793C391.589 80.626 407.323 99.745 420.961 115.167zM402.358 23.03c10.977-10.634 31.256-10.98 35.727 9.574.416 1.899 1.914 3.373 3.823 3.761 1.909.368 3.861-.392 4.976-1.99 2.919-4.153 6.679-6.531 11.502-7.268 14.764-2.228 28.031 9.126 27.755 23.631-.168 9.569-4.977 20.214-14.383 27.865-10.918 8.875-25.555 17.598-45.88 27.306-11.706-13.517-25.556-30.473-30.267-47.707C391.44 42.977 393.646 31.47 402.358 23.03z" style="fill:#3a4b81"/>
    </g>
  </g>
</svg>
