<svg xmlns="http://www.w3.org/2000/svg" xml:space="preserve" style="enable-background:new 0 0 512 512" viewBox="0 0 512 512">
  <g id="_x31_2_Love_Potion">
    <g>
      <g>
        <path d="M411.926,302.198c0.568,30.258-10.229,59.616-28.886,83.387
				c-29.594,37.738-70.13,74.484-115.696,110.747c-7.588,6.039-18.286,6.197-26.074,0.419
				c-25.963-19.262-49.758-38.778-71.087-58.606c-20.078-18.562-37.599-39.823-50.432-63.925
				c-23.488-43.942-27.75-85.517-3.031-123.446c16.148-24.717,43.187-40.959,72.689-40.58c8.903,0.095,17.237,1.61,24.861,4.688
				v-52.371h83.486v54.976c48.491-15.342,101.433,13.4,111.945,64.019C411.073,287.993,411.831,294.906,411.926,302.198z" style="fill:#9a88fb"/>
      </g>
      <g>
        <path d="M321.941,128.271c0,15.63-29.882,28.295-66.823,28.295c-36.887,0-66.768-12.665-66.768-28.295
				s29.882-28.295,66.768-28.295C292.059,99.976,321.941,112.641,321.941,128.271z" style="fill:#fbecb3"/>
      </g>
      <g>
        <path d="M188.35,156.566c0,15.63,29.882,28.295,66.768,28.295c36.941,0,66.823-12.665,66.823-28.295
				v-28.295c0,15.63-29.882,28.295-66.823,28.295c-36.887,0-66.768-12.665-66.768-28.295V156.566z" style="fill:#fff"/>
      </g>
      <g>
        <path d="M321.941,128.275v28.269c0,15.673-29.879,28.316-66.813,28.316
				c-36.887,0-66.766-12.643-66.766-28.316V149.3c6.298,12.88,33.146,22.492,65.345,22.492c36.934,0,66.813-12.643,66.813-28.316
				v-9.423C321.467,132.206,321.941,130.264,321.941,128.275z" style="fill:#e7e6fd"/>
      </g>
      <g>
        <path d="M298.905,72.976l-9.665,49.547c-24.333,10.487-46.957,10.3-68.19,0l-9.665-49.547H298.905z" style="fill:#fff"/>
      </g>
      <g>
        <path d="M291.257,112.271l-2.036,10.275c-24.291,10.465-46.925,10.276-68.186,0l-9.66-49.577h12.643
				l1.846,9.518c3.978,20.409,22.208,35.656,43.043,34.33C276.199,116.343,283.633,114.875,291.257,112.271z" style="fill:#e7e6fd"/>
      </g>
      <g>
        <path d="M255.073,283.163c-9.387-20.067-23.363-29.293-41.152-29.509
				c-18.643-0.226-35.734,10.017-45.921,25.632c-15.644,23.98-12.94,50.248,1.893,78.028c8.131,15.229,19.202,28.657,31.862,40.394
				c15.765,14.616,33.63,28.986,53.318,43.143c32.078-24.988,60.765-50.291,81.206-76.36c11.789-15.035,18.599-33.584,18.257-52.686
				c-0.083-4.626-0.563-8.987-1.416-13.097c-6.904-33.25-42.821-51.585-74.421-39.146
				C268.107,263.733,259.968,271.242,255.073,283.163z" style="fill:#fff"/>
      </g>
      <g>
        <path d="M294.088,408.388c-12.175,10.957-25.262,21.711-39.059,32.465
				c-19.682-14.203-37.538-28.508-53.263-43.118c-12.682-11.768-23.74-25.16-31.857-40.378
				c-14.812-27.798-17.552-54.075-1.928-78.119c6.189-9.435,15.015-16.943,25.16-21.305
				C211.403,317.587,247.014,369.734,294.088,408.388z" style="fill:#e7e6fd"/>
      </g>
      <g>
        <path d="M395.741,379.153c-4.586-9.804-11.414-14.312-20.105-14.417
				c-9.109-0.11-17.458,4.894-22.435,12.523c-7.643,11.716-6.322,24.549,0.925,38.122c3.973,7.44,9.382,14.001,15.567,19.735
				c7.702,7.141,16.431,14.162,26.049,21.078c15.672-12.208,29.688-24.571,39.675-37.307c5.76-7.345,9.087-16.408,8.92-25.741
				c-0.04-2.26-0.275-4.391-0.692-6.399c-3.373-16.245-20.921-25.202-36.359-19.125C402.109,369.66,398.132,373.329,395.741,379.153
				z" style="fill:#fff"/>
      </g>
      <g>
        <path d="M414.802,440.333c-5.948,5.353-12.342,10.607-19.083,15.861
				c-9.616-6.939-18.34-13.928-26.023-21.066c-6.196-5.75-11.599-12.292-15.564-19.727c-7.237-13.581-8.575-26.419-0.942-38.166
				c3.023-4.61,7.336-8.278,12.292-10.409C374.405,395.971,391.803,421.448,414.802,440.333z" style="fill:#e7e6fd"/>
      </g>
      <g>
        <path d="M429.256,252.96c-3.863-8.259-9.615-12.055-16.936-12.144
				c-7.673-0.093-14.706,4.122-18.898,10.549c-6.438,9.869-5.326,20.679,0.779,32.112c3.346,6.267,7.903,11.794,13.113,16.624
				c6.488,6.015,13.84,11.929,21.943,17.755c13.201-10.284,25.007-20.697,33.42-31.425c4.852-6.187,7.654-13.821,7.513-21.683
				c-0.034-1.904-0.232-3.698-0.583-5.39c-2.841-13.684-17.623-21.229-30.627-16.11C434.62,244.964,431.271,248.054,429.256,252.96z
				" style="fill:#fff"/>
      </g>
      <g>
        <path d="M445.313,304.495c-5.01,4.509-10.396,8.935-16.075,13.361c-8.1-5.845-15.448-11.732-21.92-17.745
				c-5.219-4.843-9.77-10.355-13.11-16.617c-6.096-11.44-7.223-22.254-0.793-32.149c2.547-3.883,6.179-6.973,10.355-8.768
				C411.284,267.127,425.939,288.588,445.313,304.495z" style="fill:#e7e6fd"/>
      </g>
      <g>
        <path d="M116.26,380.041c4.586-9.804,11.414-14.312,20.105-14.417c9.109-0.111,17.458,4.894,22.435,12.523
				c7.643,11.716,6.322,24.549-0.925,38.122c-3.973,7.44-9.382,14.001-15.567,19.735c-7.702,7.141-16.431,14.162-26.049,21.078
				c-15.672-12.208-29.688-24.571-39.675-37.307c-5.76-7.345-9.087-16.408-8.92-25.741c0.04-2.26,0.275-4.391,0.692-6.399
				c3.373-16.245,20.921-25.202,36.359-19.125C109.893,370.548,113.869,374.216,116.26,380.041z" style="fill:#fff"/>
      </g>
      <g>
        <path d="M97.199,441.221c5.948,5.353,12.342,10.607,19.083,15.861c9.616-6.939,18.34-13.928,26.023-21.066
				c6.196-5.75,11.599-12.292,15.564-19.727c7.237-13.581,8.575-26.419,0.942-38.166c-3.023-4.61-7.336-8.278-12.292-10.409
				C137.596,396.859,120.198,422.336,97.199,441.221z" style="fill:#e7e6fd"/>
      </g>
      <g>
        <path d="M82.745,253.848c3.863-8.259,9.615-12.055,16.936-12.144c7.673-0.093,14.706,4.122,18.899,10.549
				c6.438,9.869,5.326,20.679-0.779,32.112c-3.346,6.267-7.903,11.794-13.113,16.624c-6.488,6.015-13.84,11.929-21.943,17.755
				c-13.201-10.284-25.007-20.697-33.42-31.425c-4.852-6.187-7.654-13.821-7.513-21.683c0.034-1.904,0.232-3.698,0.583-5.39
				c2.841-13.684,17.623-21.229,30.627-16.11C77.381,245.852,80.731,248.942,82.745,253.848z" style="fill:#fff"/>
      </g>
      <g>
        <path d="M66.689,305.383c5.01,4.509,10.396,8.935,16.075,13.361c8.1-5.845,15.448-11.732,21.92-17.745
				c5.219-4.843,9.77-10.355,13.11-16.617c6.096-11.44,7.223-22.254,0.793-32.149c-2.547-3.883-6.179-6.973-10.355-8.768
				C100.717,268.015,86.062,289.475,66.689,305.383z" style="fill:#e7e6fd"/>
      </g>
      <g>
        <path d="M193.447,63.966c0,14.62,27.601,26.466,61.673,26.466c34.123,0,61.724-11.847,61.724-26.466
				V37.499c0,14.62-27.601,26.466-61.724,26.466c-34.072,0-61.673-11.847-61.673-26.466V63.966z" style="fill:#fbecb3"/>
      </g>
      <g>
        <ellipse cx="255.127" cy="37.502" rx="61.699" ry="26.469" style="fill:#fff"/>
      </g>
      <g>
        <path d="M316.827,37.502c0,14.632-27.606,26.469-61.699,26.469c-34.093,0-61.699-11.838-61.699-26.469
				c0-3.788,1.894-7.434,5.256-10.654c9.565,9.328,31.205,15.815,56.443,15.815c25.239,0,46.878-6.487,56.443-15.815
				C314.932,30.068,316.827,33.714,316.827,37.502z" style="fill:#e7e6fd"/>
      </g>
      <path d="M252.212,444.831c1.763,1.266,4.149,1.225,5.873-0.112c37.712-29.377,63.783-53.908,82.051-77.202
			c12.796-16.323,19.65-36.138,19.299-55.796c-0.445-25.089-12.642-43.607-31.184-53.628c-25.173-13.61-58.58-8.006-73.257,14.643
			c-9.82-15.713-23.581-23.77-41.014-23.98c-20.596-0.217-38.963,10.809-50.083,27.854c-15.562,23.856-15,51.786,1.672,83.015
			C183.669,393.514,220.718,422.183,252.212,444.831z M172.103,281.964c9.973-15.287,25.801-23.616,41.758-23.409
			c16.44,0.199,28.468,8.928,36.774,26.686c0.823,1.761,2.691,3.005,4.555,2.82c1.945-0.045,3.677-1.237,4.416-3.036
			c10.369-25.263,41.896-30.248,63.987-18.313c15.289,8.262,25.664,23.488,26.043,45.183c0.313,17.414-5.801,35.021-17.213,49.573
			c-17.294,22.055-41.959,45.387-77.465,73.255c-28.853-20.981-63.856-48.085-80.742-79.716
			C159.144,326.781,158.455,302.889,172.103,281.964z" style="fill:#3a4b81"/>
      <path d="M79.734,322.611c1.722,1.336,4.107,1.38,5.873,0.112c3.46-2.489,6.731-4.985,9.88-7.478
			c1.407,16.008,6.294,32.843,14.621,50.613c-9.785-5.711-21.497-5.295-30.791-0.272c-9.729,5.26-16.314,15.05-16.552,28.363
			c-0.179,10.179,3.359,20.425,9.966,28.851c9.057,11.548,21.93,23.669,40.516,38.148c1.722,1.336,4.107,1.38,5.873,0.112
			c11.004-7.913,26.977-20.405,35.629-31.258c3.879,4.033,7.874,8.026,12.098,11.931c20.873,19.404,44.93,39.238,71.503,58.953
			c9.569,7.099,22.756,6.877,32.042-0.522c34.195-27.214,61.712-51.681,84.201-74.867c9.098,12.859,25.48,25.663,38.285,34.875
			c0.856,0.615,1.859,0.921,2.861,0.921c1.065,0,2.127-0.347,3.012-1.033c18.588-14.483,31.466-26.602,40.521-38.15
			c6.605-8.428,10.143-18.674,9.962-28.851c-0.238-13.27-6.785-23.082-16.548-28.358c-9.27-5.015-21.083-5.49-30.929,0.342
			c8.198-16.088,13.176-33.376,14.529-50.867c3.218,2.553,6.567,5.11,10.111,7.657c1.759,1.266,4.148,1.225,5.868-0.112
			c15.71-12.237,26.6-22.49,34.267-32.267c5.672-7.237,8.71-16.04,8.555-24.791c-0.2-11.44-5.866-19.972-14.344-24.557
			c-11.224-6.061-24.544-3.416-31.43,3.799c-5.344-6.33-11.871-7.926-16.933-7.988c-6.157-0.117-11.913,1.993-16.652,5.752
			c-23.231-27.933-59.857-38.584-93.076-30.625v-29.253c14.97-5.992,24.186-14.905,24.186-25.225V128.27
			c0-11.275-11-20.864-28.502-26.798L301.161,87c12.785-5.643,20.583-13.731,20.583-23.034V37.499c0-0.059-0.032-0.108-0.034-0.167
			c-0.183-17.797-28.736-31.199-66.582-31.199c-37.968,0-66.599,13.485-66.599,31.368c0,0.065,0.018,0.126,0.019,0.191v26.273
			c0,9.306,7.798,17.397,20.582,23.04l2.823,14.471c-17.497,5.932-28.503,15.517-28.503,26.794v28.296
			c0,10.724,9.909,19.946,25.921,25.931v25.544c-31.478-8.873-69.201,2.995-92.951,34.675c-4.755-3.784-10.553-5.894-16.798-5.912
			c-5.064,0.062-11.591,1.658-16.933,7.988c-6.814-7.14-20.113-9.915-31.43-3.799c-8.449,4.566-14.145,13.086-14.347,24.555
			c-0.155,8.751,2.883,17.555,8.557,24.796C53.134,300.119,64.024,310.372,79.734,322.611z M153.553,413.963
			c-7.809,14.631-23.89,27.194-37.181,36.978c-16.38-12.966-27.849-23.882-35.93-34.188c-5.222-6.658-8.019-14.694-7.878-22.629
			c0.167-9.622,4.677-16.277,11.411-19.916c9.51-5.144,23.283-3.203,27.751,7.691c0.739,1.799,2.471,2.993,4.416,3.038
			c1.928,0.22,3.732-1.06,4.555-2.821c3.66-7.825,8.658-11.507,15.727-11.593c7.124-0.323,14.012,3.763,18.275,10.299
			C160.821,390.21,160.448,401.05,153.553,413.963z M428.027,373.321c6.7,3.623,11.241,10.247,11.409,19.916
			c0.144,7.93-2.653,15.969-7.873,22.629c-8.081,10.304-19.547,21.22-35.935,34.188c-13.389-9.857-29.38-22.373-37.181-36.978
			c-6.892-12.911-7.268-23.753-1.144-33.141c4.562-6.992,11.808-10.489,18.272-10.299c7.069,0.086,12.067,3.768,15.727,11.593
			c0.823,1.758,2.632,2.935,4.555,2.821c1.945-0.045,3.677-1.237,4.414-3.036C404.721,370.185,418.407,368.13,428.027,373.321z
			 M397.525,254.043c3.246-4.973,8.492-8.328,14.737-8.328c3.538,0.043,8.691,1.055,12.557,9.32
			c0.823,1.761,2.665,2.931,4.555,2.821c1.945-0.045,3.677-1.237,4.414-3.036c3.553-8.644,14.57-10.279,22.296-6.093
			c5.472,2.959,9.074,8.228,9.206,16.11c0.117,6.507-2.179,13.103-6.469,18.569c-6.691,8.536-16.17,17.581-29.676,28.306
			c-11.031-8.16-24.19-18.493-30.619-30.542C392.783,270.418,392.465,261.799,397.525,254.043z M255.128,15.933
			c33.473,0,56.8,11.368,56.8,21.569c0,15.4-38.953,21.564-56.808,21.564c-33.459,0-56.774-11.366-56.774-21.567
			c0-0.019-0.011-0.036-0.011-0.055C198.422,27.258,221.717,15.933,255.128,15.933z M198.347,63.965v-9.612
			c14.353,11.03,38.62,14.519,56.781,14.519c18.068,0,42.531-3.535,56.817-14.526v9.619c0,10.201-23.337,21.567-56.824,21.567
			C221.662,85.532,198.347,74.166,198.347,63.965z M290.435,90.81l-5.501,28.203c-21.167,8.548-40.698,8.588-59.551,0.127
			l-5.526-28.323c10.112,2.864,22.104,4.515,35.264,4.515C268.301,95.331,280.311,93.677,290.435,90.81z M213.853,111.22
			l2.388,12.242c0.294,1.512,1.285,2.799,2.67,3.471c23.748,11.516,48.218,10.452,72.267,0.091c1.488-0.641,2.562-1.974,2.871-3.562
			l2.385-12.227c12.888,4.582,20.607,10.979,20.607,17.035c0,11.067-25.43,23.397-61.922,23.397c-36.461,0-61.87-12.33-61.87-23.397
			C193.249,122.21,200.959,115.803,213.853,111.22z M193.249,156.566v-11.04c15.314,12.153,42.189,15.94,61.87,15.94
			c19.416,0,46.724-3.882,61.922-15.945v11.045c0,11.064-25.43,23.394-61.922,23.394
			C218.657,179.961,193.249,167.631,193.249,156.566z M123.055,250.243c23.47-32.812,62.263-41.757,89.383-30.819
			c1.507,0.608,3.218,0.431,4.574-0.481c1.349-0.911,2.158-2.433,2.158-4.062v-29.345c21.96,5.653,50.936,5.783,73.685-0.485v32.435
			c0,1.562,0.744,3.029,2.005,3.952c1.258,0.926,2.88,1.189,4.373,0.72c32.082-10.151,68.215-0.154,89.881,26.9
			c-6.785,10.683-6.546,23.032,0.766,36.726c4.614,8.645,10.304,14.551,17.068,20.56c-0.341,20.14-5.984,40.247-16.187,58.52
			c-5.096-3.858-10.582-4.971-15.065-5.026c-0.122,0-0.242-0.002-0.366-0.002c-10.411,0-20.196,5.493-26.232,14.746
			c-7.964,12.208-7.854,26.363,0.211,42.068c-22.496,23.413-50.235,48.168-85.016,75.851c-5.832,4.641-14.103,4.77-20.105,0.316
			c-26.282-19.5-50.059-39.1-70.68-58.269c-4.598-4.251-8.905-8.607-13.069-13.011c9.119-15.215,12.076-31.337,2.466-46.067
			c-6.108-9.359-15.971-14.768-26.6-14.744c-4.535,0.056-10.093,1.198-15.238,5.163c-10.374-20.931-15.739-40.407-16.043-58.627
			c6.973-6.194,12.543-12.061,17.1-20.587C129.368,273.103,129.651,260.858,123.055,250.243z M55.919,249.615
			c7.676-4.152,18.732-2.591,22.294,6.096c0.739,1.799,2.471,2.99,4.416,3.036c0.041,0.002,0.079,0.002,0.117,0.002
			c1.899,0,3.632-1.098,4.438-2.825c3.864-8.265,9.017-9.277,12.557-9.32c5.737,0.055,11.287,3.041,14.737,8.328
			c5.06,7.756,4.742,16.375-0.998,27.126c-6.453,12.071-19.58,22.378-30.621,30.542c-13.509-10.725-22.988-19.77-29.676-28.303
			c-4.289-5.471-6.588-12.067-6.471-18.574C46.842,257.91,50.394,252.6,55.919,249.615z" style="fill:#3a4b81"/>
    </g>
  </g>
</svg>
