<svg xmlns="http://www.w3.org/2000/svg" xml:space="preserve" style="enable-background:new 0 0 512 512" viewBox="0 0 512 512">
  <g id="_x33_5_Love_Bag">
    <g>
      <path d="M495.505,286.548l-53.257,149.587c-0.102,0.305-0.204,0.56-0.305,0.865
			c-13.493,36.71-48.42,61.098-87.522,61.098H157.584c-39.102,0-74.03-24.388-87.471-61.098c-0.153-0.305-0.255-0.56-0.356-0.865
			L16.499,286.548c-21.588-60.69,23.421-124.486,87.878-124.486h303.248C472.084,162.062,517.093,225.858,495.505,286.548z" style="fill:#fff"/>
      <path d="M465.822,369.845l-23.574,66.291c-0.102,0.305-0.204,0.56-0.305,0.865
			c-13.493,36.71-48.42,61.098-87.522,61.098H157.584c-39.102,0-74.03-24.388-87.471-61.098c-0.153-0.305-0.255-0.56-0.356-0.865
			L16.499,286.548c-14.714-41.394,1.527-84.264,33.858-107.277c53.664,120.922,174.79,205.288,315.62,205.288
			C400.701,384.559,434.203,379.416,465.822,369.845z" style="fill:#e7e6fd"/>
      <path d="M441.943 437.001c-13.493 36.71-48.42 61.098-87.522 61.098H157.584c-39.102 0-74.03-24.388-87.471-61.098H441.943zM386.342 239.759H345.61V96.179c0-22.912-18.636-41.547-41.542-41.547h-96.131c-22.907 0-41.542 18.636-41.542 41.547v143.58h-40.732V96.179c0-45.371 36.908-82.279 82.274-82.279h96.131c45.366 0 82.274 36.908 82.274 82.279V239.759z" style="fill:#9a88fb"/>
      <circle cx="365.978" cy="242.405" r="32.28" style="fill:#fbecb3" transform="rotate(-76.714 366.011 242.412)"/>
      <circle cx="146.026" cy="242.405" r="32.28" style="fill:#fbecb3" transform="rotate(-76.714 146.044 242.419)"/>
      <path d="M261.299,301.22c-6.658-14.234-16.572-20.778-29.19-20.931
			c-13.224-0.16-25.347,7.105-32.573,18.182c-11.097,17.009-9.179,35.642,1.343,55.347c5.768,10.802,13.621,20.327,22.601,28.653
			c11.182,10.367,23.855,20.561,37.82,30.603c22.754-17.725,43.102-35.673,57.602-54.164c8.362-10.664,13.192-23.822,12.95-37.372
			c-0.059-3.282-0.399-6.375-1.005-9.29c-4.897-23.585-30.374-36.59-52.788-27.767C270.544,287.437,264.771,292.763,261.299,301.22z
			" style="fill:#fbecb3"/>
      <path d="M65.128,437.755c13.402,38.419,51.063,65.243,92.458,65.243h196.834
			c38.421,0,75.134-21.935,92.448-65.219l53.253-149.59c10.828-30.444,6.354-63.051-12.282-89.462
			c-18.641-26.416-47.875-41.564-80.214-41.564h-16.382V96.178c0-48.071-39.105-87.175-87.175-87.175h-96.132
			c-48.066,0-87.171,39.105-87.171,87.175v60.984h-16.387c-32.339,0-61.573,15.148-80.214,41.564
			c-18.636,26.411-23.11,59.018-12.282,89.462L65.128,437.755z M354.419,493.199H157.586c-34.532,0-65.973-20.606-80.14-51.3
			h357.159C420.027,473.37,388.015,493.199,354.419,493.199z M365.979,215.022c15.095,0,27.377,12.282,27.377,27.382
			c0,15.1-12.282,27.382-27.377,27.382c-15.1,0-27.382-12.282-27.382-27.382C338.597,227.304,350.879,215.022,365.979,215.022z
			 M340.711,157.162H171.293V96.178c0-20.205,16.435-36.645,36.64-36.645h96.132c20.205,0,36.645,16.44,36.645,36.645V157.162z
			 M130.562,96.178c0-42.664,34.707-77.377,77.372-77.377h96.132c42.664,0,77.377,34.712,77.377,77.377v112.458
			c-9.617-4.424-20.767-4.675-30.932,0.001V96.178c0-25.607-20.837-46.444-46.444-46.444h-96.132
			c-25.607,0-46.439,20.837-46.439,46.444v112.459c-9.617-4.423-20.766-4.677-30.932-0.002V96.178z M146.026,215.022
			c15.1,0,27.382,12.282,27.382,27.382c0,15.1-12.282,27.382-27.382,27.382s-27.382-12.282-27.382-27.382
			C118.644,227.304,130.926,215.022,146.026,215.022z M32.167,204.377c16.78-23.779,43.1-37.416,72.209-37.416h16.387v48.241
			c-7.311,6.794-11.918,16.459-11.918,27.203c0,20.502,16.679,37.181,37.181,37.181s37.181-16.679,37.181-37.181
			c0-10.741-4.606-20.405-11.914-27.198v-48.245h169.418v48.245c-7.308,6.794-11.914,16.457-11.914,27.198
			c0,20.502,16.679,37.181,37.181,37.181c20.497,0,37.176-16.679,37.176-37.181c0-10.742-4.606-20.405-11.914-27.199v-48.245h16.382
			c29.109,0,55.43,13.636,72.209,37.416c16.775,23.77,20.803,53.123,11.052,80.53l-52.4,147.193H73.518L21.115,284.906
			C11.364,257.5,15.392,228.146,32.167,204.377z" style="fill:#3a4b81"/>
      <path d="M258.44,417.047c0.856,0.617,1.861,0.923,2.861,0.923c1.062,0,2.129-0.345,3.01-1.033
			c26.846-20.913,45.42-38.392,58.449-55.004c12.161-15.523,16.244-34.51,12.885-50.683c-5.472-26.335-33.892-41.333-59.382-31.33
			c-6.196,2.44-11.21,6.239-14.985,11.349c-7.139-10.397-16.899-15.732-29.105-15.88c-14.406-0.077-28.287,7.45-36.741,20.406
			c-11.344,17.387-10.966,37.688,1.124,60.334C209.549,380.437,235.933,400.864,258.44,417.047z M203.642,301.145
			c6.531-10.014,16.985-15.961,28.028-15.961c12.166,0,19.976,6.962,25.196,18.115c0.818,1.761,2.689,2.933,4.555,2.823
			c1.943-0.048,3.675-1.239,4.411-3.038c2.809-6.842,7.392-11.435,14.019-14.043c19.806-7.794,41.964,3.822,46.2,24.205
			c2.778,13.401-0.649,29.429-11.005,42.64c-12.052,15.373-29.22,31.65-53.86,51.052c-20.102-14.688-44.243-33.459-55.989-55.425
			C194.776,331.991,194.269,315.518,203.642,301.145z" style="fill:#3a4b81"/>
    </g>
  </g>
</svg>
