<svg xmlns="http://www.w3.org/2000/svg" xml:space="preserve" style="enable-background:new 0 0 512 512" viewBox="0 0 512 512">
  <g id="_x32_8_Love_Chat">
    <g>
      <path d="M332.03,160.898c0,59.081-71.879,107-160.5,107c-15.588,0-30.647-1.491-44.888-4.282
			l-56.152,36.365c-5.955,3.857-13.669-1.141-12.583-8.152l7.827-50.536c-33.534-19.533-54.703-48.304-54.703-80.394
			c0-59.081,71.879-107,160.5-107S332.03,101.817,332.03,160.898z" style="fill:#fff"/>
      <path d="M302.104,223.12c-29.103,27.094-76.725,44.781-130.57,44.781c-15.58,0-30.67-1.47-44.879-4.262
			l-56.147,36.354c-5.977,3.822-13.67-1.176-12.592-8.182l7.839-50.513c-33.561-19.549-54.727-48.308-54.727-80.4
			c0-22.341,10.289-43.115,27.927-60.312C86.481,175.694,170.261,225.57,265.702,225.57
			C278.048,225.57,290.199,224.737,302.104,223.12z" style="fill:#e7e6fd"/>
      <path d="M170.894,121.874c-6.433-13.752-16.01-20.074-28.201-20.222
			c-12.776-0.155-24.488,6.864-31.469,17.565c-10.721,16.433-8.868,34.434,1.297,53.472c5.572,10.436,13.159,19.638,21.835,27.682
			c7.912,7.335,16.595,14.58,25.976,21.743c6.172,4.713,14.778,4.578,20.805-0.32c17.817-14.48,33.614-29.146,45.406-44.185
			c8.079-10.303,12.745-23.014,12.511-36.105c-0.057-3.171-0.386-6.16-0.971-8.977c-4.732-22.784-29.343-35.348-50.997-26.825
			C179.826,108.558,174.248,113.704,170.894,121.874z" style="fill:#fbecb3"/>
      <path d="M179.972,317.668c0,59.081,71.879,107,160.5,107c15.588,0,30.647-1.491,44.888-4.282l56.152,36.365
			c5.955,3.857,13.669-1.141,12.583-8.152l-7.827-50.536c33.534-19.533,54.703-48.304,54.703-80.394c0-59.081-71.879-107-160.5-107
			S179.972,258.587,179.972,317.668z" style="fill:#fff"/>
      <path d="M446.246,398.079l7.839,50.513c1.078,7.006-6.614,12.004-12.592,8.182l-56.147-36.403
			c-14.208,2.793-29.299,4.312-44.879,4.312c-77.705,0-142.524-36.844-157.321-85.74c32.189,17.736,69.131,27.829,108.473,27.829
			c78.832,0,148.257-40.518,188.432-101.908c13.327,15.58,20.921,33.61,20.921,52.816
			C500.972,349.771,479.807,378.53,446.246,398.079z" style="fill:#e7e6fd"/>
      <path d="M341.107,278.644c6.433-13.752,16.01-20.074,28.201-20.222
			c12.776-0.155,24.488,6.864,31.469,17.565c10.721,16.433,8.868,34.434-1.297,53.472c-5.572,10.436-13.159,19.638-21.835,27.682
			c-7.912,7.335-16.595,14.58-25.976,21.743c-6.172,4.713-14.778,4.578-20.805-0.32c-17.817-14.48-33.614-29.146-45.406-44.185
			c-8.079-10.303-12.745-23.014-12.511-36.105c0.057-3.171,0.386-6.16,0.971-8.977c4.732-22.784,29.343-35.348,50.997-26.825
			C332.175,265.328,337.753,270.474,341.107,278.644z" style="fill:#9a88fb"/>
      <path d="M230.401,180.633c11.774-15.021,15.725-33.352,12.483-49.104
			c-5.336-25.668-33.029-40.055-57.592-30.387c-5.94,2.335-10.761,5.966-14.414,10.832c-6.914-9.966-16.344-15.076-28.126-15.22
			c-14.107-0.067-27.44,7.22-35.631,19.789c-10.995,16.856-10.634,36.521,1.077,58.453c10.822,20.272,28.854,35.508,49.162,51.013
			c7.967,6.079,19.006,5.97,26.868-0.411C204.464,209.154,219.569,194.446,230.401,180.633z M178.048,217.991
			c-4.289,3.488-10.351,3.584-14.741,0.23c-18.358-14.007-36.452-29.08-46.463-47.836c-10.038-18.803-10.536-34.664-1.517-48.492
			c6.282-9.627,16.33-15.344,26.94-15.344c11.803,0,19.249,6.838,24.191,17.402c0.823,1.761,2.593,2.895,4.555,2.823
			c1.945-0.048,3.677-1.239,4.414-3.038c2.699-6.564,7.098-10.971,13.454-13.473c19.003-7.489,40.337,3.648,44.406,23.258
			c2.652,12.801-0.541,28.238-10.598,41.066C212.315,187.815,197.71,202.015,178.048,217.991z" style="fill:#3a4b81"/>
      <path d="M340.471,205.767c-6.062,0-12.043,0.237-17.938,0.67c9.22-13.922,14.397-29.323,14.397-45.54
			c0-61.702-74.2-111.897-165.401-111.897S6.13,99.194,6.13,160.897c0,31.76,19.725,61.827,54.255,82.912l-7.323,47.272
			c-0.799,5.177,1.435,10.163,5.832,13.014c4.398,2.842,9.85,2.848,14.256,0l54.504-35.296c20.198,3.773,40.675,4.853,61.83,3.271
			c-9.233,13.938-14.413,29.362-14.413,45.598c0,71.188,100.667,128.214,209.278,107.897l54.501,35.301
			c4.397,2.845,9.856,2.847,14.258-0.005c4.397-2.852,6.631-7.837,5.828-13.014l-7.32-47.267
			c34.53-21.086,54.253-51.152,54.253-82.912C505.87,255.967,431.67,205.767,340.471,205.767z M127.585,258.809
			c-1.256-0.249-2.538,0.005-3.605,0.694L67.825,295.87c-1.629,1.053-3.062,0.349-3.605,0c-0.541-0.354-1.77-1.378-1.474-3.292
			l7.828-50.535c0.309-1.995-0.634-3.971-2.376-4.986c-33.217-19.344-52.269-47.104-52.269-76.161
			c0-56.296,69.802-102.099,155.6-102.099c85.8,0,155.602,45.803,155.602,102.099c0,16.886-6.33,32.805-17.449,46.844
			c-47.841,6.122-88.442,26.217-112.178,53.765C172.945,264.239,149.574,263.114,127.585,258.809z M443.804,393.83
			c-1.742,1.014-2.684,2.99-2.378,4.986l7.828,50.535c0.297,1.914-0.933,2.938-1.474,3.287c-0.545,0.359-1.976,1.062-3.603,0.005
			l-56.152-36.368c-1.086-0.709-2.405-0.939-3.608-0.699c-95.518,18.736-199.546-27.522-199.546-97.907
			c0-56.3,69.803-102.103,155.6-102.103s155.6,45.803,155.6,102.103C496.071,346.721,477.019,374.481,443.804,393.83z" style="fill:#3a4b81"/>
      <path d="M369.25,253.522c-11.78,0.144-21.21,5.258-28.129,15.225c-11.127-14.85-34.012-17.762-50.899-8.641
			c-10.914,5.904-18.607,16.177-21.105,28.196c-3.241,15.749,0.708,34.077,12.483,49.1c10.828,13.808,25.928,28.516,46.171,44.966
			c7.818,6.349,18.854,6.521,26.875,0.411c20.432-15.614,38.476-31.006,49.152-51.013c11.713-21.933,12.076-41.597,1.081-58.449
			C397.151,261.464,384.472,253.522,369.25,253.522z M395.159,327.152c-10.08,18.877-27.58,33.42-46.458,47.836
			c-4.387,3.354-10.45,3.263-14.746-0.23c-19.669-15.981-34.272-30.176-44.64-43.406c-10.041-12.808-13.254-28.238-10.598-41.061
			c1.904-9.182,7.799-17.038,16.167-21.564c14.378-7.771,34.961-4.626,41.693,11.78c0.737,1.799,2.469,2.99,4.411,3.038
			c0.49-0.143,3.187,0.117,4.555-2.823c5.421-11.579,13.215-17.272,23.823-17.402c11.408,0,21.208,6,27.306,15.349
			C405.695,292.492,405.197,308.348,395.159,327.152z" style="fill:#3a4b81"/>
    </g>
  </g>
</svg>
