<svg xmlns="http://www.w3.org/2000/svg" xml:space="preserve" style="enable-background:new 0 0 512 512" viewBox="0 0 512 512">
  <g id="_x34_0_Love_Pills">
    <g>
      <path d="M364.628,423.893c-3.969,14.992-9.701,27.192-17.687,35.178
			c-54.384,54.384-253.398,54.384-307.782,0c-7.986-7.986-13.719-20.186-17.687-35.178c-18.226-69.376,1.911-198.966,12.249-255.554
			c2.94-16.07,16.952-27.682,33.218-27.682h252.222c16.266,0,30.278,11.612,33.218,27.682
			C362.717,224.927,382.854,354.517,364.628,423.893z" style="fill:#fff"/>
      <path d="M370.801,384.305c-1.127,14.502-3.087,27.927-6.173,39.587
			c-3.969,14.992-9.701,27.192-17.687,35.178c-54.384,54.384-253.398,54.384-307.782,0c-7.986-7.986-13.719-20.186-17.687-35.178
			C5.647,363.63,18.728,257.949,29.213,194.11c38.657,114.94,147.326,197.79,275.299,197.79
			C327.294,391.899,349.489,389.254,370.801,384.305z" style="fill:#e7e6fd"/>
      <path d="M359.579 211.465c-2.542-16.687-5.09-31.489-7.224-43.147-2.934-16.029-16.915-27.643-33.211-27.643H66.955c-16.296 0-30.277 11.613-33.211 27.643-2.134 11.658-4.682 26.461-7.224 43.147H359.579zM364.628 423.893c-3.969 14.992-9.701 27.192-17.687 35.178-54.384 54.384-253.398 54.384-307.782 0-7.986-7.986-13.719-20.186-17.687-35.178H364.628z" style="fill:#9a88fb"/>
      <rect width="188.058" height="51.752" x="99.021" y="88.923" style="fill:#fff"/>
      <path d="M287.07,121.941v18.716H99.03V88.919h18.569c-1.029,2.695-1.568,5.634-1.568,8.721
			c0,7.153,2.89,13.62,7.594,18.275c4.655,4.704,11.121,7.594,18.275,7.594h136.302C281.338,123.509,284.326,122.97,287.07,121.941z
			" style="fill:#e7e6fd"/>
      <path d="M76.407 12.145h233.285c7.651 0 13.854 6.203 13.854 13.854v49.07c0 7.651-6.203 13.854-13.854 13.854H76.407c-7.651 0-13.854-6.203-13.854-13.854v-49.07C62.553 18.347 68.756 12.145 76.407 12.145zM192.325 270.185c-7.443-15.911-18.577-23.1-32.769-23.064-14.411.037-27.407 7.967-35.28 20.037-12.149 18.625-10.135 39.016 1.27 60.578 6.681 12.63 16.011 23.632 26.544 33.286 8.5 7.79 17.761 15.491 27.715 23.112 7.281 5.574 17.502 5.451 24.613-.338 20.056-16.328 37.846-32.866 51.183-49.817 8.719-11.082 14.112-24.633 14.444-38.73.171-7.245-.854-13.689-2.939-19.424-8.263-22.736-35.014-33.171-57.271-23.693C202.022 255.46 196.002 261.229 192.325 270.185z" style="fill:#fbecb3"/>
      <path d="M497.798,449.958L497.798,449.958c0,27.559-22.341,49.901-49.901,49.901H296.064
			c-27.559,0-49.901-22.341-49.901-49.901v0c0-27.559,22.341-49.901,49.901-49.901h151.833
			C475.456,400.057,497.798,422.398,497.798,449.958z" style="fill:#fff"/>
      <path d="M496.129,462.745c-5.634,21.361-25.085,37.089-48.211,37.089H296.085
			c-27.584,0-49.925-22.292-49.925-49.876c0-13.816,5.585-26.261,14.6-35.276c2.107-2.107,4.458-4.018,6.908-5.732
			c-1.078,4.067-1.666,8.378-1.666,12.787c0,27.584,22.341,49.876,49.925,49.876h151.834
			C478.295,471.613,488.044,468.33,496.129,462.745z" style="fill:#e7e6fd"/>
      <path d="M447.897,400.057h-72.389v99.801h72.389c27.56,0,49.901-22.341,49.901-49.901
			C497.798,422.398,475.456,400.057,447.897,400.057z" style="fill:#9a88fb"/>
      <path d="M480.451,276.026L480.451,276.026c17.865,17.865,17.865,46.831,0,64.697l-98.426,98.426
			c-17.865,17.865-46.831,17.865-64.696,0l0,0c-17.865-17.865-17.865-46.831,0-64.696l98.426-98.426
			C433.62,258.16,462.586,258.16,480.451,276.026z" style="fill:#9a88fb"/>
      <path d="M415.755,276.026l-46.926,46.926l64.697,64.697l46.926-46.926
			c17.866-17.866,17.865-46.831,0-64.697S433.62,258.16,415.755,276.026z" style="fill:#fff"/>
      <path d="M480.45,340.7l-46.937,46.937l-18.275-18.275l46.692-46.74
			c14.845-14.796,17.393-37.285,7.545-54.727c3.969,2.107,7.643,4.801,10.975,8.133C498.333,293.911,498.333,322.866,480.45,340.7z" style="fill:#e7e6fd"/>
      <path d="M271.71,274.153c-9.338-25.706-39.284-36.961-63.793-26.526
			c-6.459,2.751-11.694,6.928-15.631,12.469c-7.914-11.871-18.856-17.875-32.631-17.875c-0.514,0.141-24.354-0.928-39.483,22.263
			c-12.32,18.894-11.971,40.947,1.043,65.544c12.459,23.551,34.125,41.617,56.477,58.664c8.637,6.576,20.565,6.416,28.976-0.411
			c23.157-18.784,40.42-35.559,52.784-51.272C275.216,316.975,278.36,292.395,271.71,274.153z M200.496,380.672
			c-4.895,3.962-11.832,4.053-16.861,0.225c-21.582-16.455-42.288-33.779-53.76-55.453c-11.383-21.512-11.871-39.703-1.493-55.611
			c12.337-18.913,31.757-17.95,31.267-17.813c12.631,0,21.866,6.622,28.234,20.244c0.828,1.756,2.588,2.957,4.555,2.823
			c1.947-0.048,3.679-1.239,4.416-3.038c3.038-7.392,7.909-12.43,14.899-15.406c19.661-8.362,43.433,0.736,50.75,20.861
			c5.48,15.089,2.913,36.083-10.756,53.449C239.845,346.084,223.08,362.347,200.496,380.672z" style="fill:#3a4b81"/>
      <path d="M447.898,395.155h-14.952c14.913-14.913,28.171-28.171,50.97-50.97
			c19.746-19.746,19.746-51.879,0-71.625c-19.616-19.616-51.835-19.78-71.625,0l-36.922,36.922
			c-2.861-45.597-9.905-96.781-18.173-142.025c-3.359-18.368-19.354-31.698-38.038-31.698h-27.181V93.821h17.713
			c10.34,0,18.756-8.411,18.756-18.751V26c0-10.34-8.416-18.756-18.756-18.756H76.408c-10.34,0-18.756,8.416-18.756,18.756V75.07
			c0,10.34,8.416,18.751,18.756,18.751H94.12v41.937H66.939c-18.679,0-34.674,13.33-38.038,31.698
			C16.545,235.118-0.776,358.492,16.734,425.145c4.407,16.631,10.784,29.21,18.961,37.392
			c44.856,44.856,166.197,47.951,233.327,35.022c7.989,4.557,17.205,7.197,27.041,7.197c54.501,0,99.327,0,151.834,0
			c30.215,0,54.798-24.583,54.798-54.798C502.696,419.739,478.113,395.155,447.898,395.155z M419.219,279.488
			c15.919-15.919,41.833-15.927,57.769,0c15.928,15.928,15.928,41.841,0,57.769l-43.463,43.463l-57.769-57.769L419.219,279.488z
			 M76.408,84.022c-4.938,0-8.957-4.014-8.957-8.952V26c0-4.938,4.019-8.957,8.957-8.957H97.12v12.249
			c0,2.708,2.191,4.899,4.899,4.899s4.899-2.191,4.899-4.899V17.043h35.717v12.249c0,2.708,2.191,4.899,4.899,4.899
			s4.899-2.191,4.899-4.899V17.043h35.717v12.249c0,2.708,2.191,4.899,4.899,4.899c2.708,0,4.899-2.191,4.899-4.899V17.043h35.717
			v12.249c0,2.708,2.191,4.899,4.899,4.899s4.899-2.191,4.899-4.899V17.043h35.717v12.249c0,2.708,2.191,4.899,4.899,4.899
			c2.708,0,4.899-2.191,4.899-4.899V17.043h20.708c4.938,0,8.957,4.019,8.957,8.957V75.07c0,4.938-4.019,8.952-8.957,8.952h-20.708
			V71.774c0-2.708-2.191-4.899-4.899-4.899c-2.708,0-4.899,2.191-4.899,4.899v12.249h-35.717V71.774
			c0-2.708-2.191-4.899-4.899-4.899s-4.899,2.191-4.899,4.899v12.249h-35.717V71.774c0-2.708-2.191-4.899-4.899-4.899
			c-2.708,0-4.899,2.191-4.899,4.899v12.249h-35.717V71.774c0-2.708-2.191-4.899-4.899-4.899s-4.899,2.191-4.899,4.899v12.249
			h-35.717V71.774c0-2.708-2.191-4.899-4.899-4.899s-4.899,2.191-4.899,4.899v12.249H76.408z M282.179,93.821v41.937h-178.26V93.821
			H282.179z M38.562,169.198c2.507-13.689,14.445-23.622,28.392-23.622c53.392,0,194.2,0,252.191,0
			c13.947,0,25.885,9.933,28.392,23.622c2.244,12.268,4.368,24.808,6.33,37.368H32.232C34.203,193.982,36.37,181.174,38.562,169.198
			z M30.741,216.364h324.619c4.49,30.215,8.901,66.703,10.756,102.371c-29.981,29.981-23.478,23.478-52.253,52.253
			c-6.894,6.894-11.325,15.308-13.405,24.167h-4.394c-18.729,0-35.28,9.458-45.168,23.837H25.335
			C12.7,365.509,21.588,277.919,30.741,216.364z M42.624,455.609c-7.009-7.012-11.595-17.331-14.615-26.818h217.517
			c-2.739,6.516-4.26,13.667-4.26,21.167c0,15.57,6.56,29.612,17.023,39.597C180.094,502.235,77.964,490.949,42.624,455.609z
			 M370.608,494.957h-74.544c-24.813,0-44.999-20.186-44.999-44.999s20.186-45.004,44.999-45.004h3.077
			c-0.492,13.579,4.379,27.317,14.722,37.66c14.695,14.695,37.128,19.136,56.745,10.245V494.957z M320.791,435.686
			c-15.928-15.928-15.928-41.841,0-57.769l48.037-48.037l57.769,57.769l-48.037,48.037
			C362.637,451.609,336.714,451.609,320.791,435.686z M447.898,494.957h-67.492v-47.961c1.758-1.346,3.473-2.774,5.081-4.382
			l37.66-37.66h24.751c24.813,0,44.999,20.191,44.999,45.004S472.711,494.957,447.898,494.957z" style="fill:#3a4b81"/>
    </g>
  </g>
</svg>
