<svg xmlns="http://www.w3.org/2000/svg" xml:space="preserve" style="enable-background:new 0 0 512 512" viewBox="0 0 512 512">
  <g id="_x31_1_Love_Meter">
    <g>
      <path d="M257.938,414.926c0,47.928-39.203,86.715-87.286,86.038c-45.673-0.643-83.328-37.611-84.763-83.266
			c-0.93-29.6,13.098-55.982,35.1-72.145V61.933c0-28.113,22.79-50.903,50.903-50.903h0c28.113,0,50.903,22.79,50.903,50.903v283.62
			C244.107,361.21,257.938,386.455,257.938,414.926z" style="fill:#fff"/>
      <path d="M240.32,467.069c-15.972,20.92-41.253,34.296-69.67,33.904
			c-45.663-0.637-83.339-37.628-84.76-83.29c-0.931-29.592,13.081-55.951,35.08-72.119V61.935c0-28.123,22.831-50.905,50.905-50.905
			c14.061,0,26.8,5.683,36.011,14.894c6.663,6.663,11.514,15.188,13.621,24.742c-44.928,53.6-71.924,122.583-71.924,197.937
			C149.583,333.951,184.271,411.215,240.32,467.069z" style="fill:#e7e6fd"/>
      <path d="M222.647,414.926c0,27.843-22.426,50.454-50.198,50.753c-27.194,0.293-50.117-21.378-51.267-48.549
			c-0.869-20.542,10.481-38.535,27.379-47.289V114.25c0-12.885,10.445-23.331,23.331-23.331h0c12.885,0,23.331,10.445,23.331,23.331
			v255.591C211.512,378.281,222.647,395.307,222.647,414.926z" style="fill:#9a88fb"/>
      <rect width="46.661" height="44.187" x="148.561" y="271.202" style="fill:#fff"/>
      <rect width="44.598" height="42.232" x="149.593" y="172.953" style="fill:#fff"/>
      <path d="M195.245 301.713v13.669h-46.691v-44.193h10.926c-.147.784-.196 1.568-.196 2.401v13.522c0 8.476 6.859 15.335 15.335 15.335h15.972C192.208 302.448 193.776 302.203 195.245 301.713zM194.168 201.52v13.669h-44.585v-42.233h10.926c-.147.784-.196 1.568-.196 2.352v11.612c0 8.427 6.859 15.286 15.335 15.286h13.915C191.179 202.206 192.698 201.96 194.168 201.52z" style="fill:#e7e6fd"/>
      <path d="M171.63,401.794c-2.645-5.654-6.582-8.253-11.594-8.314c-5.253-0.064-10.068,2.822-12.938,7.222
			c-4.408,6.756-3.646,14.157,0.533,21.984c2.291,4.291,5.41,8.074,8.977,11.381c4.442,4.118,9.475,8.167,15.022,12.155
			c9.038-7.04,17.12-14.169,22.879-21.513c3.321-4.236,5.24-9.462,5.144-14.844c-0.023-1.303-0.159-2.532-0.399-3.69
			c-1.945-9.368-12.064-14.533-20.967-11.029C175.302,396.32,173.009,398.435,171.63,401.794z" style="fill:#fff"/>
      <path d="M182.605,437.084c-3.43,3.087-7.104,6.124-10.975,9.113c-5.536-3.969-10.583-8.035-15.041-12.151
			c-3.528-3.283-6.663-7.055-8.966-11.367c-4.164-7.839-4.948-15.237-0.539-21.998c2.793-4.165,7.251-6.957,12.2-7.153
			c-0.049,0.931-0.098,1.862-0.098,2.793C159.186,413.714,168.592,428.902,182.605,437.084z" style="fill:#e7e6fd"/>
      <path d="M314.588 358.448c-2.955-6.316-7.354-9.22-12.953-9.288-5.868-.071-11.248 3.153-14.454 8.068-4.924 7.548-4.073 15.816.596 24.56 2.559 4.793 6.044 9.02 10.029 12.715 4.962 4.6 10.585 9.124 16.783 13.58 10.097-7.865 19.127-15.83 25.561-24.035 3.711-4.732 5.854-10.571 5.746-16.584-.026-1.456-.177-2.829-.446-4.123-2.173-10.466-13.479-16.237-23.425-12.322C318.69 352.332 316.128 354.695 314.588 358.448zM394.841 235.829c-2.955-6.316-7.354-9.22-12.953-9.288-5.868-.071-11.248 3.153-14.454 8.068-4.924 7.548-4.073 15.816.596 24.56 2.559 4.793 6.044 9.02 10.029 12.715 4.962 4.6 10.585 9.124 16.783 13.58 10.097-7.865 19.127-15.83 25.561-24.035 3.711-4.732 5.854-10.571 5.747-16.584-.026-1.456-.177-2.829-.446-4.123-2.173-10.466-13.479-16.237-23.425-12.322C398.943 229.713 396.381 232.076 394.841 235.829zM385.327 100.209c-2.955-6.316-7.354-9.22-12.953-9.288-5.868-.071-11.248 3.153-14.454 8.068-4.924 7.548-4.073 15.816.596 24.56 2.559 4.793 6.044 9.02 10.029 12.715 4.962 4.6 10.585 9.124 16.783 13.58 10.097-7.865 19.127-15.83 25.561-24.035 3.711-4.732 5.854-10.571 5.746-16.584-.026-1.456-.177-2.829-.446-4.123-2.173-10.466-13.479-16.237-23.425-12.322C389.429 94.093 386.868 96.456 385.327 100.209zM295.557 26.13c-2.955-6.316-7.354-9.22-12.953-9.288-5.868-.071-11.248 3.153-14.454 8.068-4.924 7.548-4.073 15.816.596 24.56 2.559 4.793 6.044 9.02 10.029 12.715 4.962 4.6 10.585 9.124 16.783 13.58 10.097-7.865 19.127-15.83 25.561-24.035 3.711-4.732 5.854-10.571 5.746-16.584-.026-1.456-.177-2.829-.446-4.123-2.173-10.466-13.479-16.237-23.425-12.322C299.66 20.014 297.098 22.377 295.557 26.13z" style="fill:#fbecb3"/>
      <line x1="247.637" x2="262.629" y1="104.952" y2="104.952" style="fill:#fff"/>
      <line x1="247.637" x2="283.861" y1="147.039" y2="147.039" style="fill:#fff"/>
      <line x1="247.637" x2="265.749" y1="189.126" y2="189.126" style="fill:#fff"/>
      <line x1="247.637" x2="283.861" y1="231.214" y2="231.214" style="fill:#fff"/>
      <line x1="247.637" x2="262.629" y1="273.301" y2="273.301" style="fill:#fff"/>
      <line x1="247.637" x2="283.861" y1="315.388" y2="315.388" style="fill:#fff"/>
      <path d="M170.582,505.863c51.911,0.561,92.257-41.132,92.257-90.936c0-27.99-13.093-54.645-35.145-71.812
			V61.934c0-30.77-25.033-55.803-55.803-55.803c-30.767,0-55.8,25.033-55.8,55.803v281.181
			c-22.935,17.837-36.014,45.585-35.097,74.735C82.495,465.706,122.683,505.189,170.582,505.863z M123.889,349.503
			c1.258-0.923,2-2.39,2-3.95V61.934c0-25.366,20.638-46.004,46.004-46.004s46.002,20.638,46.002,46.004v283.619
			c0,1.56,0.742,3.026,1.998,3.947c20.756,15.249,33.148,39.707,33.148,65.427c0,45.4-37.207,81.872-82.319,81.137
			c-42.736-0.603-78.594-35.827-79.934-78.52C89.944,390.782,102.32,365.347,123.889,349.503z" style="fill:#3a4b81"/>
      <path d="M171.914,470.582c30.583,0,55.633-25.07,55.633-55.654c0-19.87-10.433-37.985-27.425-47.975
			c0-82.368,0-157.935,0-252.701c0-15.567-12.665-28.232-28.232-28.232s-28.229,12.665-28.229,28.232c0,71.755,0,166.083,0,252.703
			c-17.581,10.371-28.246,29.822-27.373,50.382C117.535,446.819,142.427,470.582,171.914,470.582z M153.46,114.251
			c0-10.165,8.268-18.433,18.43-18.433c10.165,0,18.433,8.268,18.433,18.433v53.31H153.46V114.251z M189.952,177.545v33.05h-36.12
			v-33.05H189.952z M153.46,220.58h36.863v45.724H153.46V220.58z M153.46,276.102h36.863v34.387H153.46V276.102z M150.814,374.191
			c1.624-0.842,2.646-2.519,2.646-4.349v-49.554h36.863v49.554c0,1.83,1.019,3.507,2.646,4.349
			c15.284,7.921,24.779,23.528,24.779,40.736c0,25.201-20.638,45.856-45.836,45.856c-24.294,0-44.808-19.576-45.834-43.86
			C125.324,399.14,135.035,382.368,150.814,374.191z" style="fill:#3a4b81"/>
      <path d="M168.768 450.199c1.763 1.266 4.149 1.225 5.873-.112 10.861-8.462 18.399-15.564 23.724-22.356 5.379-6.864 7.198-15.33 5.684-22.552-1.199-5.777-4.89-10.713-10.129-13.545-7.75-4.187-16.885-2.728-22.169 1.756-3.78-3.77-8.174-4.765-11.655-4.809-6.82.153-13.189 3.45-17.1 9.445-5.141 7.875-5.036 16.949.313 26.966C148.714 435.113 159.365 443.434 168.768 450.199zM151.202 403.38c2.048-3.139 5.28-5 8.663-5 .038 0 .077 0 .115 0 2.175.026 4.959.672 7.213 5.49.823 1.758 2.55 2.938 4.555 2.82 1.943-.045 3.675-1.237 4.414-3.036 2.057-4.993 8.555-5.86 13.1-3.399 2.732 1.476 4.576 3.931 5.196 6.919.929 4.445-.217 9.938-3.804 14.509-4.347 5.548-10.473 11.438-19.131 18.38-7.019-5.262-15.416-11.906-19.567-19.686C147.178 411.43 149.238 406.391 151.202 403.38zM314.691 349.852c-4.182-4.399-9.115-5.545-13-5.593-7.17.024-14.351 3.758-18.614 10.292-5.617 8.612-5.49 18.552.376 29.545 6.019 11.264 17.956 20.544 28.275 27.966 1.763 1.266 4.149 1.225 5.873-.112 12.098-9.426 20.488-17.332 26.404-24.878 4.502-5.744 6.914-12.737 6.789-19.696-.163-9.145-4.702-16.057-11.574-19.772C330.496 342.891 320.329 344.753 314.691 349.852zM340.995 367.552c.086 4.71-1.586 9.497-4.703 13.471-4.94 6.304-11.918 12.997-21.813 20.906-8.073-6.025-17.654-13.601-22.38-22.449-4.172-7.813-4.431-14.033-.816-19.576 4.126-6.323 10.782-5.982 10.292-5.847 2.598.031 5.923.797 8.576 6.466.823 1.761 2.622 2.928 4.555 2.821 1.945-.045 3.677-1.237 4.416-3.036 2.437-5.94 10.098-6.97 15.438-4.086C338.417 358.31 340.901 361.989 340.995 367.552zM394.943 227.232c-4.182-4.399-9.117-5.543-12.997-5.591-7.447.036-14.354 3.754-18.617 10.289-5.62 8.615-5.49 18.555.378 29.545 5.99 11.218 17.852 20.47 28.272 27.966 1.763 1.266 4.149 1.225 5.873-.112 12.091-9.421 20.48-17.325 26.406-24.878 4.502-5.744 6.914-12.737 6.789-19.696-.176-9.176-4.717-16.064-11.576-19.77C410.778 220.279 400.611 222.114 394.943 227.232zM416.546 258.404c-4.947 6.309-11.926 13.002-21.815 20.906-8.037-6-17.656-13.594-22.378-22.449-4.175-7.813-4.433-14.033-.818-19.574 4.129-6.327 10.784-5.982 10.294-5.847 2.598.031 5.921.794 8.574 6.464.823 1.761 2.665 2.983 4.555 2.821 1.945-.045 3.677-1.237 4.414-3.036 2.43-5.91 10.064-6.993 15.44-4.084 3.856 2.082 6.344 5.774 6.438 11.328C421.335 249.646 419.663 254.43 416.546 258.404zM382.465 153.822c1.763 1.266 4.149 1.225 5.873-.112 12.091-9.421 20.48-17.325 26.406-24.878 4.502-5.744 6.914-12.737 6.789-19.696-.164-9.144-4.704-16.057-11.576-19.772-8.619-4.658-18.8-2.924-24.528 2.249-4.182-4.399-9.115-5.543-12.995-5.591-7.285.084-14.354 3.756-18.617 10.289-5.62 8.61-5.493 18.552.378 29.547C360.197 137.1 372.128 146.385 382.465 153.822zM362.023 101.665c4.128-6.322 10.782-5.98 10.292-5.844 2.598.031 5.921.794 8.574 6.464.823 1.758 2.612 2.959 4.555 2.821 1.945-.045 3.677-1.237 4.414-3.036 2.434-5.918 10.08-6.986 15.44-4.084 3.867 2.088 6.344 5.774 6.438 11.328.086 4.713-1.586 9.497-4.703 13.471-4.947 6.308-11.926 13.002-21.815 20.906-8.048-6.01-17.647-13.585-22.378-22.449C358.667 113.428 358.406 107.208 362.023 101.665zM292.697 79.742c.856.615 1.859.921 2.861.921 1.065 0 2.127-.347 3.012-1.033 12.098-9.426 20.488-17.332 26.404-24.878 4.502-5.744 6.914-12.737 6.789-19.696-.164-9.143-4.702-16.054-11.572-19.77-8.708-4.707-18.884-2.86-24.531 2.246-4.182-4.399-9.117-5.543-12.997-5.591-7.421-.055-14.351 3.756-18.617 10.289-5.617 8.615-5.49 18.555.376 29.547C270.417 63.001 282.308 72.269 292.697 79.742zM272.252 27.588c4.129-6.327 10.784-5.982 10.294-5.847 2.598.031 5.921.794 8.574 6.466.823 1.761 2.639 2.919 4.555 2.821 1.945-.045 3.677-1.237 4.416-3.036 2.44-5.949 10.11-6.972 15.44-4.086 3.866 2.089 6.339 5.777 6.433 11.328.086 4.713-1.586 9.497-4.703 13.471-4.94 6.304-11.918 12.997-21.813 20.906-8.008-5.976-17.65-13.586-22.38-22.447C268.896 39.351 268.637 33.128 272.252 27.588zM247.638 109.852h14.99c2.706 0 4.899-2.194 4.899-4.899s-2.194-4.899-4.899-4.899h-14.99c-2.706 0-4.899 2.194-4.899 4.899S244.932 109.852 247.638 109.852zM247.638 151.939h36.224c2.706 0 4.899-2.194 4.899-4.899s-2.194-4.899-4.899-4.899h-36.224c-2.706 0-4.899 2.194-4.899 4.899S244.932 151.939 247.638 151.939zM247.638 194.027h18.112c2.706 0 4.899-2.194 4.899-4.899s-2.194-4.899-4.899-4.899h-18.112c-2.706 0-4.899 2.194-4.899 4.899S244.932 194.027 247.638 194.027zM247.638 236.112h36.224c2.706 0 4.899-2.194 4.899-4.899s-2.194-4.899-4.899-4.899h-36.224c-2.706 0-4.899 2.194-4.899 4.899S244.932 236.112 247.638 236.112zM247.638 278.2h14.99c2.706 0 4.899-2.194 4.899-4.899s-2.194-4.899-4.899-4.899h-14.99c-2.706 0-4.899 2.194-4.899 4.899S244.932 278.2 247.638 278.2zM247.638 320.288h36.224c2.706 0 4.899-2.194 4.899-4.899 0-2.706-2.194-4.899-4.899-4.899h-36.224c-2.706 0-4.899 2.194-4.899 4.899C242.738 318.094 244.932 320.288 247.638 320.288z" style="fill:#3a4b81"/>
    </g>
  </g>
</svg>
