<svg xmlns="http://www.w3.org/2000/svg" xml:space="preserve" style="enable-background:new 0 0 512 512" viewBox="0 0 512 512">
  <g id="_x31_0_Love_Coupon">
    <g>
      <path d="M500.97,341.869v103.87c-16.217,18.772-25.498,29.514-41.715,48.337h-45.052
			c16.217-18.824,25.498-29.565,41.715-48.337v-103.87c-16.217-18.772-25.498-29.514-41.715-48.337h45.052
			C475.472,312.355,484.753,323.097,500.97,341.869z" style="fill:#fff"/>
      <path d="M500.969,341.886v103.868c-16.217,18.765-25.477,29.495-41.694,48.309h-19.99
			c16.217-18.814,25.477-29.544,41.694-48.309V341.886c-16.217-18.814-25.477-29.544-41.694-48.358h19.99
			C475.492,312.343,484.751,323.073,500.969,341.886z" style="fill:#e7e6fd"/>
      <path d="M455.918,341.869v103.87c-16.217,18.772-25.498,29.514-41.715,48.337H391.52
			c-4.849-13.245-17.572-22.683-32.538-22.683s-27.688,9.438-32.538,22.683H52.742c-16.217-18.824-25.498-29.565-41.715-48.337
			v-103.87c16.217-18.772,25.498-29.514,41.715-48.337h273.703c4.849,13.245,17.572,22.683,32.538,22.683
			s27.688-9.438,32.538-22.683h22.683C430.419,312.355,439.701,323.097,455.918,341.869z" style="fill:#9a88fb"/>
      <path d="M500.97,66.259v103.87c-16.217,18.772-25.498,29.514-41.715,48.337h-45.052
			c16.217-18.824,25.498-29.565,41.715-48.337V66.259c-16.217-18.772-25.498-29.514-41.715-48.337h45.052
			C475.472,36.746,484.753,47.488,500.97,66.259z" style="fill:#fff"/>
      <path d="M500.969,66.245v103.868c-16.217,18.814-25.477,29.544-41.694,48.358h-23.517
			c16.217-18.814,25.477-29.544,41.694-48.358V66.245c-16.217-18.765-25.477-29.495-41.694-48.309h23.517
			C475.492,36.75,484.751,47.48,500.969,66.245z" style="fill:#e7e6fd"/>
      <path d="M455.918,66.259v103.87c-16.217,18.772-25.498,29.514-41.715,48.337H391.52
			c-4.849-13.245-17.572-22.683-32.538-22.683s-27.688,9.438-32.538,22.683H52.742c-16.217-18.824-25.498-29.565-41.715-48.337
			V66.259c16.217-18.772,25.498-29.514,41.715-48.337h273.703c4.849,13.245,17.572,22.683,32.538,22.683s27.688-9.438,32.538-22.683
			h22.683C430.419,36.746,439.701,47.488,455.918,66.259z" style="fill:#fbecb3"/>
      <path d="M375.326,363.566c-5.245-11.212-13.054-16.367-22.993-16.488
			c-10.417-0.126-19.966,5.597-25.658,14.322c-8.741,13.398-7.23,28.075,1.058,43.597c4.543,8.509,10.729,16.012,17.803,22.57
			c8.808,8.166,18.79,16.196,29.791,24.106c17.923-13.962,33.952-28.099,45.373-42.665c6.587-8.4,10.392-18.764,10.201-29.438
			c-0.046-2.585-0.314-5.021-0.791-7.318c-3.858-18.578-23.926-28.822-41.581-21.872
			C382.608,352.71,378.061,356.905,375.326,363.566z" style="fill:#fff"/>
      <path d="M397.125,433.533c-6.802,6.122-14.115,12.131-21.824,18.139
			c-10.997-7.936-20.974-15.929-29.76-24.091c-7.086-6.575-13.265-14.058-17.799-22.561c-8.276-15.532-9.807-30.214-1.077-43.648
			c3.458-5.272,8.389-9.466,14.058-11.904C350.926,382.8,370.823,411.936,397.125,433.533z" style="fill:#e7e6fd"/>
      <path d="M375.326,87.957c-5.245-11.212-13.054-16.367-22.993-16.488
			c-10.417-0.126-19.966,5.597-25.658,14.322c-8.741,13.398-7.23,28.075,1.058,43.597c4.543,8.509,10.729,16.012,17.803,22.57
			c8.808,8.166,18.79,16.196,29.791,24.106c17.923-13.962,33.952-28.099,45.373-42.665c6.587-8.4,10.392-18.764,10.201-29.438
			c-0.046-2.585-0.314-5.021-0.791-7.318c-3.858-18.578-23.926-28.822-41.581-21.872C382.608,77.101,378.061,81.296,375.326,87.957z
			" style="fill:#fff"/>
      <path d="M397.125,157.924c-6.802,6.122-14.115,12.131-21.824,18.139
			c-10.997-7.936-20.974-15.929-29.76-24.091c-7.086-6.575-13.265-14.058-17.799-22.561c-8.276-15.532-9.807-30.214-1.077-43.648
			c3.458-5.272,8.389-9.466,14.058-11.904C350.926,107.191,370.823,136.327,397.125,157.924z" style="fill:#e7e6fd"/>
      <path d="M462.967,290.332c-0.933-1.079-2.287-1.701-3.713-1.701c-22.411,0-42.59,0-67.736,0
			c-2.057,0-3.895,1.285-4.603,3.215c-4.258,11.646-15.483,19.469-27.932,19.469c-12.445,0-23.674-7.825-27.937-19.469
			c-0.708-1.931-2.545-3.215-4.603-3.215H52.741c-1.426,0-2.78,0.622-3.713,1.701c-15.234,17.69-25.386,29.44-41.707,48.334
			c-0.77,0.89-1.191,2.026-1.191,3.203v103.869c0,1.177,0.421,2.313,1.191,3.203c16.237,18.796,26.486,30.659,41.707,48.334
			c0.933,1.079,2.287,1.701,3.713,1.701h273.703c2.057,0,3.895-1.285,4.603-3.215c4.263-11.643,15.493-19.469,27.937-19.469
			c12.445,0,23.674,7.823,27.932,19.469c0.708,1.931,2.545,3.215,4.603,3.215c25.188,0,49.345,0,67.736,0
			c1.426,0,2.78-0.622,3.713-1.701c16.081-18.673,25.433-29.495,41.712-48.334c0.77-0.89,1.191-2.026,1.191-3.203V341.869
			c0-1.177-0.421-2.313-1.191-3.203C488.341,319.758,479.018,308.97,462.967,290.332z M358.984,466.494
			c-15.368,0-29.344,8.985-35.798,22.684h-25.368v-4.899c0-2.706-2.191-4.899-4.899-4.899c-2.708,0-4.899,2.194-4.899,4.899v4.899
			H54.985c-16.133-18.73-24.744-28.692-39.057-45.262V343.692c14.663-16.975,22.946-26.558,39.057-45.262h233.034v4.899
			c0,2.706,2.191,4.899,4.899,4.899c2.708,0,4.899-2.194,4.899-4.899v-4.899h25.368c6.454,13.698,20.43,22.684,35.798,22.684
			c15.373,0,29.344-8.985,35.794-22.684h17.178c15.627,18.139,25.189,29.203,39.065,45.262v100.223
			c-14.213,16.449-23.438,27.123-39.065,45.262h-17.178C388.328,475.479,374.357,466.494,358.984,466.494z M496.072,443.915
			c-15.009,17.37-24.134,27.928-39.061,45.262h-32.119c12.828-14.886,22.407-25.968,34.736-40.236
			c0.77-0.89,1.191-2.026,1.191-3.203V341.869c0-1.177-0.421-2.313-1.191-3.203c-12.748-14.752-22.643-26.203-34.736-40.236h32.119
			c14.928,17.335,24.052,27.892,39.061,45.262V443.915z" style="fill:#3a4b81"/>
      <path d="M292.918 398.959c-2.708 0-4.899 2.194-4.899 4.899v20.105c0 2.706 2.191 4.899 4.899 4.899 2.708 0 4.899-2.194 4.899-4.899v-20.105C297.817 401.153 295.626 398.959 292.918 398.959zM292.918 358.747c-2.708 0-4.899 2.194-4.899 4.899v20.105c0 2.706 2.191 4.899 4.899 4.899 2.708 0 4.899-2.194 4.899-4.899v-20.105C297.817 360.941 295.626 358.747 292.918 358.747zM292.918 318.537c-2.708 0-4.899 2.194-4.899 4.899v20.105c0 2.706 2.191 4.899 4.899 4.899 2.708 0 4.899-2.194 4.899-4.899v-20.105C297.817 320.731 295.626 318.537 292.918 318.537zM292.918 439.169c-2.708 0-4.899 2.194-4.899 4.899v20.105c0 2.706 2.191 4.899 4.899 4.899 2.708 0 4.899-2.194 4.899-4.899v-20.105C297.817 441.362 295.626 439.169 292.918 439.169zM424.557 412.031c7.454-9.514 11.45-21.074 11.244-32.552-.273-14.799-7.512-25.851-18.559-31.82-9.407-5.091-20.54-5.761-30.507-1.837-4.608 1.816-8.416 4.548-11.387 8.165-5.737-7.727-13.43-11.691-22.957-11.806-11.808-.211-22.971 6.043-29.822 16.543-9.153 14.043-8.871 30.389.842 48.583 10.316 19.32 31.2 35.501 49.056 48.346 1.78 1.278 4.172 1.212 5.871-.112C399.552 439.013 414.236 425.188 424.557 412.031zM375.213 445.535c-15.502-11.382-34.1-25.882-43.162-42.846-8.014-15.007-8.43-27.638-1.273-38.612 4.952-7.593 12.866-12.1 21.215-12.1.091 0 .187 0 .282.002 8.383.1 14.296 4.443 18.617 13.665.818 1.761 2.742 2.998 4.555 2.82 1.943-.045 3.675-1.239 4.411-3.038 2.096-5.11 5.521-8.54 10.464-10.485 7.263-2.866 15.382-2.385 22.258 1.337 7.835 4.233 13.202 11.985 13.421 23.38.167 9.229-3.086 18.581-9.158 26.327C407.5 417.901 394.222 430.521 375.213 445.535zM239.106 344.79H73.707c-2.708 0-4.899 2.194-4.899 4.899s2.191 4.899 4.899 4.899h165.399c2.708 0 4.899-2.194 4.899-4.899S241.814 344.79 239.106 344.79zM73.707 398.703h73.415c2.708 0 4.899-2.194 4.899-4.899s-2.191-4.899-4.899-4.899H73.707c-2.708 0-4.899 2.194-4.899 4.899S70.999 398.703 73.707 398.703zM239.106 433.018H73.707c-2.708 0-4.899 2.194-4.899 4.899s2.191 4.899 4.899 4.899h165.399c2.708 0 4.899-2.194 4.899-4.899S241.814 433.018 239.106 433.018zM504.679 63.056c-15.894-18.395-24.496-28.346-41.712-48.332-.933-1.079-2.287-1.701-3.713-1.701-22.411 0-42.59 0-67.736 0-2.057 0-3.895 1.285-4.603 3.215-4.258 11.643-15.483 19.466-27.932 19.466-12.445 0-23.674-7.823-27.937-19.466-.708-1.931-2.545-3.215-4.603-3.215H52.741c-1.426 0-2.78.622-3.713 1.701C33.634 32.593 24.956 42.639 7.321 63.056c-.77.89-1.191 2.026-1.191 3.203v103.871c0 1.177.421 2.313 1.191 3.203 15.831 18.325 25.644 29.682 41.707 48.332.933 1.079 2.287 1.701 3.713 1.701h273.703c2.057 0 3.895-1.285 4.603-3.215 4.263-11.643 15.493-19.469 27.937-19.469 12.445 0 23.674 7.823 27.932 19.469.708 1.931 2.545 3.215 4.603 3.215 25.188 0 49.345 0 67.736 0 1.426 0 2.78-.622 3.713-1.701 16.186-18.794 25.464-29.528 41.712-48.332.77-.89 1.191-2.026 1.191-3.203V66.26C505.871 65.083 505.45 63.946 504.679 63.056zM358.984 190.884c-15.368 0-29.344 8.985-35.798 22.684h-25.368v-4.899c0-2.706-2.191-4.899-4.899-4.899-2.708 0-4.899 2.194-4.899 4.899v4.899H54.985c-14.691-17.058-24.175-28.034-39.057-45.26V68.083c16.051-18.582 25.027-28.973 39.057-45.26h233.034v4.899c0 2.706 2.191 4.899 4.899 4.899 2.708 0 4.899-2.194 4.899-4.899v-4.899h25.368c6.454 13.698 20.43 22.681 35.798 22.681 15.373 0 29.344-8.983 35.794-22.681h17.178c14.418 16.734 24.397 28.286 39.041 45.234l.024 100.252c-13.875 16.054-23.42 27.1-39.065 45.26h-17.178C388.328 199.869 374.357 190.884 358.984 190.884zM457.011 213.568h-32.118c12.184-14.137 20.98-24.316 34.735-40.234.77-.89 1.191-2.026 1.191-3.203V66.26c0-1.177-.421-2.313-1.191-3.203-14.194-16.427-22.483-26.018-34.735-40.234h32.118c14.923 17.323 24.043 27.88 39.038 45.234l.024 100.252C481.063 185.674 471.938 196.233 457.011 213.568z" style="fill:#3a4b81"/>
      <path d="M292.918 83.137c-2.708 0-4.899 2.194-4.899 4.899v20.105c0 2.706 2.191 4.899 4.899 4.899 2.708 0 4.899-2.194 4.899-4.899V88.037C297.817 85.331 295.626 83.137 292.918 83.137zM292.918 163.559c-2.708 0-4.899 2.194-4.899 4.899v20.105c0 2.706 2.191 4.899 4.899 4.899 2.708 0 4.899-2.194 4.899-4.899v-20.105C297.817 165.753 295.626 163.559 292.918 163.559zM292.918 42.927c-2.708 0-4.899 2.194-4.899 4.899v20.105c0 2.706 2.191 4.899 4.899 4.899 2.708 0 4.899-2.194 4.899-4.899V47.827C297.817 45.121 295.626 42.927 292.918 42.927zM292.918 123.349c-2.708 0-4.899 2.194-4.899 4.899v20.105c0 2.706 2.191 4.899 4.899 4.899 2.708 0 4.899-2.194 4.899-4.899v-20.105C297.817 125.543 295.626 123.349 292.918 123.349zM424.557 136.421c16.144-20.605 15.979-51.786-7.316-64.372-15.045-8.143-33.198-4.259-41.894 6.328-5.737-7.727-13.43-11.691-22.957-11.806-11.808-.301-22.971 6.041-29.822 16.543-9.153 14.043-8.871 30.389.842 48.583 10.337 19.353 31.231 35.522 49.056 48.346 1.78 1.278 4.172 1.212 5.871-.112C399.552 163.404 414.236 149.579 424.557 136.421zM375.213 169.925c-15.567-11.426-34.098-25.885-43.162-42.846-8.014-15.007-8.43-27.638-1.273-38.612 4.952-7.593 12.866-12.1 21.215-12.1.091 0 .187 0 .282.002 8.383.1 14.296 4.442 18.617 13.665.818 1.758 2.742 2.959 4.555 2.821 1.943-.045 3.675-1.239 4.411-3.038 5.251-12.803 21.414-15.267 32.722-9.148 17.724 9.576 16.644 33.912 4.263 49.707C407.5 142.292 394.222 154.911 375.213 169.925zM239.106 69.181H73.707c-2.708 0-4.899 2.194-4.899 4.899s2.191 4.899 4.899 4.899h165.399c2.708 0 4.899-2.194 4.899-4.899S241.814 69.181 239.106 69.181zM73.707 123.093h73.415c2.708 0 4.899-2.194 4.899-4.899s-2.191-4.899-4.899-4.899H73.707c-2.708 0-4.899 2.194-4.899 4.899S70.999 123.093 73.707 123.093zM239.106 157.409H73.707c-2.708 0-4.899 2.194-4.899 4.899s2.191 4.899 4.899 4.899h165.399c2.708 0 4.899-2.194 4.899-4.899S241.814 157.409 239.106 157.409z" style="fill:#3a4b81"/>
    </g>
  </g>
</svg>
