<svg xmlns="http://www.w3.org/2000/svg" xml:space="preserve" style="enable-background:new 0 0 512 512" viewBox="0 0 512 512">
  <g id="_x34_1_Love_Teabag">
    <g>
      <path d="M418.507,449.105c-5.562,15.48-12.653,27.576-21.737,34.204
			c-51.353,37.402-213.707,11.957-251.156-39.395c-29.755-40.832,20.578-184.277,38.607-232.06
			c-11.54,58.444-32.999,190.163,0.232,223.393C224.127,474.92,357.143,479.555,418.507,449.105z" style="fill:#fbecb3"/>
      <path d="M438.668,435.247c-5.237,5.237-12.05,9.826-20.161,13.858
			c-61.364,30.45-194.38,25.816-234.053-13.858c-33.231-33.231-11.772-164.95-0.232-223.393c3.43-17.334,5.979-28.226,5.979-28.226
			l52.094-72.672h138.532l57.841,69.799C438.668,180.755,483.671,390.244,438.668,435.247z" style="fill:#fff"/>
      <path d="M445.435,426.07c-1.947,3.522-4.217,6.627-6.767,9.177c-5.237,5.237-12.05,9.826-20.161,13.858
			c-61.364,30.45-194.38,25.816-234.053-13.858c-33.231-33.231-11.772-164.95-0.232-223.393c3.43-17.334,5.979-28.226,5.979-28.226
			l25.167-35.085C216.711,286.009,315.199,400.301,445.435,426.07z" style="fill:#e7e6fd"/>
      <path d="M423.739,324.393c1.59,36.824-0.412,65.624-6.429,77.98c-1.115,2.291-2.816,4.22-4.902,5.684
			c-12.219,8.576-47.047,20.375-100.912,20.375c-51.032,0-84.978-10.589-99.012-19.227c-3.312-2.039-5.848-5.08-7.092-8.765
			c-4.74-14.045-5.464-43.043-2.758-79.187c0.888-11.859,13.567-19.024,24.222-13.742l1.004,0.498
			c4.721,2.34,10.266,2.33,14.979-0.026l14.578-7.289c5.077-2.539,11.092-2.343,15.993,0.521l10.929,6.385
			c5.925,3.462,13.36,2.973,18.781-1.234l2.652-2.058c5.873-4.558,14.043-4.716,20.087-0.388l4.811,3.445
			c6.432,4.606,15.206,4.102,21.069-1.211l0.321-0.291c5.929-5.373,14.825-5.821,21.263-1.07l6.538,4.824
			c5.426,4.004,12.721,4.377,18.527,0.946l0,0C409.338,304.093,423.19,311.686,423.739,324.393z" style="fill:#9a88fb"/>
      <polygon points="242.288 110.956 380.829 110.956 438.681 180.74 396.831 209.596 230.945 209.596 190.195 183.612" style="fill:#9a88fb"/>
      <path d="M109.206,169.147c-5.37-11.48-13.366-16.758-23.543-16.882
			c-10.666-0.129-20.443,5.73-26.271,14.664c-8.95,13.719-7.403,28.746,1.083,44.639c4.652,8.712,10.985,16.395,18.228,23.109
			c9.019,8.361,19.239,16.583,30.503,24.682c18.351-14.296,34.763-28.771,46.457-43.684c6.745-8.601,10.64-19.213,10.444-30.141
			c-0.047-2.647-0.322-5.141-0.81-7.493c-3.95-19.022-24.498-29.511-42.575-22.395C116.662,158.031,112.006,162.327,109.206,169.147
			z" style="fill:#fbecb3"/>
      <path d="M382.77,305.675l-6.538-4.823c-8.277-6.11-19.825-5.526-27.782,1.67
			c-4.129,3.737-10.406,4.096-14.928,0.856l-4.809-3.44c-7.751-5.56-18.421-5.354-25.947,0.498l-2.651,2.057
			c-3.861,3-9.081,3.34-13.306,0.876l-10.926-6.383c-6.352-3.718-14.076-3.966-20.66-0.675l-14.579,7.287
			c-3.323,1.67-7.292,1.67-10.61,0.019l-1.002-0.493c-6.483-3.21-14.112-2.99-20.413,0.593c-6.27,3.574-10.335,9.99-10.871,17.172
			c-2.854,38.124-1.789,66.932,3,81.113c1.574,4.665,4.828,8.703,9.165,11.373c45.236,27.846,166.909,25.654,205.309-1.311
			c2.799-1.966,5.045-4.574,6.49-7.55c7.887-16.191,8.115-52.626,6.919-80.333c-0.333-7.732-4.588-14.545-11.38-18.229
			c-6.761-3.66-14.744-3.517-21.356,0.392C391.772,308.776,386.614,308.508,382.77,305.675z M412.58,314.565
			c3.739,2.029,6.079,5.78,6.263,10.038c1.6,37.028-0.565,64.592-5.94,75.625c-0.72,1.483-1.866,2.804-3.311,3.818
			c-35.299,24.788-152.84,26.665-194.539,0.986c-2.428-1.493-4.163-3.622-5.019-6.163c-4.316-12.78-5.232-40.937-2.514-77.252
			c0.299-3.976,2.466-7.402,5.952-9.383c1.859-1.062,3.88-1.593,5.907-1.593c1.799,0,3.605,0.421,5.304,1.263l1.002,0.493
			c6.062,3.005,13.289,2.995,19.347-0.034l14.576-7.287c3.615-1.799,7.847-1.67,11.332,0.368l10.926,6.383
			c7.703,4.502,17.225,3.876,24.26-1.593l2.651-2.057c4.132-3.21,9.981-3.32,14.232-0.273l4.809,3.44
			c8.253,5.909,19.693,5.249,27.533-1.852c4.184-3.794,10.524-4.11,15.064-0.756l6.538,4.823c7.026,5.177,16.421,5.66,23.93,1.22
			C404.506,312.646,408.88,312.56,412.58,314.565z" style="fill:#3a4b81"/>
      <path d="M242.294,106.057h-0.007c-1.579,0-3.062,0.761-3.981,2.043l-52.092,72.654
			c-0.636,0.889-0.921,2.343-0.805,1.848c-0.124,0.532-2.616,11.268-5.914,27.904c-21.647,57.428-68.289,194.509-37.84,236.29
			c38.617,52.95,204.989,79.086,258.002,40.468c9.1-6.637,16.551-18.04,22.769-34.71c7.978-4.139,14.64-8.776,19.706-13.844
			c46.356-46.358,3.187-250.325,1.325-258.986c-0.008-0.038-0.041-0.065-0.05-0.103c-0.172-0.728-0.468-1.422-0.955-2.012
			l-57.851-69.783c-0.931-1.12-2.313-1.77-3.773-1.77h-0.002h-49.471c0.675-9.794,0.634-50.492-3.798-61.578
			c-7.725-19.296-30.806-27.186-49.597-25c-18.434,2.134-34.64,11.536-50.879,20.521c-14.899,8.206-30.763,16.248-47.604,15.741
			c-6.186-0.157-7.717-1.43-10.148-6.23c-3.636-7.172-5.928-15.268-6.629-23.411c-0.627-7.273-4.782-13.708-11.112-17.21
			c-6.086-3.368-13.093-3.483-19.476-0.206C111.361,19.512,86.62,54.759,85.321,96.684c-0.564,18.143,3.272,36.205,10.846,52.601
			c-3.198-1.221-6.677-1.872-10.444-1.918c-12.804,0-23.723,6.597-30.435,16.885c-9.354,14.339-9.062,31.033,0.864,49.621
			c10.555,19.766,31.904,36.315,50.193,49.463c0.856,0.617,1.859,0.923,2.861,0.923c1.065,0,2.127-0.344,3.012-1.033
			c21.717-16.923,36.748-31.071,47.301-44.525c10.038-12.806,13.329-28.453,10.576-41.655c-4.518-21.762-28.04-34.276-49.169-25.961
			c-3.636,1.434-6.773,3.44-9.417,5.981c-11.191-17.905-17.051-38.927-16.394-60.075c1.17-37.77,23.444-70.188,41.719-79.716
			c3.184-1.632,6.835-1.569,10.009,0.191c3.469,1.919,5.749,5.464,6.096,9.478c0.806,9.378,3.452,18.717,7.648,26.999
			c3.973,7.836,8.59,11.343,18.638,11.598c19.079,0.388,37.21-8.493,52.583-16.957c14.899-8.244,30.652-17.445,47.281-19.373
			c15.093-1.732,33.475,4.182,39.372,18.909c3.668,9.171,3.681,49.893,3.077,57.937H242.294z M104.768,171.223
			c0.823,1.761,2.617,2.947,4.555,2.823c1.945-0.048,3.677-1.239,4.416-3.038c2.16-5.263,5.686-8.799,10.777-10.804
			c15.378-6.051,32.674,2.915,35.985,18.832c2.166,10.464-0.461,23.119-8.696,33.617c-9.579,12.215-23.201,25.162-42.712,40.569
			c-15.926-11.679-35.012-26.573-44.296-43.961c-8.23-15.411-8.655-28.382-1.304-39.655c4.914-7.531,12.834-12.44,22.11-12.44
			C94.24,157.271,100.33,161.74,104.768,171.223z M393.885,479.346c-48.858,35.593-208.692,10.526-244.311-38.32
			c-20.5-28.129,0.344-111.089,19.748-171.58c-6.048,41.617-17.963,139.634,11.667,169.265
			c40.836,40.845,165.585,43.656,228.414,19.684C404.813,468.146,399.614,475.17,393.885,479.346z M435.204,431.783
			c-43.947,43.925-205.547,41.732-247.287,0c-34.583-34.579-4.946-192.396,5.54-240.283l34.854,22.225
			c0.787,0.502,1.701,0.77,2.634,0.77h165.887c0.993,0,1.964-0.301,2.782-0.866l35.729-24.636
			C442.623,225.806,473.288,393.695,435.204,431.783z M330.279,115.856h48.245l52.954,63.898l-36.172,24.942H232.373l-35.169-22.426
			l47.607-66.414h75.509c-1.823,9.995-5.26,18.334-10.272,24.87h-23.698c-2.706,0-4.899,2.191-4.899,4.899s2.194,4.899,4.899,4.899
			h56.174c2.706,0,4.899-2.191,4.899-4.899s-2.194-4.899-4.899-4.899h-20.705C325.903,133.666,328.735,125.347,330.279,115.856z" style="fill:#3a4b81"/>
    </g>
  </g>
</svg>
