<svg xmlns="http://www.w3.org/2000/svg" xml:space="preserve" style="enable-background:new 0 0 512 512" viewBox="0 0 512 512">
  <g id="_x33_9_Love_Letter_Box">
    <g>
      <path d="M317.073,131.296v145.298H28.413c-6.894,0-12.483-5.589-12.483-12.483v0
			c0-6.894,5.589-12.483,12.483-12.483h125.388V133.153c0-44.8,35.306-82.653,80.098-83.479c23.14-0.427,44.143,8.794,59.27,23.89
			C307.93,88.356,317.073,108.765,317.073,131.296z" style="fill:#9a88fb"/>
      <path d="M317.073,276.594h155.409c13.03,0,23.592-10.563,23.592-23.592V131.296
			c0-22.531-9.143-42.94-23.904-57.732c-15.128-15.096-36.131-24.317-59.27-23.89H233.899c23.14-0.427,44.143,8.794,59.27,23.89
			c14.761,14.792,23.904,35.201,23.904,57.732V276.594" style="fill:#fff"/>
      <path d="M495.682,257.173c-1.96,11.024-11.612,19.402-23.223,19.402h-155.41V131.307
			c0-22.537-9.113-42.968-23.86-57.764c-14.796-14.747-35.178-23.86-57.715-23.86h135.371c-3.87,14.012-5.879,28.76-5.879,43.997
			C364.965,173.589,420.868,240.417,495.682,257.173z" style="fill:#e7e6fd"/>
      <path d="M441.4,276.594V447.45c0,8.221-6.664,14.885-14.885,14.885h-51.678
			c-8.221,0-14.885-6.664-14.885-14.885V276.594H441.4z" style="fill:#fbecb3"/>
      <path d="M408.203,140.07c-5.796-12.39-14.425-18.087-25.409-18.22c-11.511-0.14-22.064,6.185-28.354,15.826
			c-9.659,14.806-7.99,31.025,1.169,48.178c5.021,9.403,11.856,17.694,19.673,24.941c9.734,9.024,20.765,17.897,32.921,26.639
			c19.806-15.429,37.519-31.052,50.14-47.148c7.279-9.283,11.483-20.736,11.272-32.531c-0.051-2.857-0.348-5.549-0.874-8.087
			c-4.263-20.53-26.44-31.851-45.95-24.171C416.25,128.073,411.225,132.709,408.203,140.07z" style="fill:#9a88fb"/>
      <path d="M178.766,251.628V131.296c0-31.249,25.422-56.672,56.67-56.672
			c31.249,0,56.672,25.422,56.672,56.672v120.331H178.766z" style="fill:#fff"/>
      <path d="M292.111,250.069v1.568H178.787v-120.33c0-31.258,25.379-56.686,56.637-56.686
			c0.931,0,1.862,0,2.744,0.098c-11.415,18.569-17.981,40.42-17.981,63.839C220.187,188.14,249.682,230.863,292.111,250.069z" style="fill:#e7e6fd"/>
      <path d="M222.34,155.223v79.703c0,5.334-2.512,10.099-6.422,13.128c-2.848,2.253-6.396,3.573-10.28,3.573
			H81.19c-3.884,0-7.432-1.321-10.28-3.573c-3.91-3.03-6.422-7.794-6.422-13.128v-79.703c0-9.219,7.483-16.702,16.702-16.702
			h124.448C214.856,138.521,222.34,146.005,222.34,155.223z" style="fill:#fbecb3"/>
      <polyline points="69.926 142.897 143.414 216.385 216.902 142.897" style="fill:#fbecb3"/>
      <path d="M215.918,248.054c-2.848,2.253-6.396,3.573-10.28,3.573H81.19c-3.884,0-7.432-1.321-10.28-3.573
			l59.541-46.676c7.612-5.967,18.314-5.967,25.925,0L215.918,248.054z" style="fill:#fbecb3"/>
      <path d="M11.029,264.11c0,9.584,7.799,17.382,17.382,17.382c57.918,0,281.651,0,326.64,0v165.959
			c0,10.909,8.875,19.784,19.784,19.784h51.678c10.909,0,19.784-8.875,19.784-19.784V281.493h26.186
			c15.708,0,28.487-12.78,28.487-28.492V131.295c0-47.992-39.104-87.273-88.07-86.52c-45.49-0.006-178.563-0.012-179.092,0
			c-46.817,0.866-84.907,40.511-84.907,88.376v0.469H81.19c-11.914,0-21.602,9.689-21.602,21.602v79.702
			c0,4.287,1.251,8.357,3.515,11.804H28.411C18.827,246.728,11.029,254.527,11.029,264.11z M436.499,447.451
			c0,5.507-4.478,9.985-9.985,9.985h-51.678c-5.507,0-9.985-4.478-9.985-9.985V281.493h71.649V447.451z M412.992,54.574
			c43.647-0.658,78.18,34.273,78.18,76.721v121.706c0,10.306-8.383,18.693-18.689,18.693c-66.209,0-85.36,0-150.509,0V131.295
			c0-32.574-18.086-61.82-46.357-76.721H412.992z M81.19,143.419h124.447c1.149,0,2.238,0.217,3.289,0.525l-51.974,51.974
			c-8.327-5.135-18.749-5.135-27.076,0l-51.974-51.974C78.952,143.636,80.041,143.419,81.19,143.419z M205.637,133.62h-21.971
			v-2.325c0-28.545,23.224-51.769,51.769-51.769c28.55,0,51.774,23.224,51.774,51.769v115.433h-63.49
			c2.271-3.452,3.519-7.52,3.519-11.804v-79.702C227.24,143.309,217.551,133.62,205.637,133.62z M164.895,201.831l51.47-51.47
			c0.677,1.487,1.077,3.124,1.077,4.861v79.702c0,2.372-0.757,4.589-2.04,6.496L164.895,201.831z M206.221,246.68
			c-1.731,0.085-124.231,0.067-125.615,0l52.87-41.444c5.847-4.593,14.028-4.593,19.875,0L206.221,246.68z M69.386,155.223
			c0-1.737,0.4-3.374,1.077-4.861l51.469,51.469l-50.51,39.593c-1.277-1.902-2.036-4.122-2.036-6.499V155.223z M292.109,256.527
			c2.708,0,4.899-2.191,4.899-4.899V131.295c0-33.947-27.621-61.568-61.573-61.568c-33.947,0-61.568,27.621-61.568,61.568v2.325
			H158.7v-0.469c0-42.559,33.774-77.812,75.29-78.577c42.669-0.642,78.185,33.366,78.185,76.721v140.399H28.411
			c-4.182,0-7.584-3.402-7.584-7.584s3.402-7.584,7.584-7.584C121.994,256.527,197.19,256.527,292.109,256.527z" style="fill:#3a4b81"/>
      <path d="M405.342,241.412c1.782,1.285,4.183,1.211,5.871-0.11c23.416-18.244,39.616-33.492,50.985-47.99
			c10.768-13.732,14.282-30.471,11.344-44.64c-4.839-23.262-29.971-36.61-52.544-27.732c-5.22,2.057-9.497,5.201-12.789,9.392
			c-6.282-8.761-14.78-13.253-25.358-13.383c-12.727-0.167-25.038,6.588-32.516,18.052c-10.009,15.349-9.689,33.234,0.957,53.157
			C362.616,209.389,385.617,227.233,405.342,241.412z M358.544,140.357c5.569-8.541,14.478-13.607,23.875-13.607
			c10.405,0,16.975,6.047,21.344,15.397c0.823,1.756,2.679,2.899,4.555,2.823c1.947-0.048,3.679-1.239,4.416-3.038
			c2.378-5.785,6.253-9.67,11.851-11.871c16.863-6.623,35.748,3.217,39.358,20.602c2.385,11.513-0.56,25.255-9.459,36.602
			c-10.392,13.258-25.186,27.306-46.396,44.037c-17.295-12.67-38.042-28.832-48.157-47.755
			C350.974,166.777,350.52,152.653,358.544,140.357z" style="fill:#3a4b81"/>
    </g>
  </g>
</svg>
