<svg xmlns="http://www.w3.org/2000/svg" xml:space="preserve" style="enable-background:new 0 0 512 512" viewBox="0 0 512 512">
  <g id="_x32_5_Love_Delivery_Truck">
    <g>
      <path d="M331.186,113.122v277.708H53.477c-23.443,0-42.447-19.004-42.447-42.447V113.122
			c0-23.443,19.004-42.447,42.447-42.447h235.261C312.182,70.675,331.186,89.68,331.186,113.122z" style="fill:#9a88fb"/>
      <path d="M500.973,265.27v97.818c0,15.328-12.415,27.743-27.743,27.743H331.186V132.265h62.792
			c36.135,0,68.618,22.01,82.004,55.579l19.49,48.851c2.058,5.156,3.56,10.519,4.439,15.975
			C500.627,256.832,500.973,261.039,500.973,265.27z" style="fill:#fff"/>
      <path d="M500.972,356.966v6.124c0,15.335-12.396,27.731-27.731,27.731H331.207V132.278h38.314
			c-9.358,20.235-14.551,42.723-14.551,66.436C354.969,282.054,419.25,350.45,500.972,356.966z" style="fill:#e7e6fd"/>
      <path d="M499.91,252.67h-98.812c-17.161,0-31.072-13.912-31.072-31.072v-89.333h23.952
			c36.135,0,68.618,22.01,82.004,55.579l19.49,48.851C497.529,241.85,499.031,247.214,499.91,252.67z" style="fill:#fbecb3"/>
      <path d="M500.973,287.072v53.267h-12.901c-13.109,0-23.72-10.612-23.72-23.72v-5.826
			c0-13.109,10.612-23.72,23.72-23.72H500.973z" style="fill:#9a88fb"/>
      <path d="M69.14,154.475l-0.179,35.985c-6.097,7.974-3.135,20.687,6.734,28.598l30.94,24.801l20.255-63.45
			l-4.579-6.86c-4.159-6.232-9.238-11.983-15.034-17.024l-3.54-3.079c-9.372-8.152-16.805-18.103-21.54-28.838l-2.062-4.675
			l-9.008,11.238c-8.074,10.073-4.382,26.446,8.248,36.57l12.242,9.814" style="fill:#fbecb3"/>
      <path d="m85.896 205.043-11.434-9.165c-12.948-10.379-16.734-27.166-8.456-37.493l3.134-3.91c3.311 7.618 11.797 15.328 22.477 23.078M273.076 154.475l.179 35.985c6.097 7.974 3.135 20.687-6.734 28.598l-30.94 24.801-20.255-63.45 4.579-6.86c4.159-6.232 9.238-11.983 15.034-17.024l3.54-3.079c9.372-8.152 16.805-18.103 21.54-28.838l2.062-4.675 9.008 11.238c8.074 10.073 4.382 26.446-8.248 36.57l-12.242 9.814" style="fill:#fbecb3"/>
      <path d="M256.32,205.043l11.434-9.165c12.948-10.379,16.734-27.166,8.456-37.493l-3.134-3.91
			c-3.311,7.618-11.797,15.328-22.477,23.078" style="fill:#fbecb3"/>
      <path d="M172.515,195.268c-6.888-14.724-17.142-21.494-30.195-21.652
			c-13.68-0.166-26.219,7.35-33.694,18.807c-11.479,17.595-9.495,36.869,1.389,57.253c5.966,11.174,14.09,21.027,23.379,29.639
			c11.567,10.724,24.676,21.268,39.122,31.656c23.537-18.335,44.586-36.901,59.585-56.028c8.65-11.032,13.647-24.642,13.396-38.658
			c-0.061-3.395-0.413-6.594-1.039-9.61c-5.066-24.397-31.42-37.85-54.606-28.723C182.077,181.012,176.106,186.521,172.515,195.268z
			" style="fill:#fff"/>
      <path d="M201.141,287.151c-8.933,8.04-18.536,15.931-28.66,23.821
			c-14.442-10.421-27.543-20.918-39.082-31.637c-9.305-8.635-17.419-18.461-23.375-29.627c-10.869-20.397-12.879-39.677-1.414-57.32
			c4.541-6.923,11.017-12.432,18.461-15.632C140.472,220.527,166.601,258.789,201.141,287.151z" style="fill:#e7e6fd"/>
      <circle cx="410.055" cy="390.831" r="50.492" style="fill:#fbecb3" transform="rotate(-45.001 410.053 390.837)"/>
      <path d="M410.055 415.973c-13.864 0-25.143-11.278-25.143-25.142s11.279-25.144 25.143-25.144 25.144 11.28 25.144 25.144S423.919 415.973 410.055 415.973zM144.755 415.974c-13.864 0-25.143-11.278-25.143-25.142 0-13.864 11.279-25.144 25.143-25.144s25.144 11.28 25.144 25.144C169.899 404.696 158.619 415.974 144.755 415.974z" style="fill:#fff"/>
      <circle cx="144.756" cy="390.831" r="50.492" style="fill:#fbecb3" transform="rotate(-45.001 144.752 390.834)"/>
      <path d="M144.755,415.974c-13.864,0-25.143-11.278-25.143-25.142c0-13.864,11.279-25.144,25.143-25.144
			s25.144,11.28,25.144,25.144C169.899,404.696,158.619,415.974,144.755,415.974z" style="fill:#fff"/>
      <path d="M53.478,395.729H89.61c2.492,28.255,26.252,50.494,55.143,50.494s52.656-22.24,55.148-50.494
			c61.072,0,100.729,0,155.01,0c2.492,28.255,26.252,50.494,55.143,50.494c28.891,0,52.652-22.24,55.143-50.494h8.033
			c18,0,32.641-14.643,32.641-32.641c0-20.23,0,12.653,0-97.819c0-10.18-1.94-20.587-5.852-30.392l-19.488-48.851
			c-14.21-35.636-48.186-58.662-86.553-58.662c-20.89,0-38.478,0-57.894,0v-14.244c0-26.107-21.239-47.346-47.344-47.346H53.478
			c-26.11,0-47.348,21.239-47.348,47.346v235.261C6.129,374.491,27.368,395.729,53.478,395.729z M410.054,436.425
			c-25.138,0-45.592-20.454-45.592-45.595c0-25.141,20.454-45.592,45.592-45.592s45.592,20.452,45.592,45.592
			C455.647,415.971,435.193,436.425,410.054,436.425z M496.072,335.439h-8c-10.378,0-18.818-8.442-18.818-18.82v-5.828
			c0-10.378,8.44-18.82,18.818-18.82h8V335.439z M374.926,137.165c4.156,1.022,71.497-10.215,96.505,52.494l19.488,48.851
			c1.047,2.626,1.923,5.308,2.908,9.261h-92.729c-14.43,0-26.172-11.741-26.172-26.172V137.165z M336.085,137.165h29.043v84.434
			c0,19.835,16.138,35.971,35.971,35.971H495.6c0.786,7.132,0.334,8.742,0.472,24.602h-8c-15.78,0-28.617,12.839-28.617,28.619
			v5.828c0,15.78,12.837,28.619,28.617,28.619h8v17.851c0,12.595-10.249,22.842-22.842,22.842h-8.033
			c-2.492-28.253-26.252-50.492-55.143-50.492s-52.651,22.239-55.143,50.492h-18.827V137.165z M144.753,436.425
			c-25.138,0-45.592-20.454-45.592-45.595c0-25.141,20.454-45.592,45.592-45.592c25.143,0,45.597,20.452,45.597,45.592
			C190.351,415.971,169.896,436.425,144.753,436.425z M15.928,113.122c0-20.703,16.847-37.547,37.55-37.547h235.263
			c20.703,0,37.545,16.844,37.545,37.547c0,78.351,0,191.103,0,272.808H199.901c-2.492-28.253-26.257-50.492-55.148-50.492
			s-52.651,22.239-55.143,50.492H53.478c-20.703,0-37.55-16.844-37.55-37.547V113.122z" style="fill:#3a4b81"/>
      <path d="M390.557 291.971h25.521c2.708 0 4.899-2.194 4.899-4.899s-2.191-4.899-4.899-4.899h-25.521c-2.708 0-4.899 2.194-4.899 4.899S387.849 291.971 390.557 291.971zM63.151 190.79c-5.001 10.035-1.336 23.422 9.484 32.091l30.85 24.731c13.093 27.558 41.177 49.365 66.167 67.339.856.615 1.861.921 2.861.921 1.062 0 2.129-.347 3.01-1.033 27.755-21.619 46.961-39.691 60.434-56.872 3.765-4.802 6.814-10.017 9.146-15.464l24.48-19.621c10.818-8.67 14.483-22.053 9.482-32.087 7.892-11.523 8.743-25.775.968-35.474l-1.446-1.804c2.927-8.989 1.936-18.411-3.673-25.411l-9.009-11.239c-1.072-1.335-2.77-2.01-4.459-1.794-1.699.222-3.158 1.316-3.847 2.883-1.318 2.352-5.87 17.473-22.335 31.794-1.872 1.804-11.091 8.574-19.435 21.081l-.418.627c-15.404-3.61-33.369.718-42.925 13.813-7.679-11.304-18.123-16.555-30.617-16.555-5.18 0-10.235 1.011-15.01 2.823-.496-.649-5.792-9.512-16.368-18.71-2.621-2.724-15.212-10.689-23.808-30.196l-2.062-4.677c-.689-1.567-2.148-2.66-3.847-2.883-1.732-.215-3.387.459-4.459 1.794l-9.009 11.239c-5.042 6.292-7.046 15.083-3.672 25.407l-1.452 1.807C54.41 165.016 55.261 179.266 63.151 190.79zM241.694 157.141c9.124-7.93 16.536-17.528 21.574-27.894l4 4.988c3.813 4.758 4.139 11.44 1.536 17.844-2.151 3.8-2.967 6.212-9.986 12.608-7.632 6.216-10.453 8.124-11.829 9.696-1.987 2.272-1.482 5.119.464 6.801 1.911 1.646 4.636 1.339 6.021.334 9.33-6.768 15.894-12.749 20.095-18.358 4.899 8.301 1.22 20.801-8.88 28.894l-11.435 9.167c-2.11 1.694-2.45 4.777-.756 6.887 1.692 2.115 4.783 2.447 6.89.758 3.506-2.823 9.651-7.71 12.041-9.7.438 5.354-2.431 11.629-7.969 16.068l-13.749 11.019c.489-3.336.744-6.696.683-10.052-.311-18.204-9.014-33.4-25.399-41.343C232.32 164.391 239.633 159.11 241.694 157.141zM141.873 178.513c12.697 0 20.804 7.284 26.2 18.83.828 1.763 2.584 3.005 4.555 2.823 1.947-.045 3.679-1.237 4.416-3.036 7.287-17.724 29.49-21.232 45.124-12.784 10.939 5.912 18.16 16.742 18.425 32.028.225 12.478-4.158 25.102-12.349 35.545-12.502 15.942-30.296 32.813-55.846 52.92-20.831-15.213-45.923-34.729-58.066-57.468-10.808-20.256-11.335-37.353-1.603-52.269C119.519 184.693 130.39 178.513 141.873 178.513zM68.645 163.157c5.028 6.718 13.234 13.402 20.095 18.361 1.713 1.24 4.031 1.357 6-.317 1.555-1.331 2.631-5.314-.058-7.472-6.463-5.8-19.666-13.134-22.416-25.373-1.225-5.421-.268-10.438 2.684-14.122l4-4.988c9.015 18.575 23.802 29.63 25.11 30.973 5.416 4.711 10.134 10.046 14.036 15.856-5.248 3.483-9.914 8.056-13.577 13.672-7.928 12.157-10.283 25.702-7.101 40.445l-18.66-14.957c-5.539-4.44-8.41-10.716-7.971-16.07 2.426 2.021 7.596 6.122 12.043 9.702 2.106 1.688 5.197 1.357 6.89-.758 1.694-2.11 1.354-5.194-.761-6.887l-11.435-9.167C67.425 183.958 63.745 171.454 68.645 163.157zM410.054 360.787c-16.564 0-30.042 13.476-30.042 30.042 0 16.567 13.478 30.043 30.042 30.043 16.564 0 30.043-13.476 30.043-30.043C440.097 374.263 426.619 360.787 410.054 360.787zM410.054 411.074c-11.162 0-20.244-9.081-20.244-20.244 0-11.162 9.081-20.244 20.244-20.244 11.162 0 20.244 9.081 20.244 20.244C430.298 401.992 421.217 411.074 410.054 411.074zM144.753 360.787c-16.564 0-30.042 13.478-30.042 30.045 0 16.564 13.478 30.04 30.042 30.04 16.569 0 30.047-13.476 30.047-30.04C174.801 374.266 161.322 360.787 144.753 360.787zM144.753 411.074c-11.162 0-20.244-9.081-20.244-20.241 0-11.165 9.081-20.246 20.244-20.246 11.167 0 20.248 9.081 20.248 20.246C165.002 401.992 155.921 411.074 144.753 411.074z" style="fill:#3a4b81"/>
    </g>
  </g>
</svg>
