<svg xmlns="http://www.w3.org/2000/svg" xml:space="preserve" style="enable-background:new 0 0 512 512" viewBox="0 0 512 512">
  <g id="_x34_6_Love_Lock">
    <g>
      <path d="M138.395,221.748V133.15c0-46.186,37.574-83.762,83.76-83.762s83.762,37.576,83.762,83.762v88.597
			h38.37V133.15c0-67.342-54.788-122.132-122.132-122.132c-67.342,0-122.13,54.79-122.13,122.132v88.597H138.395z" style="fill:#9a88fb"/>
      <path d="M220.557,228.583c-16.187-34.604-40.287-50.513-70.963-50.885
			c-32.149-0.39-61.62,17.273-79.187,44.2c-26.977,41.351-22.314,86.647,3.264,134.553c14.022,26.261,33.113,49.417,54.944,69.656
			c19.909,18.457,41.759,36.688,65.365,54.713c15.532,11.86,37.188,11.519,52.353-0.806
			c44.833-36.435,84.584-73.342,114.257-111.185c20.33-25.926,32.072-57.912,31.482-90.853c-0.143-7.98-0.971-15.5-2.443-22.59
			c-11.908-57.333-73.837-88.946-128.326-67.501C243.034,195.075,228.997,208.023,220.557,228.583z" style="fill:#fff"/>
      <path d="M287.834,444.52c-13.238,11.915-27.102,23.69-41.505,35.414
			c-15.179,12.356-36.859,12.743-52.412,0.862c-23.595-18.025-45.426-36.194-65.285-54.645
			c-21.868-20.293-40.938-43.387-54.934-69.629c-25.543-47.936-30.267-93.247-3.324-134.71
			c10.672-16.27,25.892-29.216,43.387-36.739C145.252,287.943,206.658,377.865,287.834,444.52z" style="fill:#e7e6fd"/>
      <path d="M94.127,386.771c-7.085-15.145-17.632-22.108-31.058-22.271
			c-14.07-0.171-26.969,7.56-34.657,19.345c-11.807,18.098-9.766,37.922,1.429,58.889c6.137,11.493,14.492,21.628,24.047,30.486
			c8.713,8.078,18.277,16.057,28.608,23.946c6.798,5.191,16.276,5.041,22.913-0.353c19.622-15.946,37.019-32.099,50.006-48.662
			c8.898-11.347,14.037-25.346,13.779-39.763c-0.063-3.492-0.425-6.784-1.069-9.887c-5.212-25.093-32.316-38.929-56.164-29.543
			C103.964,372.106,97.821,377.772,94.127,386.771z" style="fill:#fbecb3"/>
      <path d="M375.131,318.539c-7.085-15.145-17.632-22.108-31.058-22.271
			c-14.07-0.171-26.969,7.56-34.657,19.345c-11.807,18.098-9.766,37.922,1.429,58.889c6.137,11.493,14.492,21.628,24.047,30.486
			c8.713,8.078,18.277,16.057,28.608,23.946c6.798,5.191,16.276,5.041,22.913-0.353c19.622-15.946,37.019-32.099,50.006-48.662
			c8.898-11.347,14.037-25.346,13.779-39.763c-0.063-3.492-0.425-6.784-1.069-9.887c-5.212-25.093-32.316-38.929-56.164-29.543
			C384.968,303.874,378.825,309.541,375.131,318.539z" style="fill:#9a88fb"/>
      <path d="M425.592,57.692c-6.219-13.294-15.477-19.405-27.261-19.548c-12.35-0.15-23.672,6.636-30.421,16.98
			c-10.363,15.885-8.572,33.287,1.254,51.69c5.387,10.088,12.721,18.984,21.107,26.759c7.648,7.091,16.042,14.094,25.111,21.019
			c5.967,4.556,14.286,4.425,20.112-0.31c17.223-13.997,32.494-28.175,43.893-42.713c7.81-9.96,12.321-22.248,12.094-34.902
			c-0.055-3.065-0.373-5.955-0.939-8.678c-4.575-22.025-28.366-34.17-49.298-25.932C434.227,44.819,428.835,49.793,425.592,57.692z" style="fill:#fff"/>
      <path d="M451.438,140.647c-5.086,4.577-10.412,9.101-15.945,13.605c-5.831,4.747-14.16,4.895-20.135,0.331
			c-9.064-6.924-17.451-13.905-25.08-20.993c-8.401-7.796-15.727-16.668-21.104-26.749c-9.813-18.415-11.627-35.822-1.277-51.751
			c4.1-6.25,9.947-11.224,16.668-14.114C396.663,80.496,420.253,115.04,451.438,140.647z" style="fill:#e7e6fd"/>
      <path d="M243.372,343.784l0.102,1.055l5.224,46.679c0.59,5.274-3.538,9.89-8.845,9.89h-34.828
			c-5.307,0-9.435-4.616-8.845-9.89l5.224-46.679l0.102-1.055c-9.878-6.769-16.286-18.2-16.095-31.091
			c0.289-19.546,16.526-35.966,36.067-36.46c20.895-0.529,37.993,16.245,37.993,37.02
			C259.472,325.914,253.107,337.113,243.372,343.784z" style="fill:#fbecb3"/>
      <path d="M396.108 294.532c1.282-12.09 1.458-25.025-1.682-40.142-5.515-26.549-21.898-49.452-45.238-63.541v-57.701c0-70.047-56.987-127.031-127.031-127.031S95.125 63.102 95.125 133.148v56.484c-11.128 7.615-20.988 17.582-28.82 29.586-23.761 36.422-28.516 82.117 3.975 141.15-18.083-3.459-35.841 5.265-45.972 20.799-12.005 18.402-11.598 39.889 1.211 63.874 11.925 22.339 31.804 39.063 54.001 56.018 8.57 6.547 20.491 6.457 28.976-.445 19.908-16.176 35.262-30.808 46.8-44.57 11.352 9.552 23.217 19.129 35.711 28.671 17.502 13.367 41.522 12.827 58.418-.9 32.768-26.631 60.045-51.382 82.553-74.858 8.552 7.899 18.145 15.927 28.548 23.869 8.625 6.588 20.539 6.412 28.978-.44 22.268-18.1 38.875-34.272 50.772-49.444 12.921-16.482 17.193-36.589 13.65-53.669C448.548 303.401 421.937 287.508 396.108 294.532zM104.924 133.148c0-64.64 52.59-117.232 117.232-117.232s117.232 52.592 117.232 117.232v52.5c-9.147-4.236-18.773-7.027-28.571-8.399v-44.101c0-48.884-39.774-88.659-88.661-88.659s-88.661 39.774-88.661 88.659v40.905c-9.948 1.646-19.571 4.925-28.571 9.665V133.148zM301.018 133.148v43.209c-13.992-.585-28.121 1.699-41.509 6.968-17.184 6.765-30.301 18.253-39.102 34.224-17.984-32.071-44.461-46.427-77.113-44.615v-39.786c0-43.482 35.377-78.86 78.862-78.86S301.018 89.666 301.018 133.148zM151.557 445.128c-11.438 14.593-27.545 30.253-49.241 47.884-4.902 3.981-11.83 4.091-16.849.258-20.325-15.518-40.211-32.073-51.305-52.841-11.151-20.885-11.689-38.516-1.648-53.908 14.113-21.63 44.458-24.849 57.176 2.325.825 1.766 2.634 2.804 4.555 2.823 1.945-.048 3.677-1.239 4.416-3.038 3.019-7.363 7.957-12.306 15.093-15.115 21.249-8.362 45.025 4.104 49.573 25.98C166.274 413.713 162.732 430.882 151.557 445.128zM243.242 476.209c-13.469 10.947-32.502 11.249-46.289.718-12.482-9.535-24.282-19.098-35.608-28.635 11.232-15.88 14.94-34.583 11.575-50.785-5.784-27.861-35.876-43.675-62.755-33.109-6.679 2.632-12.057 6.761-16.071 12.33-2.421-3.591-5.163-6.56-8.158-9.027-29.382-46.594-41.303-97.331-11.426-143.128 18.014-27.609 46.641-42.384 75.022-41.975 29.846.364 51.626 16.086 66.587 48.061.823 1.766 2.643 2.823 4.555 2.823 1.945-.048 3.677-1.239 4.416-3.038 7.591-18.492 20.021-30.923 38.006-37.999 52.095-20.499 110.535 10.028 121.735 63.937 2.942 14.19 2.991 28.453.874 42.5-4.195 2.479-7.76 5.666-10.608 9.618-17.674-26.232-53.557-20.441-69.786 4.435-12.005 18.402-11.598 39.889 1.208 63.874 4.701 8.806 10.937 17.254 18.497 25.24C302.78 425.259 275.769 449.776 243.242 476.209zM432.561 376.895c-11.44 14.593-27.547 30.253-49.241 47.884-4.899 3.981-11.832 4.086-16.849.258-21.403-16.333-40.445-32.503-51.305-52.841-11.151-20.885-11.689-38.516-1.648-53.903 14.025-21.494 44.405-24.977 57.176 2.321.825 1.761 2.605 2.732 4.555 2.823 1.945-.048 3.677-1.239 4.416-3.038 3.021-7.363 7.959-12.306 15.093-15.11 21.187-8.345 45.014 4.043 49.573 25.976C447.315 345.683 443.617 362.801 432.561 376.895zM439.451 37.499c-5.698 2.244-10.337 5.708-13.868 10.344-15.629-22.281-47.137-17.849-61.776 4.603-10.665 16.349-10.316 35.416 1.036 56.674 10.505 19.674 27.935 34.378 47.566 49.367 7.766 5.932 18.537 5.807 26.177-.402 19.574-15.909 34.184-30.133 44.659-43.492 11.455-14.617 15.24-32.467 12.095-47.602C490.188 42.169 463.376 28.08 439.451 37.499zM475.532 108.546c-10.019 12.775-24.126 26.492-43.128 41.937-4.091 3.321-9.866 3.407-14.048.215-17.797-13.583-35.196-28.08-44.87-46.191-9.674-18.119-10.155-33.396-1.474-46.707 12.153-18.629 38.208-21.41 49.143 1.966.823 1.761 2.648 2.952 4.555 2.823 1.945-.048 3.677-1.239 4.416-3.038 2.586-6.301 6.808-10.531 12.914-12.933 18.161-7.17 38.766 3.4 42.707 22.363C488.319 81.392 485.162 96.264 475.532 108.546z" style="fill:#3a4b81"/>
      <path d="M264.37,313.255c0-24.001-19.945-42.644-43.016-41.923c-22.193,0.565-40.514,19.086-40.844,41.286
			c-0.191,13.086,5.677,25.373,15.827,33.44l-5.026,44.913c-0.438,3.899,0.811,7.813,3.426,10.732
			c2.615,2.928,6.364,4.603,10.287,4.603h34.829c3.923,0,7.672-1.675,10.287-4.603c2.615-2.919,3.864-6.832,3.426-10.732
			l-5.026-44.918C258.505,338.13,264.37,326.082,264.37,313.255z M240.601,339.742c-1.474,1.01-2.28,2.742-2.105,4.521l5.335,47.798
			c0.127,1.148-0.225,2.254-0.993,3.11c-0.77,0.861-1.83,1.335-2.983,1.335h-34.829c-1.153,0-2.213-0.474-2.983-1.335
			c-0.768-0.856-1.12-1.962-0.993-3.11l5.234-46.76l0.1-1.053c0.17-1.77-0.639-3.498-2.108-4.507
			c-8.904-6.1-14.124-16.186-13.966-26.98c0.251-17.009,14.289-31.2,31.294-31.631c17.676-0.604,32.968,13.762,32.968,32.124
			C254.572,323.843,249.349,333.747,240.601,339.742z" style="fill:#3a4b81"/>
    </g>
  </g>
</svg>
