<svg xmlns="http://www.w3.org/2000/svg" xml:space="preserve" style="enable-background:new 0 0 512 512" viewBox="0 0 512 512">
  <g id="_x33_8_Love_Jar">
    <g>
      <path d="M351.833,121.234c29.317,0,54.404,21.109,59.3,50.015c14.158,83.599,34.942,246.931-9.369,291.242
			c-51.536,51.536-239.997,51.536-291.533,0c-44.311-44.311-23.527-207.643-9.369-291.242c4.895-28.906,29.982-50.015,59.3-50.015
			H351.833z" style="fill:#fbecb3"/>
      <path d="M255.997,465.977c-61.692,0-107.806-13.837-121.473-27.505
			c-14.627-14.627-26.004-97.742,2.617-266.762c1.502-8.874,9.17-15.31,18.228-15.31h201.255c9.058,0,16.726,6.436,18.223,15.306
			c28.634,169.021,17.254,252.135,2.622,266.767C363.803,452.14,317.687,465.977,255.997,465.977z" style="fill:#fff"/>
      <path d="M377.753,438.149c-0.095,0.142-0.189,0.236-0.284,0.331c-13.66,13.66-59.791,27.509-121.472,27.509
			S148.185,452.14,134.525,438.48c-14.605-14.652-25.996-97.745,2.6-266.766c1.513-8.886,9.17-15.314,18.245-15.314h45.989
			c-5.199,19.001-7.941,38.947-7.941,59.554C193.418,326.555,272.824,418.628,377.753,438.149z" style="fill:#e7e6fd"/>
      <rect width="180.365" height="47.644" x="165.815" y="73.591" style="fill:#fff"/>
      <path d="M346.18,101.619v19.615H165.815V73.591h18.008c-0.378,1.607-0.567,3.356-0.567,5.105
			c0,6.57,2.694,12.525,6.995,16.826c4.301,4.348,10.257,6.995,16.826,6.995h132.721
			C342.021,102.517,344.148,102.233,346.18,101.619z" style="fill:#e7e6fd"/>
      <path d="M144.829 11.2h222.337c15.036 0 27.225 12.189 27.225 27.225v7.941c0 15.036-12.189 27.225-27.225 27.225H144.829c-15.036 0-27.225-12.189-27.225-27.225v-7.941C117.604 23.389 129.793 11.2 144.829 11.2zM198.485 217.851c-5.561-5.893-11.473-7.494-17.675-5.529-6.501 2.059-11.261 7.576-13.009 14.167-2.683 10.122 1.268 18.934 9.605 26.881 4.57 4.356 9.955 7.75 15.697 10.375 7.151 3.268 15.003 6.21 23.464 8.869 8.275-12.356 15.336-24.433 19.446-35.83 2.37-6.573 2.608-13.796.299-20.391-.559-1.597-1.226-3.056-1.994-4.386-6.21-10.755-20.786-13.004-30.334-5.061C200.784 209.609 198.818 213.15 198.485 217.851zM320.45 240.627c.11-9.189-3.449-15.155-10.057-18.442-6.925-3.445-15.156-2.698-21.777 1.3-10.167 6.14-13.891 16.441-13.356 29.494.293 7.155 2.009 14.168 4.624 20.835 3.256 8.302 7.341 16.891 12.145 25.729 16.489-3.555 31.767-7.838 44.103-13.893 7.115-3.492 13.002-9.195 16.317-16.394.803-1.743 1.409-3.459 1.831-5.149 3.413-13.667-6.702-26.991-20.749-28.039C328.822 235.716 324.428 237.054 320.45 240.627zM206.911 346.263c-.58-9.384-4.66-15.203-11.65-18.059-7.325-2.993-15.667-1.612-22.121 2.966-9.911 7.03-12.935 17.821-11.406 31.099.838 7.278 3.117 14.304 6.287 20.91 3.947 8.225 8.762 16.681 14.329 25.337 16.556-4.868 31.822-10.389 43.952-17.496 6.996-4.099 12.573-10.361 15.414-17.956.688-1.839 1.178-3.635 1.481-5.391 2.453-14.202-8.87-27.034-23.282-27.046C215.082 340.622 210.7 342.319 206.911 346.263zM303.891 358.398c-5.58-4.676-11.024-5.485-16.353-3.082-5.585 2.519-9.256 7.941-10.124 14.007-1.334 9.314 3.116 16.764 11.389 22.983 4.535 3.409 9.696 5.873 15.096 7.613 6.724 2.167 14.04 3.97 21.869 5.456 6.09-11.894 11.125-23.412 13.598-34.014 1.426-6.115.881-12.585-1.871-18.228-.667-1.367-1.414-2.599-2.239-3.705-6.67-8.948-19.913-9.427-27.601-1.337C305.078 350.802 303.695 354.168 303.891 358.398z" style="fill:#9a88fb"/>
      <path d="M160.162,116.335c-31.851,0-58.822,22.751-64.13,54.095
			c-15.404,90.955-34.492,250.301,10.734,295.525c52.998,52.993,245.466,52.995,298.461,0
			c45.238-45.234,26.143-204.575,10.737-295.525c-5.311-31.344-32.277-54.095-64.128-54.095h-0.756V78.489h16.086
			c17.713,0,32.124-14.411,32.124-32.124v-7.942c0-17.713-14.411-32.124-32.124-32.124H144.83
			c-17.715,0-32.126,14.411-32.126,32.124v7.942c0,17.713,14.411,32.124,32.126,32.124h16.086v37.846H160.162z M144.83,68.69
			c-12.311,0-22.327-10.014-22.327-22.325v-7.942c0-12.311,10.017-22.325,22.327-22.325h222.335
			c12.311,0,22.325,10.014,22.325,22.325v7.942c0,12.311-10.014,22.325-22.325,22.325C320.011,68.69,193.519,68.69,144.83,68.69z
			 M341.281,78.489v37.846H170.715V78.489H341.281z M351.836,126.134c27.052,0,49.956,19.315,54.463,45.932
			c12.153,71.726,35.693,243.263-8,286.961c-49.205,49.205-235.393,49.205-284.605,0c-43.686-43.683-20.148-215.235-8.002-286.961
			c4.507-26.617,27.416-45.932,54.47-45.932C193.45,126.134,302.935,126.134,351.836,126.134z" style="fill:#3a4b81"/>
      <path d="M132.311,170.894c-27.093,159.992-19.641,252.655-1.251,271.043
			c38.429,38.422,211.331,38.532,249.876,0c18.392-18.392,25.846-111.06-1.254-271.043c-1.899-11.239-11.593-19.392-23.057-19.392
			H155.368C143.909,151.502,134.213,159.66,132.311,170.894z M370.017,172.526c28.124,166.006,17.373,249.101,3.99,262.483
			c-34.392,34.379-201.516,34.497-236.019,0c-13.378-13.378-24.129-96.472,3.983-262.478c1.103-6.507,6.737-11.229,13.397-11.229
			h201.257C363.29,161.301,368.922,166.019,370.017,172.526z" style="fill:#3a4b81"/>
      <path d="M215.097 277.289c2.012.637 4.299-.098 5.541-1.947 9.875-14.746 16.225-26.473 19.985-36.899 3.676-10.202 2.549-20.911-2.062-28.885-3.612-6.258-9.808-10.584-16.99-11.866-11.251-1.973-21.736 3.851-25.787 11.727-6.249-3.622-12.162-3.124-16.452-1.766-7.93 2.507-14.012 9.081-16.268 17.583-2.981 11.249.708 21.904 10.962 31.679C184.631 267.023 201.13 272.899 215.097 277.289zM172.538 227.749c1.388-5.244 5.033-9.263 9.753-10.756 3.975-1.266 8.065-.614 12.631 4.22 1.337 1.416 3.378 1.914 5.21 1.249 1.83-.651 3.103-2.325 3.239-4.268.571-8.027 9.227-12.176 16.476-10.851 4.397.785 8.029 3.311 10.229 7.119 3.116 5.363 4.066 13.064 1.33 20.66-3.225 8.938-8.617 19.071-16.875 31.688-11.29-3.738-25.092-8.736-33.746-16.985C173.107 242.505 170.485 235.486 172.538 227.749zM287.722 301.882c1.062 1.955 3.283 2.907 5.34 2.45 19.631-4.234 34.004-8.77 45.229-14.287 10.888-5.341 18.253-14.802 20.746-24.751 4.116-16.525-7.966-32.828-25.143-34.114-3.359-.268-6.502.191-9.454 1.301-2.067-8.1-7.297-12.411-11.866-14.684-8.244-4.105-18.148-3.541-26.488 1.493-11.076 6.689-16.368 18.091-15.722 33.889C271.049 269.686 279.839 287.377 287.722 301.882zM291.148 227.682c5.259-3.177 11.653-3.803 17.062-1.11 3.206 1.593 7.45 4.78 7.34 13.995-.024 1.943 1.105 3.718 2.876 4.521 1.761.804 3.847.483 5.297-.818 2.828-2.536 5.856-3.584 9.44-3.321 10.985.824 19.062 11.197 16.363 21.971-1.75 7.097-7.246 14.25-15.55 18.33-9.813 4.818-22.392 8.88-39.377 12.708-6.446-12.235-13.865-27.364-14.445-41.181C279.655 240.486 283.148 232.51 291.148 227.682zM178.229 411.167c1.214 1.889 3.515 2.651 5.502 2.048 19.696-5.794 34.011-11.502 45.049-17.971 10.747-6.3 17.459-16.481 19.244-26.741 2.966-17.16-10.62-32.765-28.105-32.775-.01 0-.019 0-.024 0-3.454 0-6.66.699-9.593 2.081-2.694-8.153-8.354-12.167-13.189-14.143-8.682-3.55-18.703-2.239-26.808 3.507-10.763 7.636-15.284 19.631-13.44 35.655C158.786 379.521 169.048 396.897 178.229 411.167zM175.973 335.164c5.185-3.671 11.726-4.763 17.435-2.426 3.416 1.397 8.029 4.349 8.612 13.827.12 1.943 1.376 3.627 3.201 4.297 1.823.679 3.876.196 5.225-1.206 2.703-2.818 5.708-4.129 9.45-4.129.005 0 .01 0 .014 0 11.333.01 20.409 10.042 18.459 21.301-1.322 7.59-6.419 15.201-14.545 19.961-9.674 5.67-22.234 10.775-39.325 15.971-7.506-12.006-16.284-26.996-17.897-41.052C165.157 349.163 168.136 340.728 175.973 335.164zM339.185 346.498c-8.531-11.443-25.372-12.002-35.081-1.785-1.665 1.751-2.933 3.684-3.789 5.785-5.914-2.397-11.105-1.311-14.794.354-6.971 3.143-11.813 9.789-12.961 17.78-1.502 10.54 2.971 19.823 13.301 27.593 10.614 7.966 25.888 11.474 38.994 13.966 2.172.407 4.297-.672 5.277-2.584 7.282-14.239 11.737-25.401 14.005-35.133C346.387 362.816 344.218 353.257 339.185 346.498zM334.597 370.244c-1.914 8.196-5.598 17.67-11.526 29.602-10.345-2.145-22.885-5.117-31.325-11.454-7.459-5.612-10.473-11.45-9.483-18.373.665-4.651 3.392-8.478 7.287-10.234 3.297-1.5 6.749-1.355 11.191 2.368 1.502 1.258 3.584 1.498 5.32.636 1.746-.866 2.813-2.675 2.722-4.617-.124-2.708.641-4.837 2.421-6.708 5.549-5.828 15.221-5.689 20.124.89C334.628 356.794 336.197 363.369 334.597 370.244z" style="fill:#3a4b81"/>
    </g>
  </g>
</svg>
