<svg xmlns="http://www.w3.org/2000/svg" xml:space="preserve" style="enable-background:new 0 0 512 512" viewBox="0 0 512 512">
  <g id="_x33_6_Love_Book">
    <g>
      <path d="M453.397,26.034v359.013H130.781V11.031h307.613C446.68,11.031,453.397,17.748,453.397,26.034z" style="fill:#fff"/>
      <path d="M453.409,348.359v36.679h-322.65V11.028h74.618c-5.136,20.883-7.849,42.687-7.849,65.121
			C197.527,221.121,310.618,339.686,453.409,348.359z" style="fill:#e7e6fd"/>
      <path d="M88.907,386.941c-6.969,1.413-13.547,4.595-18.594,9.605c-0.036,0.035-0.071,0.071-0.107,0.106
			c-7.169,7.169-11.604,17.073-11.604,28.039V50.401c0-21.744,17.627-39.37,39.37-39.37h32.808v374.017h-28.643
			c-2.589,0-5.171,0.259-7.707,0.773L88.907,386.941z" style="fill:#9a88fb"/>
      <path d="M453.397,385.047v64.284c0,8.286-6.717,15.004-15.004,15.004H98.246
			c-8.688,0-16.708-2.795-23.209-7.504c-9.964-7.2-16.435-18.895-16.435-32.14c0-10.966,4.435-20.87,11.604-28.039
			c3.554-3.554,7.746-6.41,12.455-8.445c4.769-2.035,10.055-3.159,15.584-3.159H453.397z" style="fill:#fbecb3"/>
      <path d="M453.397,409.654v30.075H103.714c-8.305,0-15.037-6.732-15.037-15.037v0
			c0-8.305,6.732-15.037,15.037-15.037H453.397z" style="fill:#fff"/>
      <path d="M453.409,424.673v15.069H103.722c-8.334,0-15.069-6.735-15.069-15.069
			c0-2.713,0.727-5.281,2.035-7.51c2.568,4.506,7.462,7.51,13.034,7.51H453.409z" style="fill:#e7e6fd"/>
      <path d="M291.199,83.542c-9.009-19.259-22.422-28.114-39.495-28.321
			c-17.893-0.217-34.295,9.613-44.072,24.6c-15.014,23.014-12.419,48.225,1.817,74.887c7.804,14.616,18.429,27.503,30.579,38.768
			c15.13,14.027,32.276,27.819,51.172,41.406c30.786-23.982,58.319-48.266,77.937-73.285c11.315-14.429,17.85-32.231,17.522-50.565
			c-0.079-4.44-0.54-8.625-1.359-12.57c-6.626-31.911-41.097-49.508-71.424-37.57C303.707,64.894,295.896,72.1,291.199,83.542z" style="fill:#fbecb3"/>
      <path d="M403.083,283.417v41.372c0,9.304-7.542,16.846-16.846,16.846H197.941
			c-9.304,0-16.846-7.542-16.846-16.846v-41.372c0-9.304,7.542-16.846,16.846-16.846h188.296
			C395.541,266.571,403.083,274.113,403.083,283.417z" style="fill:#9a88fb"/>
      <polygon points="239.049 409.654 239.049 500.971 196.944 476.668 154.84 500.971 154.84 409.654" style="fill:#9a88fb"/>
      <path d="M288.338 238.859c.856.617 1.859.923 2.861.923 1.065 0 2.127-.344 3.012-1.033 36.217-28.22 61.252-51.774 78.781-74.128 16.247-20.722 21.512-45.945 17.103-67.157-7.186-34.619-44.595-54.273-78.018-41.133-8.873 3.498-15.89 9.143-20.949 16.837-9.217-14.598-22.397-22.851-40.006-22.851-18.858 0-36.612 9.99-47.592 26.822-14.981 22.961-14.442 49.836 1.596 79.874C222.561 189.661 258.27 217.24 288.338 238.859zM211.734 82.499c9.163-14.048 23.856-22.382 39.389-22.382 17.401 0 28.381 9.99 35.638 25.502.823 1.761 2.643 2.751 4.555 2.823 1.945-.048 3.677-1.239 4.416-3.038 3.986-9.713 10.507-16.239 19.935-19.952 27.706-10.911 58.868 5.29 64.834 34.004 3.849 18.545-.833 40.769-15.222 59.118-16.557 21.119-40.181 43.473-74.195 70.18-27.827-20.249-61.175-46.133-77.314-76.353C199.342 125.378 198.677 102.513 211.734 82.499zM386.238 261.672H197.94c-11.99 0-21.744 9.756-21.744 21.746v41.368c0 11.99 9.753 21.746 21.744 21.746h188.298c11.99 0 21.746-9.756 21.746-21.746v-41.368C407.984 271.428 398.228 261.672 386.238 261.672zM398.185 324.786c0 6.588-5.359 11.947-11.947 11.947H197.94c-6.586 0-11.945-5.359-11.945-11.947v-41.368c0-6.588 5.359-11.947 11.945-11.947h188.298c6.588 0 11.947 5.359 11.947 11.947V324.786z" style="fill:#3a4b81"/>
      <path d="M152.391,505.213c1.514,0.871,3.38,0.871,4.899,0l39.655-22.89l39.655,22.89
			c1.521,0.874,3.376,0.874,4.899,0c1.517-0.876,2.45-2.493,2.45-4.244v-31.736h194.446c10.973,0,19.902-8.928,19.902-19.904
			c0-140.471,0-282.009,0-423.293c0-10.976-8.928-19.904-19.902-19.904c-60.312,0-299.51,0-340.422,0
			c-24.411,0-44.269,19.856-44.269,44.267v374.294c0,24.412,19.782,44.54,44.542,44.54h51.695v31.736
			C149.941,502.72,150.874,504.337,152.391,505.213z M149.941,434.827h-46.226c-5.591,0-10.139-4.545-10.139-10.134
			c0-5.588,4.548-10.139,10.139-10.139h46.226V434.827z M234.15,492.486l-34.755-20.062c-0.758-0.435-1.605-0.655-2.45-0.655
			s-1.691,0.22-2.45,0.655l-34.755,20.062v-77.932h74.41V492.486z M448.498,449.329c0,5.574-4.531,10.105-10.103,10.105H243.949
			v-14.808h204.549V449.329z M448.498,434.827H243.949v-20.272h204.549V434.827z M135.681,15.93h302.714
			c5.572,0,10.103,4.531,10.103,10.105v354.113H135.681V15.93z M63.502,50.399c0-19.004,15.464-34.468,34.471-34.468h27.909v364.218
			c-0.547,0-28.564,0-27.636,0c-13.229,0-25.884,5.748-34.626,16.514c-0.037,0.045-0.081,0.086-0.118,0.132V50.399z M98.246,459.434
			c-19.315,0-34.743-15.701-34.743-34.741c0-18.947,15.253-34.746,34.743-34.746c70.054,0,280.227,0,350.252,0v14.808
			c-74.336,0-270.351,0-344.783,0c-10.993,0-19.937,8.942-19.937,19.937c0,10.99,8.945,19.933,19.937,19.933h46.226v14.808H98.246z" style="fill:#3a4b81"/>
    </g>
  </g>
</svg>
