<svg xmlns="http://www.w3.org/2000/svg" xml:space="preserve" style="enable-background:new 0 0 512 512" viewBox="0 0 512 512">
  <g id="_x31_3_Love_Song">
    <g>
      <g>
        <path d="M470.622,308.204h-44.917v-53.726c0-93.124-75.764-168.887-168.889-168.887
				S87.927,161.354,87.927,254.478v53.726H43.01v-53.726c0-117.892,95.913-213.804,213.806-213.804s213.806,95.912,213.806,213.804
				V308.204z" style="fill:#9987fa"/>
      </g>
      <g>
        <path d="M151.842,130.508c6.869,0,13.654-1.878,19.381-5.672c24.562-16.274,53.986-25.769,85.593-25.769
				s61.031,9.495,85.593,25.769c5.727,3.794,12.511,5.672,19.381,5.672h0c35.47,0,49.635-46.177,20.05-65.743
				c-35.887-23.734-78.869-37.566-125.023-37.566S167.68,41.03,131.792,64.765C102.208,84.331,116.372,130.508,151.842,130.508
				L151.842,130.508z" style="fill:#fff"/>
      </g>
      <g>
        <path d="M397.861,94.068c0,6.018-1.492,11.988-4.228,17.31c-2.636-4.775-6.516-9.102-11.789-12.585
				c-35.913-23.726-78.889-37.554-125.049-37.554c-46.11,0-89.136,13.828-124.999,37.554c-5.273,3.482-9.153,7.81-11.789,12.585
				c-7.809-15.072-5.322-35.316,11.789-46.607c35.863-23.727,78.889-37.555,124.999-37.555c46.16,0,89.136,13.828,125.049,37.555
				C392.937,72.083,397.861,83.125,397.861,94.068z" style="fill:#e6e5fc"/>
      </g>
      <g>
        <path d="M484.264,398.846h-75.462v-79.368c0-12.428,10.075-22.504,22.504-22.504h30.454
				c12.428,0,22.504,10.075,22.504,22.504V398.846z" style="fill:#fff"/>
      </g>
      <g>
        <path d="M484.262,319.296c-6.019-4.029-13.231-6.417-21.041-6.417c-20.842,0-37.704,16.912-37.704,37.754
				v48.199h-16.713v-79.337c0-12.435,10.098-22.533,22.483-22.533h30.491C474.114,296.962,484.162,306.96,484.262,319.296z" style="fill:#e6e5fc"/>
      </g>
      <g>
        <path d="M452.731,374.726v48.241h28.062c11.145,0,20.179-9.034,20.179-20.179v-7.883
				c0-11.145-9.034-20.179-20.179-20.179H452.731z" style="fill:#9a88fb"/>
      </g>
      <g>
        <path d="M390.476,322.307v153.077h8.22c32.373,0,58.617-26.244,58.617-58.617v-35.844
				c0-32.373-26.244-58.617-58.617-58.617H390.476z" style="fill:#fbecb3"/>
      </g>
      <g>
        <path d="M27.738,398.846h75.462v-79.368c0-12.428-10.075-22.504-22.504-22.504H50.241
				c-12.428,0-22.504,10.075-22.504,22.504V398.846z" style="fill:#fff"/>
      </g>
      <g>
        <path d="M103.195,319.296c-6.019-4.029-13.281-6.417-21.041-6.417c-10.396,0-19.847,4.228-26.661,11.042
				c-6.815,6.865-11.043,16.265-11.043,26.712v48.199H27.737v-79.337c0-12.435,10.098-22.533,22.483-22.533h30.491
				C93.097,296.962,103.095,306.96,103.195,319.296z" style="fill:#e6e5fc"/>
      </g>
      <g>
        <path d="M59.27,374.726v48.241H31.208c-11.145,0-20.179-9.034-20.179-20.179v-7.883
				c0-11.145,9.034-20.179,20.179-20.179H59.27z" style="fill:#9a88fb"/>
      </g>
      <g>
        <path d="M121.525,322.307v153.077h-8.22c-32.373,0-58.617-26.244-58.617-58.617v-35.844
				c0-32.373,26.244-58.617,58.617-58.617H121.525z" style="fill:#fbecb3"/>
      </g>
      <g>
        <path d="M161.248,464.956V332.736c0-10.969-8.892-19.861-19.861-19.861h0
				c-10.969,0-19.861,8.892-19.861,19.861v132.221c0,10.969,8.892,19.861,19.861,19.861h0
				C152.355,484.817,161.248,475.925,161.248,464.956z" style="fill:#fff"/>
      </g>
      <g>
        <path d="M151.358,482.895c-2.919,1.244-6.313,1.94-9.979,1.94c-10.929,0-19.822-6.516-19.822-14.574
				V327.404c0-4.029,2.24-7.611,5.838-10.246c3.598-2.636,8.485-4.278,13.984-4.278c3.666,0,7.06,0.696,9.979,1.94
				c-1.493,0.647-2.919,1.443-4.141,2.338c-3.598,2.636-5.838,6.267-5.838,10.296V470.26
				C141.38,475.682,145.385,480.408,151.358,482.895z" style="fill:#e6e5fc"/>
      </g>
      <g>
        <path d="M390.476,464.956V332.736c0-10.969-8.892-19.861-19.861-19.861h0
				c-10.969,0-19.861,8.892-19.861,19.861v132.221c0,10.969,8.892,19.861,19.861,19.861h0
				C381.584,484.817,390.476,475.925,390.476,464.956z" style="fill:#fff"/>
      </g>
      <g>
        <path d="M380.587,482.895c-2.919,1.244-6.313,1.94-9.979,1.94c-10.929,0-19.822-6.516-19.822-14.574
				V327.404c0-4.029,2.24-7.611,5.838-10.246c3.598-2.636,8.485-4.278,13.984-4.278c3.666,0,7.06,0.696,9.979,1.94
				c-1.493,0.647-2.919,1.443-4.141,2.338c-3.598,2.636-5.838,6.267-5.838,10.296V470.26
				C370.608,475.682,374.613,480.408,380.587,482.895z" style="fill:#e6e5fc"/>
      </g>
      <g>
        <polygon points="329.812 154.386 329.812 198.438 213.629 236.536 213.629 192.485" style="fill:#9987fa"/>
      </g>
      <g>
        <path d="M306.2,299.159c-2.316-4.952-5.765-7.228-10.155-7.281c-4.6-0.056-8.818,2.472-11.331,6.325
				c-3.86,5.917-3.193,12.399,0.467,19.254c2.006,3.758,4.738,7.071,7.862,9.968c3.89,3.607,8.298,7.152,13.157,10.646
				c7.915-6.166,14.994-12.41,20.038-18.842c2.909-3.71,4.589-8.287,4.505-13.001c-0.02-1.142-0.139-2.218-0.349-3.232
				c-1.704-8.205-10.566-12.729-18.364-9.66C309.416,294.364,307.407,296.217,306.2,299.159z" style="fill:#fbecb3"/>
      </g>
      <g>
        <path d="M190.235,281.702c-2.316-4.952-5.765-7.228-10.155-7.281c-4.6-0.056-8.818,2.472-11.331,6.325
				c-3.86,5.917-3.193,12.399,0.467,19.254c2.006,3.758,4.738,7.071,7.862,9.968c3.89,3.607,8.298,7.152,13.157,10.646
				c7.915-6.166,14.994-12.41,20.038-18.842c2.909-3.71,4.589-8.287,4.505-13.001c-0.02-1.142-0.139-2.218-0.349-3.232
				c-1.704-8.205-10.566-12.729-18.364-9.66C193.451,276.907,191.443,278.76,190.235,281.702z" style="fill:#fbecb3"/>
      </g>
      <path d="M489.162,371.37v-51.892c0-10.091-5.498-18.904-13.641-23.66v-41.342
			c0-64.583-28.225-122.615-72.892-162.672c-0.694-12.408-7.038-23.818-18.088-31.126c-77.402-51.193-178.039-51.194-255.452,0
			c-11.013,7.283-17.343,18.642-18.073,31c-44.699,40.071-72.907,98.184-72.907,162.798v40.466
			c-9.033,4.486-15.272,13.784-15.272,24.535v51.893c-9.703,3.465-16.708,12.656-16.708,23.534v7.883
			c0,13.827,11.251,25.078,25.078,25.078h19.616c5.272,29.741,31.249,52.418,62.481,52.418h8.22c0.173,0,0.318-0.081,0.487-0.098
			c4.538,5.759,11.491,9.531,19.374,9.531c13.653,0,24.76-11.107,24.76-24.76v-132.22c0-13.653-11.107-24.76-24.76-24.76
			c-7.884,0-14.837,3.773-19.374,9.531c-0.168-0.017-0.314-0.098-0.487-0.098c-8.145,0.085-8.093-0.183-13.517,0.269
			c-0.654-9.98-6.659-18.502-15.181-22.734v-40.466c0-47.171,20.07-89.699,52.06-119.643c10.445,1.704,20.775-0.439,29.041-5.915
			c50.229-33.281,115.535-33.29,165.772,0c8.259,5.471,18.595,7.621,29.046,5.915c32,29.931,52.058,72.468,52.058,119.642v39.698
			c-9.382,3.91-16.113,12.892-16.808,23.502c-4.891-0.407-12.7-0.306-14.008-0.17c-4.538-5.758-11.49-9.531-19.375-9.531
			c-13.655,0-24.76,11.107-24.76,24.76v132.22c0,13.653,11.105,24.76,24.76,24.76c7.885,0,14.837-3.773,19.375-9.531
			c1.644,0.17,5.382,0.067,8.706,0.098c31.231,0,57.209-22.677,62.481-52.418h19.618c13.827,0,25.076-11.251,25.076-25.078v-7.883
			C505.87,384.026,498.865,374.835,489.162,371.37z M31.209,418.067c-8.426,0-15.28-6.854-15.28-15.28v-7.883
			c0-8.426,6.854-15.28,15.28-15.28h18.647c-0.09,4.378-0.103,33.415,0,38.442H31.209z M141.386,317.775
			c8.249,0,14.961,6.713,14.961,14.961v132.22c0,8.249-6.713,14.961-14.961,14.961s-14.961-6.713-14.961-14.961v-132.22
			C126.425,324.487,133.138,317.775,141.386,317.775z M116.626,327.207c0,52.278,0,88.851,0,143.277h-3.321
			c-29.619,0-53.717-24.098-53.717-53.717v-35.844c0-29.619,24.098-53.717,53.717-53.717H116.626z M98.281,319.279
			c-24.252,5.915-43.059,25.743-47.456,50.547H32.637v-50.348c0-9.708,7.897-17.605,17.605-17.605h30.454
			C90.336,301.873,98.171,309.665,98.281,319.279z M83.028,254.477v37.715c-2.058-0.175-33.065-0.175-35.119,0v-37.715
			c0-59.087,24.711-112.465,64.282-150.496c3.253,13.312,11.511,22.567,22.064,27.5C102.656,162.964,83.028,206.453,83.028,254.477z
			 M345.117,120.752c-53.518-35.461-123.078-35.463-176.6,0c-15.392,10.195-39.914,4.393-46.454-17.354
			c-3.045-10.129-1.617-25.256,12.433-34.547c74.123-49.019,170.513-49.029,244.639,0c14.052,9.292,15.478,24.418,12.435,34.547
			C385.107,124.892,360.706,131.082,345.117,120.752z M379.383,131.479c10.467-4.894,18.774-14.102,22.048-27.446
			c39.569,38.015,64.292,91.362,64.292,150.444v37.917c-3.616-0.528-34.609-0.297-35.119-0.284v-37.633
			C430.603,206.451,410.986,162.955,379.383,131.479z M431.306,301.873h30.454c9.708,0,17.603,7.897,17.603,17.605v50.348h-18.187
			c-4.397-24.802-23.202-44.63-47.452-50.546C413.833,309.665,421.666,301.873,431.306,301.873z M370.614,479.917
			c-8.249,0-14.961-6.713-14.961-14.961v-132.22c0-8.249,6.713-14.961,14.961-14.961c8.249,0,14.961,6.713,14.961,14.961v132.22
			C385.575,473.205,378.862,479.917,370.614,479.917z M452.411,416.768c0,29.619-24.095,53.717-53.717,53.717h-3.32v-5.529v-132.22
			v-5.529h3.32c29.621,0,53.717,24.098,53.717,53.717V416.768z M496.071,402.787c0,8.426-6.852,15.28-15.277,15.28h-18.649
			c0.1-4.859,0.097-33.727,0-38.442h18.649c8.426,0,15.277,6.854,15.277,15.28V402.787z" style="fill:#3a4b81"/>
      <path d="M334.71,154.385c0-1.531-0.908-3.16-2.024-3.969c-1.222-0.881-3.256-1.06-4.402-0.687l-116.18,38.1
			c-0.843,0.276-2.108,1.149-2.771,2.427c-0.316,0.605-0.602,1.297-0.602,2.229c0,29.107,0,49.66,0,79.247
			c-6.611-2.942-13.797-1.777-18.354,1.792c-3.352-3.124-7.179-3.966-10.234-4.002c-6.239,0.093-11.957,3.12-15.5,8.545
			c-4.629,7.103-4.545,15.258,0.249,24.241c4.794,8.971,14.178,16.311,22.48,22.282c1.767,1.268,4.154,1.223,5.871-0.112
			c9.55-7.438,16.186-13.694,20.885-19.684c3.675-4.691,5.646-10.411,5.55-16.105c-0.063-3.726-0.792-5.254-1.148-6.293v-42.31
			l106.348-34.876l-0.055,84.03c-4.607-2.096-9.828-2.333-14.586-0.466c-1.445,0.569-2.746,1.304-3.895,2.206
			c-3.349-3.124-7.182-3.966-10.234-4.002c-6.12,0.069-11.957,3.122-15.497,8.548c-4.632,7.098-4.55,15.253,0.249,24.241
			c4.799,8.97,14.138,16.28,22.478,22.279c0.856,0.615,1.861,0.921,2.861,0.921c1.062,0,2.124-0.347,3.01-1.033
			c9.545-7.433,16.182-13.686,20.885-19.684c3.675-4.689,5.646-10.409,5.55-16.105c-0.064-3.823-0.835-5.316-1.028-5.922
			C334.629,278.584,334.705,163.018,334.71,154.385z M206.416,298.746c-3.718,4.746-8.94,9.784-16.289,15.703
			c-6-4.532-13.066-10.159-16.588-16.756c-4.031-7.552-2.323-11.763-0.687-14.272c2.875-4.404,7.66-4.24,7.17-4.1
			c1.835,0.022,3.957,0.569,5.775,4.457c0.823,1.761,2.51,2.904,4.555,2.821c1.943-0.045,3.675-1.237,4.414-3.036
			c1.656-4.021,6.948-4.653,10.627-2.672c2.799,1.514,4.421,4.132,4.488,7.964C209.942,292.309,208.708,295.823,206.416,298.746z
			 M218.531,229.774v-33.739l106.376-34.885l-0.022,33.746L218.531,229.774z M322.38,316.203
			c-3.722,4.751-8.942,9.787-16.287,15.703c-6.007-4.529-13.054-10.151-16.593-16.756c-4.029-7.552-2.321-11.761-0.679-14.272
			c2.897-4.441,7.658-4.237,7.167-4.1c1.833,0.022,3.952,0.569,5.77,4.457c0.823,1.761,2.694,3.01,4.555,2.821
			c1.943-0.045,3.675-1.234,4.416-3.031c0.651-1.579,1.603-2.543,3.096-3.129c5.185-2.039,11.889,0.979,12.019,8.416
			C325.907,309.768,324.677,313.279,322.38,316.203z" style="fill:#3a4b81"/>
    </g>
  </g>
</svg>
