<svg xmlns="http://www.w3.org/2000/svg" xml:space="preserve" style="enable-background:new 0 0 512 512" viewBox="0 0 512 512">
  <g id="_x33_7_Love_Call">
    <g>
      <path d="M301.976,491.21C164.06,452.081,55.393,343.413,16.264,205.497
			C-0.925,145.165,26.834,92.234,58.859,93.928c14.397-0.078,28.802-0.149,43.199-0.227
			c0.894,171.76,139.955,310.821,311.715,311.715c-0.078,14.397-0.149,28.802-0.227,43.199
			C415.239,480.639,362.309,508.398,301.976,491.21z" style="fill:#9a88fb"/>
      <path d="M188.534,257.149c-8.837,6.422-17.675,12.86-26.504,19.29
			c-37.412-51.323-59.619-114.447-59.972-182.738c10.931-0.063,21.854-0.118,32.777-0.173c19.306,0.471,34.636,18.89,38.337,39.921
			c4.25,25.046,12.296,48.805,23.517,70.66C206.051,222.552,203.824,245.355,188.534,257.149z" style="fill:#fff"/>
      <path d="M188.516,257.16c-8.804,6.412-17.66,12.825-26.464,19.288c-1.578-2.188-3.155-4.377-4.682-6.616
			c0.203-0.153,0.407-0.305,0.611-0.458c15.319-11.807,17.558-34.607,8.194-53.029c-11.247-21.883-19.288-45.65-23.512-70.689
			c-3.715-21.018-19.034-39.441-38.372-39.899h-1.934c-0.204-3.969-0.305-8.041-0.305-12.061
			c10.942-0.051,21.883-0.102,32.774-0.153c19.339,0.458,34.657,18.881,38.372,39.899c4.224,25.039,12.265,48.806,23.512,70.689
			C206.074,222.553,203.834,245.353,188.516,257.16z" style="fill:#e7e6fd"/>
      <path d="M413.773,405.416c-68.292-0.353-131.416-22.56-182.738-59.972
			c6.43-8.83,12.868-17.667,19.29-26.504c11.794-15.291,34.597-17.518,53.04-8.155c21.854,11.221,45.614,19.267,70.66,23.517
			c21.031,3.701,39.451,19.031,39.921,38.337C413.89,383.562,413.835,394.485,413.773,405.416z" style="fill:#fff"/>
      <path d="M413.967,372.634c-0.102,10.942-0.153,21.833-0.203,32.774c-3.308,0-6.616-0.102-9.924-0.203
			c0-1.985,0.051-4.02,0.051-6.005c-0.509-19.288-18.932-34.607-39.95-38.322c-25.039-4.275-48.805-12.316-70.638-23.512
			c-18.474-9.364-41.273-7.176-53.029,8.143c-1.018,1.425-2.086,2.85-3.155,4.275c-2.035-1.425-4.071-2.85-6.107-4.326
			c6.463-8.855,12.876-17.66,19.339-26.515c11.756-15.319,34.556-17.507,53.029-8.143c21.833,11.196,45.599,19.237,70.638,23.512
			C395.036,338.027,413.458,353.346,413.967,372.634z" style="fill:#e7e6fd"/>
      <path d="M500.674,142.061c-3.997,59.625-53.11,107.507-112.813,110.099
			c-26.242,1.139-50.657-6.266-70.775-19.651l-44.007,11.418c-8.802,2.284-16.471-6.396-13.121-14.85l16.75-42.264
			c-9.191-18.248-13.719-39.233-12.192-61.327c4.058-58.687,51.853-106.079,110.569-109.704
			C446.557,11.37,505.47,70.513,500.674,142.061z" style="fill:#fbecb3"/>
      <path d="M383.057,91.904c-7.012-14.99-17.452-21.882-30.741-22.043
			c-13.927-0.169-26.693,7.482-34.303,19.147c-11.686,17.913-9.667,37.535,1.414,58.288c6.074,11.376,14.344,21.407,23.801,30.175
			c11.776,10.918,25.122,21.653,39.829,32.228c23.962-18.666,45.392-37.568,60.661-57.041c8.807-11.231,13.893-25.087,13.638-39.357
			c-0.062-3.456-0.42-6.713-1.058-9.784c-5.158-24.838-31.988-38.534-55.593-29.242C392.793,77.389,386.713,82.998,383.057,91.904z" style="fill:#fff"/>
      <path d="M412.201,185.447c-9.094,8.185-18.871,16.218-29.178,24.252
			c-14.703-10.61-28.041-21.296-39.788-32.209c-9.473-8.791-17.734-18.795-23.797-30.163c-11.065-20.765-13.111-40.394-1.44-58.356
			c4.623-7.048,11.216-12.656,18.795-15.915C350.435,117.618,377.036,156.572,412.201,185.447z" style="fill:#e7e6fd"/>
      <path d="M374.845,329.471c-24.15-4.1-47.446-11.851-69.262-23.052
			c-21.569-10.961-46.439-6.942-59.224,9.641l-16.152,22.193c-23.038-17.404-43.584-37.949-60.988-60.988l22.194-16.157
			c0.038-0.024,0.074-0.053,0.11-0.081c16.473-12.698,20.483-37.569,9.524-59.157c-11.194-21.803-18.947-45.1-23.05-69.267
			c-4.395-24.98-22.497-43.473-43.188-43.975c-103.729,0.557-67.953,0.365-75.692,0.407c-12.325-0.589-24.452,5.622-34.057,17.674
			C6.247,130.307,0.945,169.608,11.55,206.832c39.408,138.911,150.181,249.679,289.083,289.09
			c40.592,11.569,78.763,3.528,100.132-13.507c12.05-9.607,18.325-21.703,17.679-33.77c0.041-7.817-0.147,28.198,0.397-76.128
			C418.344,351.973,399.852,333.873,374.845,329.471z M134.716,98.427c15.641,0.378,30.1,15.799,33.626,35.841
			c4.265,25.133,12.337,49.382,23.978,72.061c8.806,17.344,5.976,37.057-6.727,46.899l-22.106,16.087
			c-35.002-49.498-55.055-108.029-56.379-170.74L134.716,98.427z M408.653,448.875c0.481,9.11-4.488,18.301-13.995,25.88
			c-16.103,12.837-49.676,23.622-91.34,11.741c-0.002,0-0.002,0-0.005,0C167.65,448.009,59.466,339.82,20.976,204.153
			c-11.868-41.655-1.091-75.233,11.744-91.333c7.239-9.081,15.947-14.024,24.901-14.024c13.761,0,26.672-0.115,39.6-0.172
			c3.496,170.814,141.59,308.168,311.626,311.63L408.653,448.875z M408.9,400.368c-62.446-1.317-121.072-21.256-170.746-56.383
			l16.05-22.054c9.828-12.746,29.574-15.598,46.925-6.785c22.686,11.646,46.937,19.717,72.046,23.985
			c20.071,3.526,35.492,17.985,35.87,33.483L408.9,400.368z" style="fill:#3a4b81"/>
      <path d="M374.783,10.893c-61.408,3.794-110.914,52.913-115.156,114.251
			c-1.483,21.483,2.567,42.827,11.727,61.884l-15.952,40.243c-2.232,5.636-1.127,11.957,2.888,16.502
			c4.009,4.541,10.153,6.416,16.019,4.895l41.913-10.871c21.955,14.052,46.923,20.36,71.853,19.258
			c61.752-2.684,113.359-53.052,117.486-114.668C510.558,67.872,449.033,6.254,374.783,10.893z M495.785,141.738
			c-3.801,56.707-51.3,103.06-108.137,105.529c-24.277,1-47.741-5.459-67.85-18.837c-1.165-0.77-2.594-1.011-3.943-0.66
			l-44.006,11.416c-2.311,0.603-4.634-0.115-6.218-1.899c-1.581-1.789-2-4.187-1.12-6.407l16.751-42.262
			c0.514-1.301,0.45-2.756-0.179-4.009c-9.057-17.981-13.095-38.31-11.682-58.784c3.904-56.453,49.466-101.658,105.984-105.151
			C444.283,16.479,500.355,73.509,495.785,141.738z" style="fill:#3a4b81"/>
      <path d="M398.911,69.715c-6.596,2.598-11.911,6.67-15.885,12.162
			c-7.608-11.257-18.103-16.923-31.164-16.923c-15.045,0-29.203,7.962-37.951,21.378c-11.892,18.225-11.49,39.516,1.194,63.272
			c13.654,25.572,41.542,47.14,65.094,64.071c0.854,0.617,1.856,0.923,2.859,0.923c1.065,0,2.127-0.344,3.012-1.033
			c28.251-22.009,47.796-40.401,61.506-57.884c12.879-16.427,17.01-36.421,13.519-53.157
			C455.349,74.856,425.484,59.258,398.911,69.715z M439.863,149.632c-12.737,16.244-30.873,33.435-56.92,53.932
			c-21.313-15.555-46.822-35.412-59.193-58.573c-11.026-20.655-11.56-38.09-1.634-53.31c6.931-10.622,18.026-16.928,29.748-16.928
			c12.917,0,21.221,7.394,26.755,19.229c0.823,1.756,2.694,2.876,4.555,2.823c1.945-0.048,3.677-1.239,4.416-3.038
			c2.983-7.277,7.861-12.158,14.909-14.933c20.999-8.273,44.511,4.059,49.001,25.684
			C454.396,118.383,450.991,135.443,439.863,149.632z" style="fill:#3a4b81"/>
    </g>
  </g>
</svg>
