<svg xmlns="http://www.w3.org/2000/svg" xml:space="preserve" style="enable-background:new 0 0 512 512" viewBox="0 0 512 512">
  <g id="_x34_2_Message_Bottle">
    <g>
      <path d="M369.064,306.415v126.521c0,37.576-30.461,68.038-68.038,68.038h-90.052
			c-37.576,0-68.038-30.461-68.038-68.038V306.415c0-35.381,12.735-69.581,35.876-96.345l0,0
			c23.141-26.764,35.876-60.964,35.876-96.345V92.023h82.623v21.702c0,35.381,12.735,69.581,35.876,96.345l0,0
			C356.33,236.834,369.064,271.033,369.064,306.415z" style="fill:#fff"/>
      <path d="M343.58,485.981c-11.661,9.358-26.506,14.993-42.576,14.993h-90.052
			c-37.53,0-68.004-30.474-68.004-68.053V306.417c0-35.374,12.738-69.572,35.864-96.323v-0.049
			c23.125-26.751,35.864-60.949,35.864-96.323V92.018h82.653v21.704c0,5.194,0.294,10.387,0.833,15.482
			c-54.531,35.667-90.541,97.254-90.541,167.316C207.621,384.563,264.503,459.328,343.58,485.981z" style="fill:#e7e6fd"/>
      <path d="M330.419,206.717c-21.368-26.241-33.107-59.064-33.107-92.993V92.023h-82.623v21.701
			c0,33.929-11.738,66.752-33.107,92.993H330.419z" style="fill:#9a88fb"/>
      <path d="M313.071,277.287h-114.14c12.251,45.412,11.858,93.376-1.201,138.619
			c-6.964,19.492,17.397,34.604,58.271,34.604c40.874,0,65.236-15.112,58.271-34.604
			C301.213,370.663,300.82,322.699,313.071,277.287z" style="fill:#fbecb3"/>
      <path d="M299.773,55.695h-87.544c-7.071,0-12.804,5.733-12.804,12.804v10.72
			c0,7.071,5.733,12.804,12.804,12.804h87.544c7.071,0,12.804-5.733,12.804-12.804v-10.72
			C312.577,61.428,306.844,55.695,299.773,55.695z" style="fill:#fff"/>
      <path d="M312.566,77.907v1.323c0,7.055-5.732,12.788-12.787,12.788h-87.553
			c-7.055,0-12.788-5.733-12.788-12.788V68.501c0-7.055,5.733-12.787,12.788-12.787h0.196c0.343,5.977,2.891,11.366,6.859,15.286
			c4.262,4.262,10.142,6.908,16.609,6.908H312.566z" style="fill:#e7e6fd"/>
      <path d="M229.662,11.03h52.677c6.379,0,11.011,6.068,9.329,12.221L282.8,55.695h-53.598l-8.868-32.444
			C218.652,17.098,223.283,11.03,229.662,11.03z" style="fill:#9a88fb"/>
      <ellipse cx="256.001" cy="277.85" rx="56.919" ry="14.6" style="fill:#fff"/>
      <path d="M312.909,277.853c0,8.084-25.477,14.6-56.931,14.6c-31.406,0-56.882-6.516-56.882-14.6
			c0-3.184,3.969-6.124,10.779-8.574c7.006,6.026,28.76,10.387,54.482,10.387c19.01,0,35.815-2.401,46.153-6.026
			C312.077,274.962,312.909,276.383,312.909,277.853z" style="fill:#e7e6fd"/>
      <path d="M207.7,137.899c-0.006,0.033-0.01,0.068-0.016,0.102c-4.583,26.301-16.377,50.129-32.576,68.861
			c-23.906,27.65-37.071,63.004-37.071,99.553v126.519c0,40.219,32.719,72.936,72.939,72.936h90.051
			c40.217,0,72.936-32.717,72.936-72.936V306.415c0-36.55-13.165-71.903-37.069-99.553c-28.292-32.728-32.757-69.467-32.596-68.977
			c-2.703-15.589-1.974-25.569-2.087-41.21c8.6-1.201,15.265-8.531,15.265-17.457V68.501c0-9.761-7.942-17.703-17.703-17.703
			h-10.554l7.176-26.253c1.206-4.421,0.304-9.048-2.476-12.689s-7-5.727-11.581-5.727h-52.676c-4.579,0-8.799,2.086-11.579,5.727
			c-2.78,3.641-3.682,8.268-2.476,12.689l7.176,26.253h-10.554c-9.761,0-17.703,7.942-17.703,17.703v10.717
			c0,8.925,6.663,16.254,15.263,17.457C209.675,112.479,210.421,122.214,207.7,137.899z M364.164,306.415v126.519
			c0,34.813-28.322,63.138-63.138,63.138h-90.051c-34.815,0-63.14-28.325-63.14-63.138V306.415c0-36.167,12.72-67.03,36.051-94.797
			h144.228C351.476,239.421,364.164,270.293,364.164,306.415z M225.87,17.804c0.911-1.191,2.292-1.876,3.792-1.876h52.676
			c1.5,0,2.883,0.684,3.794,1.876c0.909,1.191,1.206,2.708,0.809,4.158l-7.88,28.837h-46.119l-7.88-28.837
			C224.664,20.512,224.961,18.995,225.87,17.804z M204.325,79.219V68.501c0-4.359,3.545-7.904,7.904-7.904h87.544
			c4.359,0,7.904,3.545,7.904,7.904v10.717c0,4.359-3.545,7.904-7.904,7.904c-8.14,0-76.311,0-87.544,0
			C207.871,87.123,204.325,83.577,204.325,79.219z M217.645,137.724c2.524-15.693,1.835-25.27,1.943-40.802h72.824
			c0.108,15.47-0.578,25.176,1.942,40.795c3.683,23.051,12.607,45.001,26.167,64.102H191.482
			C205.038,182.72,213.962,160.772,217.645,137.724z" style="fill:#3a4b81"/>
      <path d="M316.134,435.317c4.462-6.33,5.414-13.612,2.847-20.77c-12.931-44.8-13.052-91.991-1.182-135.983
			c4.313-16.011-42.84-20.215-61.798-20.215c-18.312,0-66.137,4.116-61.8,20.215c11.607,43.018,12.026,90.232-1.086,135.691
			c-2.66,7.45-1.708,14.732,2.754,21.062C214.881,462.302,297.114,462.312,316.134,435.317z M256.001,268.148
			c30.696,0,49.324,6.057,51.887,9.703c-2.567,3.641-21.196,9.698-51.887,9.698s-49.322-6.057-51.889-9.698
			C206.674,274.205,225.303,268.148,256.001,268.148z M299.852,358.998h-87.691c1.244-22.913-0.492-45.942-5.243-68.537
			c13.372,5.201,34.441,6.887,49.083,6.887c14.639,0,35.705-1.685,49.077-6.885C300.333,313.04,298.592,336.056,299.852,358.998z
			 M202.438,417.265c4.589-15.901,7.622-32.129,9.125-48.468h88.9c1.518,16.41,4.566,32.733,9.195,48.76
			c1.586,4.435,1.084,8.402-1.533,12.115c-15.033,21.335-89.214,21.335-104.247,0C201.261,425.958,200.758,421.992,202.438,417.265z
			" style="fill:#3a4b81"/>
    </g>
  </g>
</svg>
