<svg xmlns="http://www.w3.org/2000/svg" xml:space="preserve" style="enable-background:new 0 0 512 512" viewBox="0 0 512 512">
  <g id="_x31_5_Photo_Album">
    <g>
      <g>
        <path d="M461.166,42.482v389.897H127.025c-18.945,0-34.296,15.352-34.296,34.296V60.022
				c0-27.059,21.935-48.994,48.994-48.994h287.988C447.083,11.028,461.166,25.11,461.166,42.482z" style="fill:#fff"/>
      </g>
      <g>
        <path d="M461.165,404.452v27.927H127.025c-18.961,0-34.296,15.335-34.296,34.296V60.022
				c0-27.045,21.949-48.994,48.994-48.994h108.914c-17.344,36.158-26.996,76.578-26.996,119.301
				C223.641,269.865,326.872,385.344,461.165,404.452z" style="fill:#e7e6fd"/>
      </g>
      <g>
        <path d="M167.2,11.028h-25.477c-27.059,0-48.994,21.935-48.994,48.994v406.653
				c0-18.945,15.352-34.296,34.296-34.296H167.2V11.028z" style="fill:#9a88fb"/>
      </g>
      <g>
        <path d="M461.166,432.379v37.138c0,17.372-14.083,31.454-31.454,31.454H127.025
				c-4.573,0-8.941-0.898-12.943-2.531c-4.287-1.715-8.125-4.328-11.309-7.513c-6.745-6.745-10.692-16.287-9.956-26.738
				c1.28-18.162,17.27-31.81,35.477-31.81L461.166,432.379z" style="fill:#fbecb3"/>
      </g>
      <g>
        <path d="M134.619,161.195L134.619,161.195c0,10.147-8.226,18.373-18.373,18.373H69.211
				c-10.147,0-18.373-8.226-18.373-18.373v0c0-10.147,8.226-18.373,18.373-18.373h47.035
				C126.393,142.823,134.619,151.048,134.619,161.195z" style="fill:#fff"/>
      </g>
      <g>
        <path d="M134.619,231.747L134.619,231.747c0,10.147-8.226,18.373-18.373,18.373H69.211
				c-10.147,0-18.373-8.226-18.373-18.373v0c0-10.147,8.226-18.373,18.373-18.373h47.035
				C126.393,213.374,134.619,221.6,134.619,231.747z" style="fill:#fff"/>
      </g>
      <g>
        <path d="M134.619,302.299L134.619,302.299c0,10.147-8.226,18.373-18.373,18.373H69.211
				c-10.147,0-18.373-8.226-18.373-18.373v0c0-10.147,8.226-18.373,18.373-18.373h47.035
				C126.393,283.926,134.619,292.152,134.619,302.299z" style="fill:#fff"/>
      </g>
      <g>
        <path d="M134.619,372.851L134.619,372.851c0,10.147-8.226,18.373-18.373,18.373H69.211
				c-10.147,0-18.373-8.226-18.373-18.373v0c0-10.147,8.226-18.373,18.373-18.373h47.035
				C126.393,354.478,134.619,362.704,134.619,372.851z" style="fill:#fff"/>
      </g>
      <g>
        <path d="M134.619,161.196c0,10.142-8.231,18.373-18.373,18.373H69.211
				c-10.142,0-18.373-8.231-18.373-18.373c0-2.842,0.637-5.536,1.813-7.937c2.989,6.173,9.26,10.436,16.56,10.436h47.035
				c7.3,0,13.572-4.262,16.56-10.436C133.982,155.659,134.619,158.354,134.619,161.196z" style="fill:#e7e6fd"/>
      </g>
      <g>
        <path d="M134.619,231.747c0,10.142-8.231,18.373-18.373,18.373H69.211
				c-10.142,0-18.373-8.231-18.373-18.373c0-2.842,0.637-5.536,1.813-7.937c2.989,6.173,9.26,10.436,16.56,10.436h47.035
				c7.3,0,13.572-4.262,16.56-10.436C133.982,226.211,134.619,228.905,134.619,231.747z" style="fill:#e7e6fd"/>
      </g>
      <g>
        <path d="M134.619,302.299c0,10.142-8.231,18.373-18.373,18.373H69.211
				c-10.142,0-18.373-8.231-18.373-18.373c0-2.842,0.637-5.536,1.813-7.937c2.989,6.173,9.26,10.436,16.56,10.436h47.035
				c7.3,0,13.572-4.262,16.56-10.436C133.982,296.763,134.619,299.457,134.619,302.299z" style="fill:#e7e6fd"/>
      </g>
      <g>
        <path d="M134.619,372.851c0,10.142-8.231,18.373-18.373,18.373H69.211
				c-10.142,0-18.373-8.231-18.373-18.373c0-2.841,0.637-5.536,1.813-7.937c2.989,6.173,9.26,10.436,16.56,10.436h47.035
				c7.3,0,13.572-4.262,16.56-10.436C133.982,367.314,134.619,370.009,134.619,372.851z" style="fill:#e7e6fd"/>
      </g>
      <g>
        <path d="M134.619,90.644L134.619,90.644c0,10.147-8.226,18.373-18.373,18.373H69.211
				c-10.147,0-18.373-8.226-18.373-18.373v0c0-10.147,8.226-18.373,18.373-18.373h47.035
				C126.393,72.271,134.619,80.497,134.619,90.644z" style="fill:#fff"/>
      </g>
      <g>
        <path d="M407.752,107.338v108.818c0,12.617-10.251,22.867-22.868,22.867H233.485
				c-12.617,0-22.868-10.251-22.868-22.867V107.338c0-12.617,10.251-22.868,22.868-22.868h151.399
				C397.501,84.47,407.752,94.721,407.752,107.338z" style="fill:#9a88fb"/>
      </g>
      <g>
        <path d="M338.01,221.676l-17.348,17.348h-87.177c-12.629,0-22.868-10.238-22.868-22.868v-4.819
				l45.297-45.297c7.307-7.307,19.153-7.307,26.46,0l32.126,32.126L338.01,221.676z" style="fill:#fff"/>
      </g>
      <g>
        <path d="M292.968,176.629c-30.621,9.897-55.952,31.454-70.895,59.381
				c-6.859-3.969-11.464-11.367-11.464-19.843v-4.85l45.32-45.271c7.3-7.3,19.157-7.3,26.457,0L292.968,176.629z" style="fill:#e7e6fd"/>
      </g>
      <g>
        <path d="M336.988,124.508c0,11.781-9.57,21.351-21.351,21.351c-11.806,0-21.376-9.57-21.376-21.351
				c0-11.806,9.57-21.376,21.376-21.376C327.418,103.132,336.988,112.703,336.988,124.508z" style="fill:#fff"/>
      </g>
      <g>
        <path d="M333.144,136.698c-3.871,5.536-10.24,9.162-17.491,9.162c-11.808,0-21.41-9.554-21.41-21.362
				c0-6.712,3.135-12.738,7.986-16.609C305.658,122.784,317.857,134.297,333.144,136.698z" style="fill:#e7e6fd"/>
      </g>
      <g>
        <path d="M429.976,324.733v27.318c0,11.487-9.312,20.8-20.8,20.8H222.073c-11.487,0-20.8-9.312-20.8-20.8
				v-27.318c0-11.487,9.312-20.8,20.8-20.8h187.104C420.664,303.934,429.976,313.246,429.976,324.733z" style="fill:#fbecb3"/>
      </g>
      <g>
        <path d="M407.752,210.578v5.578c0,12.629-10.238,22.867-22.867,22.867H274.957l-0.38-0.38l39.923-40.478
				l27.187-27.559c7.327-7.427,19.314-7.427,26.64,0.001L407.752,210.578z" style="fill:#fff"/>
      </g>
      <g>
        <path d="M383.902,186.427c-30.475,4.067-55.706,24.742-66.289,52.62h-42.674l-0.343-0.392l39.881-40.469
				l27.192-27.584c7.349-7.447,19.353-7.447,26.653,0L383.902,186.427z" style="fill:#e7e6fd"/>
      </g>
      <g>
        <path d="M134.619,90.644c0,10.142-8.231,18.373-18.373,18.373H69.211
				c-10.142,0-18.373-8.231-18.373-18.373c0-2.842,0.637-5.536,1.813-7.937c2.989,6.173,9.26,10.436,16.56,10.436h47.035
				c7.3,0,13.572-4.262,16.56-10.436C133.982,85.107,134.619,87.802,134.619,90.644z" style="fill:#e7e6fd"/>
      </g>
      <path d="M69.209,349.58c-12.832,0-23.272,10.44-23.272,23.272c0,12.832,10.44,23.272,23.272,23.272h18.622
			c0.018,28.271-0.038,69.159,0.049,70.793c0.158,21.554,17.486,38.954,39.147,38.954H429.71c20.047,0,36.353-16.308,36.353-36.353
			c0-51.148,0-340.59,0-427.035c0-20.045-16.306-36.353-36.353-36.353c-86.372,0-155.011,0-287.985,0
			c-29.717,0-53.894,24.177-53.894,53.894v7.349H69.209c-12.832,0-23.272,10.44-23.272,23.272s10.44,23.272,23.272,23.272h18.622
			v24.007H69.209c-12.832,0-23.272,10.44-23.272,23.272s10.44,23.272,23.272,23.272h18.622v24.007H69.209
			c-12.832,0-23.272,10.44-23.272,23.272s10.44,23.272,23.272,23.272h18.622v24.007H69.209c-12.832,0-23.272,10.44-23.272,23.272
			c0,12.832,10.44,23.272,23.272,23.272h18.622v24.009H69.209z M172.097,15.928H429.71c14.641,0,26.555,11.911,26.555,26.555V427.48
			H172.097V15.928z M456.264,437.279v32.239c0,14.643-11.914,26.555-26.555,26.555H127.026c-16.639,0-29.91-13.711-29.342-30.47
			c0.585-16.208,14.533-28.323,30.61-28.323C174.585,437.279,399.087,437.279,456.264,437.279z M97.63,60.023
			c0-24.313,19.78-44.095,44.095-44.095h20.574V427.48h-34.004h-1.268c-11.694,0-22.21,5.148-29.397,13.296v-44.652h18.617
			c12.832,0,23.272-10.44,23.272-23.272c0-12.832-10.44-23.272-23.272-23.272H97.63V325.57h18.617
			c12.832,0,23.272-10.44,23.272-23.272c0-12.832-10.44-23.272-23.272-23.272H97.63v-24.007h18.617
			c12.832,0,23.272-10.44,23.272-23.272s-10.44-23.272-23.272-23.272H97.63v-24.007h18.617c12.832,0,23.272-10.44,23.272-23.272
			s-10.44-23.272-23.272-23.272H97.63v-24.007h18.617c12.832,0,23.272-10.44,23.272-23.272s-10.44-23.272-23.272-23.272H97.63
			V60.023z M69.209,104.118c-7.43,0-13.473-6.043-13.473-13.473s6.043-13.473,13.473-13.473h47.037
			c7.43,0,13.473,6.043,13.473,13.473s-6.043,13.473-13.473,13.473H69.209z M69.209,174.669c-7.43,0-13.473-6.043-13.473-13.473
			s6.043-13.473,13.473-13.473h47.037c7.43,0,13.473,6.043,13.473,13.473s-6.043,13.473-13.473,13.473H69.209z M69.209,245.22
			c-7.43,0-13.473-6.043-13.473-13.473s6.043-13.473,13.473-13.473h47.037c7.43,0,13.473,6.043,13.473,13.473
			s-6.043,13.473-13.473,13.473H69.209z M69.209,315.772c-7.43,0-13.473-6.043-13.473-13.473s6.043-13.473,13.473-13.473h47.037
			c7.43,0,13.473,6.043,13.473,13.473s-6.043,13.473-13.473,13.473H69.209z M116.247,359.378c7.43,0,13.473,6.043,13.473,13.473
			s-6.043,13.473-13.473,13.473H69.209c-7.43,0-13.473-6.043-13.473-13.473s6.043-13.473,13.473-13.473H116.247z" style="fill:#3a4b81"/>
      <path d="M233.484,243.924c55.133,0,98.72,0,151.399,0c15.311,0,27.77-12.457,27.77-27.767
			c0-30.945,0-56.204,0-108.819c0-15.311-12.459-27.767-27.77-27.767H233.484c-15.311,0-27.765,12.457-27.765,27.767
			c0,33.984,0,77.977,0,108.819C205.719,231.467,218.173,243.924,233.484,243.924z M402.854,216.156
			c0,9.909-8.062,17.969-17.971,17.969c-36.998,0-62.835,0-98.965,0l59.257-60.078c5.234-5.301,14.43-5.301,19.665,0l38.014,38.54
			V216.156z M215.518,107.338c0-9.909,8.057-17.969,17.966-17.969h151.399c9.909,0,17.971,8.06,17.971,17.969v91.296l-31.038-31.467
			c-9.23-9.364-24.35-9.4-33.617,0l-23.722,24.05l-28.641-28.641c-9.206-9.206-24.181-9.206-33.387,0l-36.932,36.934V107.338z
			 M215.518,213.367l43.86-43.863c5.387-5.383,14.143-5.383,19.531,0l28.688,28.688l-35.442,35.932h-38.671
			c-9.909,0-17.966-8.06-17.966-17.969V213.367z" style="fill:#3a4b81"/>
      <path d="M315.635 150.758c14.478 0 26.253-11.775 26.253-26.248 0-14.49-11.775-26.277-26.253-26.277-14.488 0-26.272 11.787-26.272 26.277C289.363 138.983 301.147 150.758 315.635 150.758zM315.635 108.032c9.072 0 16.454 7.392 16.454 16.478 0 9.069-7.383 16.449-16.454 16.449-9.081 0-16.473-7.38-16.473-16.449C299.162 115.424 306.554 108.032 315.635 108.032zM409.179 299.035H222.072c-14.172 0-25.698 11.529-25.698 25.698v27.318c0 14.172 11.526 25.7 25.698 25.7h187.106c14.172 0 25.698-11.529 25.698-25.7v-27.318C434.877 310.564 423.351 299.035 409.179 299.035zM425.078 352.051c0 8.768-7.134 15.902-15.899 15.902H222.072c-8.765 0-15.899-7.134-15.899-15.902v-27.318c0-8.768 7.134-15.899 15.899-15.899h187.106c8.765 0 15.899 7.131 15.899 15.899V352.051z" style="fill:#3a4b81"/>
    </g>
  </g>
</svg>
