<svg xmlns="http://www.w3.org/2000/svg" xml:space="preserve" style="enable-background:new 0 0 512 512" viewBox="0 0 512 512">
  <g id="_x30_6_Pillow">
    <g>
      <path d="M499.686,313.745c-2.445,6.771-7.824,11.95-14.441,14.097c-1.956,0.635-3.987,1.039-6.13,1.098
			l-36.28,1.469c-8.286,0.335-16.227,3.102-23.094,7.81c-67.131,46.136-141.051,75.46-221.461,88.702
			c-10.746,1.769-21.105,5.512-30.372,11.252c-9.919,6.08-18.676,12.609-26.059,19.647c-7.787,7.36-19.785,7.818-27.665,0.581
			l-0.721-0.656c-4.614-4.226-7.113-9.966-7.084-15.953l0.029-10.693c0.061-7.651-2.442-15.17-7.33-21.024
			c-40.767-49.604-60.616-100.589-64.005-152.59c-0.653-9.264-3.679-18.202-8.725-25.913l-11.925-18.135
			c-8.391-12.731-0.353-29.902,14.811-31.578l30.443-3.39c7.62-0.819,14.947-3.323,21.52-7.173
			c77.684-45.362,160.572-76.642,248.386-94.703c4.062-0.809,7.959-2.518,11.364-4.959l28.186-20.146
			c10.177-7.245,24.266-1.259,26.29,11.057c1.587,9.596,3.386,19.061,5.377,28.335c15.745,73.62,44.249,137.759,87.108,191.263
			c2.518,3.253,5.132,6.411,7.804,9.551C500.866,297.782,502.329,306.21,499.686,313.745z" style="fill:#fff"/>
      <path d="M499.701,313.738c-2.45,6.761-7.839,11.955-14.453,14.11c-1.96,0.637-3.969,1.029-6.124,1.078
			l-36.305,1.47c-8.28,0.343-16.217,3.136-23.076,7.839c-67.122,46.104-141.054,75.451-221.454,88.68
			c-10.779,1.764-21.117,5.536-30.376,11.269c-9.946,6.075-18.667,12.592-26.065,19.647c-7.79,7.349-19.794,7.79-27.682,0.588
			l-0.686-0.686c-4.654-4.213-7.153-9.946-7.104-15.923l0.049-10.73c0.049-7.643-2.45-15.139-7.349-21.018
			c-40.763-49.582-60.606-100.585-63.987-152.568c-0.686-9.26-3.675-18.226-8.721-25.918l-11.955-18.128
			c-8.378-12.739-0.343-29.887,14.796-31.601l30.474-3.381c0.588-0.049,1.225-0.147,1.813-0.245
			c43.115,82.947,129.835,139.585,229.783,139.585c66.926,0,127.924-25.428,173.881-67.122
			c7.055,10.877,14.649,21.362,22.733,31.455c2.547,3.283,5.144,6.418,7.839,9.554C500.877,297.766,502.347,306.193,499.701,313.738
			z" style="fill:#e7e6fd"/>
      <path d="M487.907,282.145c-42.86-53.504-71.363-117.643-87.108-191.263
			c21.805,7.425,49.628,39.67,69.649,83.35C490.696,218.41,496.838,261.06,487.907,282.145z" style="fill:#fbecb3"/>
      <path d="M231.481,208.211c-14.332-15.346-29.631-19.576-45.732-14.567
			c-16.874,5.249-29.286,19.482-33.903,36.54c-7.09,26.195,3.031,49.085,24.529,69.792c11.785,11.351,25.694,20.219,40.54,27.098
			c18.488,8.566,38.797,16.296,60.688,23.301c21.611-31.911,40.073-63.113,50.876-92.594c6.231-17.003,6.944-35.717,1.049-52.839
			c-1.428-4.147-3.136-7.937-5.108-11.394c-15.95-27.957-53.694-33.981-78.544-13.525
			C237.548,186.881,232.407,196.031,231.481,208.211z" style="fill:#9a88fb"/>
      <path d="M493.449,281.188c8.213-23.866,1.141-66.038-18.547-108.996
			c-19.456-42.444-46.553-75.223-69.824-84.862c-1.771-8.438-3.406-17.019-4.82-25.576c-1.234-7.505-6.139-13.72-13.117-16.626
			c-6.923-2.878-14.717-2-20.858,2.378l-28.191,20.148c-2.847,2.041-6.12,3.471-9.497,4.143
			C239.768,90.064,155.7,122.118,78.721,167.069c-6.057,3.545-12.823,5.804-19.588,6.533l-30.437,3.387
			c-8.823,0.976-16.349,6.364-20.129,14.418c-3.787,8.062-3.127,17.306,1.763,24.722l11.916,18.124
			c4.603,7.036,7.349,15.186,7.938,23.55c3.576,54.889,25.483,107.165,65.133,155.413c4.048,4.847,6.246,11.184,6.191,17.87
			l-0.029,10.682c-0.062,12.905,9.026,19.746,9.392,20.241c9.717,8.928,24.481,8.691,34.358-0.644
			c14.624-13.941,33.666-26.288,53.846-29.612c81.343-13.397,156.521-43.506,223.436-89.496c6.213-4.258,13.308-6.665,20.524-6.957
			l36.212-1.466c10.975-0.294,21.143-7.616,25.047-18.425c0.005-0.014,0.01-0.029,0.017-0.043
			c3.227-9.203,1.366-19.485-4.866-26.846C497.405,286.125,495.426,283.668,493.449,281.188z M465.993,176.272
			c16.713,36.463,24.153,73.008,19.93,95.317c-38.8-50.934-63.721-110.094-78.117-171.962
			C427.231,111.389,449.625,140.563,465.993,176.272z M495.071,312.102c-2.571,7.094-9.183,11.746-16.155,11.942l-36.279,1.469
			c-9.057,0.366-17.935,3.361-25.672,8.667c-65.726,45.171-139.572,74.745-219.484,87.905
			c-22.262,3.668-43.003,16.934-58.999,32.174c-6.06,5.722-15.079,5.954-21,0.522c-0.368-0.49-6.244-4.632-6.206-12.976
			l0.029-10.665c0.072-8.981-2.935-17.576-8.445-24.174c-38.298-46.6-59.461-97.001-62.901-149.825
			c-0.708-10.052-4-19.823-9.521-28.26l-11.926-18.138c-3-4.55-3.402-10.222-1.079-15.172c2.321-4.938,6.933-8.244,12.342-8.842
			l30.423-3.387c8.23-0.885,16.126-3.517,23.468-7.813c76.049-44.411,159.119-76.082,246.871-94.127
			c4.703-0.938,9.289-2.938,13.256-5.78l28.179-20.141c3.418-2.432,7.567-2.901,11.402-1.306c3.835,1.596,6.531,5.024,7.213,9.172
			c14.114,85.368,45.3,165.591,101.386,231.515C495.957,299.567,497.143,306.172,495.071,312.102z" style="fill:#3a4b81"/>
      <path d="M290.171,163.952c-16.875-3.105-34.155,1.376-47.408,12.289
			c-7.256,5.974-12.124,13.394-14.545,22.138c-13.44-11.146-28.176-14.316-43.925-9.414c-18.028,5.61-31.925,20.54-37.176,39.937
			c-7.079,26.16,1.622,51.257,25.861,74.601c26.281,25.319,68.194,40.356,103.134,51.537c2.14,0.675,4.364-0.17,5.55-1.921
			c25.421-37.533,41.76-67.293,51.42-93.654c6.785-18.512,7.167-38.442,1.079-56.121
			C326.419,180.847,309.988,167.594,290.171,163.952z M323.881,256.094c-9.119,24.882-24.49,53.066-48.277,88.486
			c-32.257-10.526-71.475-24.672-95.828-48.133c-21.772-20.966-29.361-42.224-23.201-64.984
			c4.368-16.143,15.82-28.533,30.629-33.141c16.051-4.993,29.225,0.951,40.695,13.232c1.333,1.421,3.378,1.928,5.206,1.277
			c1.833-0.644,3.115-2.311,3.261-4.251c0.785-10.32,4.914-18.425,12.627-24.775c11.019-9.069,25.378-12.784,39.406-10.218
			c16.238,2.987,29.864,13.686,36.499,32.949C330.254,222.092,329.893,239.692,323.881,256.094z" style="fill:#3a4b81"/>
    </g>
  </g>
</svg>
