<svg xmlns="http://www.w3.org/2000/svg" xml:space="preserve" style="enable-background:new 0 0 512 512" viewBox="0 0 512 512">
  <g id="_x31_6_Ring_In_Box">
    <g>
      <g>
        <polygon points="461.179 329.414 500.963 390.587 11.038 390.587 50.822 329.414" style="fill:#fff"/>
      </g>
      <g>
        <path d="M500.943,390.602H11.02l39.788-61.209h15.065c-12.262,20.22,2.252,46.345,26.176,46.345h377.165
				c7.007,0,13.213-2.252,18.168-6.006L500.943,390.602z" style="fill:#e7e6fd"/>
      </g>
      <g>
        <polygon points="487.702 97.836 24.299 97.836 50.822 329.414 461.179 329.414" style="fill:#fff"/>
      </g>
      <g>
        <path d="M471.515,239.055l-10.36,90.337H50.808L24.282,97.818H63.67
				c35.735,108.205,137.733,186.33,257.95,186.33C377.024,284.148,428.574,267.532,471.515,239.055z" style="fill:#e7e6fd"/>
      </g>
      <g>
        <path d="M80.317,18.269h351.366c23.167,0,43.132,16.308,47.756,39.009l8.262,40.558H24.299l8.262-40.558
				C37.185,34.578,57.15,18.269,80.317,18.269z" style="fill:#9a88fb"/>
      </g>
      <g>
        <path d="M47.138,493.729h417.725c19.937,0,36.1-16.162,36.1-36.1v-67.042H11.038v67.042
				C11.038,477.567,27.2,493.729,47.138,493.729z" style="fill:#fbecb3"/>
      </g>
      <g>
        <path d="M167.9,434.094h176.201c8.41,0,15.227-6.817,15.227-15.227v-28.279H152.673v28.279
				C152.673,427.276,159.49,434.094,167.9,434.094z" style="fill:#fff"/>
      </g>
      <g>
        <path d="M359.306,419.229c-0.2,8.258-6.907,14.865-15.215,14.865h-176.17
				c-8.408,0-15.265-6.807-15.265-15.215v-28.277h18.218c2.202,6.006,5.705,11.411,10.16,15.865
				c7.858,7.908,18.718,12.762,30.73,12.762H359.306z" style="fill:#e7e6fd"/>
      </g>
      <g>
        <path d="M307.486,159.983l-34.96,42.202l-17.364,21.023c-0.545-0.039-1.051-0.078-1.596-0.039
				c-0.312-0.039-0.662-0.039-0.973-0.039c-0.662,0-1.285,0-1.947,0.039c-0.506,0-1.012,0.039-1.518,0.078l-16.857-20.945v-0.039
				l-34.571-42.942l17.48-32.624h76.461L307.486,159.983z" style="fill:#fff"/>
      </g>
      <g>
        <path d="M278.405,159.827l-15.923,40.567l-8.915,22.775c-0.312-0.039-0.662-0.039-0.973-0.039
				c-0.662,0-1.285,0-1.947,0.039l-8.721-22.658l-15.884-41.19l15.495-32.624h22.425L278.405,159.827z" style="fill:#9a88fb"/>
      </g>
      <g>
        <path d="M334.271,263.073c-2.453-9.46-6.463-18.259-11.757-26.084c-3.037-4.516-6.501-8.682-10.317-12.497
				c-10.745-10.784-24.41-18.609-39.671-22.308c-3.27-0.817-6.618-1.401-10.044-1.791c-3.231-0.389-6.54-0.584-9.889-0.584
				c-3.621,0-7.163,0.234-10.667,0.701c-2.141,0.234-4.244,0.584-6.346,1.012c-1.129,0.234-2.219,0.467-3.309,0.779
				c-15.105,3.699-28.615,11.524-39.282,22.191c-3.815,3.815-7.28,7.981-10.317,12.497c-5.295,7.825-9.305,16.624-11.757,26.084
				c-1.713,6.735-2.648,13.782-2.648,21.062c0,7.28,0.935,14.327,2.648,21.062c2.452,9.46,6.463,18.259,11.757,26.084
				c3.037,4.516,6.501,8.682,10.317,12.497c15.261,15.261,36.323,24.683,59.604,24.683s44.343-9.421,59.604-24.683
				c3.815-3.815,7.28-7.981,10.317-12.497c5.295-7.825,9.305-16.624,11.757-26.084c1.713-6.735,2.647-13.782,2.647-21.062
				C336.919,276.855,335.984,269.808,334.271,263.073z M252.593,345.141c-33.637,0-61.006-27.369-61.006-61.006
				c0-32.469,25.5-59.098,57.541-60.889c0.506-0.039,1.012-0.078,1.518-0.078c0.662-0.039,1.285-0.039,1.947-0.039
				c0.312,0,0.662,0,0.973,0.039c0.545-0.039,1.051,0,1.596,0.039c32.43,1.324,58.436,28.147,58.436,60.928
				C313.599,317.772,286.23,345.141,252.593,345.141z" style="fill:#fbecb3"/>
      </g>
      <g>
        <path d="M429.68,347.47c10.453,12.046,0,43.117,0,43.117H75.506c0,0-10.453-31.072,0-43.117
				C138.116,275.32,367.07,275.32,429.68,347.47z" style="fill:#9a88fb"/>
      </g>
      <path d="M505.071,387.916l-38.823-59.695l26.323-229.828c0.048-0.421,0.02-1.109-0.067-1.536L484.241,56.3
			c-5.067-24.875-27.172-42.93-52.556-42.93H80.318c-25.387,0-47.492,18.055-52.559,42.93l-8.261,40.557
			c-0.087,0.427-0.115,1.115-0.067,1.536l26.32,229.828L6.929,387.916c-0.682,1.05-0.682,2.156-0.792,2.672v67.042
			c0,22.607,18.392,40.999,40.999,40.999h417.727c22.607,0,40.999-18.392,40.999-40.999v-67.042
			C505.76,390.097,505.799,389.037,505.071,387.916z M491.932,385.689h-55.729c2.721-10.581,6.301-30.92-2.823-41.43
			c-3.064-3.531-6.571-6.797-10.264-9.945h35.404L491.932,385.689z M79.136,385.689c-2.622-9.397-6.105-27.892,0.072-35.009
			c28.059-32.334,94.498-52.422,173.387-52.422c78.886,0,145.325,20.088,173.384,52.422c5.67,6.531,3.321,23.665,0.089,35.009
			C303.986,385.689,201.32,385.689,79.136,385.689z M354.428,395.488v23.378c0,5.696-4.634,10.33-10.328,10.33H167.9
			c-5.694,0-10.328-4.634-10.328-10.33v-23.378H354.428z M281.743,164.732l15.374,0.092l-26.449,31.957
			c-0.462-0.096-0.909-0.206-1.377-0.294L281.743,164.732z M271.44,131.596h17.109l11.159,23.445l-18.093-0.109L271.44,131.596z
			 M259.268,195.197c-4.679-0.348-9.483-0.324-14.12,0.072l-11.883-30.828l37.977,0.228L259.268,195.197z M233.687,154.644
			l10.949-23.048h16.117l10.146,23.272L233.687,154.644z M222.87,154.579l-17.017-0.102l12.259-22.881h15.674L222.87,154.579z
			 M222.74,164.377l12.431,32.255c-0.195,0.038-0.391,0.054-0.586,0.093c-0.14,0.029-0.271,0.063-0.41,0.092l-26.186-32.529
			L222.74,164.377z M242.571,205.367c51.184-6.776,96.419,37.458,88.46,90.418c-4.414-0.854-8.849-1.634-13.306-2.329
			c6.369-42.573-29.566-78.361-68.87-75.101c-38.85,2.17-67.102,37.438-61.438,75.109c-4.444,0.693-8.867,1.471-13.268,2.323
			C167.237,249.65,201.109,209.885,242.571,205.367z M308.089,292.097c-36.996-4.837-73.911-4.845-110.962-0.004
			c-4.871-32.425,19.489-62.122,52.393-63.963C282.234,225.629,313.539,255.587,308.089,292.097z M37.362,58.257
			C41.503,37.925,59.57,23.17,80.318,23.17h351.367c20.748,0,38.813,14.756,42.954,35.088l7.067,34.679H30.297L37.362,58.257z
			 M29.793,102.735H482.21l-25.401,221.78h-46.889c-19.252-12.291-43.512-21-69.297-26.762c6.942-44.475-19.608-84.738-59.559-98.16
			l30.195-36.484c1.235-1.49,1.371-3.72,0.651-5.232l-15.844-33.286c-0.811-1.708-2.533-2.794-4.423-2.794
			c-0.778,0-80.16,0-76.463,0c-1.806,0-3.466,0.993-4.318,2.586l-17.481,32.624c-0.804,1.505-0.787,3.787,0.502,5.385l30.01,37.276
			c-40.308,13.626-66.231,54.496-59.418,98.105c-25.752,5.762-49.977,14.466-69.207,26.743H55.192L29.793,102.735z M53.479,334.314
			H82.07c-3.693,3.148-7.2,6.414-10.264,9.945c-9.124,10.51-5.544,30.849-2.823,41.43H20.068L53.479,334.314z M496.064,457.63
			c0,17.203-13.997,31.2-31.2,31.2H47.137c-17.203,0-31.2-13.997-31.2-31.2v-62.142c34.024,0,99.199,0,131.837,0v23.378
			c0,11.098,9.029,20.129,20.126,20.129h176.2c11.098,0,20.126-9.031,20.126-20.129v-23.378c45.696,0,84.989,0,131.837,0V457.63z" style="fill:#3a4b81"/>
    </g>
  </g>
</svg>
