<svg xmlns="http://www.w3.org/2000/svg" xml:space="preserve" style="enable-background:new 0 0 512 512" viewBox="0 0 512 512">
  <g id="_x31_7_Romantic_Dinner">
    <g>
      <g>
        <g>
          <rect width="40.283" height="160.711" x="237.206" y="301.058" style="fill:#fff"/>
        </g>
        <g>
          <path d="M277.465,445.238v16.511h-40.273V301.048h13.179c-0.441,1.617-0.686,3.332-0.686,5.144V426.62
					c0,5.585,2.254,10.583,5.879,14.257c3.675,3.626,8.672,5.879,14.257,5.879C272.565,446.757,275.113,446.218,277.465,445.238z" style="fill:#e7e6fd"/>
        </g>
        <g>
          <path d="M159.865,466.62L159.865,466.62c5.717-1.79,8.902-7.875,7.112-13.593l-20.595-65.803
					c-1.789-5.718-7.875-8.902-13.593-7.112h0c-5.717,1.79-8.902,7.875-7.112,13.593l20.595,65.803
					C148.062,465.225,154.148,468.409,159.865,466.62z" style="fill:#fff"/>
        </g>
        <g>
          <path d="M165.415,462.631c-1.323,1.813-3.233,3.283-5.536,3.969c-5.732,1.813-11.807-1.372-13.62-7.104
					l-20.578-65.799c-0.343-1.078-0.49-2.204-0.49-3.283c0-4.605,2.94-8.868,7.594-10.289c1.323-0.392,2.646-0.588,3.919-0.441
					c-1.323,1.862-2.058,4.067-2.058,6.369c0,1.078,0.147,2.156,0.49,3.234l20.627,65.799
					C157.135,459.544,161.103,462.386,165.415,462.631z" style="fill:#e7e6fd"/>
        </g>
        <g>
          <path d="M31.809,458.526l28.636-65.116c2.412-5.484-0.079-11.885-5.563-14.297h0
					c-5.484-2.412-11.885,0.079-14.297,5.563l-28.636,65.116c-2.412,5.484,0.079,11.885,5.563,14.297h0
					C22.996,466.501,29.397,464.01,31.809,458.526z" style="fill:#fff"/>
        </g>
        <g>
          <path d="M57.039,380.37c-2.303,1.127-4.213,2.989-5.291,5.487L23.135,450.97
					c-2.107,4.704-0.539,10.093,3.381,13.033c-1.421,0.637-3.038,1.029-4.655,1.029c-1.47,0-2.94-0.294-4.361-0.931
					c-5.487-2.401-7.986-8.819-5.536-14.306l28.613-65.113c1.764-4.067,5.781-6.516,9.946-6.516c1.47,0,2.94,0.294,4.36,0.931
					C55.668,379.439,56.402,379.88,57.039,380.37z" style="fill:#e7e6fd"/>
        </g>
        <g>
          <path d="M74.815,391.001h71.513v-19.322c0-10.297-8.348-18.645-18.645-18.645H74.815
					c-10.679,0-19.336-8.657-19.336-19.336v-85.777c0-20.968-16.998-37.967-37.967-37.967h0v123.744
					C17.512,365.346,43.167,391.001,74.815,391.001z" style="fill:#fbecb3"/>
        </g>
        <g>
          <path d="M352.135,466.62L352.135,466.62c-5.717-1.79-8.902-7.875-7.112-13.593l20.595-65.803
					c1.79-5.718,7.875-8.902,13.593-7.112h0c5.717,1.79,8.902,7.875,7.112,13.593l-20.595,65.803
					C363.938,465.225,357.852,468.409,352.135,466.62z" style="fill:#fff"/>
        </g>
        <g>
          <path d="M381.48,381.154c-2.254,1.274-4.018,3.381-4.85,6.075l-20.578,65.8
					c-1.568,4.899,0.539,10.093,4.801,12.543c-2.548,1.568-5.683,2.009-8.721,1.029c-5.733-1.764-8.917-7.839-7.104-13.571
					l20.578-65.8c1.813-5.732,7.888-8.917,13.62-7.104C380.01,380.37,380.794,380.713,381.48,381.154z" style="fill:#e7e6fd"/>
        </g>
        <g>
          <path d="M480.191,458.526l-28.636-65.116c-2.412-5.484,0.079-11.885,5.563-14.297l0,0
					c5.484-2.412,11.885,0.079,14.297,5.563l28.636,65.116c2.412,5.484-0.079,11.885-5.563,14.297l0,0
					C489.004,466.501,482.603,464.01,480.191,458.526z" style="fill:#fff"/>
        </g>
        <g>
          <path d="M500.634,456.801c-0.784,3.136-2.989,5.928-6.124,7.3c-1.421,0.637-2.891,0.931-4.361,0.931
					c-4.165,0-8.182-2.45-9.946-6.516l-28.662-65.114c-2.401-5.487,0.098-11.857,5.585-14.306c0.686-0.294,1.323-0.539,2.009-0.637
					c-0.588,2.254-0.441,4.704,0.588,7.006l28.613,65.114c1.764,4.066,5.781,6.516,9.946,6.516
					C499.066,457.095,499.85,456.997,500.634,456.801z" style="fill:#e7e6fd"/>
        </g>
        <g>
          <path d="M437.186,391.001h-71.513v-19.322c0-10.297,8.348-18.645,18.645-18.645h52.868
					c10.679,0,19.336-8.657,19.336-19.336v-85.777c0-20.968,16.998-37.967,37.967-37.967h0v123.744
					C494.488,365.346,468.833,391.001,437.186,391.001z" style="fill:#fbecb3"/>
        </g>
        <g>
          <path d="M394.964,312.942v-68.155c0-13.047-10.577-23.624-23.624-23.624H140.661
					c-13.047,0-23.624,10.577-23.624,23.624v70.173c0,11.661,11.879,19.558,22.631,15.045l8.419-3.534
					c12.314-5.169,26.225-4.973,38.388,0.541l6.021,2.73c13.577,6.155,29.244,5.651,42.397-1.364l0,0
					c13.291-7.089,29.139-7.525,42.8-1.179l5.362,2.491c13.342,6.198,28.79,5.933,41.913-0.718l2.911-1.475
					c13.638-6.912,29.753-6.912,43.391,0h0C382.124,332.996,394.964,325.11,394.964,312.942z" style="fill:#9a88fb"/>
        </g>
        <g>
          <path d="M200,494.918h114.694v-1.399c0-17.535-14.215-31.751-31.751-31.751h-51.192
					c-17.535,0-31.751,14.215-31.751,31.751V494.918z" style="fill:#9a88fb"/>
        </g>
        <g>
          <g>
            <path d="M184.621,141.144c0,0.501,0,1.002-0.04,1.483c-0.581,19.393-12.622,34.84-27.367,34.84
						c-13.523,0-24.763-12.982-26.987-30.072c-0.281-2.024-0.421-4.127-0.421-6.251c0-5.81,1.042-11.279,2.885-16.148h49.045
						C183.559,129.865,184.621,135.334,184.621,141.144z" style="fill:#fff"/>
          </g>
          <g>
            <path d="M136.658,147.375v0.16c0,2.124,0.14,4.227,0.421,6.251c1.022,7.773,3.887,14.685,7.974,19.914
						c-7.693-5.049-13.323-14.745-14.826-26.305c-0.281-2.024-0.421-4.127-0.421-6.251c0-5.81,1.042-11.279,2.885-16.148h49.045
						c0.761,2.044,1.402,4.187,1.863,6.411h-30.553C144.151,131.408,136.698,138.48,136.658,147.375z" style="fill:#e7e6fd"/>
          </g>
          <g>
            <path d="M184.581,142.627c-0.581,19.393-12.622,34.84-27.367,34.84
						c-13.523,0-24.763-12.982-26.987-30.072c1.423-0.14,2.845-0.04,4.207,0.381c1.883,0.601,3.506,1.783,5.169,2.845
						c5.75,3.686,12.862,6.231,19.373,4.167c4.147-1.322,7.513-4.368,11.179-6.712C174.523,145.292,179.472,143.428,184.581,142.627
						z" style="fill:#fbecb3"/>
          </g>
          <g>
            <path d="M382.194,141.144c0,0.501,0,1.002-0.04,1.483c-0.581,19.393-12.622,34.84-27.367,34.84
						c-13.523,0-24.763-12.982-26.987-30.072c-0.28-2.024-0.421-4.127-0.421-6.251c0-5.81,1.042-11.279,2.885-16.148h49.045
						C381.132,129.865,382.194,135.334,382.194,141.144z" style="fill:#fff"/>
          </g>
          <g>
            <path d="M334.231,147.375v0.16c0,2.124,0.14,4.227,0.421,6.251c1.022,7.773,3.887,14.685,7.974,19.914
						c-7.693-5.049-13.323-14.745-14.826-26.305c-0.28-2.024-0.421-4.127-0.421-6.251c0-5.81,1.042-11.279,2.885-16.148h49.045
						c0.761,2.044,1.402,4.187,1.863,6.411h-30.553C341.724,131.408,334.271,138.48,334.231,147.375z" style="fill:#e7e6fd"/>
          </g>
          <g>
            <path d="M382.154,142.627c-0.581,19.393-12.622,34.84-27.367,34.84
						c-13.523,0-24.763-12.982-26.987-30.072c1.423-0.14,2.845-0.04,4.207,0.381c1.883,0.601,3.506,1.783,5.169,2.845
						c5.75,3.686,12.862,6.231,19.373,4.167c4.147-1.322,7.513-4.368,11.179-6.712C372.096,145.292,377.045,143.428,382.154,142.627
						z" style="fill:#fbecb3"/>
          </g>
        </g>
        <g>
          <path d="M312.825,221.162L312.825,221.162l-113.65,0v0c0-26.653,21.607-48.26,48.26-48.26h17.129
					C291.218,172.902,312.825,194.509,312.825,221.162z" style="fill:#fbecb3"/>
        </g>
        <g>
          <path d="M277.631,146.372L277.631,146.372c0,5.086-4.123,9.21-9.21,9.21H256h-12.421
					c-5.086,0-9.21-4.123-9.21-9.21v0c0-5.086,4.123-9.21,9.21-9.21h24.843C273.508,137.162,277.631,141.286,277.631,146.372z" style="fill:#fff"/>
        </g>
        <g>
          <path d="M277.514,147.157c-0.343,4.753-4.262,8.427-9.113,8.427h-24.84c-5.046,0-9.211-4.116-9.211-9.211
					c0-4.262,2.94-7.839,6.859-8.868c-0.098,0.245-0.098,0.539-0.098,0.784c0,5.096,4.165,9.211,9.211,9.211h24.84
					C275.995,147.5,276.779,147.402,277.514,147.157z" style="fill:#e7e6fd"/>
        </g>
        <g>
          <path d="M292.751,221.138l-12.406,39.769c-3.112,9.976-12.349,16.77-22.799,16.77h-1.905
					c-10.45,0-19.687-6.794-22.799-16.77l-12.406-39.769H292.751z" style="fill:#fff"/>
        </g>
        <g>
          <path d="M276.632,268.124c-4.409,5.879-11.416,9.554-19.108,9.554h-1.862
					c-10.485,0-19.696-6.81-22.831-16.756l-12.395-39.783h18.324l9.505,30.523c3.136,9.946,12.346,16.756,22.831,16.756h1.862
					C274.182,268.418,275.407,268.32,276.632,268.124z" style="fill:#e7e6fd"/>
        </g>
      </g>
      <g>
        <g>
          <path d="M255.569,30.709c-4.335-9.267-10.788-13.527-19.003-13.626
					c-8.609-0.104-16.501,4.625-21.205,11.836c-7.224,11.073-5.976,23.203,0.874,36.032c3.755,7.032,8.867,13.233,14.713,18.653
					c7.28,6.749,15.53,13.385,24.621,19.923c14.813-11.539,28.06-23.223,37.499-35.261c5.444-6.943,8.588-15.508,8.43-24.329
					c-0.038-2.136-0.26-4.15-0.654-6.048c-3.188-15.354-19.774-23.821-34.366-18.077C261.587,21.737,257.829,25.204,255.569,30.709z
					" style="fill:#fff"/>
        </g>
        <g>
          <path d="M273.585,88.534c-5.622,5.06-11.665,10.026-18.037,14.992
					c-9.089-6.559-17.334-13.164-24.596-19.911c-5.856-5.434-10.963-11.618-14.711-18.646c-6.84-12.837-8.105-24.97-0.89-36.074
					c2.858-4.357,6.934-7.824,11.618-9.838C235.403,46.605,251.847,70.685,273.585,88.534z" style="fill:#e7e6fd"/>
        </g>
      </g>
      <g>
        <g>
          <path d="M448.495,90.736c-4.335-9.267-10.788-13.527-19.003-13.626
					c-8.609-0.104-16.501,4.625-21.205,11.836c-7.224,11.073-5.976,23.203,0.874,36.032c3.755,7.032,8.867,13.233,14.713,18.653
					c7.28,6.749,15.53,13.385,24.621,19.923c14.813-11.539,28.06-23.223,37.499-35.261c5.444-6.943,8.588-15.508,8.43-24.329
					c-0.038-2.136-0.26-4.15-0.654-6.048c-3.188-15.354-19.774-23.821-34.366-18.077C454.514,81.764,450.755,85.231,448.495,90.736z
					" style="fill:#fff"/>
        </g>
        <g>
          <path d="M466.511,148.562c-5.622,5.06-11.665,10.026-18.037,14.992
					c-9.089-6.559-17.334-13.164-24.596-19.911c-5.856-5.434-10.963-11.618-14.711-18.646c-6.84-12.837-8.105-24.97-0.89-36.074
					c2.858-4.357,6.934-7.824,11.618-9.838C428.329,106.632,444.773,130.712,466.511,148.562z" style="fill:#e7e6fd"/>
        </g>
        <g>
          <path d="M62.643,90.736C58.308,81.47,51.854,77.21,43.64,77.11c-8.609-0.104-16.501,4.625-21.205,11.836
					c-7.224,11.073-5.976,23.203,0.874,36.032c3.755,7.032,8.867,13.233,14.713,18.653c7.28,6.749,15.53,13.385,24.621,19.923
					c14.813-11.539,28.06-23.223,37.499-35.261c5.444-6.943,8.588-15.508,8.43-24.329c-0.038-2.136-0.26-4.15-0.654-6.048
					c-3.188-15.354-19.774-23.821-34.366-18.077C68.661,81.764,64.903,85.231,62.643,90.736z" style="fill:#fff"/>
        </g>
        <g>
          <path d="M80.659,148.562c-5.622,5.06-11.665,10.026-18.037,14.992
					c-9.089-6.559-17.334-13.164-24.596-19.911c-5.856-5.434-10.963-11.618-14.711-18.646c-6.84-12.837-8.105-24.97-0.89-36.074
					c2.858-4.357,6.934-7.824,11.618-9.838C42.477,106.632,58.921,130.712,80.659,148.562z" style="fill:#e7e6fd"/>
        </g>
      </g>
      <path d="M15.54 468.575c7.93 3.489 17.253-.119 20.756-8.076 0 0 0 0 0-.002l28.631-65.114c.047-.107.058-.222.103-.331 9.36 1.489 9.391.548 56.199.847l20.367 65.073c2.598 8.288 11.409 12.929 19.734 10.325 8.304-2.603 12.924-11.426 10.325-19.734l-20.428-65.268V371.68c0-12.983-10.562-23.545-23.545-23.545H74.814c-7.959 0-14.435-6.476-14.435-14.435v-85.778c0-23.636-19.229-42.865-42.868-42.865-2.706 0-4.899 2.194-4.899 4.899V333.7c0 19.734 9.268 37.315 23.648 48.718-.047.1-.115.185-.16.286L7.464 447.82C3.971 455.767 7.593 465.075 15.54 468.575zM162.301 454.492c.984 3.136-.759 6.471-3.899 7.452-3.101.983-6.465-.738-7.452-3.899L131.499 395.9h12.464L162.301 454.492zM22.411 333.7V215.216c15.921 2.376 28.169 16.136 28.169 32.705V333.7c0 13.363 10.871 24.234 24.234 24.234h52.867c7.579 0 13.746 6.167 13.746 13.746v14.421H74.814C45.92 386.101 22.411 362.594 22.411 333.7zM16.435 451.762l28.059-63.804c3.442 1.931 7.084 3.534 10.888 4.79l-28.057 63.804c-1.316 3.005-4.83 4.373-7.84 3.055C16.483 458.284 15.115 454.764 16.435 451.762zM499.388 333.7V209.956c0-2.706-2.194-4.899-4.899-4.899-23.638 0-42.868 19.229-42.868 42.865V333.7c0 7.959-6.476 14.435-14.435 14.435h-52.867c-12.983 0-23.545 10.562-23.545 23.545v14.616l-20.428 65.268c-2.598 8.304 2.017 17.13 10.325 19.734 8.289 2.593 17.125-2.001 19.734-10.325l20.367-65.073c46.866-.299 46.835.639 56.182-.845.044.107.071.219.117.326l28.636 65.116c3.49 7.94 12.799 11.578 20.756 8.076 7.945-3.498 11.567-12.806 8.074-20.753L475.9 382.704c-.045-.102-.126-.176-.172-.277C490.114 371.024 499.388 353.439 499.388 333.7zM361.051 458.044c-.976 3.125-4.302 4.892-7.452 3.899-3.127-.977-4.886-4.301-3.902-7.452l18.341-58.592h12.466L361.051 458.044zM495.565 451.762c1.321 3.002-.048 6.521-3.048 7.842-3.036 1.333-6.528-.064-7.84-3.05l-28.061-63.806c3.805-1.256 7.447-2.859 10.889-4.79L495.565 451.762zM437.186 386.101h-66.614V371.68c0-7.579 6.167-13.746 13.746-13.746h52.867c13.363 0 24.234-10.871 24.234-24.234v-85.778c0-16.569 12.249-30.33 28.169-32.705V333.7C489.589 362.594 466.08 386.101 437.186 386.101z" style="fill:#3a4b81"/>
      <path d="M140.66 216.262c-15.727 0-28.523 12.796-28.523 28.526v70.171c0 7.122 3.541 13.727 9.471 17.67 5.933 3.943 13.394 4.651 19.954 1.892l8.423-3.533c21.256-8.916 37.761 2.49 40.487 3.215 13.22 5.996 28.487 6.18 41.834.75V456.87h-.555c-20.208 0-36.65 16.442-36.65 36.65v1.399c0 2.706 2.194 4.899 4.899 4.899h114.694c2.706 0 4.899-2.194 4.899-4.899v-1.399c0-20.208-16.442-36.65-36.65-36.65h-.557V334.689c15.008 6.471 31.052 5.617 44.796-1.348 1.014-.262 19.573-12.779 41.872-1.476 6.627 3.361 14.363 3.045 20.696-.847 6.332-3.887 10.112-10.646 10.112-18.076v-68.154c0-15.729-12.796-28.526-28.523-28.526-.728 0-12.373 0-11.655 0v-34.411c14.502-2.789 27.409-18.447 27.409-40.707 0-6.191-1.077-12.203-3.196-17.866-.718-1.914-2.545-3.182-4.588-3.182h-49.045c-2.036 0-3.861 1.261-4.581 3.165-2.127 5.617-3.203 11.631-3.203 17.882 0 18.776 10.36 37.437 27.406 40.719v34.399h-32.41c-2.484-27.022-25.252-48.26-52.911-48.26h-3.665v-7.521h7.521c7.78 0 14.11-6.33 14.11-14.11s-6.33-14.107-14.11-14.107h-24.842c-7.78 0-14.11 6.328-14.11 14.107s6.33 14.11 14.11 14.11h7.521v7.521h-3.665c-27.659 0-50.428 21.238-52.911 48.26-.923 0-33.242 0-32.413 0v-34.411c14.502-2.789 27.409-18.447 27.409-40.707 0-6.191-1.077-12.203-3.196-17.866-.718-1.914-2.545-3.182-4.588-3.182h-49.045c-2.036 0-3.861 1.261-4.581 3.165-2.127 5.617-3.203 11.631-3.203 17.882 0 18.776 10.36 37.437 27.406 40.719v34.399H140.66zM282.944 466.669c13.619 0 24.904 10.194 26.624 23.351H205.128c1.72-13.158 13.005-23.351 26.624-23.351C253.64 466.669 266.691 466.669 282.944 466.669zM242.106 456.87V330.491c9.765-3.713 20.663-3.721 30.483-.049V456.87H242.106zM332.396 142.885c-.181-4.344.041-8.155 1.407-12.99h41.959c.8 2.838 1.195 5.792 1.368 8.791-4.255 1.126-8.354 2.912-12.043 5.263-3.572 2.284-6.784 5.135-10.019 6.167-5.588 1.77-11.952-1.51-15.258-3.629C337.011 144.727 335.733 143.647 332.396 142.885zM334.672 154.829c5.795 3.689 14.509 7.446 23.362 4.626 5.007-1.593 8.767-4.969 12.328-7.246 1.92-1.224 3.988-2.249 6.141-3.054-2.204 11.337-10.17 23.413-21.715 23.413C347.567 172.566 339.08 167.217 334.672 154.829zM243.579 150.682c-2.378 0-4.311-1.933-4.311-4.311 0-2.376 1.933-4.309 4.311-4.309h24.842c2.378 0 4.311 1.933 4.311 4.309 0 2.378-1.933 4.311-4.311 4.311H243.579zM247.436 177.801h17.129c22.253 0 40.645 16.849 43.085 38.461-191.161-.052 8.516-.005-103.299 0C206.79 194.65 225.182 177.801 247.436 177.801zM286.083 226.061l-10.416 33.387c-2.488 7.974-9.77 13.33-18.122 13.33h-1.904c-8.352 0-15.634-5.356-18.122-13.33l-10.416-33.387H286.083zM134.823 142.885c-.181-4.344.041-8.155 1.407-12.99h41.959c.8 2.838 1.195 5.792 1.368 8.791-4.255 1.126-8.353 2.912-12.038 5.261-3.621 2.318-6.826 5.152-10.021 6.17-5.588 1.763-11.954-1.51-15.26-3.629C139.438 144.726 138.16 143.648 134.823 142.885zM137.099 154.829c5.794 3.687 14.492 7.439 23.367 4.626 5.012-1.594 8.773-4.979 12.325-7.246 1.92-1.226 3.988-2.249 6.139-3.054-2.212 11.381-10.234 23.413-21.715 23.413C147.603 172.566 140.412 164.141 137.099 154.829zM216.84 226.061l11.326 36.306c3.77 12.088 14.813 20.21 27.476 20.21h1.904c12.662 0 23.705-8.122 27.476-20.21l11.326-36.306h16.478c2.529 0 62.353 0 58.516 0 10.325 0 18.725 8.402 18.725 18.727v68.154c0 3.998-2.033 7.634-5.442 9.727s-7.576 2.263-11.136.455c-26.97-13.67-49.884 1.261-50.733 1.476-11.859 6.012-25.566 6.251-37.633.644-17.936-6.615-31.88-12.203-52.533-1.189-11.732 6.258-25.959 6.713-38.066 1.225-2.543-.658-22.559-14.157-48.327-3.325l-8.423 3.533c-3.588 1.505-7.5 1.132-10.737-1.019-3.239-2.153-5.098-5.62-5.098-9.509v-70.171c0-10.325 8.399-18.727 18.725-18.727C166.67 226.061 187.528 226.061 216.84 226.061zM252.708 107.506c1.763 1.266 4.148 1.225 5.873-.112 17.591-13.705 29.775-25.177 38.344-36.105 6.282-8.014 9.646-17.76 9.474-27.442-.224-12.529-6.377-21.95-15.782-27.033-8.002-4.328-17.459-4.899-25.933-1.562-3.605 1.421-6.639 3.498-9.079 6.208-5.94-7.371-13.301-9.208-18.983-9.277-10.177-.065-19.543 5.136-25.366 14.06-7.751 11.883-7.529 25.684.655 41.016C220.508 83.358 237.828 96.805 252.708 107.506zM219.462 31.595c4.262-6.531 11.07-9.814 17.043-9.615 6.567.079 11.215 3.512 14.627 10.804.823 1.758 2.675 2.957 4.555 2.821 1.945-.045 3.677-1.237 4.414-3.036 1.665-4.055 4.263-6.66 8.172-8.198 5.777-2.28 12.227-1.89 17.686 1.062 6.21 3.357 10.484 9.521 10.641 18.591.134 7.435-2.49 14.971-7.387 21.217-7.596 9.686-18.368 19.952-33.755 32.145-12.55-9.251-27.569-21.013-34.899-34.741C214.092 50.535 213.735 40.378 219.462 31.595zM448.532 81.487c-5.94-7.371-13.301-9.208-18.983-9.277-10.107-.033-19.545 5.136-25.366 14.06-7.753 11.885-7.531 25.686.655 41.016 8.579 16.071 25.842 29.495 40.798 40.246 1.748 1.258 4.136 1.233 5.871-.112 17.593-13.708 29.777-25.179 38.339-36.102 6.285-8.012 9.648-17.756 9.476-27.442-.224-12.578-6.418-21.973-15.782-27.035C470.92 70.017 455.978 73.208 448.532 81.487zM478.881 85.46c6.214 3.358 10.487 9.514 10.643 18.591.134 7.438-2.49 14.973-7.387 21.217-7.591 9.684-18.363 19.949-33.753 32.143-12.577-9.269-27.576-21.02-34.899-34.741-6.466-12.107-6.825-22.263-1.096-31.047 4.262-6.531 11.07-9.814 17.043-9.615 6.567.079 11.215 3.512 14.626 10.804.823 1.761 2.677 3 4.555 2.821 1.945-.045 3.677-1.239 4.416-3.038C457.159 82.53 469.929 80.62 478.881 85.46zM59.784 167.531c1.759 1.266 4.148 1.225 5.868-.112 17.591-13.701 29.775-25.172 38.344-36.102 6.285-8.012 9.648-17.756 9.476-27.442-.226-12.579-6.417-21.972-15.784-27.035-12.63-6.829-27.567-3.618-35.009 4.648-5.94-7.371-13.301-9.208-18.981-9.277-10.052.079-19.543 5.139-25.366 14.06-7.753 11.883-7.533 25.681.655 41.018C27.591 143.398 44.906 156.836 59.784 167.531zM26.538 91.623c4.256-6.52 11.055-9.814 17.043-9.615 6.567.079 11.213 3.512 14.624 10.804.823 1.761 2.675 3 4.555 2.821 1.945-.045 3.677-1.237 4.414-3.036 4.137-10.074 16.913-11.972 25.856-7.136 6.326 3.418 10.488 9.639 10.643 18.591.134 7.438-2.49 14.973-7.387 21.217-7.596 9.689-18.37 19.954-33.755 32.143-12.544-9.248-27.565-21.007-34.899-34.739C21.165 110.563 20.808 100.405 26.538 91.623z" style="fill:#3a4b81"/>
    </g>
  </g>
</svg>
