<svg xmlns="http://www.w3.org/2000/svg" xml:space="preserve" style="enable-background:new 0 0 512 512" viewBox="0 0 512 512">
  <g id="_x31_8_Rose_Petals">
    <g>
      <g>
        <polygon points="263.62 256.786 275.128 500.971 226.867 475.643 238.375 256.786" style="fill:#fff"/>
      </g>
      <g>
        <path d="M275.125,500.966l-48.271-25.323l11.525-218.862h15.77L245,431.163
				c-0.051,0.859-0.051,1.718-0.051,2.578c0,18.095,9.957,34.826,26.132,43.267c0.96,0.505,1.971,0.91,2.982,1.112L275.125,500.966z
				" style="fill:#e7e6fd"/>
      </g>
      <g>
        <path d="M281.593,60.055c0,27.054-30.595,49.004-30.595,49.004s-30.595-21.95-30.595-49.004
				c0-27.077,30.595-49.027,30.595-49.027S281.593,32.978,281.593,60.055z" style="fill:#9a88fb"/>
      </g>
      <g>
        <path d="M349.715,403.406c-31.652,21.64-77.034,10.382-77.034,10.382s5.98-46.373,37.632-68.013
				c31.68-21.659,77.061-10.401,77.061-10.401S381.395,381.747,349.715,403.406z" style="fill:#fbecb3"/>
      </g>
      <g>
        <path d="M159.936,357.905c29.719,20.372,72.376,9.845,72.376,9.845s-5.566-43.583-35.284-63.955
				c-29.744-20.389-72.402-9.863-72.402-9.863S130.192,337.516,159.936,357.905z" style="fill:#fbecb3"/>
      </g>
      <g>
        <path d="M337.464,39.587c-67.791,1.705-103.466,36.132-111.627,98.593
				c-0.918,7.025,3.762,13.577,10.812,15.395c28.254,7.285,50.004,2.602,64.803-14.875c9.87-11.657,14.443-26.784,13.1-41.817
				C312.465,73.511,318.967,53.914,337.464,39.587z" style="fill:#fff"/>
      </g>
      <g>
        <path d="M337.447,39.586c-5.459,4.195-9.856,8.845-13.243,13.951
				c-49.029,9.907-75.616,42.661-82.49,95.481c-0.253,2.022-0.051,3.993,0.556,5.813c-1.82-0.354-3.69-0.758-5.61-1.264
				c-7.076-1.82-11.727-8.34-10.817-15.366C233.981,75.726,269.666,41.305,337.447,39.586z" style="fill:#e7e6fd"/>
      </g>
      <g>
        <path d="M162.135,39.587c67.791,1.705,103.466,36.132,111.627,98.593
				c0.918,7.025-3.762,13.577-10.812,15.395c-28.254,7.285-50.004,2.602-64.803-14.875c-9.87-11.657-14.443-26.784-13.1-41.817
				C187.133,73.511,180.631,53.914,162.135,39.587z" style="fill:#fff"/>
      </g>
      <g>
        <path d="M262.943,153.567c-4.549,1.162-8.896,2.022-13.091,2.578c0.96-2.173,1.365-4.65,1.011-7.127
				c-6.47-49.737-30.429-81.682-74.15-93.509c-3.589-5.863-8.441-11.171-14.557-15.922c67.782,1.719,103.467,36.14,111.605,98.615
				C274.67,145.226,270.02,151.747,262.943,153.567z" style="fill:#e7e6fd"/>
      </g>
      <g>
        <path d="M369,83.63c-102.396,2.653-156.282,56.223-168.609,153.414
				c-1.387,10.932,5.682,21.126,16.332,23.955c42.676,11.336,75.53,4.049,97.883-23.147c14.908-18.139,21.816-41.677,19.788-65.068
				C331.24,136.417,341.061,105.922,369,83.63z" style="fill:#9a88fb"/>
      </g>
      <g>
        <path d="M128.779,84.993c102.068,2.645,155.937,55.88,168.49,152.483
				c1.49,11.464-5.942,22.216-17.129,25.127c-42.23,10.989-74.774,3.613-96.966-23.388c-14.908-18.139-21.816-41.677-19.788-65.068
				C166.538,137.78,156.718,107.286,128.779,84.993z" style="fill:#9a88fb"/>
      </g>
      <path d="M199.799,299.755c-31.193-21.385-74.518-11.031-76.348-10.579c-2.416,0.596-4,2.909-3.687,5.375
			c0.239,1.871,6.206,46.009,37.401,67.393c19.698,13.503,46.676,15.634,70.153,11.765l-5.348,101.676
			c-0.1,1.911,0.923,3.708,2.617,4.596l48.262,25.327c1.599,0.837,3.464,0.716,4.909-0.206c1.483-0.943,2.344-2.608,2.263-4.361
			l-3.828-81.232c25.175,4.591,54.908,2.557,76.286-12.058c33.109-22.641,39.497-69.468,39.755-71.451
			c0.316-2.469-1.268-4.782-3.679-5.383c-1.943-0.476-47.889-11.524-81.008,11.112c-17.282,11.817-27.236,30.207-32.88,45.392
			l-5.519-117.112c3.997-0.735,8.05-1.58,12.227-2.667c6.798-1.77,25.043-11.817,37.014-26.382
			c15.426-18.768,23.038-43.772,20.885-68.602c-3.206-36.973,7.517-64.745,32.784-84.9c1.646-1.313,2.268-3.531,1.545-5.509
			s-2.727-3.311-4.732-3.218c-17.878,0.463-34.376,2.514-49.549,6.074c0.903-17.364,7.799-31.012,21.143-41.346
			c1.675-1.297,2.325-3.521,1.617-5.517c-0.713-1.993-2.411-3.431-4.742-3.254c-20.52,0.516-38.374,4.016-53.582,10.419
			c-7.575-21.731-28.812-37.277-29.904-38.062c-1.703-1.225-4.009-1.225-5.713,0c-1.107,0.797-22.886,16.769-30.175,38.969
			c-15.658-6.99-34.228-10.786-55.708-11.326c-0.043-0.002-0.084-0.002-0.124-0.002c-2.067,0-3.919,1.299-4.615,3.256
			c-0.711,1.995-0.06,4.22,1.615,5.517c13.787,10.679,20.66,24.91,21.175,43.108c-15.682-3.818-32.809-5.991-51.404-6.472
			c-2.22-0.134-4.012,1.242-4.73,3.218c-0.722,1.978-0.098,4.196,1.548,5.509c25.263,20.158,35.987,47.927,32.782,84.9
			c-2.153,24.83,5.459,49.834,20.885,68.602c13.839,16.839,31.707,26.529,53.303,29.206l-3.525,67.015
			C223.645,325.111,214.577,309.885,199.799,299.755z M157.637,322.501l61.79,42.355c-14.133,1.508-38.277,1.651-56.721-10.992
			c-22.117-15.16-30.102-44.772-32.418-56.049c11.361-1.911,41.856-5.136,63.97,10.021c18.388,12.604,26.983,35.19,30.692,48.927
			l-61.773-42.344c-2.227-1.529-5.277-0.957-6.811,1.27C154.835,317.922,155.405,320.972,157.637,322.501z M313.079,349.821
			c23.866-16.318,56.779-12.619,68.645-10.576c-2.388,11.784-10.856,43.762-34.774,60.116
			c-20.032,13.699-46.434,13.267-61.404,11.568l66.485-45.455c2.234-1.529,2.809-4.576,1.277-6.811
			c-1.522-2.23-4.569-2.801-6.808-1.28l-66.505,45.468C283.826,388.302,292.986,363.556,313.079,349.821z M355.643,89.19
			c-20.344,21.256-29.129,49.449-26.129,84.018c1.933,22.299-4.88,44.729-18.693,61.535c-2.759,3.356-5.697,6.363-8.787,9.076
			c0.29-2.282,0.401-4.604,0.093-6.974c-6.086-46.84-21.824-83.272-47.01-109.2C279.764,105.138,313.094,92.316,355.643,89.19z
			 M324.366,45.277c-9.748,11.389-14.737,25.516-14.998,42.154c-14.217,4.146-27.144,9.755-38.777,16.818
			c-3.765-10.386-8.574-19.664-14.501-27.74C271.832,58.61,294.421,48.179,324.366,45.277z M251.003,17.261
			c5.88,4.865,19.105,17.148,23.87,32.105c-9.601,5.153-17.975,11.645-25.109,19.477c-6.601-7.252-14.239-13.387-22.959-18.339
			C231.238,35.064,244.978,22.258,251.003,17.261z M175.237,45.277c45.179,4.378,73.806,25.689,86.97,64.442
			c-4.914,3.476-9.57,7.241-13.967,11.296c-16.007-14.346-35.373-24.947-58.064-31.773C190.255,71.83,185.328,57.069,175.237,45.277
			z M186.959,236.106c-13.813-16.806-20.626-39.236-18.693-61.535c2.998-34.566-5.787-62.762-26.129-84.018
			c89.029,6.536,138.234,54.922,150.277,147.555c1.158,8.954-4.646,17.447-13.507,19.753
			C237.855,268.543,207.775,261.433,186.959,236.106z M242.472,272.25c3.807,0.099,7.196,0.341,16.935-0.782l10.424,221.19
			l-37.908-19.892L242.472,272.25z" style="fill:#3a4b81"/>
    </g>
  </g>
</svg>
