<svg xmlns="http://www.w3.org/2000/svg" xml:space="preserve" style="enable-background:new 0 0 512 512" viewBox="0 0 512 512">
  <g id="_x31_9_Scented_Candles">
    <g>
      <g>
        <path d="M411.355,432.164c-0.544,1.683-1.237,3.366-1.931,4.999c-6.732,15.939-16.83,31.383-30.59,46.381
				c-10.296,11.187-24.898,17.424-40.144,17.424H167.819c-13.068,0-25.74-4.554-35.639-13.117
				c-16.285-14.157-27.125-31.184-33.263-50.687c-0.544-1.634-1.04-3.316-1.485-4.999c-6.98-25.541-6.435-55.093-0.05-87.762
				c0.297-1.683,0.644-3.316,1.04-4.999c2.475-12.028,5.791-24.453,9.751-37.273c2.97-9.553,4.059-19.651,3.019-29.65l-4.455-42.619
				h303.826l-10.494,36.926c-4.653,16.483-3.317,34.055,3.564,49.697c3.415,7.722,6.286,15.345,8.613,22.918
				c0.544,1.683,1.04,3.316,1.485,4.999C422.294,374.894,421.948,404.247,411.355,432.164z" style="fill:#fff"/>
      </g>
      <g>
        <path d="M392.545,466.814c-4.109,5.643-8.662,11.236-13.711,16.731
				c-10.296,11.187-24.898,17.424-40.144,17.424H167.819c-13.068,0-25.74-4.554-35.639-13.117
				c-16.285-14.157-27.125-31.184-33.263-50.687c-0.544-1.634-1.04-3.316-1.485-4.999c-6.98-25.541-6.435-55.093-0.05-87.762
				c0.297-1.683,0.644-3.316,1.04-4.999c2.475-12.028,5.791-24.453,9.751-37.273c2.97-9.553,4.059-19.651,3.019-29.65l-4.455-42.619
				h47.519c-1.634,10.593-2.525,21.433-2.525,32.521c0,114.442,92.712,207.154,207.154,207.154
				C370.37,469.536,381.606,468.596,392.545,466.814z" style="fill:#e7e6fd"/>
      </g>
      <g>
        <path d="M411.355,432.164h-78.357c-15.493,27.175-44.153,45.391-77.021,45.391
				c-32.719,0-61.379-18.216-76.773-45.391H97.431c-6.98-25.541-6.435-55.093-0.05-87.762c0.297-1.683,0.644-3.316,1.04-4.999
				h80.782c15.394-27.175,44.054-45.391,76.773-45.391c32.868,0,61.527,18.216,77.021,45.391h79.248
				c0.544,1.683,1.04,3.316,1.485,4.999C422.294,374.894,421.948,404.247,411.355,432.164z" style="fill:#9a88fb"/>
      </g>
      <g>
        <ellipse cx="258.498" cy="229.844" rx="151.463" ry="36.311" style="fill:#fbecb3"/>
      </g>
      <g>
        <path d="M254.975,11.034c-32.295,33.156-54.777,65.453-55.562,95.846
				c-0.468,18.096,8.823,35.449,24.254,44.913c3.659,2.244,7.527,3.973,11.609,5.175c12.326,3.632,25.79,1.646,36.767-5.034
				c4.406-2.681,8.199-5.908,11.426-9.638c9.457-10.932,12.743-25.771,10.699-40.08c-2.516-17.616-9.598-31.951-21.895-42.539
				c-10.903-9.388-17.612-22.89-17.769-37.277C254.462,18.743,254.636,14.944,254.975,11.034z" style="fill:#fff"/>
      </g>
      <g>
        <path d="M270.134,153.039c-10.593,5.792-23.215,7.376-34.848,3.911c-4.109-1.188-7.969-2.921-11.632-5.148
				c-15.394-9.454-24.7-26.828-24.255-44.945c0.792-30.393,23.265-62.666,55.588-95.831c-0.347,3.911-0.545,7.722-0.495,11.385
				c0.05,5.197,0.99,10.296,2.624,15.097c-16.879,22.126-27.423,43.658-27.967,64.299c-0.446,18.117,8.811,35.441,24.255,44.945
				c3.663,2.228,7.524,3.96,11.632,5.148C266.718,152.395,268.401,152.791,270.134,153.039z" style="fill:#e7e6fd"/>
      </g>
      <g>
        <g>
          <path d="M255.543,354.67c-5.408-11.562-13.461-16.878-23.71-17.002
					c-10.742-0.13-20.588,5.771-26.458,14.768c-9.013,13.816-7.456,28.951,1.091,44.957c4.685,8.774,11.064,16.511,18.358,23.274
					c9.083,8.421,19.376,16.701,30.72,24.858c18.482-14.397,35.011-28.976,46.788-43.995c6.793-8.662,10.716-19.35,10.519-30.356
					c-0.048-2.666-0.324-5.178-0.816-7.546c-3.978-19.157-24.672-29.721-42.878-22.555
					C263.053,343.476,258.363,347.801,255.543,354.67z" style="fill:#fff"/>
        </g>
        <g>
          <path d="M278.022,426.82c-7.015,6.313-14.555,12.509-22.505,18.705
					c-11.34-8.183-21.628-16.425-30.688-24.843c-7.307-6.78-13.678-14.496-18.355-23.264c-8.534-16.016-10.113-31.156-1.111-45.009
					c3.566-5.436,8.651-9.762,14.496-12.275C230.382,374.504,250.9,404.549,278.022,426.82z" style="fill:#e7e6fd"/>
        </g>
      </g>
      <path d="M90.422,423.725c5.381,27.257,17.974,49.939,38.551,67.833
			c10.67,9.229,24.464,14.311,38.846,14.311h170.872c16.689,0,32.631-6.928,43.755-19.012c24.151-26.329,39.71-56.493,41.839-92.593
			c1.628-27.604-5.072-54.67-16.17-79.753c-6.45-14.667-7.636-31.143-3.335-46.384l10.493-36.925
			c10.003-35.116-123.182-42.743-160.203-42.549V163.13c6.806-0.981,13.462-3.326,19.516-7.011
			c19.162-11.659,27.567-32.627,24.43-54.597c-2.732-19.129-10.655-34.456-23.55-45.559c-10.072-8.672-15.928-20.923-16.067-33.614
			c-0.033-3.344,0.12-7.007,0.455-10.892c0.182-2.062-0.957-4.017-2.842-4.878c-1.876-0.866-4.096-0.45-5.55,1.036
			c-38.119,39.136-56.214,70.637-56.951,99.139c-0.512,19.985,9.679,38.844,26.593,49.217c7.915,4.858,15.549,7.072,24.167,7.516
			v25.289c-33.373,0.69-146.971,8.405-143.404,41.596l4.45,42.616c0.962,9.244,0.01,18.559-2.823,27.696
			C91.516,339.45,82.593,384.102,90.422,423.725z M375.231,480.225c-9.268,10.069-22.588,15.844-36.54,15.844H167.819
			c-12.028,0-23.545-4.234-32.425-11.914c-14.729-12.809-25.232-28.637-31.322-47.092h72.326
			c17.033,28.074,47.267,45.391,79.577,45.391c32.363,0,62.688-17.318,79.821-45.391h68.298
			C397.539,451.949,387.854,466.465,375.231,480.225z M408.588,344.302c5.369,18.887,6.769,34.247,5.931,49.094
			c-0.625,11.073-2.628,22.213-6.694,33.868h-74.828c-1.761,0-3.383,0.945-4.258,2.474c-15.091,26.473-42.975,42.918-72.764,42.918
			c-29.731,0-57.516-16.442-72.511-42.908c-0.871-1.533-2.498-2.483-4.263-2.483H101.32c-6.579-27.3-4.18-55.371,1.082-82.963
			h76.799c1.766,0,3.392-0.95,4.263-2.483c14.995-26.466,42.779-42.908,72.511-42.908c29.789,0,57.674,16.445,72.764,42.918
			c0.876,1.529,2.498,2.474,4.258,2.474H408.588z M226.225,147.617c-13.942-8.55-22.339-24.112-21.913-40.609
			c0.608-23.684,15.071-50.317,45.324-83.214c0.55,15.024,7.588,29.392,19.44,39.595c11.196,9.643,17.818,22.569,20.239,39.518
			c2.539,17.796-3.825,35.116-19.818,44.841C256.455,155.681,240.203,156.183,226.225,147.617z M245.272,198.576v30.814
			c-4.538-0.702-9.087-2.357-13.684-5.005c-2.344-1.347-5.344-0.543-6.689,1.801c-1.354,2.347-0.545,5.342,1.799,6.691
			c15.61,8.984,31.403,8.949,46.951,0c2.344-1.349,3.153-4.344,1.799-6.691c-1.349-2.344-4.34-3.148-6.689-1.801
			c-4.599,2.649-9.15,4.304-13.689,5.005v-30.938c39.525-0.207,149.992,8.401,149.992,31.389c0,13.117-55.76,31.413-146.567,31.413
			s-146.562-18.296-146.562-31.413C111.935,217.376,162.322,200.246,245.272,198.576z M112.854,303.583
			c3.23-10.402,4.311-21.038,3.21-31.612l-2.687-25.733c24.42,16.347,85.039,24.817,145.119,24.817
			c57.46,0,115.408-7.75,141.72-22.724l-4.867,17.126c-4.919,17.433-3.569,36.255,3.804,53.011
			c2.38,5.379,4.399,10.727,6.241,16.036h-69.598c-17.134-28.074-47.458-45.391-79.821-45.391c-32.31,0-62.544,17.318-79.577,45.391
			H104.52C106.692,324.876,109.411,314.72,112.854,303.583z" style="fill:#3a4b81"/>
      <path d="M298.692,338.398c-15.667-8.469-34.343-4.213-43.133,6.641c-5.899-8.031-13.832-12.15-23.669-12.27
			c-12.028-0.299-23.583,6.208-30.621,16.99c-9.407,14.43-9.115,31.234,0.876,49.944c10.592,19.846,32.068,36.516,50.54,49.8
			c1.78,1.278,4.172,1.212,5.871-0.112c21.861-17.028,36.999-31.277,47.635-44.839c7.665-9.777,11.77-21.662,11.56-33.466
			C317.472,355.724,309.911,344.462,298.692,338.398z M298.477,398.507c-9.66,12.32-23.387,25.363-43.047,40.882
			c-16.019-11.753-35.284-26.772-44.645-44.301c-8.292-15.533-8.718-28.609-1.306-39.975c5.496-8.42,14.214-12.738,22.296-12.545
			c8.713,0.105,14.856,4.61,19.335,14.179c0.804,1.725,2.536,2.823,4.435,2.823c0.038,0,0.077,0,0.12-0.002
			c1.943-0.045,3.675-1.239,4.411-3.038c5.464-13.299,22.216-15.855,33.961-9.509c8.138,4.399,13.694,12.447,13.914,24.241
			C308.123,380.821,304.759,390.495,298.477,398.507z" style="fill:#3a4b81"/>
    </g>
  </g>
</svg>
