<svg xmlns="http://www.w3.org/2000/svg" xml:space="preserve" style="enable-background:new 0 0 512 512" viewBox="0 0 512 512">
  <g id="_x32_0_Scrapbook">
    <g>
      <g>
        <path d="M430.054,366.321v117.897H80.299c-3.021-2.397-5.834-5.031-8.47-7.842V366.321H430.054z" style="fill:#fff"/>
      </g>
      <g>
        <path d="M430.054,395.874v88.337H80.284c-2.989-2.401-5.83-5.046-8.476-7.839V366.331h38.755
				c46.202,44.487,109.012,71.777,178.241,71.777C340.983,438.107,389.536,422.576,430.054,395.874z" style="fill:#e7e6fd"/>
      </g>
      <g>
        <path d="M415.221,11.033h-296.34c-37.361,0-67.649,30.287-67.649,67.649v338.775l31.427-19.709v-25.834
				h18.468c1.182-1.03,2.43-2.01,3.738-2.925c3.677-2.574,7.674-4.816,11.823-6.741l0.062-0.366h0.809
				c3.85-1.737,7.81-3.231,11.77-4.432c12.622-3.827,24.983-2.042,36.709,3.678c0.442,0.216,0.795,0.476,1.11,0.754h278.968V41.928
				C446.115,24.865,432.283,11.033,415.221,11.033z" style="fill:#fff"/>
      </g>
      <g>
        <path d="M446.124,302.491v59.381H167.151c-0.294-0.245-0.686-0.539-1.127-0.735
				c-11.709-5.732-24.056-7.496-36.697-3.675c-3.969,1.176-7.937,2.695-11.758,4.41h-0.833l-0.049,0.392
				c-4.165,1.911-8.133,4.164-11.808,6.712c-1.323,0.931-2.548,1.911-3.773,2.94H82.636v25.82L51.23,417.481V78.685
				c0-37.383,30.278-67.661,67.661-67.661H201.3c-12.543,26.898-19.5,56.882-19.5,88.484c0,116.018,94.069,210.087,210.088,210.087
				C410.653,309.595,428.829,307.146,446.124,302.491z" style="fill:#e7e6fd"/>
      </g>
      <g>
        <path d="M134.328,11.033h-15.447c-37.361,0-67.649,30.287-67.649,67.649v338.775l31.427-19.709v-25.834
				h18.468c1.182-1.03,2.43-2.01,3.738-2.925c3.677-2.574,7.674-4.816,11.823-6.741l0.062-0.366h0.809
				c3.85-1.737,7.81-3.231,11.77-4.432c1.672-0.507,3.338-0.901,5-1.215V11.033z" style="fill:#fbecb3"/>
      </g>
      <g>
        <path d="M460.852,486.171c0,8.168-6.629,14.796-14.796,14.796H128.173
				c-12.015,0-23.408-2.782-33.558-7.724c-5.119-2.486-9.913-5.504-14.323-9.026c-3.018-2.397-5.83-5.031-8.463-7.842
				c-10.091-10.831-17.075-24.591-19.59-39.861c-4.202-25.686,3.818-49.035,19.59-65.429c1.568-1.687,3.255-3.255,5.001-4.765
				c13.879-12.015,32.463-19.235,53.415-19.235h315.812c4.084,0,7.783,1.657,10.476,4.321c2.663,2.693,4.32,6.392,4.32,10.476
				c0,8.168-6.629,14.796-14.796,14.796H128.173c-4.972,0-9.795,0.769-14.293,2.219c-19.146,6.067-33.055,24-33.055,45.129
				c0,15.507,7.516,29.297,19.058,37.967c7.901,5.859,17.696,9.381,28.29,9.381h317.883
				C454.224,471.375,460.852,478.003,460.852,486.171z" style="fill:#fbecb3"/>
      </g>
      <g>
        <path d="M303.178,70.116c0,20.804-23.527,37.683-23.527,37.683s-23.527-16.879-23.527-37.683
				c0-20.822,23.527-37.701,23.527-37.701S303.178,49.295,303.178,70.116z" style="fill:#9a88fb"/>
      </g>
      <g>
        <path d="M346.141,54.377c-52.129,1.311-79.562,27.784-85.838,75.815
				c-0.706,5.402,2.893,10.44,8.314,11.838c21.726,5.602,38.452,2.001,49.832-11.439c7.59-8.964,11.106-20.596,10.074-32.156
				C326.918,80.464,331.918,65.394,346.141,54.377z" style="fill:#fff"/>
      </g>
      <g>
        <path d="M346.129,54.376c-4.198,3.226-7.579,6.802-10.183,10.728
				c-37.702,7.618-58.147,32.805-63.433,73.422c-0.194,1.555-0.039,3.07,0.427,4.47c-1.399-0.272-2.837-0.583-4.314-0.972
				c-5.441-1.399-9.017-6.413-8.318-11.816C266.566,82.167,294.007,55.698,346.129,54.376z" style="fill:#e7e6fd"/>
      </g>
      <g>
        <path d="M211.318,54.377c52.129,1.311,79.562,27.784,85.838,75.815c0.706,5.402-2.893,10.44-8.314,11.838
				c-21.726,5.602-38.452,2.001-49.832-11.439c-7.59-8.964-11.106-20.596-10.074-32.156
				C230.542,80.464,225.542,65.394,211.318,54.377z" style="fill:#fff"/>
      </g>
      <g>
        <path d="M288.837,142.024c-3.498,0.894-6.841,1.555-10.067,1.982c0.738-1.671,1.049-3.576,0.777-5.48
				c-4.975-38.246-23.399-62.811-57.019-71.906c-2.76-4.509-6.491-8.59-11.194-12.244c52.122,1.322,79.563,27.791,85.821,75.832
				C297.855,135.611,294.279,140.625,288.837,142.024z" style="fill:#e7e6fd"/>
      </g>
      <g>
        <path d="M370.392,88.245c-78.739,2.04-120.176,43.234-129.656,117.971
				c-1.066,8.406,4.369,16.245,12.559,18.42c32.817,8.717,58.08,3.114,75.269-17.799c11.464-13.948,16.776-32.048,15.216-50.036
				C341.356,128.836,348.908,105.387,370.392,88.245z" style="fill:#9a88fb"/>
      </g>
      <g>
        <path d="M185.669,89.293c78.487,2.034,119.911,42.97,129.564,117.255
				c1.145,8.815-4.569,17.084-13.172,19.322c-32.474,8.45-57.499,2.778-74.564-17.984c-11.464-13.948-16.776-32.048-15.216-50.036
				C214.705,129.885,207.153,106.435,185.669,89.293z" style="fill:#9a88fb"/>
      </g>
      <g>
        <path d="M400.07,288.361L400.07,288.361c0,16.56-13.424,29.984-29.984,29.984H205.587
				c-16.56,0-29.984-13.424-29.984-29.984v0c0-16.56,13.424-29.984,29.984-29.984h164.498
				C386.645,258.377,400.07,271.801,400.07,288.361z" style="fill:#9a88fb"/>
      </g>
      <path d="M446.058,381.578c10.861,0,19.693-8.835,19.693-19.696c0-8.405-5.345-16.55-14.737-18.988V41.929
			c0-19.739-16.057-35.796-35.794-35.796c-129.129,0-202.601,0-296.339,0c-40.004,0-72.549,32.545-72.549,72.549
			c0.056,357.673-0.093,337.878,0.075,339.329c-0.39,6.325-0.068,12.793,0.997,19.3c6.482,39.367,40.626,68.556,80.769,68.556
			h317.884c10.861,0,19.693-8.835,19.693-19.696c0-10.861-8.832-19.696-19.693-19.696h-11.105v-84.898H446.058z M139.226,15.932
			h275.995c14.335,0,25.995,11.662,25.995,25.997v300.257h-301.99V15.932z M56.132,78.682c0-34.6,28.148-62.75,62.75-62.75h10.545
			v326.29c-29.619,0.261-58.209,14.613-73.295,42.043V78.682z M128.174,371.779c-28.435,0-52.248,22.877-52.248,52.248
			c0,28.179,22.871,52.248,52.248,52.248h317.884c5.454,0,9.895,4.44,9.895,9.897c0,5.457-4.44,9.897-9.895,9.897H128.174
			c-35.398,0-65.411-25.799-71.099-60.346c-7.438-45.43,26.103-83.738,73.171-83.738h315.812c5.563,0,9.895,4.485,9.895,9.897
			c0,5.457-4.44,9.897-9.895,9.897H128.174z M425.154,381.578v84.898h-296.98c-23.257,0-42.449-18.816-42.449-42.449
			c0-23.785,19.292-42.449,42.449-42.449H425.154z" style="fill:#3a4b81"/>
      <path d="M207.402 157.427c-1.684 19.387 4.263 38.913 16.311 53.568 20.205 24.587 49.143 27.539 79.582 19.617 23.168-6.031 48.59-37.041 45.368-74.233-2.431-28.026 5.679-49.059 24.789-64.305 1.646-1.313 2.268-3.531 1.545-5.509-.722-1.978-2.603-3.387-4.732-3.218-13.278.344-25.478 1.927-36.826 4.48.97-12.348 6.085-22.126 15.702-29.576 1.675-1.297 2.325-3.521 1.617-5.517-.708-1.995-2.483-3.356-4.742-3.254-15.465.388-28.928 3.018-40.519 7.703-6.263-16.495-22.155-28.147-22.992-28.748-1.713-1.225-4.009-1.225-5.713 0-.847.608-17.168 12.521-23.264 29.339-11.923-5.092-25.936-7.889-42.084-8.294-2.349-.081-4.029 1.261-4.742 3.254-.708 1.995-.057 4.22 1.617 5.517 9.955 7.714 15.142 17.894 15.838 30.875-11.764-2.746-24.511-4.371-38.359-4.73-2.249-.172-4.009 1.239-4.732 3.218-.722 1.978-.1 4.196 1.545 5.509C201.718 108.368 209.828 129.401 207.402 157.427zM357.323 93.882c-14.469 16.315-20.66 37.559-18.421 63.343 1.582 18.266-4.526 37.661-18.718 51.362-.007-.888.022-1.772-.095-2.672-4.647-35.756-16.613-63.616-35.617-83.655C302.602 106.074 326.737 96.577 357.323 93.882zM333.457 60.177c-6.396 8.38-9.706 18.514-10.019 30.233-10.23 3.053-19.59 7.094-28.079 12.113-2.75-7.316-6.178-13.911-10.334-19.725C296.441 70.212 312.5 62.682 333.457 60.177zM279.654 38.685c4.596 3.897 13.394 12.431 16.983 22.701-6.767 3.733-12.737 8.334-17.9 13.809-4.78-5.079-10.243-9.42-16.403-13C265.737 51.586 274.943 42.696 279.654 38.685zM224.005 60.175c32.411 3.873 53.159 19.705 62.976 47.855-3.265 2.352-6.382 4.87-9.349 7.554-12.079-10.652-26.642-18.533-43.561-23.74C234.003 79.506 230.658 68.899 224.005 60.175zM310.376 207.177c.818 6.325-3.287 12.323-9.55 13.952-31.109 8.091-53.846 2.744-69.544-16.354-10.435-12.696-15.579-29.645-14.119-46.502 2.234-25.787-3.957-47.028-18.421-63.341C264.765 100.751 301.329 137.582 310.376 207.177zM370.083 253.477H205.589c-19.234 0-34.885 15.648-34.885 34.884s15.65 34.885 34.885 34.885h164.494c19.234 0 34.884-15.648 34.884-34.885S389.317 253.477 370.083 253.477zM370.083 313.447H205.589c-13.832 0-25.086-11.253-25.086-25.086s11.253-25.086 25.086-25.086h164.494c13.832 0 25.086 11.253 25.086 25.086S383.916 313.447 370.083 313.447z" style="fill:#3a4b81"/>
    </g>
  </g>
</svg>
