<svg xmlns="http://www.w3.org/2000/svg" xml:space="preserve" style="enable-background:new 0 0 512 512" viewBox="0 0 512 512">
  <g id="_x34_3_Send_Love">
    <g>
      <path d="M479.454,133.883l10.972,76.692c15.349,15.211,12.774,43.197-5.944,62.972l-58.686,62
			l-61.873-129.358l7.746-15.978c7.037-14.514,16.175-28.274,27.052-40.731l6.643-7.609c17.588-20.145,30.511-43.555,37.451-67.843
			l3.022-10.578l22.52,21.316c20.185,19.106,17.129,55.111-6.827,80.419l-23.221,24.532" style="fill:#fff"/>
      <path d="M426.537,204.131c0,36.381,11.599,70.056,31.393,97.467l-32.128,33.945L363.905,206.18
			l7.771-15.967c7.036-14.498,16.161-28.262,27.063-40.749l6.611-7.578c17.591-20.143,30.543-43.572,37.463-67.851l3.016-10.593
			l22.54,21.341c1.469,1.391,2.784,2.861,4.021,4.407C443.935,119.152,426.537,159.592,426.537,204.131z" style="fill:#e7e6fd"/>
      <path d="m458.601 246.661 21.688-22.912c24.56-25.947 27.694-62.862 6.999-82.45l-7.835-7.416c-4.818 17.221-20.647 36.163-41.145 55.834M32.546 133.883l-10.972 76.692C6.225 225.786 8.8 253.772 27.518 273.547l58.686 62 61.873-129.358-7.746-15.978c-7.037-14.514-16.175-28.274-27.052-40.731l-6.643-7.609c-17.588-20.145-30.511-43.555-37.451-67.843l-3.022-10.578-22.52 21.316c-20.185 19.106-17.129 55.111 6.827 80.419l23.221 24.532" style="fill:#fff"/>
      <path d="M148.094,206.18L86.196,335.543L52.908,300.36C71.698,270.706,82.6,235.563,82.6,197.868
			c0-42.799-14.034-82.35-37.773-114.246L66.169,63.44l3.016,10.593c6.959,24.28,19.872,47.709,37.463,67.851l6.65,7.578
			c10.864,12.488,19.988,26.251,27.025,40.749L148.094,206.18z" style="fill:#e7e6fd"/>
      <path d="M53.398,246.661l-21.688-22.912c-24.56-25.947-27.694-62.862-6.999-82.45l7.835-7.416
			c4.818,17.221,20.647,36.163,41.145,55.834" style="fill:#fff"/>
      <path d="M426.553,240.229v172.232c0,11.526-5.428,21.822-13.877,28.369
			c-6.155,4.868-13.821,7.722-22.214,7.722H121.539c-8.393,0-16.059-2.854-22.214-7.722c-8.449-6.547-13.877-16.843-13.877-28.369
			V240.229c0-19.921,16.171-36.092,36.091-36.092h268.923C410.381,204.137,426.553,220.309,426.553,240.229z" style="fill:#9a88fb"/>
      <polyline points="97.198 213.594 256 372.396 414.802 213.594" style="fill:#9a88fb"/>
      <path d="M412.676,440.83c-6.155,4.868-13.821,7.722-22.214,7.722H121.539
			c-8.393,0-16.059-2.854-22.214-7.722l128.665-100.864c16.448-12.894,39.574-12.894,56.022,0L412.676,440.83z" style="fill:#9a88fb"/>
      <path d="M255.252,290.215c-7.561-16.165-18.819-23.596-33.148-23.77
			c-15.018-0.182-28.784,8.068-36.99,20.647c-12.601,19.316-10.424,40.475,1.525,62.853c6.55,12.267,15.468,23.084,25.665,32.538
			c12.699,11.773,27.089,23.349,42.948,34.753c25.839-20.128,48.947-40.51,65.413-61.509c9.496-12.111,14.981-27.052,14.706-42.439
			c-0.067-3.727-0.453-7.239-1.141-10.55c-5.562-26.783-34.493-41.552-59.947-31.533
			C265.75,274.564,259.195,280.612,255.252,290.215z" style="fill:#fbecb3"/>
      <path d="M490.658,137.738l-5.773-5.463c4.327-19.022,0.525-38.11-13.159-51.072l-22.521-21.315
			c-1.244-1.172-3.019-1.612-4.66-1.167c-1.651,0.455-2.947,1.737-3.421,3.383c-2.154,5.489-7.673,40.141-39.449,76.549
			c-3.558,4.514-20.658,21.024-34.411,49.42l-5.415,11.167H150.154l-5.415-11.167c-13.745-28.352-30.633-44.623-34.413-49.42
			c-17.1-19.593-29.696-42.406-36.43-65.97l-3.024-10.579c-0.471-1.646-1.766-2.928-3.416-3.383
			c-1.648-0.435-3.416-0.005-4.663,1.167L40.275,81.203c-10.868,10.292-16.071,25.157-14.653,41.86
			c0.262,3.084,0.799,6.157,1.494,9.209l-5.774,5.465c-18.289,17.313-19.78,46.828-5.749,72.229
			c-14.524,17.643-11.246,46.223,8.369,66.95L80.549,336.7v75.76c0,23.089,18.864,40.99,40.99,40.99h268.921
			c21.884,0,40.994-17.776,40.994-40.99v-75.763l56.587-59.78c19.612-20.726,22.886-49.304,8.366-66.947
			C510.438,184.569,508.947,155.051,490.658,137.738z M390.459,209.038c6.244,0,12.053,1.862,16.937,5.034l-73.697,73.694
			c-12.032-21.044-38.16-30.197-61.209-21.122c-7.22,2.842-13.005,7.344-17.282,13.435c-18.15-27.442-56.292-23.113-74.197,4.335
			c-0.815,1.249-1.572,2.511-2.278,3.786l-74.128-74.128c4.882-3.172,10.691-5.035,16.934-5.035H390.459z M316.81,352.705
			c-13.794,17.588-33.444,36.2-61.673,58.396c-23.117-16.855-50.774-38.361-64.176-63.463c-11.962-22.406-12.531-41.334-1.744-57.87
			c15.107-23.154,47.859-26.857,61.595,2.521c0.828,1.766,2.407,2.828,4.56,2.823c1.943-0.048,3.675-1.239,4.411-3.038
			c3.263-7.942,8.593-13.282,16.296-16.311c22.916-9.01,48.473,4.461,53.353,27.966C332.598,318.985,328.797,337.406,316.81,352.705
			z M80.549,322.448l-49.473-52.268c-14.922-15.769-18.658-37.48-9.795-51.412c2.098,2.868,4.343,5.679,6.871,8.35l21.689,22.909
			c1.856,1.962,4.956,2.052,6.926,0.191c1.964-1.861,2.05-4.962,0.189-6.928l-21.689-22.909
			c-22.662-23.942-25.889-57.827-7.189-75.525l2.383-2.258c6.16,14.359,19.033,30.684,39.837,50.655
			c1.955,1.871,5.05,1.813,6.928-0.144c1.873-1.952,1.809-5.053-0.144-6.928c-19.921-19.122-39.668-40.114-41.698-63.946
			c-1.16-13.674,2.969-25.717,11.627-33.913l16.658-15.77l0.806,2.818c7.127,24.947,20.428,49.056,38.468,69.726
			c3.648,4.623,19.889,20.245,32.978,47.253l3.341,6.89h-17.724c-22.602,0-40.99,18.387-40.99,40.99V322.448z M90.348,412.46
			V240.229c0-7.422,2.615-14.238,6.958-19.599l77.225,77.226c-5.384,16.321-2.813,34.547,7.784,54.395
			c2.107,3.947,4.596,7.799,7.253,11.605l-90.071,70.609C93.648,428.687,90.348,420.857,90.348,412.46z M390.459,443.651H121.539
			c-4.8,0-9.259-1.067-13.694-3.278l87.631-68.695c14.016,17.093,39.369,36.916,56.914,49.534c0.856,0.617,1.861,0.923,2.861,0.923
			c1.062,0,2.129-0.344,3.01-1.033c24.311-18.937,42.561-35.372,56.48-50.822l89.418,70.097
			C399.726,442.586,395.22,443.651,390.459,443.651z M421.655,412.46c0,8.385-3.294,16.204-9.158,22.002l-91.342-71.607
			c1.132-1.369,2.303-2.745,3.368-4.102c13.628-17.393,18.287-38.709,14.507-57.008c-0.304-1.464-0.711-2.891-1.146-4.306
			l76.811-76.808c4.345,5.36,6.96,12.177,6.96,19.599V412.46z M455.233,250.219c1.963,1.854,5.061,1.777,6.928-0.191l21.689-22.909
			c2.527-2.67,4.771-5.48,6.868-8.347c8.861,13.93,5.127,35.64-9.796,51.408l-49.468,52.262v-82.214
			c0-22.602-18.392-40.99-40.994-40.99h-17.72l3.343-6.895c13.098-27.037,29.458-42.8,32.971-47.253
			c30.003-34.362,38.966-71.781,39.277-72.539l16.66,15.77c11.682,11.056,14.073,27.912,9.923,43.717
			c-9.152,22.307-18.19,33.212-39.994,54.143c-1.952,1.876-2.014,4.976-0.144,6.928c1.871,1.957,4.986,2.014,6.928,0.144
			c20.803-19.971,33.674-36.296,39.837-50.655l2.383,2.258c18.698,17.698,15.473,51.583-7.191,75.525l-21.689,22.909
			C453.186,245.258,453.267,248.358,455.233,250.219z" style="fill:#3a4b81"/>
    </g>
  </g>
</svg>
