<svg xmlns="http://www.w3.org/2000/svg" xml:space="preserve" style="enable-background:new 0 0 512 512" viewBox="0 0 512 512">
  <g id="_x34_9_Sex">
    <g>
      <circle cx="322.333" cy="105.204" r="23.355" style="fill:#fbecb3"/>
      <circle cx="55.186" cy="405.176" r="44.156" style="fill:#fff" transform="rotate(-58.286 55.171 405.148)"/>
      <path d="M146.841,371.961c50.832,0.149,91.463,17.984,127.526,43.739l83.944-84.342
			c8.34-8.38,21.626-9.209,30.943-1.931l103.277,80.669c10.959,8.56,11.301,25.021,0.708,34.029l0,0
			c-8.018,6.818-19.747,6.987-27.958,0.403l-75.924-60.881c-5.909-4.738-14.321-4.713-20.202,0.059l-46.91,38.066l-114.081,31.249
			c-7.328,2.007-15.05,2.186-22.458,0.497c-17.117-3.902-32.339-9.883-45.694-17.913c-8.096-4.868-14.753-11.95-18.651-20.555
			c-2.519-5.561-3.714-11.095-3.448-16.602C118.643,383.33,131.705,371.917,146.841,371.961z" style="fill:#fbecb3"/>
      <ellipse cx="290.249" cy="131.829" rx="40.988" ry="40.989" style="fill:#fff" transform="rotate(-58.286 290.225 131.827)"/>
      <path d="M236.932,231.047c15.029-6.317,24.697-17.181,28.544-32.98c0.766-3.144,3.055-5.679,6.123-6.711
			c17.382-5.848,29.401-0.554,37.738,12.392c1.824,2.832,2.436,6.272,1.683,9.555c-4.435,19.315-2.615,43.563,1.65,69.74
			c3.974,16.069,9.431,31.422,16.412,46.038c5.899,12.35,3.612,27.044-5.963,36.824l-48.751,49.796h70.533
			c11.093,0,20.086,8.993,20.086,20.086v0c0,11.093-8.993,20.086-20.086,20.086H210.14c-8.9,0-16.115-7.215-16.115-16.115v0
			c0-12.237,5.997-23.824,16.265-30.482c0.146-0.095,0.293-0.189,0.441-0.283c3.304-2.096,6.912-3.696,10.647-4.865
			c28.124-8.8,43.958-26.459,49.823-51.303c0.573-2.426,0.605-4.954,0.07-7.389l-17.922-81.545
			c-3.363,1.174-6.645,1.877-9.826,1.997c-10.244,0.388-18.376-8.448-18.023-18.693c0.015-0.43,0.04-0.857,0.074-1.281
			C226.12,239.233,230.753,233.644,236.932,231.047z" style="fill:#fff"/>
      <path d="M303.656 357.665c9.589-9.782 11.854-24.478 5.975-36.813-6.987-14.648-12.431-29.971-16.431-46.065-4.24-26.164-6.071-50.401-1.638-69.723.771-3.277.145-6.746-1.686-9.54-1.59-2.457-3.325-4.674-5.204-6.554 10.601 0 18.599 5.349 24.671 14.793 1.831 2.795 2.409 6.264 1.687 9.54-4.433 19.322-2.602 43.559 1.638 69.723 3.999 16.094 9.444 31.417 16.431 46.065 5.878 12.336 3.614 27.032-5.975 36.813l-40.668 41.535h0c-10.262 0-15.455-12.358-8.274-19.688L303.656 357.665zM364.995 435.772c0 5.541-2.265 10.6-5.879 14.214-3.662 3.662-8.673 5.879-14.215 5.879H210.129c-6.023 0-11.275-3.325-14.022-8.24h129.328c5.541 0 10.552-2.265 14.215-5.878 3.614-3.614 5.878-8.625 5.878-14.215 0-4.433-1.445-8.529-3.903-11.853h3.277C355.985 415.679 364.995 424.69 364.995 435.772zM341.626 415.679H274.36l8.095-8.239h42.981C332.085 407.44 337.964 410.668 341.626 415.679z" style="fill:#e7e6fd"/>
      <path d="M156.691,407.849l-0.001-0.003c-2.887-9.232,2.256-19.057,11.489-21.945L225,368.13
			c4.207-1.316,7.764-4.17,9.96-7.992l33.278-57.933c4.818-8.388,15.523-11.282,23.911-6.464l0.002,0.001
			c8.388,4.818,11.283,15.524,6.464,23.912l-40.108,69.824l0,0c-2.196,3.823-5.752,6.678-9.96,7.994l0,0l-69.912,21.864
			C169.403,422.224,159.578,417.081,156.691,407.849z" style="fill:#fbecb3"/>
      <path d="M304.52,210.848l98.306,102.618c6.202,6.473,5.981,16.749-0.493,22.95v0
			c-6.474,6.201-16.749,5.981-22.95-0.493l-98.306-102.618c-6.202-6.474-5.981-16.749,0.493-22.95v0
			C288.044,204.154,298.319,204.374,304.52,210.848z" style="fill:#fff"/>
      <path d="M406.868,328.417c-0.626,2.939-2.168,5.734-4.529,7.999c-3.132,3.035-7.18,4.529-11.227,4.529
			c-4.289,0-8.529-1.686-11.709-5.011L281.057,233.3c-6.168-6.457-5.975-16.721,0.53-22.936c1.927-1.879,4.192-3.132,6.602-3.854
			c-1.253,5.156,0.096,10.842,4.047,14.937l98.297,102.634c3.18,3.324,7.469,5.011,11.709,5.011
			C403.832,329.091,405.374,328.85,406.868,328.417z" style="fill:#e7e6fd"/>
      <path d="M84.545 72.151c-5.095-10.892-12.681-15.9-22.337-16.017-10.12-.123-19.396 5.437-24.926 13.913C28.791 83.062 30.259 97.32 38.31 112.4c4.414 8.266 10.423 15.555 17.295 21.926 6.267 5.81 13.145 11.548 20.575 17.222 4.889 3.733 11.706 3.626 16.479-.254 14.112-11.469 26.624-23.086 35.965-34.998 6.399-8.161 10.095-18.229 9.91-28.598-.045-2.512-.306-4.879-.769-7.111-3.748-18.047-23.242-27.998-40.393-21.247C91.62 61.603 87.202 65.679 84.545 72.151zM145.258 242.35c-5.095-10.892-12.681-15.9-22.337-16.017-10.12-.123-19.396 5.437-24.926 13.913-8.491 13.016-7.024 27.274 1.027 42.353 4.414 8.266 10.423 15.555 17.295 21.926 6.267 5.81 13.145 11.548 20.575 17.222 4.889 3.733 11.706 3.626 16.479-.254 14.112-11.469 26.624-23.086 35.965-34.998 6.399-8.161 10.095-18.229 9.91-28.598-.045-2.512-.306-4.879-.769-7.111-3.748-18.047-23.242-27.998-40.393-21.247C152.333 231.803 147.915 235.878 145.258 242.35zM417.974 147.848c-5.095-10.892-12.681-15.9-22.337-16.017-10.12-.123-19.396 5.437-24.926 13.913-8.491 13.016-7.024 27.274 1.027 42.353 4.414 8.266 10.423 15.555 17.295 21.926 6.267 5.81 13.145 11.548 20.575 17.222 4.889 3.733 11.706 3.626 16.479-.254 14.112-11.469 26.624-23.086 35.965-34.998 6.399-8.161 10.095-18.229 9.91-28.598-.045-2.512-.306-4.879-.769-7.111-3.748-18.047-23.242-27.998-40.393-21.247C425.049 137.301 420.631 141.377 417.974 147.848z" style="fill:#9a88fb"/>
      <path d="M350.586 105.204c0-15.579-12.674-28.253-28.253-28.253-8.726 0-16.537 3.978-21.722 10.215-3.336-.775-6.795-1.225-10.363-1.225-25.301 0-45.884 20.588-45.884 45.889s20.583 45.889 45.884 45.889c25.73 0 46.964-21.39 45.786-47.927C344.679 124.958 350.586 115.793 350.586 105.204zM290.248 167.92c-19.899 0-36.085-16.191-36.085-36.09s16.186-36.09 36.085-36.09c19.899 0 36.09 16.191 36.09 36.09S310.147 167.92 290.248 167.92zM334.303 119.107c-3.573-12.344-12.191-22.538-23.476-28.233 3.147-2.563 7.132-4.124 11.505-4.124 10.177 0 18.454 8.277 18.454 18.454C340.787 110.791 338.246 115.738 334.303 119.107zM495.545 406.236l-87.841-68.612c6.338-8.133 5.997-19.89-1.344-27.549l-90.746-94.725c.066-.308.109-.645.179-.947 1.043-4.531.191-9.383-2.335-13.311-10.182-15.808-24.803-20.669-43.425-14.378-4.66 1.569-8.143 5.383-9.316 10.196-3.435 14.11-11.837 23.799-25.684 29.621-2.768 1.164-5.196 2.795-7.266 4.727l-2.844-2.191c-2.148-1.66-5.22-1.254-6.871.89-1.651 2.143-1.254 5.22.89 6.871l3.226 2.486c-3.211 7.986-1.616 18.193 5.247 25.035 6.394 6.366 14.083 7.419 22.263 5.665l8.69 39.536-27.656 48.146c-1.588 2.761-4.134 4.809-7.177 5.761l-29.351 9.18c-15.336-3.611-31.006-5.529-47.327-5.577h-.1c-18.086 0-32.894 13.665-33.736 31.148-.697 14.278 7.491 31.386 24.464 41.597 16.005 9.623 45.444 21.651 64.595 19.347 2.484 1.036 5.204 1.619 8.059 1.619h134.763c13.775 0 24.985-11.21 24.985-24.985 0-13.775-11.21-24.985-24.985-24.985h-1.362l28.702-23.291c4.057-3.297 9.971-3.316 14.048-.038l75.927 60.879c10.033 8.038 24.416 7.828 34.196-.493C509.38 436.827 508.942 416.695 495.545 406.236zM399.289 316.85c4.319 4.517 4.189 11.674-.345 16.028-4.521 4.316-11.698 4.158-16.024-.344l-98.309-102.615c-4.32-4.517-4.167-11.703.344-16.028 4.51-4.314 11.685-4.177 16.028.344L399.289 316.85zM333.505 326.965c-6.77-14.162-12.182-29.339-16-44.712-.256-1.571-.461-3.045-.688-4.561l43.858 45.78c-2.092 1.19-4.064 2.649-5.836 4.431l-17.847 17.931C337.434 339.476 336.373 332.973 333.505 326.965zM191.623 449.483c-10.238-.993-32.24-7.942-49.086-18.08-13.913-8.36-20.245-22.102-19.727-32.722.589-12.249 11.1-21.823 23.947-21.823h.072c9.367.028 18.507.73 27.506 1.986l-7.616 2.382c-11.824 3.691-18.406 16.254-14.703 28.086 3.71 11.844 16.289 18.401 28.086 14.698l14.251-4.458c-3.346 6.044-5.227 12.945-5.227 20.204C189.125 443.285 190.081 446.561 191.623 449.483zM177.173 414.662c-6.631 2.072-13.711-1.587-15.808-8.277v-.005c-2.082-6.662 1.627-13.728 8.277-15.804l56.822-17.77c5.402-1.689 9.928-5.32 12.746-10.229l33.277-57.932c3.473-6.047 11.2-8.112 17.225-4.655 6.033 3.464 8.119 11.191 4.655 17.225l-40.109 69.826c-1.584 2.761-4.134 4.804-7.177 5.756L177.173 414.662zM344.902 420.6c8.373 0 15.186 6.813 15.186 15.186s-6.813 15.186-15.186 15.186H210.139c-6.182 0-11.215-5.033-11.215-11.215 0-10.349 4.85-19.787 13.317-25.8l37.763-11.812c5.407-1.684 9.933-5.32 12.751-10.225l40.109-69.826c6.207-10.81 2.401-24.471-8.277-30.602-9.832-5.649-22.144-2.909-28.868 5.86l-7.586-34.515c-.301-1.368-1.172-2.541-2.397-3.225-1.188-.663-2.635-.823-4.005-.349-6.455 2.261-12.591 2.926-17.397-1.852-6.162-6.151-5.468-17.655 4.498-21.846 16.674-7.014 27.243-19.239 31.406-36.339.373-1.531 1.464-2.737 2.919-3.225 13.121-4.419 22.782-1.855 30.212 7.889-7.933-4.603-18.244-3.727-25.188 2.929-8.416 8.057-8.703 21.464-.641 29.875l27.775 28.991c.673 5.828 1.525 11.972 2.598 18.534 4.062 16.406 9.694 32.21 16.751 46.97 5.014 10.507 2.986 23.081-5.048 31.291l-48.75 49.793c-1.378 1.407-1.78 3.507-1.014 5.325.766 1.818 2.546 3 4.517 3H344.902zM490.067 440.393c-6.215 5.282-15.349 5.416-21.717.311l-75.927-60.879c-7.646-6.124-18.736-6.105-26.354.077l-38.078 30.899h-41.835l75.631-75.989c1.756-1.766 3.813-3.031 5.998-3.92l8.064 8.417c5.843 6.1 15.159 8.53 23.942 4.565l89.726 70.085C498.038 420.611 498.289 433.404 490.067 440.393zM55.185 356.122c-27.052 0-49.056 22.004-49.056 49.052 0 27.052 22.004 49.056 49.056 49.056s49.056-22.004 49.056-49.056C104.241 378.127 82.237 356.122 55.185 356.122zM55.185 444.432c-21.646 0-39.258-17.612-39.258-39.258 0-21.646 17.612-39.253 39.258-39.253s39.258 17.607 39.258 39.253C94.443 426.82 76.831 444.432 55.185 444.432zM73.209 155.442c6.772 5.171 16.042 4.939 22.54-.344 16.095-13.081 28.11-24.784 36.731-35.779 9.466-12.073 12.737-26.951 10.081-39.727-4.321-20.803-26.792-32.749-46.985-24.813-4.44 1.746-8.119 4.368-11.005 7.837-12.947-17.262-38.98-14.277-51.396 4.756-8.923 13.684-8.651 29.612.813 47.334C42.673 130.958 56.928 143.003 73.209 155.442zM41.386 72.721c9.519-14.593 30.028-17.101 38.717 1.507.823 1.761 2.732 2.789 4.555 2.823 1.943-.048 3.679-1.239 4.416-3.038 2.029-4.933 5.33-8.239 10.091-10.115 14.501-5.702 30.716 2.802 33.798 17.684 2.045 9.866-.423 21.778-8.196 31.688-8.163 10.416-19.679 21.607-35.2 34.219-3.029 2.469-7.311 2.536-10.411.163-14.384-10.98-28.643-22.804-36.526-37.559C34.87 95.558 34.463 83.333 41.386 72.721z" style="fill:#3a4b81"/>
      <path d="M156.461 325.295c16.091-13.076 28.11-24.779 36.731-35.774 9.5-12.116 12.709-26.926 10.086-39.731-4.352-20.903-26.903-32.714-46.99-24.808-4.44 1.746-8.119 4.368-11.005 7.832-13.205-17.606-39.229-13.889-51.391 4.756-8.928 13.684-8.655 29.612.809 47.334 8.661 16.226 22.962 28.323 39.215 40.736C140.633 330.761 149.899 330.63 156.461 325.295zM103.342 280.291c-7.756-14.536-8.163-26.76-1.239-37.373 9.519-14.592 30.013-17.101 38.722 1.507.804 1.727 2.536 2.823 4.435 2.823.038 0 .077 0 .12 0 1.943-.048 3.675-1.239 4.411-3.038 2.024-4.928 5.32-8.234 10.086-10.11 14.527-5.716 30.715 2.828 33.803 17.67 2.063 9.998-.503 21.894-8.201 31.703-8.167 10.416-19.679 21.607-35.2 34.219-3.029 2.459-7.316 2.531-10.411.158C125.481 306.862 111.228 295.052 103.342 280.291zM429.001 130.476c-4.435 1.751-8.115 4.373-11 7.837-12.985-17.298-38.917-14.355-51.396 4.756-8.928 13.684-8.655 29.612.813 47.334 8.652 16.227 22.972 28.323 39.219 40.736 6.718 5.129 15.978 4.982 22.54-.344 16.105-13.091 28.119-24.794 36.731-35.779 9.466-12.073 12.737-26.951 10.081-39.727C471.648 134.382 449.106 122.576 429.001 130.476zM458.196 188.968c-8.153 10.402-19.669 21.598-35.2 34.219-3.029 2.469-7.316 2.536-10.411.163-14.377-10.975-28.684-22.873-36.526-37.559-7.761-14.536-8.167-26.755-1.249-37.368 9.624-14.734 30.083-16.977 38.722 1.502.828 1.761 2.598 2.909 4.555 2.823 1.947-.048 3.679-1.239 4.416-3.038 2.024-4.928 5.325-8.239 10.091-10.115 14.476-5.696 30.712 2.782 33.798 17.684C468.438 167.146 465.969 179.057 458.196 188.968z" style="fill:#3a4b81"/>
    </g>
  </g>
</svg>
