<svg xmlns="http://www.w3.org/2000/svg" xml:space="preserve" style="enable-background:new 0 0 512 512" viewBox="0 0 512 512">
  <g id="_x30_8_Teddy_Bear_Love">
    <g>
      <circle cx="343.245" cy="57.37" r="46.379" style="fill:#fbecb3"/>
      <circle cx="343.245" cy="57.369" r="22.813" style="fill:#fff"/>
      <circle cx="171.726" cy="57.37" r="46.379" style="fill:#fbecb3"/>
      <path d="M171.727 80.182c-12.58 0-22.813-10.233-22.813-22.813s10.233-22.813 22.813-22.813c12.579 0 22.812 10.233 22.812 22.813S184.305 80.182 171.727 80.182zM433.411 356.973c-.636.566-1.273 1.108-1.932 1.626-21.281 16.968-52.53.589-52.554-26.63-.024-38.767-26.277-71.007-59.553-101.455 4.996-2.757 9.733-5.844 14.187-9.238 3.205-2.451 6.269-5.043 9.191-7.753 54.722 25.735 93.819 58.045 103.151 102.869C448.965 331.191 444.629 346.863 433.411 356.973z" style="fill:#fff"/>
      <path d="M433.43,356.98c-0.637,0.539-1.274,1.078-1.96,1.617c-9.505,7.545-20.969,8.476-30.768,4.752
			c2.891-1.078,5.634-2.646,8.28-4.752c0.637-0.539,1.274-1.078,1.911-1.617c11.22-10.142,15.58-25.771,12.494-40.567
			c-8.476-40.861-41.694-71.287-88.925-95.833c2.891-2.254,5.684-4.605,8.28-7.055c54.727,25.722,93.824,58.058,103.182,102.888
			C448.962,331.209,444.65,346.839,433.43,356.98z" style="fill:#e7e6fd"/>
      <path d="M192.63,230.514c-33.276,30.448-59.53,62.688-59.553,101.455
			c-0.024,27.22-31.273,43.598-52.554,26.63c-0.66-0.519-1.296-1.061-1.932-1.626c-11.218-10.11-15.554-25.782-12.49-40.582
			c9.332-44.824,48.43-77.134,103.152-102.869c2.922,2.71,5.986,5.303,9.191,7.753C182.897,224.67,187.634,227.757,192.63,230.514z" style="fill:#fff"/>
      <path d="M89.344,322.292c-3.087,14.796,1.274,30.426,12.493,40.567c0.637,0.539,1.274,1.078,1.911,1.617
			c0.294,0.245,0.588,0.441,0.882,0.637c-8.084,1.225-16.707-0.637-24.105-6.516c-0.637-0.539-1.274-1.078-1.911-1.617
			c-11.22-10.142-15.58-25.771-12.494-40.567c9.309-44.83,48.406-77.166,103.133-102.888c2.94,2.695,5.977,5.291,9.211,7.741
			c1.323,1.029,2.695,2.009,4.066,2.989C133.047,249.193,98.065,280.256,89.344,322.292z" style="fill:#e7e6fd"/>
      <path d="M376.05,139.052c0,28.869-12.679,55.099-33.3,74.471c-2.922,2.71-5.986,5.303-9.191,7.753
			c-4.454,3.394-9.191,6.481-14.187,9.238c-18.406,10.299-40.11,16.237-63.371,16.237c-23.26,0-44.965-5.939-63.371-16.237
			c-4.996-2.757-9.733-5.844-14.187-9.238c-3.205-2.451-6.269-5.043-9.191-7.753c-20.621-19.372-33.3-45.602-33.3-74.471
			c0-59.482,53.756-107.7,120.049-107.7S376.05,79.569,376.05,139.052z" style="fill:none"/>
      <path d="M376.058,139.054c0,28.857-12.689,55.119-33.316,74.471c-2.891,2.695-5.977,5.291-9.162,7.741
			c-4.458,3.381-9.211,6.467-14.208,9.26c-18.422,10.289-40.126,16.217-63.35,16.217c-23.272,0-44.977-5.928-63.399-16.217
			c-4.997-2.793-9.75-5.879-14.159-9.26c-3.234-2.45-6.271-5.046-9.211-7.741c-20.627-19.352-33.316-45.614-33.316-74.471
			c0-59.479,53.747-107.69,120.085-107.69C322.311,31.364,376.058,79.575,376.058,139.054z" style="fill:#9a88fb"/>
      <path d="M387.515,342.494c0,72.633-58.87,131.502-131.502,131.502s-131.526-58.87-131.526-131.502
			s58.893-131.526,131.526-131.526S387.515,269.861,387.515,342.494z" style="fill:#9a88fb"/>
      <path d="M340.275,194.221c0,9.615-2.404,18.759-6.716,27.055c-20.927,15.884-48.005,25.476-77.558,25.476
			c-29.553,0-56.631-9.592-77.558-25.476c-4.313-8.296-6.716-17.439-6.716-27.055c0-38.107,37.73-69.003,84.275-69.003
			S340.275,156.114,340.275,194.221z" style="fill:#fff"/>
      <path d="M277.54,157.7c0,11.892-9.648,21.539-21.539,21.539c-11.892,0-21.539-9.648-21.539-21.539
			C234.462,145.808,277.54,145.808,277.54,157.7z" style="fill:#fbecb3"/>
      <ellipse cx="302.696" cy="100.756" rx="12.06" ry="20.574" style="fill:#fff"/>
      <ellipse cx="209.306" cy="100.756" rx="12.06" ry="20.574" style="fill:#fff"/>
      <ellipse cx="156.314" cy="440.82" rx="50.259" ry="66.53" style="fill:#fff" transform="rotate(-40.872 156.295 440.788)"/>
      <path d="M205.068,485.639c-1.568,1.96-3.283,3.821-5.242,5.487c-20.97,18.177-57.47,10.338-81.527-17.442
			c-24.007-27.731-26.506-65.016-5.536-83.192c7.055-6.026,15.727-9.211,25.183-9.701c-15.188,19.451-11.122,52.473,10.73,77.705
			C164.697,477.016,186.254,486.668,205.068,485.639z" style="fill:#e7e6fd"/>
      <ellipse cx="355.688" cy="440.82" rx="66.53" ry="50.259" style="fill:#fff" transform="rotate(-49.128 355.692 440.812)"/>
      <path d="M409.619,404.799c-21.264-9.064-50.807,0.098-71.287,23.762
			c-18.814,21.753-24.448,49.288-15.923,68.935c-3.723-1.568-7.153-3.675-10.24-6.369c-21.018-18.177-18.52-55.413,5.536-83.192
			c24.007-27.78,60.508-35.619,81.527-17.442C403.789,394.461,407.267,399.312,409.619,404.799z" style="fill:#e7e6fd"/>
      <path d="M212.181,322.447c5.402-25.492,18.344-48.772,37.143-66.816c4.939,5.145,9.877,10.29,14.816,15.435
			c-15.7,15.078-26.51,34.524-31.029,55.818C223.45,330.226,216.847,328.042,212.181,322.447z" style="fill:#fbecb3"/>
      <path d="M299.821,322.447c-5.402-25.492-18.344-48.772-37.143-66.816
			c-4.939,5.145-9.877,10.29-14.816,15.435c15.7,15.078,26.51,34.524,31.029,55.818
			C288.552,330.226,295.155,328.042,299.821,322.447z" style="fill:#fbecb3"/>
      <path d="M253.719,239.656v35.601l-41.406,9.331c-11.998,2.704-23.406-6.419-23.406-18.718v-16.826
			c0-12.299,11.408-21.422,23.406-18.718L253.719,239.656z" style="fill:#fff"/>
      <path d="M253.725,263.814v11.428l-41.417,9.362c-11.977,2.679-23.404-6.424-23.404-18.723v-16.851
			c0-7.263,4.003-13.429,9.749-16.69c-0.161,1.001-0.258,2.066-0.258,3.131v16.851c0,12.299,11.428,21.403,23.404,18.724
			L253.725,263.814z" style="fill:#e7e6fd"/>
      <path d="M258.283,239.656v35.601l41.406,9.331c11.998,2.704,23.406-6.419,23.406-18.718v-16.826
			c0-12.299-11.408-21.422-23.406-18.718L258.283,239.656z" style="fill:#fff"/>
      <path d="M323.099,249.029v16.851c0,12.299-11.428,21.403-23.404,18.723l-41.417-9.362v-10.04l30.99,7.005
			c12.009,2.679,23.404-6.424,23.404-18.723v-16.851c0-1.743-0.226-3.39-0.646-4.971
			C318.482,234.696,323.099,241.217,323.099,249.029z" style="fill:#e7e6fd"/>
      <circle cx="256.001" cy="257.457" r="23.016" style="fill:#fbecb3" transform="rotate(-76.714 256.027 257.468)"/>
      <path d="M255.514,357.985c-4.931-10.541-12.273-15.388-21.617-15.501
			c-9.793-0.119-18.771,5.262-24.123,13.465c-8.218,12.597-6.798,26.395,0.994,40.989c4.271,8,10.087,15.054,16.737,21.219
			c8.281,7.678,17.666,15.226,28.008,22.663c16.851-13.126,31.92-26.418,42.658-40.112c6.193-7.898,9.77-17.642,9.59-27.676
			c-0.043-2.43-0.296-4.721-0.744-6.88c-3.627-17.466-22.494-27.098-39.093-20.564C262.36,347.778,258.085,351.723,255.514,357.985z
			" style="fill:#fff"/>
      <path d="M276.008,423.766c-6.395,5.756-13.27,11.405-20.518,17.054
			c-10.339-7.461-19.719-14.976-27.979-22.65c-6.662-6.182-12.471-13.217-16.734-21.211c-7.781-14.602-9.22-28.406-1.013-41.036
			c3.251-4.956,7.887-8.9,13.217-11.192C232.574,376.068,251.28,403.461,276.008,423.766z" style="fill:#e7e6fd"/>
      <path d="M351.052,212.132c19.325-20.39,29.907-46.082,29.907-73.079c0-14.052-2.896-27.501-8.138-39.916
			c13.104-9.289,21.703-24.518,21.703-41.767c0-28.275-23.004-51.279-51.281-51.279c-19.475,0-36.408,10.941-45.081,26.979
			c-25.726-8.332-54.527-9.003-81.784-0.766c-8.792-15.619-25.486-26.213-44.651-26.213c-28.275,0-51.279,23.004-51.279,51.279
			c0,16.242,7.657,30.666,19.478,40.067c-5.712,12.884-8.887,26.918-8.887,41.616c0,26.985,10.57,52.664,29.91,73.08
			c-58.493,28.726-91.168,62.539-99.648,103.266c-3.759,18.171,2.736,36.484,16.167,47.03c13.201,10.524,30.528,10.447,43.8,1.165
			c0.791,5.022,1.909,9.929,3.232,14.756c-5.494,1.843-10.533,4.655-14.925,8.454c-25.526,22.091-17.996,63.497,5.029,90.108
			c22.972,26.544,62.971,39.973,88.45,17.923c6.696-5.796,11.186-13.361,13.643-21.865c26.03,7.874,52.392,7.916,78.534,0.027
			c2.516,8.637,7.111,16.122,13.716,21.838c24.888,21.523,64.976,9.205,88.453-17.923c25.775-29.784,28.028-70.204,5.029-90.108
			c-4.391-3.799-9.43-6.611-14.926-8.455c1.317-4.81,2.447-9.693,3.236-14.696c1.617,1.118,3.33,2.13,5.149,3.005
			c13.161,6.33,28.367,5.013,40.784-6.029c0.01-0.007,0.014-0.012,0.024-0.019c12.143-10.947,17.507-28.272,14.005-45.217
			C442.22,274.673,409.547,240.86,351.052,212.132z M329.731,217.986c-5.716,4.265-10.045,6.799-15.146,9.473
			c-4.901-2.433-10.501-3.139-15.973-1.912l-30.395,6.849c-7.773-3.805-16.655-3.808-24.433,0l-30.396-6.849
			c-5.464-1.226-11.064-0.521-15.964,1.911c-0.027-0.014-0.055-0.027-0.083-0.041c-5.281-2.77-9.628-5.366-15.087-9.465
			c-3.731-7.557-5.628-15.532-5.628-23.729c0-35.346,35.609-64.104,79.374-64.104c43.77,0,79.376,28.758,79.376,64.104
			C335.377,202.429,333.474,210.417,329.731,217.986z M256,275.572c-9.99,0-18.114-8.127-18.114-18.115
			c0-9.99,8.124-18.117,18.114-18.117s18.119,8.127,18.119,18.117C274.12,267.445,265.99,275.572,256,275.572z M193.808,249.044
			c0-9.158,8.488-15.949,17.428-13.938l22.829,5.144c-3.732,4.747-5.978,10.714-5.978,17.207c0,6.492,2.247,12.459,5.978,17.205
			l-22.829,5.146c-8.969,2.008-17.428-4.802-17.428-13.94V249.044z M243.785,282.517c0.977,0.478,1.984,0.902,3.02,1.265
			c-8.37,11.766-14.449,25.016-17.842,39.224c-5.746,1.395-9.148-0.041-11.43-2.048c2.976-12.767,8.034-24.769,14.698-35.837
			L243.785,282.517z M268.217,282.518l11.56,2.605c6.663,11.067,11.721,23.068,14.697,35.833c-2.292,2.01-5.684,3.438-11.435,2.05
			c-3.393-14.211-9.478-27.457-17.847-39.222C266.23,283.421,267.238,282.997,268.217,282.518z M277.938,274.664
			c3.733-4.747,5.98-10.713,5.98-17.206c0-6.493-2.248-12.46-5.98-17.208l22.827-5.144c8.939-2.005,17.43,4.77,17.43,13.938v16.825
			c0,9.156-8.485,15.95-17.43,13.94L277.938,274.664z M343.243,15.89c22.875,0,41.482,18.607,41.482,41.48
			c0,13.34-6.368,25.183-16.183,32.776c-2.187-4.07-4.664-7.987-7.359-11.767c5.953-5.083,9.777-12.586,9.777-21.009
			c0-15.28-12.43-27.712-27.712-27.712c-9.754,0-18.269,5.118-23.203,12.758c-4.044-2.184-8.245-4.152-12.568-5.92
			C314.68,24.197,327.989,15.89,343.243,15.89z M355.148,70.633c-7.562-8.877-16.558-16.703-26.671-23.215
			c3.209-4.774,8.593-7.961,14.77-7.961c9.875,0,17.914,8.036,17.914,17.914C361.161,62.661,358.819,67.37,355.148,70.633z
			 M130.247,57.37c0-22.873,18.607-41.48,41.48-41.48c14.851,0,27.845,7.884,35.17,19.649c-4.379,1.693-8.616,3.622-12.722,5.738
			c-5.032-7.004-13.185-11.62-22.448-11.62c-15.28,0-27.712,12.433-27.712,27.712c0,7.547,3.065,14.367,7.978,19.367
			c-2.774,3.746-5.29,7.657-7.558,11.7C135.778,80.838,130.247,69.769,130.247,57.37z M158.257,69.032
			c-2.746-3.124-4.444-7.177-4.444-11.662c0-9.878,8.036-17.914,17.914-17.914c5.604,0,10.543,2.632,13.808,6.683
			C175.222,52.509,166.033,60.24,158.257,69.032z M256.024,36.263c63.487,0,115.137,46.112,115.137,102.79
			c0,24.341-9.622,47.511-27.049,66.027c0.634-3.577,1.064-7.189,1.064-10.858c0-40.75-40.004-73.903-89.175-73.903
			s-89.173,33.152-89.173,73.903c0,3.674,0.431,7.289,1.066,10.87c-17.434-18.521-27.056-41.695-27.056-66.039
			C140.837,82.375,192.511,36.263,256.024,36.263z M83.551,354.748c-10.422-8.192-15.704-22.617-12.655-37.358
			c7.971-38.291,39.877-70.379,97.501-98.036c2.651,2.343,7.586,6.277,12.297,9.49c-40.012,26.598-64.23,72.782-60.721,123.098
			C110.396,361.823,95.063,363.923,83.551,354.748z M196.643,487.424c-20.968,18.137-55.028,5.726-74.628-16.923
			c-19.229-22.22-27.27-57.907-6.029-76.286c20.867-18.054,54.961-5.808,74.628,16.923
			C212.853,436.835,215.556,471.056,196.643,487.424z M389.993,470.501c-22.239,25.696-55.707,33.298-74.635,16.923
			c-20.87-18.058-13.696-53.488,6.029-76.286c19.483-22.519,53.686-35.051,74.63-16.923
			C414.93,410.581,412.227,444.803,389.993,470.501z M313.98,404.727c-13.987,16.162-22.775,37.439-20.612,58.62
			c-24.37,7.554-49.666,7.787-74.817-0.03c1.928-18.856-4.997-40.644-20.526-58.59c-16.097-18.6-40.323-31.374-63.95-28.503
			c-15.26-54.89,7.916-110.99,53.912-140.417c-2.561,3.879-3.978,8.444-3.978,13.236v16.825c0,15.437,14.312,26.891,29.38,23.5
			l5.987-1.349c-5.394,10.496-9.499,21.67-11.987,33.411c-0.311,1.469,0.072,3,1.029,4.153c6.835,8.202,16.263,9.399,26.296,5.928
			c1.622-0.562,2.832-1.933,3.191-3.612c3.102-14.636,9.32-28.206,18.112-40.065c8.79,11.849,14.974,25.432,18.078,40.065
			c0.359,1.679,1.569,3.05,3.191,3.612c10.07,3.484,19.486,2.242,26.296-5.926c0.962-1.153,1.344-2.684,1.033-4.155
			c-2.488-11.742-6.604-22.912-11.996-33.412l5.991,1.35c14.997,3.375,29.382-7.993,29.382-23.5v-16.825
			c0-4.783-1.414-9.343-3.967-13.22c45.917,29.388,69.176,85.439,53.899,140.4C354.191,373.342,329.989,386.221,313.98,404.727z
			 M430.14,353.324c-9.19,8.199-20.301,9.172-30.004,4.505c-3.101-1.492-5.808-3.492-8.105-5.843
			c3.538-50.613-20.951-96.681-60.734-123.129c3.664-2.487,6.663-4.526,12.309-9.504c57.626,27.657,89.529,59.748,97.496,98.032
			C443.906,330.927,439.705,344.698,430.14,353.324z" style="fill:#3a4b81"/>
      <path d="M285.138 191.87c-2.708 0-4.899 2.194-4.899 4.899v2.184c0 5.332-4.34 9.67-9.67 9.67-5.33 0-9.67-4.337-9.67-9.67v-15.311c12.24-2.309 21.54-13.043 21.54-25.944 0-10.198-14.244-13.816-26.44-13.816-12.196 0-26.44 3.617-26.44 13.816 0 12.901 9.3 23.635 21.54 25.944v15.311c0 5.332-4.34 9.67-9.67 9.67-5.33 0-9.67-4.337-9.67-9.67v-2.184c0-2.706-2.191-4.899-4.899-4.899s-4.899 2.194-4.899 4.899v2.184c0 10.734 8.732 19.469 19.469 19.469 5.824 0 10.999-2.623 14.569-6.689 3.57 4.066 8.745 6.689 14.569 6.689 10.737 0 19.469-8.734 19.469-19.469v-2.184C290.038 194.064 287.847 191.87 285.138 191.87zM239.35 157.754c.459-1.158 6.091-4.072 16.65-4.072 10.483 0 16.105 2.871 16.641 4.048-.014 9.16-7.474 16.61-16.641 16.61C246.823 174.339 239.359 166.876 239.35 157.754zM302.698 126.23c9.507 0 16.957-11.189 16.957-25.473s-7.45-25.473-16.957-25.473c-9.512 0-16.961 11.189-16.961 25.473S293.186 126.23 302.698 126.23zM302.698 85.083c2.919 0 7.158 6.105 7.158 15.674s-4.239 15.674-7.158 15.674c-2.919 0-7.163-6.105-7.163-15.674S299.779 85.083 302.698 85.083zM209.307 126.23c9.507 0 16.957-11.189 16.957-25.473s-7.45-25.473-16.957-25.473c-9.512 0-16.961 11.189-16.961 25.473S199.796 126.23 209.307 126.23zM209.307 85.083c2.919 0 7.158 6.105 7.158 15.674s-4.239 15.674-7.158 15.674-7.163-6.105-7.163-15.674S206.389 85.083 209.307 85.083zM295.062 342.769c-8.942-4.835-19.488-5.462-28.932-1.742-4.263 1.679-7.808 4.189-10.603 7.497-6.689-8.72-15.11-10.861-21.569-10.94-11.368-.105-21.789 5.727-28.287 15.686-8.672 13.294-8.414 28.763.775 45.975 9.71 18.198 29.449 33.495 46.205 45.552 1.78 1.278 4.172 1.212 5.871-.112 19.971-15.557 33.794-28.571 43.506-40.954 7.052-8.997 10.828-19.93 10.631-30.786C312.413 358.984 305.589 348.46 295.062 342.769zM294.315 397.685c-8.737 11.143-21.153 22.952-38.918 36.997-14.459-10.632-31.856-24.222-40.31-40.049-7.478-14.014-7.875-25.791-1.206-36.007 4.598-7.057 11.942-11.244 19.693-11.244 8.591 0 13.828 4.832 17.497 12.677.828 1.763 2.641 2.974 4.555 2.823 1.943-.045 3.679-1.237 4.416-3.033 1.947-4.73 5.11-7.904 9.674-9.701 6.765-2.66 14.306-2.208 20.684 1.244 7.391 3.993 12.269 11.271 12.459 21.729C303.018 381.733 299.98 390.457 294.315 397.685z" style="fill:#3a4b81"/>
    </g>
  </g>
</svg>
