<svg xmlns="http://www.w3.org/2000/svg" xml:space="preserve" style="enable-background:new 0 0 512 512" viewBox="0 0 512 512">
  <g id="_x34_7_Valentine_Shopping">
    <g>
      <path d="M410.528,167.101l33.608,292.586c2.527,21.997-14.674,41.286-36.815,41.286H104.678
			c-22.142,0-39.342-19.289-36.815-41.286l33.608-292.586H410.528z" style="fill:#9a88fb"/>
      <polygon points="399.249 124.239 112.75 124.239 101.471 167.101 410.528 167.101" style="fill:#fff"/>
      <path d="M410.526,167.077H101.47l11.269-42.821h20.823c3.233,15.041,16.609,26.947,33.414,26.947h239.386
			L410.526,167.077z" style="fill:#e7e6fd"/>
      <path d="M361.325,214.006h-38.3V88.397c0-21.544-17.523-39.067-39.062-39.067h-55.927
			c-21.539,0-39.062,17.523-39.062,39.067v125.609h-38.3V88.397c0-42.662,34.705-77.367,77.362-77.367h55.927
			c42.657,0,77.362,34.705,77.362,77.367V214.006z" style="fill:#fbecb3"/>
      <circle cx="342.177" cy="216.494" r="30.353" style="fill:#fff" transform="rotate(-76.714 342.208 216.5)"/>
      <circle cx="169.822" cy="216.494" r="30.353" style="fill:#fff" transform="rotate(-76.714 169.84 216.505)"/>
      <path d="M364.227 237.286c-5.488 5.88-13.327 9.554-22.047 9.554-16.756 0-30.376-13.572-30.376-30.328 0-15.923 12.2-28.906 27.731-30.229-5.193 5.438-8.329 12.738-8.329 20.823 0 16.756 13.621 30.327 30.377 30.327C362.463 237.433 363.345 237.384 364.227 237.286zM191.914 237.286c-5.487 5.88-13.375 9.554-22.096 9.554-16.756 0-30.327-13.572-30.327-30.328 0-15.923 12.151-28.906 27.682-30.229-5.144 5.438-8.28 12.738-8.28 20.823 0 16.756 13.572 30.327 30.327 30.327C190.15 237.433 191.032 237.384 191.914 237.286z" style="fill:#e7e6fd"/>
      <path d="M255.144,307.833c-8.662-18.518-21.56-27.032-37.976-27.231
			c-17.204-0.209-32.975,9.243-42.376,23.654c-14.436,22.129-11.942,46.369,1.747,72.005c7.504,14.053,17.72,26.445,29.403,37.276
			c14.548,13.487,31.034,26.749,49.203,39.813c29.602-23.059,56.075-46.409,74.938-70.465
			c10.879-13.874,17.163-30.991,16.847-48.619c-0.076-4.269-0.519-8.293-1.307-12.086c-6.371-30.683-39.516-47.603-68.676-36.124
			C267.171,289.903,259.66,296.832,255.144,307.833z" style="fill:#fff"/>
      <path d="M296.811,418.32c-12.739,11.808-26.8,23.468-41.645,35.031
			c-18.177-13.082-34.688-26.31-49.239-39.833c-11.661-10.828-21.901-23.223-29.397-37.235
			c-13.67-25.673-16.168-49.876-1.715-72.022c6.761-10.436,16.952-18.275,28.564-21.705
			C213.716,340.125,248.6,389.119,296.811,418.32z" style="fill:#e7e6fd"/>
      <path d="M415.397,166.542c-0.019-0.168-0.061-0.429-0.129-0.689l-11.28-42.865
			c-0.567-2.148-2.514-3.651-4.739-3.651h-33.023V88.396c0-45.363-36.901-82.266-82.262-82.266h-55.927
			c-45.36,0-82.262,36.904-82.262,82.266v30.942h-33.026c-2.225,0-4.172,1.502-4.739,3.651l-11.28,42.865
			c-0.068,0.26-0.11,0.521-0.129,0.689L62.994,459.125c-2.845,24.814,16.542,46.746,41.683,46.746H407.32
			c24.975,0,44.553-21.765,41.683-46.746L415.397,166.542z M366.225,129.136h29.246l8.701,33.066h-37.947V129.136z M318.126,129.136
			v33.066H193.872v-33.066H318.126z M193.872,119.338V88.396c0-18.842,15.325-34.167,34.164-34.167h55.927
			c18.837,0,34.162,15.325,34.162,34.167v30.942H193.872z M342.178,191.04c14.033,0,25.452,11.421,25.452,25.454
			c0,14.033-11.418,25.454-25.452,25.454c-14.036,0-25.454-11.421-25.454-25.454C316.724,202.46,328.142,191.04,342.178,191.04z
			 M155.574,88.396c0-39.961,32.507-72.468,72.463-72.468h55.927c39.956,0,72.463,32.507,72.463,72.468v95.88
			c-9.111-4.046-19.375-4.051-28.502,0.002V88.396c0-24.244-19.72-43.966-43.961-43.966h-55.927
			c-24.241,0-43.963,19.722-43.963,43.966v95.881c-9.108-4.045-19.373-4.053-28.499-0.001V88.396z M169.822,191.04
			c14.036,0,25.454,11.421,25.454,25.454c0,14.033-11.418,25.454-25.454,25.454s-25.454-11.421-25.454-25.454
			C144.368,202.46,155.787,191.04,169.822,191.04z M116.527,129.136h29.248v33.066h-37.949L116.527,129.136z M407.32,496.072
			H104.678c-19.174,0-34.142-16.719-31.947-35.827l33.107-288.243h39.937v18.787c-6.877,6.436-11.206,15.564-11.206,25.705
			c0,19.44,15.815,35.253,35.253,35.253s35.253-15.813,35.253-35.253c0-10.14-4.328-19.266-11.203-25.703v-18.789h124.254v18.791
			c-6.874,6.437-11.201,15.563-11.201,25.701c0,19.44,15.815,35.253,35.253,35.253s35.251-15.813,35.251-35.253
			c0-10.14-4.328-19.268-11.203-25.705v-18.787h39.935l33.107,288.243C441.46,479.289,426.555,496.072,407.32,496.072z" style="fill:#3a4b81"/>
      <path d="M275.153,281.497c-8.478,3.335-15.201,8.703-20.074,16.014
			c-20.468-32.08-64.032-27.14-84.391,4.072c-14.442,22.134-13.928,48.037,1.526,76.984c16.763,31.381,51.056,57.909,80.07,78.759
			c0.854,0.617,1.856,0.923,2.859,0.923c1.065,0,2.127-0.345,3.01-1.033c34.822-27.124,58.903-49.779,75.786-71.305
			c15.687-20.015,20.718-44.312,16.481-64.726C343.472,287.722,307.324,268.838,275.153,281.497z M326.226,379.864
			c-15.906,20.287-38.583,41.746-71.197,67.358c-26.526-19.308-58.639-44.194-74.168-73.267
			c-13.837-25.918-14.478-47.836-1.966-67.018c17.644-27.046,55.846-31.152,71.812,2.971c0.823,1.766,2.612,2.794,4.555,2.823
			c1.945-0.048,3.677-1.239,4.416-3.038c3.813-9.292,10.05-15.531,19.064-19.076c26.629-10.482,56.395,5.161,62.085,32.559
			C344.527,341.013,339.987,362.314,326.226,379.864z" style="fill:#3a4b81"/>
    </g>
  </g>
</svg>
