<svg xmlns="http://www.w3.org/2000/svg" xml:space="preserve" style="enable-background:new 0 0 512 512" viewBox="0 0 512 512">
  <g id="_x34_4_Wine">
    <g>
      <path d="M250.841,269.768c-0.473,1.556-0.947,3.112-1.526,4.568c-20.138,59.7-72.148,96.306-117.957,82.367
			C89.345,343.918,66.7,292.961,75.946,237.767c1.041-6.552,2.594-13.219,4.602-19.817c5.492-18.05,13.9-34.057,24.228-47.439
			l152.367,46.364C258.205,233.722,256.333,251.718,250.841,269.768z" style="fill:#fff"/>
      <path d="M95.945,243.784l-0.152,0.498c-2.008,6.598-3.56,13.265-4.602,19.817
			c-4.174,25.116-1.808,49.297,5.946,69.406c-19.128-22.958-27.451-58.404-21.191-95.738c1.041-6.552,2.594-13.219,4.602-19.817
			c5.492-18.05,13.9-34.057,24.228-47.439l152.367,46.364c0.433,7.068,0.399,14.334-0.272,21.679l-94.918-28.883
			C134.318,201.261,104.478,216.187,95.945,243.784z" style="fill:#e7e6fd"/>
      <path d="M249.315,274.336c-20.138,59.7-72.148,96.306-117.957,82.367
			C89.345,343.918,66.7,292.961,75.946,237.767c4.552,0.909,8.876,2.565,12.711,5.16c5.282,3.647,9.207,8.854,13.369,13.724
			c14.378,16.888,34.069,31.517,56.248,31.261c14.134-0.187,27.469-6.466,41.075-10.283
			C215.551,273.107,232.686,271.996,249.315,274.336z" style="fill:#9a88fb"/>
      <path d="M299.041,269.768c0.473,1.556,0.947,3.112,1.526,4.568c20.138,59.7,72.148,96.306,117.957,82.367
			c42.013-12.784,64.658-63.742,55.411-118.936c-1.041-6.552-2.594-13.219-4.602-19.817c-5.492-18.05-13.9-34.057-24.228-47.439
			l-152.367,46.364C291.677,233.722,293.549,251.718,299.041,269.768z" style="fill:#fff"/>
      <path d="M453.937,243.784l0.152,0.498c2.008,6.598,3.56,13.265,4.602,19.817
			c4.174,25.116,1.808,49.297-5.947,69.406c19.128-22.958,27.451-58.404,21.191-95.738c-1.041-6.552-2.594-13.219-4.602-19.817
			c-5.492-18.05-13.9-34.057-24.228-47.439l-152.367,46.364c-0.433,7.068-0.399,14.334,0.272,21.679l94.918-28.883
			C415.564,201.261,445.404,216.187,453.937,243.784z" style="fill:#e7e6fd"/>
      <path d="M300.567,274.336c20.138,59.7,72.148,96.306,117.957,82.367
			c42.013-12.784,64.658-63.742,55.411-118.936c-4.552,0.909-8.876,2.565-12.711,5.16c-5.282,3.647-9.207,8.854-13.369,13.724
			c-14.378,16.888-34.069,31.517-56.248,31.261c-14.134-0.187-27.469-6.466-41.075-10.283
			C334.332,273.107,317.197,271.996,300.567,274.336z" style="fill:#9a88fb"/>
      <path d="M274.401 389.141c-5.462-11.677-13.595-17.045-23.946-17.171-10.848-.132-20.793 5.828-26.721 14.915-9.103 13.953-7.53 29.238 1.101 45.404 4.731 8.861 11.174 16.675 18.54 23.505 6.718 6.228 14.091 12.38 22.057 18.462 5.241 4.002 12.549 3.887 17.666-.272 15.128-12.295 28.542-24.749 38.555-37.518 6.86-8.748 10.822-19.542 10.623-30.657-.048-2.693-.328-5.23-.824-7.623-4.018-19.347-24.916-30.014-43.302-22.778C281.986 377.834 277.25 382.203 274.401 389.141zM431.288 28.202c-5.462-11.677-13.595-17.045-23.946-17.171-10.848-.132-20.793 5.829-26.721 14.915-9.103 13.953-7.53 29.238 1.101 45.404 4.731 8.861 11.174 16.675 18.54 23.505 6.718 6.228 14.091 12.38 22.057 18.462 5.241 4.002 12.549 3.887 17.666-.272 15.128-12.295 28.542-24.749 38.555-37.518 6.86-8.748 10.822-19.542 10.623-30.657-.048-2.693-.328-5.23-.824-7.623-4.018-19.347-24.916-30.014-43.302-22.778C438.872 16.895 434.136 21.264 431.288 28.202zM79.594 39.019c-5.462-11.677-13.595-17.045-23.946-17.171C44.8 21.717 34.855 27.677 28.927 36.764c-9.103 13.953-7.53 29.238 1.101 45.404 4.731 8.861 11.174 16.675 18.54 23.505 6.718 6.228 14.091 12.38 22.057 18.462 5.241 4.002 12.549 3.887 17.666-.272 15.128-12.295 28.542-24.749 38.555-37.518 6.86-8.748 10.822-19.542 10.623-30.657-.048-2.693-.328-5.23-.824-7.623-4.018-19.347-24.916-30.014-43.302-22.778C87.178 27.713 82.442 32.082 79.594 39.019z" style="fill:#fbecb3"/>
      <path d="M255.529 271.194c5.464-17.971 7.655-36.349 6.502-54.626-.129-2.043-1.507-3.785-3.464-4.383l-152.366-46.363c-1.947-.598-4.057.086-5.306 1.694-11.091 14.373-19.516 30.861-25.038 49.009-17.602 57.973-.815 124.091 49.463 143.166L86.782 486.333l-23.317-7.094c-2.584-.775-5.325.679-6.115 3.263-.785 2.588.675 5.325 3.263 6.115 80.128 24.38 48.125 14.643 56.013 17.043 2.567.778 5.318-.656 6.115-3.263.785-2.588-.675-5.325-3.263-6.115l-23.319-7.096 38.509-126.542C189.221 375.348 238.628 326.277 255.529 271.194zM85.235 219.377c4.832-15.885 12.024-30.397 21.392-43.181l145.796 44.363c.665 17.102-1.734 32.785-6.484 48.464-16.01-1.722-32.477-.417-47.917 3.889-13.714 3.854-27.049 10.105-40.32 10.105-23.301 0-42.526-18.478-51.956-29.55-7.705-9.193-12.675-15.604-24.114-19.259C82.576 229.309 83.723 224.354 85.235 219.377zM132.785 352.016c-42.983-13.08-58.528-63.346-52.727-108.015 7.756 2.892 11.353 7.618 18.235 15.826 12.847 15.091 33.535 32.99 59.391 32.99 15.222 0 29.222-6.597 42.98-10.469 13.505-3.77 27.896-5.076 41.942-3.842-.027.071-.057.139-.084.209C224.419 325.937 179.151 366.131 132.785 352.016zM492.534 482.501c-.789-2.584-3.521-4.038-6.115-3.263l-23.321 7.096-38.534-126.642c52.435-19.889 66.195-88.177 49.459-143.166-5.521-18.148-13.947-34.636-25.038-49.009-1.249-1.608-3.359-2.292-5.306-1.694l-152.366 46.363c-1.957.598-3.335 2.34-3.464 4.383-1.153 18.277 1.038 36.655 6.502 54.626 16.833 54.865 66.043 104.208 120.865 91.448l38.505 126.544-23.32 7.094c-2.588.789-4.048 3.526-3.263 6.115.796 2.606 3.547 4.041 6.115 3.263l56.018-17.043C491.859 487.827 493.318 485.09 492.534 482.501zM297.456 220.559l145.796-44.363c9.368 12.784 16.559 27.296 21.392 43.181 1.508 4.94 2.655 9.899 3.605 14.832-3.555 1.136-6.847 2.684-9.811 4.684-5.573 3.85-9.683 9.054-14.316 14.579-9.421 11.072-28.645 29.545-51.937 29.545-13.334 0-26.58-6.252-40.339-10.105-15.418-4.304-31.879-5.61-47.893-3.89C299.146 253.225 296.796 237.527 297.456 220.559zM417.1 352.016c-47.019 14.305-92.039-27.058-109.816-73.511 14.043-1.233 28.43.074 41.922 3.843 13.612 3.816 27.753 10.469 42.994 10.469 25.846-.005 46.54-17.904 59.377-32.985 4.355-5.19 8.035-9.837 12.387-12.847 1.775-1.2 3.74-2.194 5.861-2.983C475.749 289.387 458.808 339.323 417.1 352.016zM279.839 137.876v-21.631c0-2.708-2.191-4.899-4.899-4.899-2.708 0-4.899 2.191-4.899 4.899v21.631c0 2.708 2.191 4.899 4.899 4.899C277.648 142.776 279.839 140.584 279.839 137.876zM329.116 165.747l12.938-15.301c1.746-2.067 1.488-5.158-.579-6.904-2.067-1.751-5.158-1.488-6.904.579l-12.938 15.301c-1.746 2.067-1.488 5.158.579 6.904C324.257 168.062 327.357 167.826 329.116 165.747zM227.668 166.326c2.067-1.746 2.325-4.837.579-6.904l-12.933-15.301c-1.742-2.062-4.837-2.335-6.904-.579-2.067 1.746-2.325 4.837-.579 6.904l12.933 15.301C222.505 167.816 225.612 168.071 227.668 166.326zM262.461 478.152c7.092 5.42 16.859 5.22 23.727-.364 17.239-14.014 30.1-26.54 39.325-38.301 10.027-12.794 13.563-28.549 10.741-42.296-4.605-22.128-28.513-34.767-49.899-26.344-4.847 1.909-8.842 4.804-11.938 8.646-13.995-19.098-41.81-15.166-54.788 4.713-9.497 14.555-9.201 31.507.885 50.387C229.789 451.969 245.128 464.91 262.461 478.152zM227.84 389.565c10.328-15.834 32.656-18.584 42.128 1.651.818 1.761 2.507 2.732 4.555 2.823 1.943-.048 3.675-1.239 4.411-3.038 2.206-5.378 5.809-8.985 11.009-11.033 15.721-6.184 33.345 3.01 36.712 19.21 2.202 10.625-.439 23.53-8.856 34.263-8.765 11.177-21.129 23.196-37.794 36.741-3.383 2.746-8.158 2.809-11.598.182-16.303-12.453-30.941-24.824-39.253-40.382C220.769 414.273 220.338 401.053 227.84 389.565zM493.137 36.251c-4.588-22.098-28.463-34.775-49.894-26.344-4.847 1.909-8.842 4.804-11.942 8.651-14.102-19.286-41.981-14.897-54.784 4.708-9.493 14.555-9.201 31.507.885 50.391 9.235 17.311 24.604 30.319 41.947 43.554 7.092 5.42 16.859 5.22 23.727-.364 17.248-14.024 30.109-26.55 39.32-38.296C492.63 65.501 495.917 49.613 493.137 36.251zM474.682 72.504c-8.751 11.167-21.114 23.186-37.789 36.736-3.373 2.751-8.143 2.818-11.603.182-16.319-12.458-30.96-24.854-39.248-40.377-8.387-15.708-8.818-28.932-1.316-40.42 10.353-15.873 32.666-18.568 42.119 1.655.828 1.756 2.588 2.761 4.555 2.823 1.943-.048 3.679-1.239 4.416-3.038 2.215-5.383 5.813-8.99 11.014-11.038 15.682-6.174 33.345 2.973 36.707 19.22C485.759 48.915 483.067 61.807 474.682 72.504zM67.652 128.03c7.018 5.353 16.773 5.277 23.732-.364 17.225-14.005 30.09-26.531 39.32-38.296 10.233-13.056 13.519-28.936 10.741-42.301-4.619-22.209-28.587-34.736-49.894-26.344-4.852 1.909-8.847 4.804-11.942 8.646C65.665 10.344 37.85 14.122 24.82 34.089c-9.493 14.55-9.191 31.507.89 50.387C34.929 101.772 50.265 114.748 67.652 128.03zM33.03 39.443c10.328-15.834 32.656-18.584 42.128 1.651.804 1.727 2.536 2.823 4.435 2.823.038 0 .077 0 .12 0 1.943-.048 3.675-1.239 4.411-3.038 2.21-5.378 5.809-8.985 11.014-11.033 15.685-6.18 33.339 2.983 36.707 19.22 2.225 10.595-.455 23.547-8.856 34.258-8.775 11.186-21.134 23.201-37.789 36.736-3.373 2.751-8.148 2.818-11.603.182-15.448-11.798-30.784-24.526-39.248-40.377C25.968 64.155 25.533 50.931 33.03 39.443z" style="fill:#3a4b81"/>
    </g>
  </g>
</svg>
